<?xml version="1.0" encoding="utf-8" standalone="no"?>
<!DOCTYPE svg PUBLIC "-//W3C//DTD SVG 1.1//EN"
  "http://www.w3.org/Graphics/SVG/1.1/DTD/svg11.dtd">
<!-- Created with matplotlib (https://matplotlib.org/) -->
<svg height="288pt" version="1.1" viewBox="0 0 288 288" width="288pt" xmlns="http://www.w3.org/2000/svg" xmlns:xlink="http://www.w3.org/1999/xlink">
 <defs>
  <style type="text/css">
*{stroke-linecap:butt;stroke-linejoin:round;}
  </style>
 </defs>
 <g id="figure_1">
  <g id="patch_1">
   <path d="M 0 288 
L 288 288 
L 288 0 
L 0 0 
z
" style="fill:#ffffff;"/>
  </g>
  <g id="axes_1">
   <g id="patch_2">
    <path d="M 36 256.32 
L 259.2 256.32 
L 259.2 34.56 
L 36 34.56 
z
" style="fill:#ffffff;"/>
   </g>
   <g id="patch_3">
    <path clip-path="url(#pab3339beaf)" d="M -46.242886 256.32 
L -37.200182 256.32 
L -37.200182 255.369639 
L -46.242886 255.369639 
z
" style="fill:#0000ff;opacity:0.5;stroke:#ffffff;stroke-linejoin:miter;stroke-width:0.2;"/>
   </g>
   <g id="patch_4">
    <path clip-path="url(#pab3339beaf)" d="M -37.200182 256.32 
L -28.157479 256.32 
L -28.157479 254.69081 
L -37.200182 254.69081 
z
" style="fill:#0000ff;opacity:0.5;stroke:#ffffff;stroke-linejoin:miter;stroke-width:0.2;"/>
   </g>
   <g id="patch_5">
    <path clip-path="url(#pab3339beaf)" d="M -28.157479 256.32 
L -19.114775 256.32 
L -19.114775 254.01198 
L -28.157479 254.01198 
z
" style="fill:#0000ff;opacity:0.5;stroke:#ffffff;stroke-linejoin:miter;stroke-width:0.2;"/>
   </g>
   <g id="patch_6">
    <path clip-path="url(#pab3339beaf)" d="M -19.114775 256.32 
L -10.072072 256.32 
L -10.072072 253.333151 
L -19.114775 253.333151 
z
" style="fill:#0000ff;opacity:0.5;stroke:#ffffff;stroke-linejoin:miter;stroke-width:0.2;"/>
   </g>
   <g id="patch_7">
    <path clip-path="url(#pab3339beaf)" d="M -10.072072 256.32 
L -1.029368 256.32 
L -1.029368 252.85797 
L -10.072072 252.85797 
z
" style="fill:#0000ff;opacity:0.5;stroke:#ffffff;stroke-linejoin:miter;stroke-width:0.2;"/>
   </g>
   <g id="patch_8">
    <path clip-path="url(#pab3339beaf)" d="M -1.029368 256.32 
L 8.013335 256.32 
L 8.013335 247.902516 
L -1.029368 247.902516 
z
" style="fill:#0000ff;opacity:0.5;stroke:#ffffff;stroke-linejoin:miter;stroke-width:0.2;"/>
   </g>
   <g id="patch_9">
    <path clip-path="url(#pab3339beaf)" d="M 8.013335 256.32 
L 17.056039 256.32 
L 17.056039 243.965306 
L 8.013335 243.965306 
z
" style="fill:#0000ff;opacity:0.5;stroke:#ffffff;stroke-linejoin:miter;stroke-width:0.2;"/>
   </g>
   <g id="patch_10">
    <path clip-path="url(#pab3339beaf)" d="M 17.056039 256.32 
L 26.098742 256.32 
L 26.098742 240.435393 
L 17.056039 240.435393 
z
" style="fill:#0000ff;opacity:0.5;stroke:#ffffff;stroke-linejoin:miter;stroke-width:0.2;"/>
   </g>
   <g id="patch_11">
    <path clip-path="url(#pab3339beaf)" d="M 26.098742 256.32 
L 35.141445 256.32 
L 35.141445 232.560973 
L 26.098742 232.560973 
z
" style="fill:#0000ff;opacity:0.5;stroke:#ffffff;stroke-linejoin:miter;stroke-width:0.2;"/>
   </g>
   <g id="patch_12">
    <path clip-path="url(#pab3339beaf)" d="M 35.141445 256.32 
L 44.184149 256.32 
L 44.184149 222.514299 
L 35.141445 222.514299 
z
" style="fill:#0000ff;opacity:0.5;stroke:#ffffff;stroke-linejoin:miter;stroke-width:0.2;"/>
   </g>
   <g id="patch_13">
    <path clip-path="url(#pab3339beaf)" d="M 44.184149 256.32 
L 53.226852 256.32 
L 53.226852 220.206279 
L 44.184149 220.206279 
z
" style="fill:#0000ff;opacity:0.5;stroke:#ffffff;stroke-linejoin:miter;stroke-width:0.2;"/>
   </g>
   <g id="patch_14">
    <path clip-path="url(#pab3339beaf)" d="M 53.226852 256.32 
L 62.269556 256.32 
L 62.269556 214.504113 
L 53.226852 214.504113 
z
" style="fill:#0000ff;opacity:0.5;stroke:#ffffff;stroke-linejoin:miter;stroke-width:0.2;"/>
   </g>
   <g id="patch_15">
    <path clip-path="url(#pab3339beaf)" d="M 62.269556 256.32 
L 71.312259 256.32 
L 71.312259 198.958921 
L 62.269556 198.958921 
z
" style="fill:#0000ff;opacity:0.5;stroke:#ffffff;stroke-linejoin:miter;stroke-width:0.2;"/>
   </g>
   <g id="patch_16">
    <path clip-path="url(#pab3339beaf)" d="M 71.312259 256.32 
L 80.354963 256.32 
L 80.354963 190.066256 
L 71.312259 190.066256 
z
" style="fill:#0000ff;opacity:0.5;stroke:#ffffff;stroke-linejoin:miter;stroke-width:0.2;"/>
   </g>
   <g id="patch_17">
    <path clip-path="url(#pab3339beaf)" d="M 80.354963 256.32 
L 89.397666 256.32 
L 89.397666 178.11886 
L 80.354963 178.11886 
z
" style="fill:#0000ff;opacity:0.5;stroke:#ffffff;stroke-linejoin:miter;stroke-width:0.2;"/>
   </g>
   <g id="patch_18">
    <path clip-path="url(#pab3339beaf)" d="M 89.397666 256.32 
L 98.44037 256.32 
L 98.44037 176.014489 
L 89.397666 176.014489 
z
" style="fill:#0000ff;opacity:0.5;stroke:#ffffff;stroke-linejoin:miter;stroke-width:0.2;"/>
   </g>
   <g id="patch_19">
    <path clip-path="url(#pab3339beaf)" d="M 98.44037 256.32 
L 107.483073 256.32 
L 107.483073 163.048848 
L 98.44037 163.048848 
z
" style="fill:#0000ff;opacity:0.5;stroke:#ffffff;stroke-linejoin:miter;stroke-width:0.2;"/>
   </g>
   <g id="patch_20">
    <path clip-path="url(#pab3339beaf)" d="M 107.483073 256.32 
L 116.525777 256.32 
L 116.525777 168.343717 
L 107.483073 168.343717 
z
" style="fill:#0000ff;opacity:0.5;stroke:#ffffff;stroke-linejoin:miter;stroke-width:0.2;"/>
   </g>
   <g id="patch_21">
    <path clip-path="url(#pab3339beaf)" d="M 116.525777 256.32 
L 125.56848 256.32 
L 125.56848 167.529122 
L 116.525777 167.529122 
z
" style="fill:#0000ff;opacity:0.5;stroke:#ffffff;stroke-linejoin:miter;stroke-width:0.2;"/>
   </g>
   <g id="patch_22">
    <path clip-path="url(#pab3339beaf)" d="M 125.56848 256.32 
L 134.611184 256.32 
L 134.611184 172.145162 
L 125.56848 172.145162 
z
" style="fill:#0000ff;opacity:0.5;stroke:#ffffff;stroke-linejoin:miter;stroke-width:0.2;"/>
   </g>
   <g id="patch_23">
    <path clip-path="url(#pab3339beaf)" d="M 134.611184 256.32 
L 143.653887 256.32 
L 143.653887 171.669981 
L 134.611184 171.669981 
z
" style="fill:#0000ff;opacity:0.5;stroke:#ffffff;stroke-linejoin:miter;stroke-width:0.2;"/>
   </g>
   <g id="patch_24">
    <path clip-path="url(#pab3339beaf)" d="M 143.653887 256.32 
L 152.696591 256.32 
L 152.696591 168.547366 
L 143.653887 168.547366 
z
" style="fill:#0000ff;opacity:0.5;stroke:#ffffff;stroke-linejoin:miter;stroke-width:0.2;"/>
   </g>
   <g id="patch_25">
    <path clip-path="url(#pab3339beaf)" d="M 152.696591 256.32 
L 161.739294 256.32 
L 161.739294 165.424751 
L 152.696591 165.424751 
z
" style="fill:#0000ff;opacity:0.5;stroke:#ffffff;stroke-linejoin:miter;stroke-width:0.2;"/>
   </g>
   <g id="patch_26">
    <path clip-path="url(#pab3339beaf)" d="M 161.739294 256.32 
L 170.781998 256.32 
L 170.781998 159.38317 
L 161.739294 159.38317 
z
" style="fill:#0000ff;opacity:0.5;stroke:#ffffff;stroke-linejoin:miter;stroke-width:0.2;"/>
   </g>
   <g id="patch_27">
    <path clip-path="url(#pab3339beaf)" d="M 170.781998 256.32 
L 179.824701 256.32 
L 179.824701 146.824827 
L 170.781998 146.824827 
z
" style="fill:#0000ff;opacity:0.5;stroke:#ffffff;stroke-linejoin:miter;stroke-width:0.2;"/>
   </g>
   <g id="patch_28">
    <path clip-path="url(#pab3339beaf)" d="M 179.824701 256.32 
L 188.867405 256.32 
L 188.867405 149.132847 
L 179.824701 149.132847 
z
" style="fill:#0000ff;opacity:0.5;stroke:#ffffff;stroke-linejoin:miter;stroke-width:0.2;"/>
   </g>
   <g id="patch_29">
    <path clip-path="url(#pab3339beaf)" d="M 188.867405 256.32 
L 197.910108 256.32 
L 197.910108 158.568575 
L 188.867405 158.568575 
z
" style="fill:#0000ff;opacity:0.5;stroke:#ffffff;stroke-linejoin:miter;stroke-width:0.2;"/>
   </g>
   <g id="patch_30">
    <path clip-path="url(#pab3339beaf)" d="M 197.910108 256.32 
L 206.952812 256.32 
L 206.952812 168.275834 
L 197.910108 168.275834 
z
" style="fill:#0000ff;opacity:0.5;stroke:#ffffff;stroke-linejoin:miter;stroke-width:0.2;"/>
   </g>
   <g id="patch_31">
    <path clip-path="url(#pab3339beaf)" d="M 206.952812 256.32 
L 215.995515 256.32 
L 215.995515 192.781574 
L 206.952812 192.781574 
z
" style="fill:#0000ff;opacity:0.5;stroke:#ffffff;stroke-linejoin:miter;stroke-width:0.2;"/>
   </g>
   <g id="patch_32">
    <path clip-path="url(#pab3339beaf)" d="M 215.995515 256.32 
L 225.038219 256.32 
L 225.038219 210.838434 
L 215.995515 210.838434 
z
" style="fill:#0000ff;opacity:0.5;stroke:#ffffff;stroke-linejoin:miter;stroke-width:0.2;"/>
   </g>
   <g id="patch_33">
    <path clip-path="url(#pab3339beaf)" d="M 225.038219 256.32 
L 234.080922 256.32 
L 234.080922 223.46466 
L 225.038219 223.46466 
z
" style="fill:#0000ff;opacity:0.5;stroke:#ffffff;stroke-linejoin:miter;stroke-width:0.2;"/>
   </g>
   <g id="patch_34">
    <path clip-path="url(#pab3339beaf)" d="M 234.080922 256.32 
L 243.123626 256.32 
L 243.123626 237.041247 
L 234.080922 237.041247 
z
" style="fill:#0000ff;opacity:0.5;stroke:#ffffff;stroke-linejoin:miter;stroke-width:0.2;"/>
   </g>
   <g id="patch_35">
    <path clip-path="url(#pab3339beaf)" d="M 243.123626 256.32 
L 252.166329 256.32 
L 252.166329 245.322965 
L 243.123626 245.322965 
z
" style="fill:#0000ff;opacity:0.5;stroke:#ffffff;stroke-linejoin:miter;stroke-width:0.2;"/>
   </g>
   <g id="patch_36">
    <path clip-path="url(#pab3339beaf)" d="M 252.166329 256.32 
L 261.209033 256.32 
L 261.209033 248.174048 
L 252.166329 248.174048 
z
" style="fill:#0000ff;opacity:0.5;stroke:#ffffff;stroke-linejoin:miter;stroke-width:0.2;"/>
   </g>
   <g id="patch_37">
    <path clip-path="url(#pab3339beaf)" d="M 261.209033 256.32 
L 270.251736 256.32 
L 270.251736 251.500312 
L 261.209033 251.500312 
z
" style="fill:#0000ff;opacity:0.5;stroke:#ffffff;stroke-linejoin:miter;stroke-width:0.2;"/>
   </g>
   <g id="patch_38">
    <path clip-path="url(#pab3339beaf)" d="M 270.251736 256.32 
L 279.29444 256.32 
L 279.29444 253.604683 
L 270.251736 253.604683 
z
" style="fill:#0000ff;opacity:0.5;stroke:#ffffff;stroke-linejoin:miter;stroke-width:0.2;"/>
   </g>
   <g id="patch_39">
    <path clip-path="url(#pab3339beaf)" d="M 279.29444 256.32 
L 288.337143 256.32 
L 288.337143 253.808331 
L 279.29444 253.808331 
z
" style="fill:#0000ff;opacity:0.5;stroke:#ffffff;stroke-linejoin:miter;stroke-width:0.2;"/>
   </g>
   <g id="patch_40">
    <path clip-path="url(#pab3339beaf)" d="M 288.337143 256.32 
L 297.379847 256.32 
L 297.379847 254.487161 
L 288.337143 254.487161 
z
" style="fill:#0000ff;opacity:0.5;stroke:#ffffff;stroke-linejoin:miter;stroke-width:0.2;"/>
   </g>
   <g id="patch_41">
    <path clip-path="url(#pab3339beaf)" d="M 297.379847 256.32 
L 306.42255 256.32 
L 306.42255 255.709054 
L 297.379847 255.709054 
z
" style="fill:#0000ff;opacity:0.5;stroke:#ffffff;stroke-linejoin:miter;stroke-width:0.2;"/>
   </g>
   <g id="patch_42">
    <path clip-path="url(#pab3339beaf)" d="M 306.42255 256.32 
L 315.465254 256.32 
L 315.465254 255.573288 
L 306.42255 255.573288 
z
" style="fill:#0000ff;opacity:0.5;stroke:#ffffff;stroke-linejoin:miter;stroke-width:0.2;"/>
   </g>
   <g id="patch_43">
    <path clip-path="url(#pab3339beaf)" d="M 315.465254 256.32 
L 324.507957 256.32 
L 324.507957 255.980585 
L 315.465254 255.980585 
z
" style="fill:#0000ff;opacity:0.5;stroke:#ffffff;stroke-linejoin:miter;stroke-width:0.2;"/>
   </g>
   <g id="patch_44">
    <path clip-path="url(#pab3339beaf)" d="M 324.507957 256.32 
L 333.550661 256.32 
L 333.550661 255.709054 
L 324.507957 255.709054 
z
" style="fill:#0000ff;opacity:0.5;stroke:#ffffff;stroke-linejoin:miter;stroke-width:0.2;"/>
   </g>
   <g id="patch_45">
    <path clip-path="url(#pab3339beaf)" d="M 333.550661 256.32 
L 342.593364 256.32 
L 342.593364 255.844819 
L 333.550661 255.844819 
z
" style="fill:#0000ff;opacity:0.5;stroke:#ffffff;stroke-linejoin:miter;stroke-width:0.2;"/>
   </g>
   <g id="patch_46">
    <path clip-path="url(#pab3339beaf)" d="M 342.593364 256.32 
L 351.636067 256.32 
L 351.636067 256.184234 
L 342.593364 256.184234 
z
" style="fill:#0000ff;opacity:0.5;stroke:#ffffff;stroke-linejoin:miter;stroke-width:0.2;"/>
   </g>
   <g id="patch_47">
    <path clip-path="url(#pab3339beaf)" d="M 351.636067 256.32 
L 360.678771 256.32 
L 360.678771 256.32 
L 351.636067 256.32 
z
" style="fill:#0000ff;opacity:0.5;stroke:#ffffff;stroke-linejoin:miter;stroke-width:0.2;"/>
   </g>
   <g id="patch_48">
    <path clip-path="url(#pab3339beaf)" d="M 360.678771 256.32 
L 369.721474 256.32 
L 369.721474 256.184234 
L 360.678771 256.184234 
z
" style="fill:#0000ff;opacity:0.5;stroke:#ffffff;stroke-linejoin:miter;stroke-width:0.2;"/>
   </g>
   <g id="patch_49">
    <path clip-path="url(#pab3339beaf)" d="M 369.721474 256.32 
L 378.764178 256.32 
L 378.764178 256.048468 
L 369.721474 256.048468 
z
" style="fill:#0000ff;opacity:0.5;stroke:#ffffff;stroke-linejoin:miter;stroke-width:0.2;"/>
   </g>
   <g id="patch_50">
    <path clip-path="url(#pab3339beaf)" d="M 378.764178 256.32 
L 387.806881 256.32 
L 387.806881 256.184234 
L 378.764178 256.184234 
z
" style="fill:#0000ff;opacity:0.5;stroke:#ffffff;stroke-linejoin:miter;stroke-width:0.2;"/>
   </g>
   <g id="patch_51">
    <path clip-path="url(#pab3339beaf)" d="M 387.806881 256.32 
L 396.849585 256.32 
L 396.849585 256.252117 
L 387.806881 256.252117 
z
" style="fill:#0000ff;opacity:0.5;stroke:#ffffff;stroke-linejoin:miter;stroke-width:0.2;"/>
   </g>
   <g id="patch_52">
    <path clip-path="url(#pab3339beaf)" d="M 396.849585 256.32 
L 405.892288 256.32 
L 405.892288 256.252117 
L 396.849585 256.252117 
z
" style="fill:#0000ff;opacity:0.5;stroke:#ffffff;stroke-linejoin:miter;stroke-width:0.2;"/>
   </g>
   <g id="patch_53">
    <path clip-path="url(#pab3339beaf)" d="M 39.7113 256.32 
L 46.166557 256.32 
L 46.166557 255.749446 
L 39.7113 255.749446 
z
" style="fill:#ff0000;opacity:0.5;stroke:#ffffff;stroke-linejoin:miter;stroke-width:0.2;"/>
   </g>
   <g id="patch_54">
    <path clip-path="url(#pab3339beaf)" d="M 46.166557 256.32 
L 52.621814 256.32 
L 52.621814 255.559262 
L 46.166557 255.559262 
z
" style="fill:#ff0000;opacity:0.5;stroke:#ffffff;stroke-linejoin:miter;stroke-width:0.2;"/>
   </g>
   <g id="patch_55">
    <path clip-path="url(#pab3339beaf)" d="M 52.621814 256.32 
L 59.077071 256.32 
L 59.077071 255.0838 
L 52.621814 255.0838 
z
" style="fill:#ff0000;opacity:0.5;stroke:#ffffff;stroke-linejoin:miter;stroke-width:0.2;"/>
   </g>
   <g id="patch_56">
    <path clip-path="url(#pab3339beaf)" d="M 59.077071 256.32 
L 65.532328 256.32 
L 65.532328 254.227969 
L 59.077071 254.227969 
z
" style="fill:#ff0000;opacity:0.5;stroke:#ffffff;stroke-linejoin:miter;stroke-width:0.2;"/>
   </g>
   <g id="patch_57">
    <path clip-path="url(#pab3339beaf)" d="M 65.532328 256.32 
L 71.987585 256.32 
L 71.987585 252.326123 
L 65.532328 252.326123 
z
" style="fill:#ff0000;opacity:0.5;stroke:#ffffff;stroke-linejoin:miter;stroke-width:0.2;"/>
   </g>
   <g id="patch_58">
    <path clip-path="url(#pab3339beaf)" d="M 71.987585 256.32 
L 78.442842 256.32 
L 78.442842 247.191139 
L 71.987585 247.191139 
z
" style="fill:#ff0000;opacity:0.5;stroke:#ffffff;stroke-linejoin:miter;stroke-width:0.2;"/>
   </g>
   <g id="patch_59">
    <path clip-path="url(#pab3339beaf)" d="M 78.442842 256.32 
L 84.898099 256.32 
L 84.898099 239.964124 
L 78.442842 239.964124 
z
" style="fill:#ff0000;opacity:0.5;stroke:#ffffff;stroke-linejoin:miter;stroke-width:0.2;"/>
   </g>
   <g id="patch_60">
    <path clip-path="url(#pab3339beaf)" d="M 84.898099 256.32 
L 91.353356 256.32 
L 91.353356 229.694156 
L 84.898099 229.694156 
z
" style="fill:#ff0000;opacity:0.5;stroke:#ffffff;stroke-linejoin:miter;stroke-width:0.2;"/>
   </g>
   <g id="patch_61">
    <path clip-path="url(#pab3339beaf)" d="M 91.353356 256.32 
L 97.808613 256.32 
L 97.808613 216.476326 
L 91.353356 216.476326 
z
" style="fill:#ff0000;opacity:0.5;stroke:#ffffff;stroke-linejoin:miter;stroke-width:0.2;"/>
   </g>
   <g id="patch_62">
    <path clip-path="url(#pab3339beaf)" d="M 97.808613 256.32 
L 104.26387 256.32 
L 104.26387 190.61122 
L 97.808613 190.61122 
z
" style="fill:#ff0000;opacity:0.5;stroke:#ffffff;stroke-linejoin:miter;stroke-width:0.2;"/>
   </g>
   <g id="patch_63">
    <path clip-path="url(#pab3339beaf)" d="M 104.26387 256.32 
L 110.719127 256.32 
L 110.719127 164.365745 
L 104.26387 164.365745 
z
" style="fill:#ff0000;opacity:0.5;stroke:#ffffff;stroke-linejoin:miter;stroke-width:0.2;"/>
   </g>
   <g id="patch_64">
    <path clip-path="url(#pab3339beaf)" d="M 110.719127 256.32 
L 117.174384 256.32 
L 117.174384 143.06507 
L 110.719127 143.06507 
z
" style="fill:#ff0000;opacity:0.5;stroke:#ffffff;stroke-linejoin:miter;stroke-width:0.2;"/>
   </g>
   <g id="patch_65">
    <path clip-path="url(#pab3339beaf)" d="M 117.174384 256.32 
L 123.629641 256.32 
L 123.629641 107.12018 
L 117.174384 107.12018 
z
" style="fill:#ff0000;opacity:0.5;stroke:#ffffff;stroke-linejoin:miter;stroke-width:0.2;"/>
   </g>
   <g id="patch_66">
    <path clip-path="url(#pab3339beaf)" d="M 123.629641 256.32 
L 130.084898 256.32 
L 130.084898 93.236704 
L 123.629641 93.236704 
z
" style="fill:#ff0000;opacity:0.5;stroke:#ffffff;stroke-linejoin:miter;stroke-width:0.2;"/>
   </g>
   <g id="patch_67">
    <path clip-path="url(#pab3339beaf)" d="M 130.084898 256.32 
L 136.540155 256.32 
L 136.540155 85.439136 
L 130.084898 85.439136 
z
" style="fill:#ff0000;opacity:0.5;stroke:#ffffff;stroke-linejoin:miter;stroke-width:0.2;"/>
   </g>
   <g id="patch_68">
    <path clip-path="url(#pab3339beaf)" d="M 136.540155 256.32 
L 142.995412 256.32 
L 142.995412 57.10163 
L 136.540155 57.10163 
z
" style="fill:#ff0000;opacity:0.5;stroke:#ffffff;stroke-linejoin:miter;stroke-width:0.2;"/>
   </g>
   <g id="patch_69">
    <path clip-path="url(#pab3339beaf)" d="M 142.995412 256.32 
L 149.45067 256.32 
L 149.45067 69.93909 
L 142.995412 69.93909 
z
" style="fill:#ff0000;opacity:0.5;stroke:#ffffff;stroke-linejoin:miter;stroke-width:0.2;"/>
   </g>
   <g id="patch_70">
    <path clip-path="url(#pab3339beaf)" d="M 149.45067 256.32 
L 155.905927 256.32 
L 155.905927 57.767276 
L 149.45067 57.767276 
z
" style="fill:#ff0000;opacity:0.5;stroke:#ffffff;stroke-linejoin:miter;stroke-width:0.2;"/>
   </g>
   <g id="patch_71">
    <path clip-path="url(#pab3339beaf)" d="M 155.905927 256.32 
L 162.361184 256.32 
L 162.361184 45.12 
L 155.905927 45.12 
z
" style="fill:#ff0000;opacity:0.5;stroke:#ffffff;stroke-linejoin:miter;stroke-width:0.2;"/>
   </g>
   <g id="patch_72">
    <path clip-path="url(#pab3339beaf)" d="M 162.361184 256.32 
L 168.816441 256.32 
L 168.816441 56.816353 
L 162.361184 56.816353 
z
" style="fill:#ff0000;opacity:0.5;stroke:#ffffff;stroke-linejoin:miter;stroke-width:0.2;"/>
   </g>
   <g id="patch_73">
    <path clip-path="url(#pab3339beaf)" d="M 168.816441 256.32 
L 175.271698 256.32 
L 175.271698 87.436074 
L 168.816441 87.436074 
z
" style="fill:#ff0000;opacity:0.5;stroke:#ffffff;stroke-linejoin:miter;stroke-width:0.2;"/>
   </g>
   <g id="patch_74">
    <path clip-path="url(#pab3339beaf)" d="M 175.271698 256.32 
L 181.726955 256.32 
L 181.726955 101.985196 
L 175.271698 101.985196 
z
" style="fill:#ff0000;opacity:0.5;stroke:#ffffff;stroke-linejoin:miter;stroke-width:0.2;"/>
   </g>
   <g id="patch_75">
    <path clip-path="url(#pab3339beaf)" d="M 181.726955 256.32 
L 188.182212 256.32 
L 188.182212 133.936209 
L 181.726955 133.936209 
z
" style="fill:#ff0000;opacity:0.5;stroke:#ffffff;stroke-linejoin:miter;stroke-width:0.2;"/>
   </g>
   <g id="patch_76">
    <path clip-path="url(#pab3339beaf)" d="M 188.182212 256.32 
L 194.637469 256.32 
L 194.637469 177.488483 
L 188.182212 177.488483 
z
" style="fill:#ff0000;opacity:0.5;stroke:#ffffff;stroke-linejoin:miter;stroke-width:0.2;"/>
   </g>
   <g id="patch_77">
    <path clip-path="url(#pab3339beaf)" d="M 194.637469 256.32 
L 201.092726 256.32 
L 201.092726 205.730896 
L 194.637469 205.730896 
z
" style="fill:#ff0000;opacity:0.5;stroke:#ffffff;stroke-linejoin:miter;stroke-width:0.2;"/>
   </g>
   <g id="patch_78">
    <path clip-path="url(#pab3339beaf)" d="M 201.092726 256.32 
L 207.547983 256.32 
L 207.547983 232.35674 
L 201.092726 232.35674 
z
" style="fill:#ff0000;opacity:0.5;stroke:#ffffff;stroke-linejoin:miter;stroke-width:0.2;"/>
   </g>
   <g id="patch_79">
    <path clip-path="url(#pab3339beaf)" d="M 207.547983 256.32 
L 214.00324 256.32 
L 214.00324 241.01014 
L 207.547983 241.01014 
z
" style="fill:#ff0000;opacity:0.5;stroke:#ffffff;stroke-linejoin:miter;stroke-width:0.2;"/>
   </g>
   <g id="patch_80">
    <path clip-path="url(#pab3339beaf)" d="M 214.00324 256.32 
L 220.458497 256.32 
L 220.458497 246.050032 
L 214.00324 246.050032 
z
" style="fill:#ff0000;opacity:0.5;stroke:#ffffff;stroke-linejoin:miter;stroke-width:0.2;"/>
   </g>
   <g id="patch_81">
    <path clip-path="url(#pab3339beaf)" d="M 220.458497 256.32 
L 226.913754 256.32 
L 226.913754 250.709554 
L 220.458497 250.709554 
z
" style="fill:#ff0000;opacity:0.5;stroke:#ffffff;stroke-linejoin:miter;stroke-width:0.2;"/>
   </g>
   <g id="patch_82">
    <path clip-path="url(#pab3339beaf)" d="M 226.913754 256.32 
L 233.369011 256.32 
L 233.369011 250.899739 
L 226.913754 250.899739 
z
" style="fill:#ff0000;opacity:0.5;stroke:#ffffff;stroke-linejoin:miter;stroke-width:0.2;"/>
   </g>
   <g id="patch_83">
    <path clip-path="url(#pab3339beaf)" d="M 233.369011 256.32 
L 239.824268 256.32 
L 239.824268 253.942692 
L 233.369011 253.942692 
z
" style="fill:#ff0000;opacity:0.5;stroke:#ffffff;stroke-linejoin:miter;stroke-width:0.2;"/>
   </g>
   <g id="patch_84">
    <path clip-path="url(#pab3339beaf)" d="M 239.824268 256.32 
L 246.279525 256.32 
L 246.279525 255.654354 
L 239.824268 255.654354 
z
" style="fill:#ff0000;opacity:0.5;stroke:#ffffff;stroke-linejoin:miter;stroke-width:0.2;"/>
   </g>
   <g id="patch_85">
    <path clip-path="url(#pab3339beaf)" d="M 246.279525 256.32 
L 252.734782 256.32 
L 252.734782 255.654354 
L 246.279525 255.654354 
z
" style="fill:#ff0000;opacity:0.5;stroke:#ffffff;stroke-linejoin:miter;stroke-width:0.2;"/>
   </g>
   <g id="patch_86">
    <path clip-path="url(#pab3339beaf)" d="M 252.734782 256.32 
L 259.190039 256.32 
L 259.190039 256.034723 
L 252.734782 256.034723 
z
" style="fill:#ff0000;opacity:0.5;stroke:#ffffff;stroke-linejoin:miter;stroke-width:0.2;"/>
   </g>
   <g id="patch_87">
    <path clip-path="url(#pab3339beaf)" d="M 259.190039 256.32 
L 265.645297 256.32 
L 265.645297 255.369077 
L 259.190039 255.369077 
z
" style="fill:#ff0000;opacity:0.5;stroke:#ffffff;stroke-linejoin:miter;stroke-width:0.2;"/>
   </g>
   <g id="patch_88">
    <path clip-path="url(#pab3339beaf)" d="M 265.645297 256.32 
L 272.100554 256.32 
L 272.100554 256.224908 
L 265.645297 256.224908 
z
" style="fill:#ff0000;opacity:0.5;stroke:#ffffff;stroke-linejoin:miter;stroke-width:0.2;"/>
   </g>
   <g id="patch_89">
    <path clip-path="url(#pab3339beaf)" d="M 272.100554 256.32 
L 278.555811 256.32 
L 278.555811 256.32 
L 272.100554 256.32 
z
" style="fill:#ff0000;opacity:0.5;stroke:#ffffff;stroke-linejoin:miter;stroke-width:0.2;"/>
   </g>
   <g id="patch_90">
    <path clip-path="url(#pab3339beaf)" d="M 278.555811 256.32 
L 285.011068 256.32 
L 285.011068 256.32 
L 278.555811 256.32 
z
" style="fill:#ff0000;opacity:0.5;stroke:#ffffff;stroke-linejoin:miter;stroke-width:0.2;"/>
   </g>
   <g id="patch_91">
    <path clip-path="url(#pab3339beaf)" d="M 285.011068 256.32 
L 291.466325 256.32 
L 291.466325 256.32 
L 285.011068 256.32 
z
" style="fill:#ff0000;opacity:0.5;stroke:#ffffff;stroke-linejoin:miter;stroke-width:0.2;"/>
   </g>
   <g id="patch_92">
    <path clip-path="url(#pab3339beaf)" d="M 291.466325 256.32 
L 297.921582 256.32 
L 297.921582 256.224908 
L 291.466325 256.224908 
z
" style="fill:#ff0000;opacity:0.5;stroke:#ffffff;stroke-linejoin:miter;stroke-width:0.2;"/>
   </g>
   <g id="patch_93">
    <path clip-path="url(#pab3339beaf)" d="M 297.921582 256.32 
L 304.376839 256.32 
L 304.376839 256.32 
L 297.921582 256.32 
z
" style="fill:#ff0000;opacity:0.5;stroke:#ffffff;stroke-linejoin:miter;stroke-width:0.2;"/>
   </g>
   <g id="patch_94">
    <path clip-path="url(#pab3339beaf)" d="M 304.376839 256.32 
L 310.832096 256.32 
L 310.832096 256.129815 
L 304.376839 256.129815 
z
" style="fill:#ff0000;opacity:0.5;stroke:#ffffff;stroke-linejoin:miter;stroke-width:0.2;"/>
   </g>
   <g id="patch_95">
    <path clip-path="url(#pab3339beaf)" d="M 310.832096 256.32 
L 317.287353 256.32 
L 317.287353 256.32 
L 310.832096 256.32 
z
" style="fill:#ff0000;opacity:0.5;stroke:#ffffff;stroke-linejoin:miter;stroke-width:0.2;"/>
   </g>
   <g id="patch_96">
    <path clip-path="url(#pab3339beaf)" d="M 317.287353 256.32 
L 323.74261 256.32 
L 323.74261 256.224908 
L 317.287353 256.224908 
z
" style="fill:#ff0000;opacity:0.5;stroke:#ffffff;stroke-linejoin:miter;stroke-width:0.2;"/>
   </g>
   <g id="patch_97">
    <path clip-path="url(#pab3339beaf)" d="M 323.74261 256.32 
L 330.197867 256.32 
L 330.197867 256.32 
L 323.74261 256.32 
z
" style="fill:#ff0000;opacity:0.5;stroke:#ffffff;stroke-linejoin:miter;stroke-width:0.2;"/>
   </g>
   <g id="patch_98">
    <path clip-path="url(#pab3339beaf)" d="M 330.197867 256.32 
L 336.653124 256.32 
L 336.653124 256.32 
L 330.197867 256.32 
z
" style="fill:#ff0000;opacity:0.5;stroke:#ffffff;stroke-linejoin:miter;stroke-width:0.2;"/>
   </g>
   <g id="patch_99">
    <path clip-path="url(#pab3339beaf)" d="M 336.653124 256.32 
L 343.108381 256.32 
L 343.108381 256.32 
L 336.653124 256.32 
z
" style="fill:#ff0000;opacity:0.5;stroke:#ffffff;stroke-linejoin:miter;stroke-width:0.2;"/>
   </g>
   <g id="patch_100">
    <path clip-path="url(#pab3339beaf)" d="M 343.108381 256.32 
L 349.563638 256.32 
L 349.563638 256.224908 
L 343.108381 256.224908 
z
" style="fill:#ff0000;opacity:0.5;stroke:#ffffff;stroke-linejoin:miter;stroke-width:0.2;"/>
   </g>
   <g id="patch_101">
    <path clip-path="url(#pab3339beaf)" d="M 349.563638 256.32 
L 356.018895 256.32 
L 356.018895 256.224908 
L 349.563638 256.224908 
z
" style="fill:#ff0000;opacity:0.5;stroke:#ffffff;stroke-linejoin:miter;stroke-width:0.2;"/>
   </g>
   <g id="patch_102">
    <path clip-path="url(#pab3339beaf)" d="M 356.018895 256.32 
L 362.474152 256.32 
L 362.474152 255.939631 
L 356.018895 255.939631 
z
" style="fill:#ff0000;opacity:0.5;stroke:#ffffff;stroke-linejoin:miter;stroke-width:0.2;"/>
   </g>
   <g id="matplotlib.axis_1">
    <g id="xtick_1">
     <g id="line2d_1">
      <defs>
       <path d="M 0 0 
L 0 3.5 
" id="m08e2776470" style="stroke:#000000;stroke-width:0.8;"/>
      </defs>
      <g>
       <use style="stroke:#000000;stroke-width:0.8;" x="36" xlink:href="#m08e2776470" y="256.32"/>
      </g>
     </g>
     <g id="text_1">
      <!-- −2 -->
      <defs>
       <path d="M 10.59375 35.5 
L 73.1875 35.5 
L 73.1875 27.203125 
L 10.59375 27.203125 
z
" id="DejaVuSans-8722"/>
       <path d="M 19.1875 8.296875 
L 53.609375 8.296875 
L 53.609375 0 
L 7.328125 0 
L 7.328125 8.296875 
Q 12.9375 14.109375 22.625 23.890625 
Q 32.328125 33.6875 34.8125 36.53125 
Q 39.546875 41.84375 41.421875 45.53125 
Q 43.3125 49.21875 43.3125 52.78125 
Q 43.3125 58.59375 39.234375 62.25 
Q 35.15625 65.921875 28.609375 65.921875 
Q 23.96875 65.921875 18.8125 64.3125 
Q 13.671875 62.703125 7.8125 59.421875 
L 7.8125 69.390625 
Q 13.765625 71.78125 18.9375 73 
Q 24.125 74.21875 28.421875 74.21875 
Q 39.75 74.21875 46.484375 68.546875 
Q 53.21875 62.890625 53.21875 53.421875 
Q 53.21875 48.921875 51.53125 44.890625 
Q 49.859375 40.875 45.40625 35.40625 
Q 44.1875 33.984375 37.640625 27.21875 
Q 31.109375 20.453125 19.1875 8.296875 
z
" id="DejaVuSans-50"/>
      </defs>
      <g transform="translate(24.20625 275.4775)scale(0.16 -0.16)">
       <use xlink:href="#DejaVuSans-8722"/>
       <use x="83.789062" xlink:href="#DejaVuSans-50"/>
      </g>
     </g>
    </g>
    <g id="xtick_2">
     <g id="line2d_2">
      <g>
       <use style="stroke:#000000;stroke-width:0.8;" x="91.8" xlink:href="#m08e2776470" y="256.32"/>
      </g>
     </g>
     <g id="text_2">
      <!-- −1 -->
      <defs>
       <path d="M 12.40625 8.296875 
L 28.515625 8.296875 
L 28.515625 63.921875 
L 10.984375 60.40625 
L 10.984375 69.390625 
L 28.421875 72.90625 
L 38.28125 72.90625 
L 38.28125 8.296875 
L 54.390625 8.296875 
L 54.390625 0 
L 12.40625 0 
z
" id="DejaVuSans-49"/>
      </defs>
      <g transform="translate(80.00625 275.4775)scale(0.16 -0.16)">
       <use xlink:href="#DejaVuSans-8722"/>
       <use x="83.789062" xlink:href="#DejaVuSans-49"/>
      </g>
     </g>
    </g>
    <g id="xtick_3">
     <g id="line2d_3">
      <g>
       <use style="stroke:#000000;stroke-width:0.8;" x="147.6" xlink:href="#m08e2776470" y="256.32"/>
      </g>
     </g>
     <g id="text_3">
      <!-- 0 -->
      <defs>
       <path d="M 31.78125 66.40625 
Q 24.171875 66.40625 20.328125 58.90625 
Q 16.5 51.421875 16.5 36.375 
Q 16.5 21.390625 20.328125 13.890625 
Q 24.171875 6.390625 31.78125 6.390625 
Q 39.453125 6.390625 43.28125 13.890625 
Q 47.125 21.390625 47.125 36.375 
Q 47.125 51.421875 43.28125 58.90625 
Q 39.453125 66.40625 31.78125 66.40625 
z
M 31.78125 74.21875 
Q 44.046875 74.21875 50.515625 64.515625 
Q 56.984375 54.828125 56.984375 36.375 
Q 56.984375 17.96875 50.515625 8.265625 
Q 44.046875 -1.421875 31.78125 -1.421875 
Q 19.53125 -1.421875 13.0625 8.265625 
Q 6.59375 17.96875 6.59375 36.375 
Q 6.59375 54.828125 13.0625 64.515625 
Q 19.53125 74.21875 31.78125 74.21875 
z
" id="DejaVuSans-48"/>
      </defs>
      <g transform="translate(142.51 275.4775)scale(0.16 -0.16)">
       <use xlink:href="#DejaVuSans-48"/>
      </g>
     </g>
    </g>
    <g id="xtick_4">
     <g id="line2d_4">
      <g>
       <use style="stroke:#000000;stroke-width:0.8;" x="203.4" xlink:href="#m08e2776470" y="256.32"/>
      </g>
     </g>
     <g id="text_4">
      <!-- 1 -->
      <g transform="translate(198.31 275.4775)scale(0.16 -0.16)">
       <use xlink:href="#DejaVuSans-49"/>
      </g>
     </g>
    </g>
    <g id="xtick_5">
     <g id="line2d_5">
      <g>
       <use style="stroke:#000000;stroke-width:0.8;" x="259.2" xlink:href="#m08e2776470" y="256.32"/>
      </g>
     </g>
     <g id="text_5">
      <!-- 2 -->
      <g transform="translate(254.11 275.4775)scale(0.16 -0.16)">
       <use xlink:href="#DejaVuSans-50"/>
      </g>
     </g>
    </g>
    <g id="text_6">
     <!-- Velocity -->
     <defs>
      <path d="M 28.609375 0 
L 0.78125 72.90625 
L 11.078125 72.90625 
L 34.1875 11.53125 
L 57.328125 72.90625 
L 67.578125 72.90625 
L 39.796875 0 
z
" id="DejaVuSans-86"/>
      <path d="M 56.203125 29.59375 
L 56.203125 25.203125 
L 14.890625 25.203125 
Q 15.484375 15.921875 20.484375 11.0625 
Q 25.484375 6.203125 34.421875 6.203125 
Q 39.59375 6.203125 44.453125 7.46875 
Q 49.3125 8.734375 54.109375 11.28125 
L 54.109375 2.78125 
Q 49.265625 0.734375 44.1875 -0.34375 
Q 39.109375 -1.421875 33.890625 -1.421875 
Q 20.796875 -1.421875 13.15625 6.1875 
Q 5.515625 13.8125 5.515625 26.8125 
Q 5.515625 40.234375 12.765625 48.109375 
Q 20.015625 56 32.328125 56 
Q 43.359375 56 49.78125 48.890625 
Q 56.203125 41.796875 56.203125 29.59375 
z
M 47.21875 32.234375 
Q 47.125 39.59375 43.09375 43.984375 
Q 39.0625 48.390625 32.421875 48.390625 
Q 24.90625 48.390625 20.390625 44.140625 
Q 15.875 39.890625 15.1875 32.171875 
z
" id="DejaVuSans-101"/>
      <path d="M 9.421875 75.984375 
L 18.40625 75.984375 
L 18.40625 0 
L 9.421875 0 
z
" id="DejaVuSans-108"/>
      <path d="M 30.609375 48.390625 
Q 23.390625 48.390625 19.1875 42.75 
Q 14.984375 37.109375 14.984375 27.296875 
Q 14.984375 17.484375 19.15625 11.84375 
Q 23.34375 6.203125 30.609375 6.203125 
Q 37.796875 6.203125 41.984375 11.859375 
Q 46.1875 17.53125 46.1875 27.296875 
Q 46.1875 37.015625 41.984375 42.703125 
Q 37.796875 48.390625 30.609375 48.390625 
z
M 30.609375 56 
Q 42.328125 56 49.015625 48.375 
Q 55.71875 40.765625 55.71875 27.296875 
Q 55.71875 13.875 49.015625 6.21875 
Q 42.328125 -1.421875 30.609375 -1.421875 
Q 18.84375 -1.421875 12.171875 6.21875 
Q 5.515625 13.875 5.515625 27.296875 
Q 5.515625 40.765625 12.171875 48.375 
Q 18.84375 56 30.609375 56 
z
" id="DejaVuSans-111"/>
      <path d="M 48.78125 52.59375 
L 48.78125 44.1875 
Q 44.96875 46.296875 41.140625 47.34375 
Q 37.3125 48.390625 33.40625 48.390625 
Q 24.65625 48.390625 19.8125 42.84375 
Q 14.984375 37.3125 14.984375 27.296875 
Q 14.984375 17.28125 19.8125 11.734375 
Q 24.65625 6.203125 33.40625 6.203125 
Q 37.3125 6.203125 41.140625 7.25 
Q 44.96875 8.296875 48.78125 10.40625 
L 48.78125 2.09375 
Q 45.015625 0.34375 40.984375 -0.53125 
Q 36.96875 -1.421875 32.421875 -1.421875 
Q 20.0625 -1.421875 12.78125 6.34375 
Q 5.515625 14.109375 5.515625 27.296875 
Q 5.515625 40.671875 12.859375 48.328125 
Q 20.21875 56 33.015625 56 
Q 37.15625 56 41.109375 55.140625 
Q 45.0625 54.296875 48.78125 52.59375 
z
" id="DejaVuSans-99"/>
      <path d="M 9.421875 54.6875 
L 18.40625 54.6875 
L 18.40625 0 
L 9.421875 0 
z
M 9.421875 75.984375 
L 18.40625 75.984375 
L 18.40625 64.59375 
L 9.421875 64.59375 
z
" id="DejaVuSans-105"/>
      <path d="M 18.3125 70.21875 
L 18.3125 54.6875 
L 36.8125 54.6875 
L 36.8125 47.703125 
L 18.3125 47.703125 
L 18.3125 18.015625 
Q 18.3125 11.328125 20.140625 9.421875 
Q 21.96875 7.515625 27.59375 7.515625 
L 36.8125 7.515625 
L 36.8125 0 
L 27.59375 0 
Q 17.1875 0 13.234375 3.875 
Q 9.28125 7.765625 9.28125 18.015625 
L 9.28125 47.703125 
L 2.6875 47.703125 
L 2.6875 54.6875 
L 9.28125 54.6875 
L 9.28125 70.21875 
z
" id="DejaVuSans-116"/>
      <path d="M 32.171875 -5.078125 
Q 28.375 -14.84375 24.75 -17.8125 
Q 21.140625 -20.796875 15.09375 -20.796875 
L 7.90625 -20.796875 
L 7.90625 -13.28125 
L 13.1875 -13.28125 
Q 16.890625 -13.28125 18.9375 -11.515625 
Q 21 -9.765625 23.484375 -3.21875 
L 25.09375 0.875 
L 2.984375 54.6875 
L 12.5 54.6875 
L 29.59375 11.921875 
L 46.6875 54.6875 
L 56.203125 54.6875 
z
" id="DejaVuSans-121"/>
     </defs>
     <g transform="translate(115.60375 294.9625)scale(0.16 -0.16)">
      <use xlink:href="#DejaVuSans-86"/>
      <use x="68.298828" xlink:href="#DejaVuSans-101"/>
      <use x="129.822266" xlink:href="#DejaVuSans-108"/>
      <use x="157.605469" xlink:href="#DejaVuSans-111"/>
      <use x="218.787109" xlink:href="#DejaVuSans-99"/>
      <use x="273.767578" xlink:href="#DejaVuSans-105"/>
      <use x="301.550781" xlink:href="#DejaVuSans-116"/>
      <use x="340.759766" xlink:href="#DejaVuSans-121"/>
     </g>
    </g>
   </g>
   <g id="matplotlib.axis_2">
    <g id="ytick_1">
     <g id="line2d_6">
      <defs>
       <path d="M 0 0 
L -3.5 0 
" id="maddf84b7d3" style="stroke:#000000;stroke-width:0.8;"/>
      </defs>
      <g>
       <use style="stroke:#000000;stroke-width:0.8;" x="36" xlink:href="#maddf84b7d3" y="256.32"/>
      </g>
     </g>
     <g id="text_7">
      <!-- 0.0 -->
      <defs>
       <path d="M 10.6875 12.40625 
L 21 12.40625 
L 21 0 
L 10.6875 0 
z
" id="DejaVuSans-46"/>
      </defs>
      <g transform="translate(3.555 262.39875)scale(0.16 -0.16)">
       <use xlink:href="#DejaVuSans-48"/>
       <use x="63.623047" xlink:href="#DejaVuSans-46"/>
       <use x="95.410156" xlink:href="#DejaVuSans-48"/>
      </g>
     </g>
    </g>
    <g id="ytick_2">
     <g id="line2d_7">
      <g>
       <use style="stroke:#000000;stroke-width:0.8;" x="36" xlink:href="#maddf84b7d3" y="198.682352"/>
      </g>
     </g>
     <g id="text_8">
      <!-- 0.2 -->
      <g transform="translate(3.555 204.761102)scale(0.16 -0.16)">
       <use xlink:href="#DejaVuSans-48"/>
       <use x="63.623047" xlink:href="#DejaVuSans-46"/>
       <use x="95.410156" xlink:href="#DejaVuSans-50"/>
      </g>
     </g>
    </g>
    <g id="ytick_3">
     <g id="line2d_8">
      <g>
       <use style="stroke:#000000;stroke-width:0.8;" x="36" xlink:href="#maddf84b7d3" y="141.044703"/>
      </g>
     </g>
     <g id="text_9">
      <!-- 0.4 -->
      <defs>
       <path d="M 37.796875 64.3125 
L 12.890625 25.390625 
L 37.796875 25.390625 
z
M 35.203125 72.90625 
L 47.609375 72.90625 
L 47.609375 25.390625 
L 58.015625 25.390625 
L 58.015625 17.1875 
L 47.609375 17.1875 
L 47.609375 0 
L 37.796875 0 
L 37.796875 17.1875 
L 4.890625 17.1875 
L 4.890625 26.703125 
z
" id="DejaVuSans-52"/>
      </defs>
      <g transform="translate(3.555 147.123453)scale(0.16 -0.16)">
       <use xlink:href="#DejaVuSans-48"/>
       <use x="63.623047" xlink:href="#DejaVuSans-46"/>
       <use x="95.410156" xlink:href="#DejaVuSans-52"/>
      </g>
     </g>
    </g>
    <g id="ytick_4">
     <g id="line2d_9">
      <g>
       <use style="stroke:#000000;stroke-width:0.8;" x="36" xlink:href="#maddf84b7d3" y="83.407055"/>
      </g>
     </g>
     <g id="text_10">
      <!-- 0.6 -->
      <defs>
       <path d="M 33.015625 40.375 
Q 26.375 40.375 22.484375 35.828125 
Q 18.609375 31.296875 18.609375 23.390625 
Q 18.609375 15.53125 22.484375 10.953125 
Q 26.375 6.390625 33.015625 6.390625 
Q 39.65625 6.390625 43.53125 10.953125 
Q 47.40625 15.53125 47.40625 23.390625 
Q 47.40625 31.296875 43.53125 35.828125 
Q 39.65625 40.375 33.015625 40.375 
z
M 52.59375 71.296875 
L 52.59375 62.3125 
Q 48.875 64.0625 45.09375 64.984375 
Q 41.3125 65.921875 37.59375 65.921875 
Q 27.828125 65.921875 22.671875 59.328125 
Q 17.53125 52.734375 16.796875 39.40625 
Q 19.671875 43.65625 24.015625 45.921875 
Q 28.375 48.1875 33.59375 48.1875 
Q 44.578125 48.1875 50.953125 41.515625 
Q 57.328125 34.859375 57.328125 23.390625 
Q 57.328125 12.15625 50.6875 5.359375 
Q 44.046875 -1.421875 33.015625 -1.421875 
Q 20.359375 -1.421875 13.671875 8.265625 
Q 6.984375 17.96875 6.984375 36.375 
Q 6.984375 53.65625 15.1875 63.9375 
Q 23.390625 74.21875 37.203125 74.21875 
Q 40.921875 74.21875 44.703125 73.484375 
Q 48.484375 72.75 52.59375 71.296875 
z
" id="DejaVuSans-54"/>
      </defs>
      <g transform="translate(3.555 89.485805)scale(0.16 -0.16)">
       <use xlink:href="#DejaVuSans-48"/>
       <use x="63.623047" xlink:href="#DejaVuSans-46"/>
       <use x="95.410156" xlink:href="#DejaVuSans-54"/>
      </g>
     </g>
    </g>
    <g id="text_11">
     <!-- PDF -->
     <defs>
      <path d="M 19.671875 64.796875 
L 19.671875 37.40625 
L 32.078125 37.40625 
Q 38.96875 37.40625 42.71875 40.96875 
Q 46.484375 44.53125 46.484375 51.125 
Q 46.484375 57.671875 42.71875 61.234375 
Q 38.96875 64.796875 32.078125 64.796875 
z
M 9.8125 72.90625 
L 32.078125 72.90625 
Q 44.34375 72.90625 50.609375 67.359375 
Q 56.890625 61.8125 56.890625 51.125 
Q 56.890625 40.328125 50.609375 34.8125 
Q 44.34375 29.296875 32.078125 29.296875 
L 19.671875 29.296875 
L 19.671875 0 
L 9.8125 0 
z
" id="DejaVuSans-80"/>
      <path d="M 19.671875 64.796875 
L 19.671875 8.109375 
L 31.59375 8.109375 
Q 46.6875 8.109375 53.6875 14.9375 
Q 60.6875 21.78125 60.6875 36.53125 
Q 60.6875 51.171875 53.6875 57.984375 
Q 46.6875 64.796875 31.59375 64.796875 
z
M 9.8125 72.90625 
L 30.078125 72.90625 
Q 51.265625 72.90625 61.171875 64.09375 
Q 71.09375 55.28125 71.09375 36.53125 
Q 71.09375 17.671875 61.125 8.828125 
Q 51.171875 0 30.078125 0 
L 9.8125 0 
z
" id="DejaVuSans-68"/>
      <path d="M 9.8125 72.90625 
L 51.703125 72.90625 
L 51.703125 64.59375 
L 19.671875 64.59375 
L 19.671875 43.109375 
L 48.578125 43.109375 
L 48.578125 34.8125 
L 19.671875 34.8125 
L 19.671875 0 
L 9.8125 0 
z
" id="DejaVuSans-70"/>
     </defs>
     <g transform="translate(-3.7725 161.025)rotate(-90)scale(0.16 -0.16)">
      <use xlink:href="#DejaVuSans-80"/>
      <use x="60.302734" xlink:href="#DejaVuSans-68"/>
      <use x="137.304688" xlink:href="#DejaVuSans-70"/>
     </g>
    </g>
   </g>
   <g id="line2d_10">
    <path clip-path="url(#pab3339beaf)" d="M -1 250.021786 
L 0.529842 249.430027 
L 16.292027 242.121593 
L 20.232574 240.012365 
L 24.17312 237.376292 
L 28.113666 234.166436 
L 35.994759 227.24874 
L 39.935306 224.36498 
L 43.875852 222.022338 
L 47.816398 219.895473 
L 51.756945 217.463383 
L 55.697491 214.250933 
L 59.638037 210.058787 
L 63.578584 205.075611 
L 67.51913 199.781469 
L 71.459676 194.676291 
L 75.400223 190.020707 
L 79.340769 185.810568 
L 83.281315 181.974825 
L 87.221862 178.498544 
L 91.162408 175.333539 
L 95.102955 172.383749 
L 99.043501 169.739546 
L 102.984047 167.797365 
L 106.924594 166.93468 
L 110.86514 167.077013 
L 118.746233 168.471706 
L 122.686779 169.228331 
L 130.567872 170.959754 
L 134.508418 171.44595 
L 138.448964 171.261886 
L 142.389511 170.409171 
L 146.330057 169.099703 
L 150.270604 167.527694 
L 154.21115 165.726413 
L 158.151696 163.575161 
L 162.092243 160.917705 
L 166.032789 157.736434 
L 169.973335 154.338321 
L 173.913882 151.441428 
L 177.854428 149.944123 
L 181.794974 150.368559 
L 185.735521 152.488299 
L 189.676067 155.667967 
L 193.616614 159.609206 
L 197.55716 164.610808 
L 201.497706 171.060342 
L 205.438253 178.829614 
L 213.319345 195.509777 
L 217.259892 203.158342 
L 221.200438 210.114868 
L 225.140984 216.547515 
L 229.081531 222.611246 
L 233.022077 228.296109 
L 236.962623 233.452432 
L 240.90317 237.903358 
L 244.843716 241.532811 
L 248.784263 244.336341 
L 252.724809 246.444647 
L 256.665355 248.082825 
L 260.605902 249.4624 
L 264.546448 250.686491 
L 268.486994 251.741931 
L 272.427541 252.568016 
L 276.368087 253.139928 
L 284.24918 253.804353 
L 289 254.208655 
L 289 254.208655 
" style="fill:none;stroke:#0000ff;stroke-linecap:square;stroke-width:1.5;"/>
   </g>
   <g id="line2d_11">
    <path clip-path="url(#pab3339beaf)" d="M 27.473086 256.31728 
L 32.941421 256.261845 
L 49.346427 255.585571 
L 54.814762 255.15827 
L 57.548929 254.829086 
L 60.283097 254.354839 
L 63.017264 253.739514 
L 65.751432 253.010263 
L 68.485599 252.0845 
L 71.219767 250.669276 
L 73.953935 248.482602 
L 76.688102 245.60042 
L 79.42227 242.295692 
L 82.156437 238.661013 
L 84.890605 234.658832 
L 87.624772 230.238085 
L 90.35894 225.141959 
L 93.093107 218.681791 
L 95.827275 210.220853 
L 98.561443 200.033662 
L 106.763945 167.826146 
L 112.23228 146.482798 
L 114.966448 134.877949 
L 117.700615 122.272744 
L 120.434783 110.527505 
L 123.168951 101.659992 
L 125.903118 95.700542 
L 128.637286 91.255489 
L 131.371453 86.465528 
L 134.105621 79.700417 
L 136.839788 71.829827 
L 139.573956 66.796119 
L 142.308124 65.979762 
L 145.042291 65.447364 
L 147.776459 62.51124 
L 150.510626 59.192109 
L 153.244794 56.953557 
L 155.978961 54.312365 
L 158.713129 51.156865 
L 161.447296 50.575893 
L 164.181464 55.015923 
L 166.915632 63.728579 
L 172.383967 85.405131 
L 175.118134 95.051437 
L 177.852302 104.161149 
L 180.586469 114.439353 
L 183.320637 126.956169 
L 186.054804 142.046732 
L 191.52314 175.027371 
L 194.257307 188.984023 
L 196.991475 201.290086 
L 199.725642 212.784147 
L 202.45981 223.132529 
L 205.193977 231.324638 
L 207.928145 236.9131 
L 210.662312 240.613162 
L 213.39648 243.382292 
L 216.130648 245.579139 
L 218.864815 247.361901 
L 221.598983 248.889996 
L 224.33315 250.063454 
L 232.535653 252.276397 
L 238.003988 254.169138 
L 240.738156 254.894359 
L 243.472323 255.406404 
L 246.206491 255.665313 
L 251.674826 255.770856 
L 265.345664 255.872709 
L 270.813999 256.17679 
L 279.016501 256.313842 
L 289 256.310459 
L 289 256.310459 
" style="fill:none;stroke:#ff0000;stroke-linecap:square;stroke-width:1.5;"/>
   </g>
   <g id="patch_103">
    <path d="M 36 256.32 
L 36 34.56 
" style="fill:none;stroke:#000000;stroke-linecap:square;stroke-linejoin:miter;stroke-width:0.8;"/>
   </g>
   <g id="patch_104">
    <path d="M 259.2 256.32 
L 259.2 34.56 
" style="fill:none;stroke:#000000;stroke-linecap:square;stroke-linejoin:miter;stroke-width:0.8;"/>
   </g>
   <g id="patch_105">
    <path d="M 36 256.32 
L 259.2 256.32 
" style="fill:none;stroke:#000000;stroke-linecap:square;stroke-linejoin:miter;stroke-width:0.8;"/>
   </g>
   <g id="patch_106">
    <path d="M 36 34.56 
L 259.2 34.56 
" style="fill:none;stroke:#000000;stroke-linecap:square;stroke-linejoin:miter;stroke-width:0.8;"/>
   </g>
   <g id="text_12">
    <!-- Acorn worm -->
    <defs>
     <path d="M 34.1875 63.1875 
L 20.796875 26.90625 
L 47.609375 26.90625 
z
M 28.609375 72.90625 
L 39.796875 72.90625 
L 67.578125 0 
L 57.328125 0 
L 50.6875 18.703125 
L 17.828125 18.703125 
L 11.1875 0 
L 0.78125 0 
z
" id="DejaVuSans-65"/>
     <path d="M 41.109375 46.296875 
Q 39.59375 47.171875 37.8125 47.578125 
Q 36.03125 48 33.890625 48 
Q 26.265625 48 22.1875 43.046875 
Q 18.109375 38.09375 18.109375 28.8125 
L 18.109375 0 
L 9.078125 0 
L 9.078125 54.6875 
L 18.109375 54.6875 
L 18.109375 46.1875 
Q 20.953125 51.171875 25.484375 53.578125 
Q 30.03125 56 36.53125 56 
Q 37.453125 56 38.578125 55.875 
Q 39.703125 55.765625 41.0625 55.515625 
z
" id="DejaVuSans-114"/>
     <path d="M 54.890625 33.015625 
L 54.890625 0 
L 45.90625 0 
L 45.90625 32.71875 
Q 45.90625 40.484375 42.875 44.328125 
Q 39.84375 48.1875 33.796875 48.1875 
Q 26.515625 48.1875 22.3125 43.546875 
Q 18.109375 38.921875 18.109375 30.90625 
L 18.109375 0 
L 9.078125 0 
L 9.078125 54.6875 
L 18.109375 54.6875 
L 18.109375 46.1875 
Q 21.34375 51.125 25.703125 53.5625 
Q 30.078125 56 35.796875 56 
Q 45.21875 56 50.046875 50.171875 
Q 54.890625 44.34375 54.890625 33.015625 
z
" id="DejaVuSans-110"/>
     <path id="DejaVuSans-32"/>
     <path d="M 4.203125 54.6875 
L 13.1875 54.6875 
L 24.421875 12.015625 
L 35.59375 54.6875 
L 46.1875 54.6875 
L 57.421875 12.015625 
L 68.609375 54.6875 
L 77.59375 54.6875 
L 63.28125 0 
L 52.6875 0 
L 40.921875 44.828125 
L 29.109375 0 
L 18.5 0 
z
" id="DejaVuSans-119"/>
     <path d="M 52 44.1875 
Q 55.375 50.25 60.0625 53.125 
Q 64.75 56 71.09375 56 
Q 79.640625 56 84.28125 50.015625 
Q 88.921875 44.046875 88.921875 33.015625 
L 88.921875 0 
L 79.890625 0 
L 79.890625 32.71875 
Q 79.890625 40.578125 77.09375 44.375 
Q 74.3125 48.1875 68.609375 48.1875 
Q 61.625 48.1875 57.5625 43.546875 
Q 53.515625 38.921875 53.515625 30.90625 
L 53.515625 0 
L 44.484375 0 
L 44.484375 32.71875 
Q 44.484375 40.625 41.703125 44.40625 
Q 38.921875 48.1875 33.109375 48.1875 
Q 26.21875 48.1875 22.15625 43.53125 
Q 18.109375 38.875 18.109375 30.90625 
L 18.109375 0 
L 9.078125 0 
L 9.078125 54.6875 
L 18.109375 54.6875 
L 18.109375 46.1875 
Q 21.1875 51.21875 25.484375 53.609375 
Q 29.78125 56 35.6875 56 
Q 41.65625 56 45.828125 52.96875 
Q 50 49.953125 52 44.1875 
z
" id="DejaVuSans-109"/>
    </defs>
    <g transform="translate(89.781 28.56)scale(0.192 -0.192)">
     <use xlink:href="#DejaVuSans-65"/>
     <use x="68.392578" xlink:href="#DejaVuSans-99"/>
     <use x="123.373047" xlink:href="#DejaVuSans-111"/>
     <use x="184.554688" xlink:href="#DejaVuSans-114"/>
     <use x="225.652344" xlink:href="#DejaVuSans-110"/>
     <use x="289.03125" xlink:href="#DejaVuSans-32"/>
     <use x="320.818359" xlink:href="#DejaVuSans-119"/>
     <use x="402.605469" xlink:href="#DejaVuSans-111"/>
     <use x="463.787109" xlink:href="#DejaVuSans-114"/>
     <use x="504.884766" xlink:href="#DejaVuSans-109"/>
    </g>
   </g>
   <g id="legend_1">
    <g id="patch_107">
     <path d="M 47.2 94.33 
L 118.815 94.33 
Q 122.015 94.33 122.015 91.13 
L 122.015 45.76 
Q 122.015 42.56 118.815 42.56 
L 47.2 42.56 
Q 44 42.56 44 45.76 
L 44 91.13 
Q 44 94.33 47.2 94.33 
z
" style="fill:#ffffff;opacity:0.8;stroke:#cccccc;stroke-linejoin:miter;"/>
    </g>
    <g id="patch_108">
     <path d="M 50.4 61.1175 
L 82.4 61.1175 
L 82.4 49.9175 
L 50.4 49.9175 
z
" style="fill:#0000ff;opacity:0.5;stroke:#ffffff;stroke-linejoin:miter;stroke-width:0.2;"/>
    </g>
    <g id="text_13">
     <!-- Vz -->
     <defs>
      <path d="M 5.515625 54.6875 
L 48.1875 54.6875 
L 48.1875 46.484375 
L 14.40625 7.171875 
L 48.1875 7.171875 
L 48.1875 0 
L 4.296875 0 
L 4.296875 8.203125 
L 38.09375 47.515625 
L 5.515625 47.515625 
z
" id="DejaVuSans-122"/>
     </defs>
     <g transform="translate(95.2 61.1175)scale(0.16 -0.16)">
      <use xlink:href="#DejaVuSans-86"/>
      <use x="68.408203" xlink:href="#DejaVuSans-122"/>
     </g>
    </g>
    <g id="patch_109">
     <path d="M 50.4 84.6025 
L 82.4 84.6025 
L 82.4 73.4025 
L 50.4 73.4025 
z
" style="fill:#ff0000;opacity:0.5;stroke:#ffffff;stroke-linejoin:miter;stroke-width:0.2;"/>
    </g>
    <g id="text_14">
     <!-- Vx -->
     <defs>
      <path d="M 54.890625 54.6875 
L 35.109375 28.078125 
L 55.90625 0 
L 45.3125 0 
L 29.390625 21.484375 
L 13.484375 0 
L 2.875 0 
L 24.125 28.609375 
L 4.6875 54.6875 
L 15.28125 54.6875 
L 29.78125 35.203125 
L 44.28125 54.6875 
z
" id="DejaVuSans-120"/>
     </defs>
     <g transform="translate(95.2 84.6025)scale(0.16 -0.16)">
      <use xlink:href="#DejaVuSans-86"/>
      <use x="68.408203" xlink:href="#DejaVuSans-120"/>
     </g>
    </g>
   </g>
  </g>
 </g>
 <defs>
  <clipPath id="pab3339beaf">
   <rect height="221.76" width="223.2" x="36" y="34.56"/>
  </clipPath>
 </defs>
</svg>
