<?xml version="1.0" encoding="utf-8" standalone="no"?>
<!DOCTYPE svg PUBLIC "-//W3C//DTD SVG 1.1//EN"
  "http://www.w3.org/Graphics/SVG/1.1/DTD/svg11.dtd">
<!-- Created with matplotlib (https://matplotlib.org/) -->
<svg height="288pt" version="1.1" viewBox="0 0 288 288" width="288pt" xmlns="http://www.w3.org/2000/svg" xmlns:xlink="http://www.w3.org/1999/xlink">
 <defs>
  <style type="text/css">
*{stroke-linecap:butt;stroke-linejoin:round;}
  </style>
 </defs>
 <g id="figure_1">
  <g id="patch_1">
   <path d="M 0 288 
L 288 288 
L 288 0 
L 0 0 
z
" style="fill:#ffffff;"/>
  </g>
  <g id="axes_1">
   <g id="patch_2">
    <path d="M 36 256.32 
L 259.2 256.32 
L 259.2 34.56 
L 36 34.56 
z
" style="fill:#ffffff;"/>
   </g>
   <g id="patch_3">
    <path clip-path="url(#pc3b5eeb0bf)" d="M 133.24643 256.32 
L 133.643044 256.32 
L 133.643044 255.995171 
L 133.24643 255.995171 
z
" style="fill:#0000ff;opacity:0.5;stroke:#ffffff;stroke-linejoin:miter;stroke-width:0.2;"/>
   </g>
   <g id="patch_4">
    <path clip-path="url(#pc3b5eeb0bf)" d="M 133.643044 256.32 
L 134.039658 256.32 
L 134.039658 255.995171 
L 133.643044 255.995171 
z
" style="fill:#0000ff;opacity:0.5;stroke:#ffffff;stroke-linejoin:miter;stroke-width:0.2;"/>
   </g>
   <g id="patch_5">
    <path clip-path="url(#pc3b5eeb0bf)" d="M 134.039658 256.32 
L 134.436272 256.32 
L 134.436272 256.157586 
L 134.039658 256.157586 
z
" style="fill:#0000ff;opacity:0.5;stroke:#ffffff;stroke-linejoin:miter;stroke-width:0.2;"/>
   </g>
   <g id="patch_6">
    <path clip-path="url(#pc3b5eeb0bf)" d="M 134.436272 256.32 
L 134.832885 256.32 
L 134.832885 256.157586 
L 134.436272 256.157586 
z
" style="fill:#0000ff;opacity:0.5;stroke:#ffffff;stroke-linejoin:miter;stroke-width:0.2;"/>
   </g>
   <g id="patch_7">
    <path clip-path="url(#pc3b5eeb0bf)" d="M 134.832885 256.32 
L 135.229499 256.32 
L 135.229499 255.995171 
L 134.832885 255.995171 
z
" style="fill:#0000ff;opacity:0.5;stroke:#ffffff;stroke-linejoin:miter;stroke-width:0.2;"/>
   </g>
   <g id="patch_8">
    <path clip-path="url(#pc3b5eeb0bf)" d="M 135.229499 256.32 
L 135.626113 256.32 
L 135.626113 255.832757 
L 135.229499 255.832757 
z
" style="fill:#0000ff;opacity:0.5;stroke:#ffffff;stroke-linejoin:miter;stroke-width:0.2;"/>
   </g>
   <g id="patch_9">
    <path clip-path="url(#pc3b5eeb0bf)" d="M 135.626113 256.32 
L 136.022727 256.32 
L 136.022727 255.183099 
L 135.626113 255.183099 
z
" style="fill:#0000ff;opacity:0.5;stroke:#ffffff;stroke-linejoin:miter;stroke-width:0.2;"/>
   </g>
   <g id="patch_10">
    <path clip-path="url(#pc3b5eeb0bf)" d="M 136.022727 256.32 
L 136.419341 256.32 
L 136.419341 251.772398 
L 136.022727 251.772398 
z
" style="fill:#0000ff;opacity:0.5;stroke:#ffffff;stroke-linejoin:miter;stroke-width:0.2;"/>
   </g>
   <g id="patch_11">
    <path clip-path="url(#pc3b5eeb0bf)" d="M 136.419341 256.32 
L 136.815955 256.32 
L 136.815955 247.062381 
L 136.419341 247.062381 
z
" style="fill:#0000ff;opacity:0.5;stroke:#ffffff;stroke-linejoin:miter;stroke-width:0.2;"/>
   </g>
   <g id="patch_12">
    <path clip-path="url(#pc3b5eeb0bf)" d="M 136.815955 256.32 
L 137.212569 256.32 
L 137.212569 241.05305 
L 136.815955 241.05305 
z
" style="fill:#0000ff;opacity:0.5;stroke:#ffffff;stroke-linejoin:miter;stroke-width:0.2;"/>
   </g>
   <g id="patch_13">
    <path clip-path="url(#pc3b5eeb0bf)" d="M 137.212569 256.32 
L 137.609183 256.32 
L 137.609183 233.419574 
L 137.212569 233.419574 
z
" style="fill:#0000ff;opacity:0.5;stroke:#ffffff;stroke-linejoin:miter;stroke-width:0.2;"/>
   </g>
   <g id="patch_14">
    <path clip-path="url(#pc3b5eeb0bf)" d="M 137.609183 256.32 
L 138.005797 256.32 
L 138.005797 231.470602 
L 137.609183 231.470602 
z
" style="fill:#0000ff;opacity:0.5;stroke:#ffffff;stroke-linejoin:miter;stroke-width:0.2;"/>
   </g>
   <g id="patch_15">
    <path clip-path="url(#pc3b5eeb0bf)" d="M 138.005797 256.32 
L 138.402411 256.32 
L 138.402411 221.400911 
L 138.005797 221.400911 
z
" style="fill:#0000ff;opacity:0.5;stroke:#ffffff;stroke-linejoin:miter;stroke-width:0.2;"/>
   </g>
   <g id="patch_16">
    <path clip-path="url(#pc3b5eeb0bf)" d="M 138.402411 256.32 
L 138.799025 256.32 
L 138.799025 212.79295 
L 138.402411 212.79295 
z
" style="fill:#0000ff;opacity:0.5;stroke:#ffffff;stroke-linejoin:miter;stroke-width:0.2;"/>
   </g>
   <g id="patch_17">
    <path clip-path="url(#pc3b5eeb0bf)" d="M 138.799025 256.32 
L 139.195639 256.32 
L 139.195639 204.834646 
L 138.799025 204.834646 
z
" style="fill:#0000ff;opacity:0.5;stroke:#ffffff;stroke-linejoin:miter;stroke-width:0.2;"/>
   </g>
   <g id="patch_18">
    <path clip-path="url(#pc3b5eeb0bf)" d="M 139.195639 256.32 
L 139.592253 256.32 
L 139.592253 177.386618 
L 139.195639 177.386618 
z
" style="fill:#0000ff;opacity:0.5;stroke:#ffffff;stroke-linejoin:miter;stroke-width:0.2;"/>
   </g>
   <g id="patch_19">
    <path clip-path="url(#pc3b5eeb0bf)" d="M 139.592253 256.32 
L 139.988867 256.32 
L 139.988867 145.390988 
L 139.592253 145.390988 
z
" style="fill:#0000ff;opacity:0.5;stroke:#ffffff;stroke-linejoin:miter;stroke-width:0.2;"/>
   </g>
   <g id="patch_20">
    <path clip-path="url(#pc3b5eeb0bf)" d="M 139.988867 256.32 
L 140.385481 256.32 
L 140.385481 119.404689 
L 139.988867 119.404689 
z
" style="fill:#0000ff;opacity:0.5;stroke:#ffffff;stroke-linejoin:miter;stroke-width:0.2;"/>
   </g>
   <g id="patch_21">
    <path clip-path="url(#pc3b5eeb0bf)" d="M 140.385481 256.32 
L 140.782095 256.32 
L 140.782095 118.105374 
L 140.385481 118.105374 
z
" style="fill:#0000ff;opacity:0.5;stroke:#ffffff;stroke-linejoin:miter;stroke-width:0.2;"/>
   </g>
   <g id="patch_22">
    <path clip-path="url(#pc3b5eeb0bf)" d="M 140.782095 256.32 
L 141.178709 256.32 
L 141.178709 105.924297 
L 140.782095 105.924297 
z
" style="fill:#0000ff;opacity:0.5;stroke:#ffffff;stroke-linejoin:miter;stroke-width:0.2;"/>
   </g>
   <g id="patch_23">
    <path clip-path="url(#pc3b5eeb0bf)" d="M 141.178709 256.32 
L 141.575323 256.32 
L 141.575323 108.035683 
L 141.178709 108.035683 
z
" style="fill:#0000ff;opacity:0.5;stroke:#ffffff;stroke-linejoin:miter;stroke-width:0.2;"/>
   </g>
   <g id="patch_24">
    <path clip-path="url(#pc3b5eeb0bf)" d="M 141.575323 256.32 
L 141.971937 256.32 
L 141.971937 119.891932 
L 141.575323 119.891932 
z
" style="fill:#0000ff;opacity:0.5;stroke:#ffffff;stroke-linejoin:miter;stroke-width:0.2;"/>
   </g>
   <g id="patch_25">
    <path clip-path="url(#pc3b5eeb0bf)" d="M 141.971937 256.32 
L 142.368551 256.32 
L 142.368551 144.903745 
L 141.971937 144.903745 
z
" style="fill:#0000ff;opacity:0.5;stroke:#ffffff;stroke-linejoin:miter;stroke-width:0.2;"/>
   </g>
   <g id="patch_26">
    <path clip-path="url(#pc3b5eeb0bf)" d="M 142.368551 256.32 
L 142.765165 256.32 
L 142.765165 175.112817 
L 142.368551 175.112817 
z
" style="fill:#0000ff;opacity:0.5;stroke:#ffffff;stroke-linejoin:miter;stroke-width:0.2;"/>
   </g>
   <g id="patch_27">
    <path clip-path="url(#pc3b5eeb0bf)" d="M 142.765165 256.32 
L 143.161779 256.32 
L 143.161779 207.59569 
L 142.765165 207.59569 
z
" style="fill:#0000ff;opacity:0.5;stroke:#ffffff;stroke-linejoin:miter;stroke-width:0.2;"/>
   </g>
   <g id="patch_28">
    <path clip-path="url(#pc3b5eeb0bf)" d="M 143.161779 256.32 
L 143.558393 256.32 
L 143.558393 212.468121 
L 143.161779 212.468121 
z
" style="fill:#0000ff;opacity:0.5;stroke:#ffffff;stroke-linejoin:miter;stroke-width:0.2;"/>
   </g>
   <g id="patch_29">
    <path clip-path="url(#pc3b5eeb0bf)" d="M 143.558393 256.32 
L 143.955007 256.32 
L 143.955007 233.419574 
L 143.558393 233.419574 
z
" style="fill:#0000ff;opacity:0.5;stroke:#ffffff;stroke-linejoin:miter;stroke-width:0.2;"/>
   </g>
   <g id="patch_30">
    <path clip-path="url(#pc3b5eeb0bf)" d="M 143.955007 256.32 
L 144.351621 256.32 
L 144.351621 239.104077 
L 143.955007 239.104077 
z
" style="fill:#0000ff;opacity:0.5;stroke:#ffffff;stroke-linejoin:miter;stroke-width:0.2;"/>
   </g>
   <g id="patch_31">
    <path clip-path="url(#pc3b5eeb0bf)" d="M 144.351621 256.32 
L 144.748234 256.32 
L 144.748234 246.737552 
L 144.351621 246.737552 
z
" style="fill:#0000ff;opacity:0.5;stroke:#ffffff;stroke-linejoin:miter;stroke-width:0.2;"/>
   </g>
   <g id="patch_32">
    <path clip-path="url(#pc3b5eeb0bf)" d="M 144.748234 256.32 
L 145.144848 256.32 
L 145.144848 247.712039 
L 144.748234 247.712039 
z
" style="fill:#0000ff;opacity:0.5;stroke:#ffffff;stroke-linejoin:miter;stroke-width:0.2;"/>
   </g>
   <g id="patch_33">
    <path clip-path="url(#pc3b5eeb0bf)" d="M 145.144848 256.32 
L 145.541462 256.32 
L 145.541462 249.498597 
L 145.144848 249.498597 
z
" style="fill:#0000ff;opacity:0.5;stroke:#ffffff;stroke-linejoin:miter;stroke-width:0.2;"/>
   </g>
   <g id="patch_34">
    <path clip-path="url(#pc3b5eeb0bf)" d="M 145.541462 256.32 
L 145.938076 256.32 
L 145.938076 251.12274 
L 145.541462 251.12274 
z
" style="fill:#0000ff;opacity:0.5;stroke:#ffffff;stroke-linejoin:miter;stroke-width:0.2;"/>
   </g>
   <g id="patch_35">
    <path clip-path="url(#pc3b5eeb0bf)" d="M 145.938076 256.32 
L 146.33469 256.32 
L 146.33469 252.097226 
L 145.938076 252.097226 
z
" style="fill:#0000ff;opacity:0.5;stroke:#ffffff;stroke-linejoin:miter;stroke-width:0.2;"/>
   </g>
   <g id="patch_36">
    <path clip-path="url(#pc3b5eeb0bf)" d="M 146.33469 256.32 
L 146.731304 256.32 
L 146.731304 253.72137 
L 146.33469 253.72137 
z
" style="fill:#0000ff;opacity:0.5;stroke:#ffffff;stroke-linejoin:miter;stroke-width:0.2;"/>
   </g>
   <g id="patch_37">
    <path clip-path="url(#pc3b5eeb0bf)" d="M 146.731304 256.32 
L 147.127918 256.32 
L 147.127918 253.396541 
L 146.731304 253.396541 
z
" style="fill:#0000ff;opacity:0.5;stroke:#ffffff;stroke-linejoin:miter;stroke-width:0.2;"/>
   </g>
   <g id="patch_38">
    <path clip-path="url(#pc3b5eeb0bf)" d="M 147.127918 256.32 
L 147.524532 256.32 
L 147.524532 254.046199 
L 147.127918 254.046199 
z
" style="fill:#0000ff;opacity:0.5;stroke:#ffffff;stroke-linejoin:miter;stroke-width:0.2;"/>
   </g>
   <g id="patch_39">
    <path clip-path="url(#pc3b5eeb0bf)" d="M 147.524532 256.32 
L 147.921146 256.32 
L 147.921146 254.208613 
L 147.524532 254.208613 
z
" style="fill:#0000ff;opacity:0.5;stroke:#ffffff;stroke-linejoin:miter;stroke-width:0.2;"/>
   </g>
   <g id="patch_40">
    <path clip-path="url(#pc3b5eeb0bf)" d="M 147.921146 256.32 
L 148.31776 256.32 
L 148.31776 254.371028 
L 147.921146 254.371028 
z
" style="fill:#0000ff;opacity:0.5;stroke:#ffffff;stroke-linejoin:miter;stroke-width:0.2;"/>
   </g>
   <g id="patch_41">
    <path clip-path="url(#pc3b5eeb0bf)" d="M 148.31776 256.32 
L 148.714374 256.32 
L 148.714374 254.371028 
L 148.31776 254.371028 
z
" style="fill:#0000ff;opacity:0.5;stroke:#ffffff;stroke-linejoin:miter;stroke-width:0.2;"/>
   </g>
   <g id="patch_42">
    <path clip-path="url(#pc3b5eeb0bf)" d="M 148.714374 256.32 
L 149.110988 256.32 
L 149.110988 255.183099 
L 148.714374 255.183099 
z
" style="fill:#0000ff;opacity:0.5;stroke:#ffffff;stroke-linejoin:miter;stroke-width:0.2;"/>
   </g>
   <g id="patch_43">
    <path clip-path="url(#pc3b5eeb0bf)" d="M 149.110988 256.32 
L 149.507602 256.32 
L 149.507602 255.507928 
L 149.110988 255.507928 
z
" style="fill:#0000ff;opacity:0.5;stroke:#ffffff;stroke-linejoin:miter;stroke-width:0.2;"/>
   </g>
   <g id="patch_44">
    <path clip-path="url(#pc3b5eeb0bf)" d="M 149.507602 256.32 
L 149.904216 256.32 
L 149.904216 255.183099 
L 149.507602 255.183099 
z
" style="fill:#0000ff;opacity:0.5;stroke:#ffffff;stroke-linejoin:miter;stroke-width:0.2;"/>
   </g>
   <g id="patch_45">
    <path clip-path="url(#pc3b5eeb0bf)" d="M 149.904216 256.32 
L 150.30083 256.32 
L 150.30083 255.670343 
L 149.904216 255.670343 
z
" style="fill:#0000ff;opacity:0.5;stroke:#ffffff;stroke-linejoin:miter;stroke-width:0.2;"/>
   </g>
   <g id="patch_46">
    <path clip-path="url(#pc3b5eeb0bf)" d="M 150.30083 256.32 
L 150.697444 256.32 
L 150.697444 255.670343 
L 150.30083 255.670343 
z
" style="fill:#0000ff;opacity:0.5;stroke:#ffffff;stroke-linejoin:miter;stroke-width:0.2;"/>
   </g>
   <g id="patch_47">
    <path clip-path="url(#pc3b5eeb0bf)" d="M 150.697444 256.32 
L 151.094058 256.32 
L 151.094058 255.832757 
L 150.697444 255.832757 
z
" style="fill:#0000ff;opacity:0.5;stroke:#ffffff;stroke-linejoin:miter;stroke-width:0.2;"/>
   </g>
   <g id="patch_48">
    <path clip-path="url(#pc3b5eeb0bf)" d="M 151.094058 256.32 
L 151.490672 256.32 
L 151.490672 256.157586 
L 151.094058 256.157586 
z
" style="fill:#0000ff;opacity:0.5;stroke:#ffffff;stroke-linejoin:miter;stroke-width:0.2;"/>
   </g>
   <g id="patch_49">
    <path clip-path="url(#pc3b5eeb0bf)" d="M 151.490672 256.32 
L 151.887286 256.32 
L 151.887286 255.670343 
L 151.490672 255.670343 
z
" style="fill:#0000ff;opacity:0.5;stroke:#ffffff;stroke-linejoin:miter;stroke-width:0.2;"/>
   </g>
   <g id="patch_50">
    <path clip-path="url(#pc3b5eeb0bf)" d="M 151.887286 256.32 
L 152.2839 256.32 
L 152.2839 256.157586 
L 151.887286 256.157586 
z
" style="fill:#0000ff;opacity:0.5;stroke:#ffffff;stroke-linejoin:miter;stroke-width:0.2;"/>
   </g>
   <g id="patch_51">
    <path clip-path="url(#pc3b5eeb0bf)" d="M 152.2839 256.32 
L 152.680514 256.32 
L 152.680514 256.32 
L 152.2839 256.32 
z
" style="fill:#0000ff;opacity:0.5;stroke:#ffffff;stroke-linejoin:miter;stroke-width:0.2;"/>
   </g>
   <g id="patch_52">
    <path clip-path="url(#pc3b5eeb0bf)" d="M 152.680514 256.32 
L 153.077128 256.32 
L 153.077128 256.157586 
L 152.680514 256.157586 
z
" style="fill:#0000ff;opacity:0.5;stroke:#ffffff;stroke-linejoin:miter;stroke-width:0.2;"/>
   </g>
   <g id="patch_53">
    <path clip-path="url(#pc3b5eeb0bf)" d="M 142.92748 256.32 
L 143.207164 256.32 
L 143.207164 255.629051 
L 142.92748 255.629051 
z
" style="fill:#ff0000;opacity:0.5;stroke:#ffffff;stroke-linejoin:miter;stroke-width:0.2;"/>
   </g>
   <g id="patch_54">
    <path clip-path="url(#pc3b5eeb0bf)" d="M 143.207164 256.32 
L 143.486849 256.32 
L 143.486849 256.32 
L 143.207164 256.32 
z
" style="fill:#ff0000;opacity:0.5;stroke:#ffffff;stroke-linejoin:miter;stroke-width:0.2;"/>
   </g>
   <g id="patch_55">
    <path clip-path="url(#pc3b5eeb0bf)" d="M 143.486849 256.32 
L 143.766533 256.32 
L 143.766533 252.404624 
L 143.486849 252.404624 
z
" style="fill:#ff0000;opacity:0.5;stroke:#ffffff;stroke-linejoin:miter;stroke-width:0.2;"/>
   </g>
   <g id="patch_56">
    <path clip-path="url(#pc3b5eeb0bf)" d="M 143.766533 256.32 
L 144.046217 256.32 
L 144.046217 248.94988 
L 143.766533 248.94988 
z
" style="fill:#ff0000;opacity:0.5;stroke:#ffffff;stroke-linejoin:miter;stroke-width:0.2;"/>
   </g>
   <g id="patch_57">
    <path clip-path="url(#pc3b5eeb0bf)" d="M 144.046217 256.32 
L 144.325901 256.32 
L 144.325901 245.26482 
L 144.046217 245.26482 
z
" style="fill:#ff0000;opacity:0.5;stroke:#ffffff;stroke-linejoin:miter;stroke-width:0.2;"/>
   </g>
   <g id="patch_58">
    <path clip-path="url(#pc3b5eeb0bf)" d="M 144.325901 256.32 
L 144.605585 256.32 
L 144.605585 233.979324 
L 144.325901 233.979324 
z
" style="fill:#ff0000;opacity:0.5;stroke:#ffffff;stroke-linejoin:miter;stroke-width:0.2;"/>
   </g>
   <g id="patch_59">
    <path clip-path="url(#pc3b5eeb0bf)" d="M 144.605585 256.32 
L 144.885269 256.32 
L 144.885269 231.676161 
L 144.605585 231.676161 
z
" style="fill:#ff0000;opacity:0.5;stroke:#ffffff;stroke-linejoin:miter;stroke-width:0.2;"/>
   </g>
   <g id="patch_60">
    <path clip-path="url(#pc3b5eeb0bf)" d="M 144.885269 256.32 
L 145.164954 256.32 
L 145.164954 214.863075 
L 144.885269 214.863075 
z
" style="fill:#ff0000;opacity:0.5;stroke:#ffffff;stroke-linejoin:miter;stroke-width:0.2;"/>
   </g>
   <g id="patch_61">
    <path clip-path="url(#pc3b5eeb0bf)" d="M 145.164954 256.32 
L 145.444638 256.32 
L 145.444638 207.723272 
L 145.164954 207.723272 
z
" style="fill:#ff0000;opacity:0.5;stroke:#ffffff;stroke-linejoin:miter;stroke-width:0.2;"/>
   </g>
   <g id="patch_62">
    <path clip-path="url(#pc3b5eeb0bf)" d="M 145.444638 256.32 
L 145.724322 256.32 
L 145.724322 195.286194 
L 145.444638 195.286194 
z
" style="fill:#ff0000;opacity:0.5;stroke:#ffffff;stroke-linejoin:miter;stroke-width:0.2;"/>
   </g>
   <g id="patch_63">
    <path clip-path="url(#pc3b5eeb0bf)" d="M 145.724322 256.32 
L 146.004006 256.32 
L 146.004006 195.746827 
L 145.724322 195.746827 
z
" style="fill:#ff0000;opacity:0.5;stroke:#ffffff;stroke-linejoin:miter;stroke-width:0.2;"/>
   </g>
   <g id="patch_64">
    <path clip-path="url(#pc3b5eeb0bf)" d="M 146.004006 256.32 
L 146.28369 256.32 
L 146.28369 170.642356 
L 146.004006 170.642356 
z
" style="fill:#ff0000;opacity:0.5;stroke:#ffffff;stroke-linejoin:miter;stroke-width:0.2;"/>
   </g>
   <g id="patch_65">
    <path clip-path="url(#pc3b5eeb0bf)" d="M 146.28369 256.32 
L 146.563374 256.32 
L 146.563374 155.671799 
L 146.28369 155.671799 
z
" style="fill:#ff0000;opacity:0.5;stroke:#ffffff;stroke-linejoin:miter;stroke-width:0.2;"/>
   </g>
   <g id="patch_66">
    <path clip-path="url(#pc3b5eeb0bf)" d="M 146.563374 256.32 
L 146.843058 256.32 
L 146.843058 129.415747 
L 146.563374 129.415747 
z
" style="fill:#ff0000;opacity:0.5;stroke:#ffffff;stroke-linejoin:miter;stroke-width:0.2;"/>
   </g>
   <g id="patch_67">
    <path clip-path="url(#pc3b5eeb0bf)" d="M 146.843058 256.32 
L 147.122743 256.32 
L 147.122743 108.456968 
L 146.843058 108.456968 
z
" style="fill:#ff0000;opacity:0.5;stroke:#ffffff;stroke-linejoin:miter;stroke-width:0.2;"/>
   </g>
   <g id="patch_68">
    <path clip-path="url(#pc3b5eeb0bf)" d="M 147.122743 256.32 
L 147.402427 256.32 
L 147.402427 77.594591 
L 147.122743 77.594591 
z
" style="fill:#ff0000;opacity:0.5;stroke:#ffffff;stroke-linejoin:miter;stroke-width:0.2;"/>
   </g>
   <g id="patch_69">
    <path clip-path="url(#pc3b5eeb0bf)" d="M 147.402427 256.32 
L 147.682111 256.32 
L 147.682111 45.12 
L 147.402427 45.12 
z
" style="fill:#ff0000;opacity:0.5;stroke:#ffffff;stroke-linejoin:miter;stroke-width:0.2;"/>
   </g>
   <g id="patch_70">
    <path clip-path="url(#pc3b5eeb0bf)" d="M 147.682111 256.32 
L 147.961795 256.32 
L 147.961795 68.842574 
L 147.682111 68.842574 
z
" style="fill:#ff0000;opacity:0.5;stroke:#ffffff;stroke-linejoin:miter;stroke-width:0.2;"/>
   </g>
   <g id="patch_71">
    <path clip-path="url(#pc3b5eeb0bf)" d="M 147.961795 256.32 
L 148.241479 256.32 
L 148.241479 95.328942 
L 147.961795 95.328942 
z
" style="fill:#ff0000;opacity:0.5;stroke:#ffffff;stroke-linejoin:miter;stroke-width:0.2;"/>
   </g>
   <g id="patch_72">
    <path clip-path="url(#pc3b5eeb0bf)" d="M 148.241479 256.32 
L 148.521163 256.32 
L 148.521163 115.13614 
L 148.241479 115.13614 
z
" style="fill:#ff0000;opacity:0.5;stroke:#ffffff;stroke-linejoin:miter;stroke-width:0.2;"/>
   </g>
   <g id="patch_73">
    <path clip-path="url(#pc3b5eeb0bf)" d="M 148.521163 256.32 
L 148.800848 256.32 
L 148.800848 139.779978 
L 148.521163 139.779978 
z
" style="fill:#ff0000;opacity:0.5;stroke:#ffffff;stroke-linejoin:miter;stroke-width:0.2;"/>
   </g>
   <g id="patch_74">
    <path clip-path="url(#pc3b5eeb0bf)" d="M 148.800848 256.32 
L 149.080532 256.32 
L 149.080532 160.969073 
L 148.800848 160.969073 
z
" style="fill:#ff0000;opacity:0.5;stroke:#ffffff;stroke-linejoin:miter;stroke-width:0.2;"/>
   </g>
   <g id="patch_75">
    <path clip-path="url(#pc3b5eeb0bf)" d="M 149.080532 256.32 
L 149.360216 256.32 
L 149.360216 177.551843 
L 149.080532 177.551843 
z
" style="fill:#ff0000;opacity:0.5;stroke:#ffffff;stroke-linejoin:miter;stroke-width:0.2;"/>
   </g>
   <g id="patch_76">
    <path clip-path="url(#pc3b5eeb0bf)" d="M 149.360216 256.32 
L 149.6399 256.32 
L 149.6399 197.35904 
L 149.360216 197.35904 
z
" style="fill:#ff0000;opacity:0.5;stroke:#ffffff;stroke-linejoin:miter;stroke-width:0.2;"/>
   </g>
   <g id="patch_77">
    <path clip-path="url(#pc3b5eeb0bf)" d="M 149.6399 256.32 
L 149.919584 256.32 
L 149.919584 215.093391 
L 149.6399 215.093391 
z
" style="fill:#ff0000;opacity:0.5;stroke:#ffffff;stroke-linejoin:miter;stroke-width:0.2;"/>
   </g>
   <g id="patch_78">
    <path clip-path="url(#pc3b5eeb0bf)" d="M 149.919584 256.32 
L 150.199268 256.32 
L 150.199268 227.530469 
L 149.919584 227.530469 
z
" style="fill:#ff0000;opacity:0.5;stroke:#ffffff;stroke-linejoin:miter;stroke-width:0.2;"/>
   </g>
   <g id="patch_79">
    <path clip-path="url(#pc3b5eeb0bf)" d="M 150.199268 256.32 
L 150.478952 256.32 
L 150.478952 237.8947 
L 150.199268 237.8947 
z
" style="fill:#ff0000;opacity:0.5;stroke:#ffffff;stroke-linejoin:miter;stroke-width:0.2;"/>
   </g>
   <g id="patch_80">
    <path clip-path="url(#pc3b5eeb0bf)" d="M 150.478952 256.32 
L 150.758637 256.32 
L 150.758637 238.815965 
L 150.478952 238.815965 
z
" style="fill:#ff0000;opacity:0.5;stroke:#ffffff;stroke-linejoin:miter;stroke-width:0.2;"/>
   </g>
   <g id="patch_81">
    <path clip-path="url(#pc3b5eeb0bf)" d="M 150.758637 256.32 
L 151.038321 256.32 
L 151.038321 242.040393 
L 150.758637 242.040393 
z
" style="fill:#ff0000;opacity:0.5;stroke:#ffffff;stroke-linejoin:miter;stroke-width:0.2;"/>
   </g>
   <g id="patch_82">
    <path clip-path="url(#pc3b5eeb0bf)" d="M 151.038321 256.32 
L 151.318005 256.32 
L 151.318005 251.253043 
L 151.038321 251.253043 
z
" style="fill:#ff0000;opacity:0.5;stroke:#ffffff;stroke-linejoin:miter;stroke-width:0.2;"/>
   </g>
   <g id="patch_83">
    <path clip-path="url(#pc3b5eeb0bf)" d="M 151.318005 256.32 
L 151.597689 256.32 
L 151.597689 252.865256 
L 151.318005 252.865256 
z
" style="fill:#ff0000;opacity:0.5;stroke:#ffffff;stroke-linejoin:miter;stroke-width:0.2;"/>
   </g>
   <g id="patch_84">
    <path clip-path="url(#pc3b5eeb0bf)" d="M 151.597689 256.32 
L 151.877373 256.32 
L 151.877373 252.63494 
L 151.597689 252.63494 
z
" style="fill:#ff0000;opacity:0.5;stroke:#ffffff;stroke-linejoin:miter;stroke-width:0.2;"/>
   </g>
   <g id="patch_85">
    <path clip-path="url(#pc3b5eeb0bf)" d="M 151.877373 256.32 
L 152.157057 256.32 
L 152.157057 253.556205 
L 151.877373 253.556205 
z
" style="fill:#ff0000;opacity:0.5;stroke:#ffffff;stroke-linejoin:miter;stroke-width:0.2;"/>
   </g>
   <g id="patch_86">
    <path clip-path="url(#pc3b5eeb0bf)" d="M 152.157057 256.32 
L 152.436742 256.32 
L 152.436742 254.707786 
L 152.157057 254.707786 
z
" style="fill:#ff0000;opacity:0.5;stroke:#ffffff;stroke-linejoin:miter;stroke-width:0.2;"/>
   </g>
   <g id="patch_87">
    <path clip-path="url(#pc3b5eeb0bf)" d="M 152.436742 256.32 
L 152.716426 256.32 
L 152.716426 254.938103 
L 152.436742 254.938103 
z
" style="fill:#ff0000;opacity:0.5;stroke:#ffffff;stroke-linejoin:miter;stroke-width:0.2;"/>
   </g>
   <g id="patch_88">
    <path clip-path="url(#pc3b5eeb0bf)" d="M 152.716426 256.32 
L 152.99611 256.32 
L 152.99611 256.089684 
L 152.716426 256.089684 
z
" style="fill:#ff0000;opacity:0.5;stroke:#ffffff;stroke-linejoin:miter;stroke-width:0.2;"/>
   </g>
   <g id="patch_89">
    <path clip-path="url(#pc3b5eeb0bf)" d="M 152.99611 256.32 
L 153.275794 256.32 
L 153.275794 256.32 
L 152.99611 256.32 
z
" style="fill:#ff0000;opacity:0.5;stroke:#ffffff;stroke-linejoin:miter;stroke-width:0.2;"/>
   </g>
   <g id="patch_90">
    <path clip-path="url(#pc3b5eeb0bf)" d="M 153.275794 256.32 
L 153.555478 256.32 
L 153.555478 256.089684 
L 153.275794 256.089684 
z
" style="fill:#ff0000;opacity:0.5;stroke:#ffffff;stroke-linejoin:miter;stroke-width:0.2;"/>
   </g>
   <g id="patch_91">
    <path clip-path="url(#pc3b5eeb0bf)" d="M 153.555478 256.32 
L 153.835162 256.32 
L 153.835162 256.089684 
L 153.555478 256.089684 
z
" style="fill:#ff0000;opacity:0.5;stroke:#ffffff;stroke-linejoin:miter;stroke-width:0.2;"/>
   </g>
   <g id="patch_92">
    <path clip-path="url(#pc3b5eeb0bf)" d="M 153.835162 256.32 
L 154.114846 256.32 
L 154.114846 256.32 
L 153.835162 256.32 
z
" style="fill:#ff0000;opacity:0.5;stroke:#ffffff;stroke-linejoin:miter;stroke-width:0.2;"/>
   </g>
   <g id="patch_93">
    <path clip-path="url(#pc3b5eeb0bf)" d="M 154.114846 256.32 
L 154.394531 256.32 
L 154.394531 256.089684 
L 154.114846 256.089684 
z
" style="fill:#ff0000;opacity:0.5;stroke:#ffffff;stroke-linejoin:miter;stroke-width:0.2;"/>
   </g>
   <g id="patch_94">
    <path clip-path="url(#pc3b5eeb0bf)" d="M 154.394531 256.32 
L 154.674215 256.32 
L 154.674215 256.32 
L 154.394531 256.32 
z
" style="fill:#ff0000;opacity:0.5;stroke:#ffffff;stroke-linejoin:miter;stroke-width:0.2;"/>
   </g>
   <g id="patch_95">
    <path clip-path="url(#pc3b5eeb0bf)" d="M 154.674215 256.32 
L 154.953899 256.32 
L 154.953899 256.32 
L 154.674215 256.32 
z
" style="fill:#ff0000;opacity:0.5;stroke:#ffffff;stroke-linejoin:miter;stroke-width:0.2;"/>
   </g>
   <g id="patch_96">
    <path clip-path="url(#pc3b5eeb0bf)" d="M 154.953899 256.32 
L 155.233583 256.32 
L 155.233583 256.32 
L 154.953899 256.32 
z
" style="fill:#ff0000;opacity:0.5;stroke:#ffffff;stroke-linejoin:miter;stroke-width:0.2;"/>
   </g>
   <g id="patch_97">
    <path clip-path="url(#pc3b5eeb0bf)" d="M 155.233583 256.32 
L 155.513267 256.32 
L 155.513267 256.089684 
L 155.233583 256.089684 
z
" style="fill:#ff0000;opacity:0.5;stroke:#ffffff;stroke-linejoin:miter;stroke-width:0.2;"/>
   </g>
   <g id="patch_98">
    <path clip-path="url(#pc3b5eeb0bf)" d="M 155.513267 256.32 
L 155.792951 256.32 
L 155.792951 256.089684 
L 155.513267 256.089684 
z
" style="fill:#ff0000;opacity:0.5;stroke:#ffffff;stroke-linejoin:miter;stroke-width:0.2;"/>
   </g>
   <g id="patch_99">
    <path clip-path="url(#pc3b5eeb0bf)" d="M 155.792951 256.32 
L 156.072636 256.32 
L 156.072636 256.32 
L 155.792951 256.32 
z
" style="fill:#ff0000;opacity:0.5;stroke:#ffffff;stroke-linejoin:miter;stroke-width:0.2;"/>
   </g>
   <g id="patch_100">
    <path clip-path="url(#pc3b5eeb0bf)" d="M 156.072636 256.32 
L 156.35232 256.32 
L 156.35232 256.089684 
L 156.072636 256.089684 
z
" style="fill:#ff0000;opacity:0.5;stroke:#ffffff;stroke-linejoin:miter;stroke-width:0.2;"/>
   </g>
   <g id="patch_101">
    <path clip-path="url(#pc3b5eeb0bf)" d="M 156.35232 256.32 
L 156.632004 256.32 
L 156.632004 256.32 
L 156.35232 256.32 
z
" style="fill:#ff0000;opacity:0.5;stroke:#ffffff;stroke-linejoin:miter;stroke-width:0.2;"/>
   </g>
   <g id="patch_102">
    <path clip-path="url(#pc3b5eeb0bf)" d="M 156.632004 256.32 
L 156.911688 256.32 
L 156.911688 256.089684 
L 156.632004 256.089684 
z
" style="fill:#ff0000;opacity:0.5;stroke:#ffffff;stroke-linejoin:miter;stroke-width:0.2;"/>
   </g>
   <g id="matplotlib.axis_1">
    <g id="xtick_1">
     <g id="line2d_1">
      <defs>
       <path d="M 0 0 
L 0 3.5 
" id="mc645ae97ce" style="stroke:#000000;stroke-width:0.8;"/>
      </defs>
      <g>
       <use style="stroke:#000000;stroke-width:0.8;" x="36" xlink:href="#mc645ae97ce" y="256.32"/>
      </g>
     </g>
     <g id="text_1">
      <!-- −2 -->
      <defs>
       <path d="M 10.59375 35.5 
L 73.1875 35.5 
L 73.1875 27.203125 
L 10.59375 27.203125 
z
" id="DejaVuSans-8722"/>
       <path d="M 19.1875 8.296875 
L 53.609375 8.296875 
L 53.609375 0 
L 7.328125 0 
L 7.328125 8.296875 
Q 12.9375 14.109375 22.625 23.890625 
Q 32.328125 33.6875 34.8125 36.53125 
Q 39.546875 41.84375 41.421875 45.53125 
Q 43.3125 49.21875 43.3125 52.78125 
Q 43.3125 58.59375 39.234375 62.25 
Q 35.15625 65.921875 28.609375 65.921875 
Q 23.96875 65.921875 18.8125 64.3125 
Q 13.671875 62.703125 7.8125 59.421875 
L 7.8125 69.390625 
Q 13.765625 71.78125 18.9375 73 
Q 24.125 74.21875 28.421875 74.21875 
Q 39.75 74.21875 46.484375 68.546875 
Q 53.21875 62.890625 53.21875 53.421875 
Q 53.21875 48.921875 51.53125 44.890625 
Q 49.859375 40.875 45.40625 35.40625 
Q 44.1875 33.984375 37.640625 27.21875 
Q 31.109375 20.453125 19.1875 8.296875 
z
" id="DejaVuSans-50"/>
      </defs>
      <g transform="translate(24.20625 275.4775)scale(0.16 -0.16)">
       <use xlink:href="#DejaVuSans-8722"/>
       <use x="83.789062" xlink:href="#DejaVuSans-50"/>
      </g>
     </g>
    </g>
    <g id="xtick_2">
     <g id="line2d_2">
      <g>
       <use style="stroke:#000000;stroke-width:0.8;" x="91.8" xlink:href="#mc645ae97ce" y="256.32"/>
      </g>
     </g>
     <g id="text_2">
      <!-- −1 -->
      <defs>
       <path d="M 12.40625 8.296875 
L 28.515625 8.296875 
L 28.515625 63.921875 
L 10.984375 60.40625 
L 10.984375 69.390625 
L 28.421875 72.90625 
L 38.28125 72.90625 
L 38.28125 8.296875 
L 54.390625 8.296875 
L 54.390625 0 
L 12.40625 0 
z
" id="DejaVuSans-49"/>
      </defs>
      <g transform="translate(80.00625 275.4775)scale(0.16 -0.16)">
       <use xlink:href="#DejaVuSans-8722"/>
       <use x="83.789062" xlink:href="#DejaVuSans-49"/>
      </g>
     </g>
    </g>
    <g id="xtick_3">
     <g id="line2d_3">
      <g>
       <use style="stroke:#000000;stroke-width:0.8;" x="147.6" xlink:href="#mc645ae97ce" y="256.32"/>
      </g>
     </g>
     <g id="text_3">
      <!-- 0 -->
      <defs>
       <path d="M 31.78125 66.40625 
Q 24.171875 66.40625 20.328125 58.90625 
Q 16.5 51.421875 16.5 36.375 
Q 16.5 21.390625 20.328125 13.890625 
Q 24.171875 6.390625 31.78125 6.390625 
Q 39.453125 6.390625 43.28125 13.890625 
Q 47.125 21.390625 47.125 36.375 
Q 47.125 51.421875 43.28125 58.90625 
Q 39.453125 66.40625 31.78125 66.40625 
z
M 31.78125 74.21875 
Q 44.046875 74.21875 50.515625 64.515625 
Q 56.984375 54.828125 56.984375 36.375 
Q 56.984375 17.96875 50.515625 8.265625 
Q 44.046875 -1.421875 31.78125 -1.421875 
Q 19.53125 -1.421875 13.0625 8.265625 
Q 6.59375 17.96875 6.59375 36.375 
Q 6.59375 54.828125 13.0625 64.515625 
Q 19.53125 74.21875 31.78125 74.21875 
z
" id="DejaVuSans-48"/>
      </defs>
      <g transform="translate(142.51 275.4775)scale(0.16 -0.16)">
       <use xlink:href="#DejaVuSans-48"/>
      </g>
     </g>
    </g>
    <g id="xtick_4">
     <g id="line2d_4">
      <g>
       <use style="stroke:#000000;stroke-width:0.8;" x="203.4" xlink:href="#mc645ae97ce" y="256.32"/>
      </g>
     </g>
     <g id="text_4">
      <!-- 1 -->
      <g transform="translate(198.31 275.4775)scale(0.16 -0.16)">
       <use xlink:href="#DejaVuSans-49"/>
      </g>
     </g>
    </g>
    <g id="xtick_5">
     <g id="line2d_5">
      <g>
       <use style="stroke:#000000;stroke-width:0.8;" x="259.2" xlink:href="#mc645ae97ce" y="256.32"/>
      </g>
     </g>
     <g id="text_5">
      <!-- 2 -->
      <g transform="translate(254.11 275.4775)scale(0.16 -0.16)">
       <use xlink:href="#DejaVuSans-50"/>
      </g>
     </g>
    </g>
    <g id="text_6">
     <!-- Velocity -->
     <defs>
      <path d="M 28.609375 0 
L 0.78125 72.90625 
L 11.078125 72.90625 
L 34.1875 11.53125 
L 57.328125 72.90625 
L 67.578125 72.90625 
L 39.796875 0 
z
" id="DejaVuSans-86"/>
      <path d="M 56.203125 29.59375 
L 56.203125 25.203125 
L 14.890625 25.203125 
Q 15.484375 15.921875 20.484375 11.0625 
Q 25.484375 6.203125 34.421875 6.203125 
Q 39.59375 6.203125 44.453125 7.46875 
Q 49.3125 8.734375 54.109375 11.28125 
L 54.109375 2.78125 
Q 49.265625 0.734375 44.1875 -0.34375 
Q 39.109375 -1.421875 33.890625 -1.421875 
Q 20.796875 -1.421875 13.15625 6.1875 
Q 5.515625 13.8125 5.515625 26.8125 
Q 5.515625 40.234375 12.765625 48.109375 
Q 20.015625 56 32.328125 56 
Q 43.359375 56 49.78125 48.890625 
Q 56.203125 41.796875 56.203125 29.59375 
z
M 47.21875 32.234375 
Q 47.125 39.59375 43.09375 43.984375 
Q 39.0625 48.390625 32.421875 48.390625 
Q 24.90625 48.390625 20.390625 44.140625 
Q 15.875 39.890625 15.1875 32.171875 
z
" id="DejaVuSans-101"/>
      <path d="M 9.421875 75.984375 
L 18.40625 75.984375 
L 18.40625 0 
L 9.421875 0 
z
" id="DejaVuSans-108"/>
      <path d="M 30.609375 48.390625 
Q 23.390625 48.390625 19.1875 42.75 
Q 14.984375 37.109375 14.984375 27.296875 
Q 14.984375 17.484375 19.15625 11.84375 
Q 23.34375 6.203125 30.609375 6.203125 
Q 37.796875 6.203125 41.984375 11.859375 
Q 46.1875 17.53125 46.1875 27.296875 
Q 46.1875 37.015625 41.984375 42.703125 
Q 37.796875 48.390625 30.609375 48.390625 
z
M 30.609375 56 
Q 42.328125 56 49.015625 48.375 
Q 55.71875 40.765625 55.71875 27.296875 
Q 55.71875 13.875 49.015625 6.21875 
Q 42.328125 -1.421875 30.609375 -1.421875 
Q 18.84375 -1.421875 12.171875 6.21875 
Q 5.515625 13.875 5.515625 27.296875 
Q 5.515625 40.765625 12.171875 48.375 
Q 18.84375 56 30.609375 56 
z
" id="DejaVuSans-111"/>
      <path d="M 48.78125 52.59375 
L 48.78125 44.1875 
Q 44.96875 46.296875 41.140625 47.34375 
Q 37.3125 48.390625 33.40625 48.390625 
Q 24.65625 48.390625 19.8125 42.84375 
Q 14.984375 37.3125 14.984375 27.296875 
Q 14.984375 17.28125 19.8125 11.734375 
Q 24.65625 6.203125 33.40625 6.203125 
Q 37.3125 6.203125 41.140625 7.25 
Q 44.96875 8.296875 48.78125 10.40625 
L 48.78125 2.09375 
Q 45.015625 0.34375 40.984375 -0.53125 
Q 36.96875 -1.421875 32.421875 -1.421875 
Q 20.0625 -1.421875 12.78125 6.34375 
Q 5.515625 14.109375 5.515625 27.296875 
Q 5.515625 40.671875 12.859375 48.328125 
Q 20.21875 56 33.015625 56 
Q 37.15625 56 41.109375 55.140625 
Q 45.0625 54.296875 48.78125 52.59375 
z
" id="DejaVuSans-99"/>
      <path d="M 9.421875 54.6875 
L 18.40625 54.6875 
L 18.40625 0 
L 9.421875 0 
z
M 9.421875 75.984375 
L 18.40625 75.984375 
L 18.40625 64.59375 
L 9.421875 64.59375 
z
" id="DejaVuSans-105"/>
      <path d="M 18.3125 70.21875 
L 18.3125 54.6875 
L 36.8125 54.6875 
L 36.8125 47.703125 
L 18.3125 47.703125 
L 18.3125 18.015625 
Q 18.3125 11.328125 20.140625 9.421875 
Q 21.96875 7.515625 27.59375 7.515625 
L 36.8125 7.515625 
L 36.8125 0 
L 27.59375 0 
Q 17.1875 0 13.234375 3.875 
Q 9.28125 7.765625 9.28125 18.015625 
L 9.28125 47.703125 
L 2.6875 47.703125 
L 2.6875 54.6875 
L 9.28125 54.6875 
L 9.28125 70.21875 
z
" id="DejaVuSans-116"/>
      <path d="M 32.171875 -5.078125 
Q 28.375 -14.84375 24.75 -17.8125 
Q 21.140625 -20.796875 15.09375 -20.796875 
L 7.90625 -20.796875 
L 7.90625 -13.28125 
L 13.1875 -13.28125 
Q 16.890625 -13.28125 18.9375 -11.515625 
Q 21 -9.765625 23.484375 -3.21875 
L 25.09375 0.875 
L 2.984375 54.6875 
L 12.5 54.6875 
L 29.59375 11.921875 
L 46.6875 54.6875 
L 56.203125 54.6875 
z
" id="DejaVuSans-121"/>
     </defs>
     <g transform="translate(115.60375 294.9625)scale(0.16 -0.16)">
      <use xlink:href="#DejaVuSans-86"/>
      <use x="68.298828" xlink:href="#DejaVuSans-101"/>
      <use x="129.822266" xlink:href="#DejaVuSans-108"/>
      <use x="157.605469" xlink:href="#DejaVuSans-111"/>
      <use x="218.787109" xlink:href="#DejaVuSans-99"/>
      <use x="273.767578" xlink:href="#DejaVuSans-105"/>
      <use x="301.550781" xlink:href="#DejaVuSans-116"/>
      <use x="340.759766" xlink:href="#DejaVuSans-121"/>
     </g>
    </g>
   </g>
   <g id="matplotlib.axis_2">
    <g id="ytick_1">
     <g id="line2d_6">
      <defs>
       <path d="M 0 0 
L -3.5 0 
" id="m3d6efada52" style="stroke:#000000;stroke-width:0.8;"/>
      </defs>
      <g>
       <use style="stroke:#000000;stroke-width:0.8;" x="36" xlink:href="#m3d6efada52" y="256.32"/>
      </g>
     </g>
     <g id="text_7">
      <!-- 0 -->
      <g transform="translate(18.82 262.39875)scale(0.16 -0.16)">
       <use xlink:href="#DejaVuSans-48"/>
      </g>
     </g>
    </g>
    <g id="ytick_2">
     <g id="line2d_7">
      <g>
       <use style="stroke:#000000;stroke-width:0.8;" x="36" xlink:href="#m3d6efada52" y="203.390526"/>
      </g>
     </g>
     <g id="text_8">
      <!-- 5 -->
      <defs>
       <path d="M 10.796875 72.90625 
L 49.515625 72.90625 
L 49.515625 64.59375 
L 19.828125 64.59375 
L 19.828125 46.734375 
Q 21.96875 47.46875 24.109375 47.828125 
Q 26.265625 48.1875 28.421875 48.1875 
Q 40.625 48.1875 47.75 41.5 
Q 54.890625 34.8125 54.890625 23.390625 
Q 54.890625 11.625 47.5625 5.09375 
Q 40.234375 -1.421875 26.90625 -1.421875 
Q 22.3125 -1.421875 17.546875 -0.640625 
Q 12.796875 0.140625 7.71875 1.703125 
L 7.71875 11.625 
Q 12.109375 9.234375 16.796875 8.0625 
Q 21.484375 6.890625 26.703125 6.890625 
Q 35.15625 6.890625 40.078125 11.328125 
Q 45.015625 15.765625 45.015625 23.390625 
Q 45.015625 31 40.078125 35.4375 
Q 35.15625 39.890625 26.703125 39.890625 
Q 22.75 39.890625 18.8125 39.015625 
Q 14.890625 38.140625 10.796875 36.28125 
z
" id="DejaVuSans-53"/>
      </defs>
      <g transform="translate(18.82 209.469276)scale(0.16 -0.16)">
       <use xlink:href="#DejaVuSans-53"/>
      </g>
     </g>
    </g>
    <g id="ytick_3">
     <g id="line2d_8">
      <g>
       <use style="stroke:#000000;stroke-width:0.8;" x="36" xlink:href="#m3d6efada52" y="150.461052"/>
      </g>
     </g>
     <g id="text_9">
      <!-- 10 -->
      <g transform="translate(8.64 156.539802)scale(0.16 -0.16)">
       <use xlink:href="#DejaVuSans-49"/>
       <use x="63.623047" xlink:href="#DejaVuSans-48"/>
      </g>
     </g>
    </g>
    <g id="ytick_4">
     <g id="line2d_9">
      <g>
       <use style="stroke:#000000;stroke-width:0.8;" x="36" xlink:href="#m3d6efada52" y="97.531577"/>
      </g>
     </g>
     <g id="text_10">
      <!-- 15 -->
      <g transform="translate(8.64 103.610327)scale(0.16 -0.16)">
       <use xlink:href="#DejaVuSans-49"/>
       <use x="63.623047" xlink:href="#DejaVuSans-53"/>
      </g>
     </g>
    </g>
    <g id="ytick_5">
     <g id="line2d_10">
      <g>
       <use style="stroke:#000000;stroke-width:0.8;" x="36" xlink:href="#m3d6efada52" y="44.602103"/>
      </g>
     </g>
     <g id="text_11">
      <!-- 20 -->
      <g transform="translate(8.64 50.680853)scale(0.16 -0.16)">
       <use xlink:href="#DejaVuSans-50"/>
       <use x="63.623047" xlink:href="#DejaVuSans-48"/>
      </g>
     </g>
    </g>
    <g id="text_12">
     <!-- PDF -->
     <defs>
      <path d="M 19.671875 64.796875 
L 19.671875 37.40625 
L 32.078125 37.40625 
Q 38.96875 37.40625 42.71875 40.96875 
Q 46.484375 44.53125 46.484375 51.125 
Q 46.484375 57.671875 42.71875 61.234375 
Q 38.96875 64.796875 32.078125 64.796875 
z
M 9.8125 72.90625 
L 32.078125 72.90625 
Q 44.34375 72.90625 50.609375 67.359375 
Q 56.890625 61.8125 56.890625 51.125 
Q 56.890625 40.328125 50.609375 34.8125 
Q 44.34375 29.296875 32.078125 29.296875 
L 19.671875 29.296875 
L 19.671875 0 
L 9.8125 0 
z
" id="DejaVuSans-80"/>
      <path d="M 19.671875 64.796875 
L 19.671875 8.109375 
L 31.59375 8.109375 
Q 46.6875 8.109375 53.6875 14.9375 
Q 60.6875 21.78125 60.6875 36.53125 
Q 60.6875 51.171875 53.6875 57.984375 
Q 46.6875 64.796875 31.59375 64.796875 
z
M 9.8125 72.90625 
L 30.078125 72.90625 
Q 51.265625 72.90625 61.171875 64.09375 
Q 71.09375 55.28125 71.09375 36.53125 
Q 71.09375 17.671875 61.125 8.828125 
Q 51.171875 0 30.078125 0 
L 9.8125 0 
z
" id="DejaVuSans-68"/>
      <path d="M 9.8125 72.90625 
L 51.703125 72.90625 
L 51.703125 64.59375 
L 19.671875 64.59375 
L 19.671875 43.109375 
L 48.578125 43.109375 
L 48.578125 34.8125 
L 19.671875 34.8125 
L 19.671875 0 
L 9.8125 0 
z
" id="DejaVuSans-70"/>
     </defs>
     <g transform="translate(1.3125 161.025)rotate(-90)scale(0.16 -0.16)">
      <use xlink:href="#DejaVuSans-80"/>
      <use x="60.302734" xlink:href="#DejaVuSans-68"/>
      <use x="137.304688" xlink:href="#DejaVuSans-70"/>
     </g>
    </g>
   </g>
   <g id="line2d_11">
    <path clip-path="url(#pc3b5eeb0bf)" d="M 132.450876 256.318504 
L 133.125579 256.201324 
L 133.800281 256.049841 
L 134.812335 256.08732 
L 135.487038 255.714245 
L 135.655713 255.448061 
L 135.824389 254.807094 
L 136.16174 251.999142 
L 137.005118 241.126724 
L 137.511145 233.495156 
L 137.848496 229.197603 
L 138.691875 211.610603 
L 139.029226 200.250594 
L 139.366577 177.910592 
L 140.04128 130.835122 
L 140.378631 120.346593 
L 141.222009 107.411237 
L 141.390685 108.79369 
L 141.728036 119.667041 
L 142.234063 149.738229 
L 142.908765 198.458729 
L 143.583468 224.980579 
L 144.089495 238.229698 
L 144.595521 245.734997 
L 145.101548 249.071136 
L 145.4389 250.069546 
L 145.944926 251.384674 
L 146.450953 253.20663 
L 146.788305 253.544902 
L 147.125656 253.609423 
L 147.800358 254.285271 
L 148.306385 254.287916 
L 148.981088 255.122348 
L 149.487115 255.39067 
L 149.824466 255.37493 
L 150.667844 255.83586 
L 151.679898 255.881786 
L 152.523276 256.298087 
L 153.53533 256.297594 
L 153.872681 256.318531 
L 153.872681 256.318531 
" style="fill:none;stroke:#0000ff;stroke-linecap:square;stroke-width:1.5;"/>
   </g>
   <g id="line2d_12">
    <path clip-path="url(#pc3b5eeb0bf)" d="M 142.26897 256.317793 
L 142.630416 256.238529 
L 143.112345 255.814052 
L 143.232827 255.523793 
L 143.473791 253.98681 
L 143.95572 248.247274 
L 144.317166 239.994824 
L 145.160541 212.987832 
L 145.883433 187.682305 
L 146.24488 165.665305 
L 146.84729 117.778549 
L 147.449701 63.213507 
L 147.570183 60.880744 
L 147.690665 63.802747 
L 148.052111 88.572169 
L 149.015968 163.50176 
L 149.859343 217.216753 
L 150.220789 234.193315 
L 150.461754 237.982935 
L 150.702718 240.384654 
L 151.666575 252.868462 
L 151.907539 253.25059 
L 152.991878 256.137897 
L 153.232842 256.23255 
L 153.835253 256.153765 
L 154.678628 256.297054 
L 155.040074 256.238259 
L 155.40152 256.122519 
L 156.606341 256.226144 
L 157.208752 256.272295 
L 157.570198 256.318175 
L 157.570198 256.318175 
" style="fill:none;stroke:#ff0000;stroke-linecap:square;stroke-width:1.5;"/>
   </g>
   <g id="patch_103">
    <path d="M 36 256.32 
L 36 34.56 
" style="fill:none;stroke:#000000;stroke-linecap:square;stroke-linejoin:miter;stroke-width:0.8;"/>
   </g>
   <g id="patch_104">
    <path d="M 259.2 256.32 
L 259.2 34.56 
" style="fill:none;stroke:#000000;stroke-linecap:square;stroke-linejoin:miter;stroke-width:0.8;"/>
   </g>
   <g id="patch_105">
    <path d="M 36 256.32 
L 259.2 256.32 
" style="fill:none;stroke:#000000;stroke-linecap:square;stroke-linejoin:miter;stroke-width:0.8;"/>
   </g>
   <g id="patch_106">
    <path d="M 36 34.56 
L 259.2 34.56 
" style="fill:none;stroke:#000000;stroke-linecap:square;stroke-linejoin:miter;stroke-width:0.8;"/>
   </g>
   <g id="text_13">
    <!-- Euglena -->
    <defs>
     <path d="M 9.8125 72.90625 
L 55.90625 72.90625 
L 55.90625 64.59375 
L 19.671875 64.59375 
L 19.671875 43.015625 
L 54.390625 43.015625 
L 54.390625 34.71875 
L 19.671875 34.71875 
L 19.671875 8.296875 
L 56.78125 8.296875 
L 56.78125 0 
L 9.8125 0 
z
" id="DejaVuSans-69"/>
     <path d="M 8.5 21.578125 
L 8.5 54.6875 
L 17.484375 54.6875 
L 17.484375 21.921875 
Q 17.484375 14.15625 20.5 10.265625 
Q 23.53125 6.390625 29.59375 6.390625 
Q 36.859375 6.390625 41.078125 11.03125 
Q 45.3125 15.671875 45.3125 23.6875 
L 45.3125 54.6875 
L 54.296875 54.6875 
L 54.296875 0 
L 45.3125 0 
L 45.3125 8.40625 
Q 42.046875 3.421875 37.71875 1 
Q 33.40625 -1.421875 27.6875 -1.421875 
Q 18.265625 -1.421875 13.375 4.4375 
Q 8.5 10.296875 8.5 21.578125 
z
M 31.109375 56 
z
" id="DejaVuSans-117"/>
     <path d="M 45.40625 27.984375 
Q 45.40625 37.75 41.375 43.109375 
Q 37.359375 48.484375 30.078125 48.484375 
Q 22.859375 48.484375 18.828125 43.109375 
Q 14.796875 37.75 14.796875 27.984375 
Q 14.796875 18.265625 18.828125 12.890625 
Q 22.859375 7.515625 30.078125 7.515625 
Q 37.359375 7.515625 41.375 12.890625 
Q 45.40625 18.265625 45.40625 27.984375 
z
M 54.390625 6.78125 
Q 54.390625 -7.171875 48.1875 -13.984375 
Q 42 -20.796875 29.203125 -20.796875 
Q 24.46875 -20.796875 20.265625 -20.09375 
Q 16.0625 -19.390625 12.109375 -17.921875 
L 12.109375 -9.1875 
Q 16.0625 -11.328125 19.921875 -12.34375 
Q 23.78125 -13.375 27.78125 -13.375 
Q 36.625 -13.375 41.015625 -8.765625 
Q 45.40625 -4.15625 45.40625 5.171875 
L 45.40625 9.625 
Q 42.625 4.78125 38.28125 2.390625 
Q 33.9375 0 27.875 0 
Q 17.828125 0 11.671875 7.65625 
Q 5.515625 15.328125 5.515625 27.984375 
Q 5.515625 40.671875 11.671875 48.328125 
Q 17.828125 56 27.875 56 
Q 33.9375 56 38.28125 53.609375 
Q 42.625 51.21875 45.40625 46.390625 
L 45.40625 54.6875 
L 54.390625 54.6875 
z
" id="DejaVuSans-103"/>
     <path d="M 54.890625 33.015625 
L 54.890625 0 
L 45.90625 0 
L 45.90625 32.71875 
Q 45.90625 40.484375 42.875 44.328125 
Q 39.84375 48.1875 33.796875 48.1875 
Q 26.515625 48.1875 22.3125 43.546875 
Q 18.109375 38.921875 18.109375 30.90625 
L 18.109375 0 
L 9.078125 0 
L 9.078125 54.6875 
L 18.109375 54.6875 
L 18.109375 46.1875 
Q 21.34375 51.125 25.703125 53.5625 
Q 30.078125 56 35.796875 56 
Q 45.21875 56 50.046875 50.171875 
Q 54.890625 44.34375 54.890625 33.015625 
z
" id="DejaVuSans-110"/>
     <path d="M 34.28125 27.484375 
Q 23.390625 27.484375 19.1875 25 
Q 14.984375 22.515625 14.984375 16.5 
Q 14.984375 11.71875 18.140625 8.90625 
Q 21.296875 6.109375 26.703125 6.109375 
Q 34.1875 6.109375 38.703125 11.40625 
Q 43.21875 16.703125 43.21875 25.484375 
L 43.21875 27.484375 
z
M 52.203125 31.203125 
L 52.203125 0 
L 43.21875 0 
L 43.21875 8.296875 
Q 40.140625 3.328125 35.546875 0.953125 
Q 30.953125 -1.421875 24.3125 -1.421875 
Q 15.921875 -1.421875 10.953125 3.296875 
Q 6 8.015625 6 15.921875 
Q 6 25.140625 12.171875 29.828125 
Q 18.359375 34.515625 30.609375 34.515625 
L 43.21875 34.515625 
L 43.21875 35.40625 
Q 43.21875 41.609375 39.140625 45 
Q 35.0625 48.390625 27.6875 48.390625 
Q 23 48.390625 18.546875 47.265625 
Q 14.109375 46.140625 10.015625 43.890625 
L 10.015625 52.203125 
Q 14.9375 54.109375 19.578125 55.046875 
Q 24.21875 56 28.609375 56 
Q 40.484375 56 46.34375 49.84375 
Q 52.203125 43.703125 52.203125 31.203125 
z
" id="DejaVuSans-97"/>
    </defs>
    <g transform="translate(108.8145 28.56)scale(0.192 -0.192)">
     <use xlink:href="#DejaVuSans-69"/>
     <use x="63.183594" xlink:href="#DejaVuSans-117"/>
     <use x="126.5625" xlink:href="#DejaVuSans-103"/>
     <use x="190.039062" xlink:href="#DejaVuSans-108"/>
     <use x="217.822266" xlink:href="#DejaVuSans-101"/>
     <use x="279.345703" xlink:href="#DejaVuSans-110"/>
     <use x="342.724609" xlink:href="#DejaVuSans-97"/>
    </g>
   </g>
   <g id="legend_1">
    <g id="patch_107">
     <path d="M 176.385 94.33 
L 248 94.33 
Q 251.2 94.33 251.2 91.13 
L 251.2 45.76 
Q 251.2 42.56 248 42.56 
L 176.385 42.56 
Q 173.185 42.56 173.185 45.76 
L 173.185 91.13 
Q 173.185 94.33 176.385 94.33 
z
" style="fill:#ffffff;opacity:0.8;stroke:#cccccc;stroke-linejoin:miter;"/>
    </g>
    <g id="patch_108">
     <path d="M 179.585 61.1175 
L 211.585 61.1175 
L 211.585 49.9175 
L 179.585 49.9175 
z
" style="fill:#0000ff;opacity:0.5;stroke:#ffffff;stroke-linejoin:miter;stroke-width:0.2;"/>
    </g>
    <g id="text_14">
     <!-- Vz -->
     <defs>
      <path d="M 5.515625 54.6875 
L 48.1875 54.6875 
L 48.1875 46.484375 
L 14.40625 7.171875 
L 48.1875 7.171875 
L 48.1875 0 
L 4.296875 0 
L 4.296875 8.203125 
L 38.09375 47.515625 
L 5.515625 47.515625 
z
" id="DejaVuSans-122"/>
     </defs>
     <g transform="translate(224.385 61.1175)scale(0.16 -0.16)">
      <use xlink:href="#DejaVuSans-86"/>
      <use x="68.408203" xlink:href="#DejaVuSans-122"/>
     </g>
    </g>
    <g id="patch_109">
     <path d="M 179.585 84.6025 
L 211.585 84.6025 
L 211.585 73.4025 
L 179.585 73.4025 
z
" style="fill:#ff0000;opacity:0.5;stroke:#ffffff;stroke-linejoin:miter;stroke-width:0.2;"/>
    </g>
    <g id="text_15">
     <!-- Vx -->
     <defs>
      <path d="M 54.890625 54.6875 
L 35.109375 28.078125 
L 55.90625 0 
L 45.3125 0 
L 29.390625 21.484375 
L 13.484375 0 
L 2.875 0 
L 24.125 28.609375 
L 4.6875 54.6875 
L 15.28125 54.6875 
L 29.78125 35.203125 
L 44.28125 54.6875 
z
" id="DejaVuSans-120"/>
     </defs>
     <g transform="translate(224.385 84.6025)scale(0.16 -0.16)">
      <use xlink:href="#DejaVuSans-86"/>
      <use x="68.408203" xlink:href="#DejaVuSans-120"/>
     </g>
    </g>
   </g>
  </g>
 </g>
 <defs>
  <clipPath id="pc3b5eeb0bf">
   <rect height="221.76" width="223.2" x="36" y="34.56"/>
  </clipPath>
 </defs>
</svg>
