<?xml version="1.0" encoding="utf-8" standalone="no"?>
<!DOCTYPE svg PUBLIC "-//W3C//DTD SVG 1.1//EN"
  "http://www.w3.org/Graphics/SVG/1.1/DTD/svg11.dtd">
<!-- Created with matplotlib (https://matplotlib.org/) -->
<svg height="345.6pt" version="1.1" viewBox="0 0 460.8 345.6" width="460.8pt" xmlns="http://www.w3.org/2000/svg" xmlns:xlink="http://www.w3.org/1999/xlink">
 <defs>
  <style type="text/css">
*{stroke-linecap:butt;stroke-linejoin:round;}
  </style>
 </defs>
 <g id="figure_1">
  <g id="patch_1">
   <path d="M 0 345.6 
L 460.8 345.6 
L 460.8 0 
L 0 0 
z
" style="fill:#ffffff;"/>
  </g>
  <g id="axes_1">
   <g id="patch_2">
    <path d="M 57.6 307.584 
L 414.72 307.584 
L 414.72 41.472 
L 57.6 41.472 
z
" style="fill:#ffffff;"/>
   </g>
   <g id="matplotlib.axis_1">
    <g id="xtick_1">
     <g id="line2d_1">
      <defs>
       <path d="M 0 0 
L 0 3.5 
" id="mda3d01df58" style="stroke:#000000;stroke-width:0.8;"/>
      </defs>
      <g>
       <use style="stroke:#000000;stroke-width:0.8;" x="73.832727" xlink:href="#mda3d01df58" y="307.584"/>
      </g>
     </g>
     <g id="text_1">
      <!-- 0 -->
      <defs>
       <path d="M 31.78125 66.40625 
Q 24.171875 66.40625 20.328125 58.90625 
Q 16.5 51.421875 16.5 36.375 
Q 16.5 21.390625 20.328125 13.890625 
Q 24.171875 6.390625 31.78125 6.390625 
Q 39.453125 6.390625 43.28125 13.890625 
Q 47.125 21.390625 47.125 36.375 
Q 47.125 51.421875 43.28125 58.90625 
Q 39.453125 66.40625 31.78125 66.40625 
z
M 31.78125 74.21875 
Q 44.046875 74.21875 50.515625 64.515625 
Q 56.984375 54.828125 56.984375 36.375 
Q 56.984375 17.96875 50.515625 8.265625 
Q 44.046875 -1.421875 31.78125 -1.421875 
Q 19.53125 -1.421875 13.0625 8.265625 
Q 6.59375 17.96875 6.59375 36.375 
Q 6.59375 54.828125 13.0625 64.515625 
Q 19.53125 74.21875 31.78125 74.21875 
z
" id="DejaVuSans-48"/>
      </defs>
      <g transform="translate(70.651477 322.182437)scale(0.1 -0.1)">
       <use xlink:href="#DejaVuSans-48"/>
      </g>
     </g>
    </g>
    <g id="xtick_2">
     <g id="line2d_2">
      <g>
       <use style="stroke:#000000;stroke-width:0.8;" x="121.296273" xlink:href="#mda3d01df58" y="307.584"/>
      </g>
     </g>
     <g id="text_2">
      <!-- 50 -->
      <defs>
       <path d="M 10.796875 72.90625 
L 49.515625 72.90625 
L 49.515625 64.59375 
L 19.828125 64.59375 
L 19.828125 46.734375 
Q 21.96875 47.46875 24.109375 47.828125 
Q 26.265625 48.1875 28.421875 48.1875 
Q 40.625 48.1875 47.75 41.5 
Q 54.890625 34.8125 54.890625 23.390625 
Q 54.890625 11.625 47.5625 5.09375 
Q 40.234375 -1.421875 26.90625 -1.421875 
Q 22.3125 -1.421875 17.546875 -0.640625 
Q 12.796875 0.140625 7.71875 1.703125 
L 7.71875 11.625 
Q 12.109375 9.234375 16.796875 8.0625 
Q 21.484375 6.890625 26.703125 6.890625 
Q 35.15625 6.890625 40.078125 11.328125 
Q 45.015625 15.765625 45.015625 23.390625 
Q 45.015625 31 40.078125 35.4375 
Q 35.15625 39.890625 26.703125 39.890625 
Q 22.75 39.890625 18.8125 39.015625 
Q 14.890625 38.140625 10.796875 36.28125 
z
" id="DejaVuSans-53"/>
      </defs>
      <g transform="translate(114.933773 322.182437)scale(0.1 -0.1)">
       <use xlink:href="#DejaVuSans-53"/>
       <use x="63.623047" xlink:href="#DejaVuSans-48"/>
      </g>
     </g>
    </g>
    <g id="xtick_3">
     <g id="line2d_3">
      <g>
       <use style="stroke:#000000;stroke-width:0.8;" x="168.759818" xlink:href="#mda3d01df58" y="307.584"/>
      </g>
     </g>
     <g id="text_3">
      <!-- 100 -->
      <defs>
       <path d="M 12.40625 8.296875 
L 28.515625 8.296875 
L 28.515625 63.921875 
L 10.984375 60.40625 
L 10.984375 69.390625 
L 28.421875 72.90625 
L 38.28125 72.90625 
L 38.28125 8.296875 
L 54.390625 8.296875 
L 54.390625 0 
L 12.40625 0 
z
" id="DejaVuSans-49"/>
      </defs>
      <g transform="translate(159.216068 322.182437)scale(0.1 -0.1)">
       <use xlink:href="#DejaVuSans-49"/>
       <use x="63.623047" xlink:href="#DejaVuSans-48"/>
       <use x="127.246094" xlink:href="#DejaVuSans-48"/>
      </g>
     </g>
    </g>
    <g id="xtick_4">
     <g id="line2d_4">
      <g>
       <use style="stroke:#000000;stroke-width:0.8;" x="216.223364" xlink:href="#mda3d01df58" y="307.584"/>
      </g>
     </g>
     <g id="text_4">
      <!-- 150 -->
      <g transform="translate(206.679614 322.182437)scale(0.1 -0.1)">
       <use xlink:href="#DejaVuSans-49"/>
       <use x="63.623047" xlink:href="#DejaVuSans-53"/>
       <use x="127.246094" xlink:href="#DejaVuSans-48"/>
      </g>
     </g>
    </g>
    <g id="xtick_5">
     <g id="line2d_5">
      <g>
       <use style="stroke:#000000;stroke-width:0.8;" x="263.68691" xlink:href="#mda3d01df58" y="307.584"/>
      </g>
     </g>
     <g id="text_5">
      <!-- 200 -->
      <defs>
       <path d="M 19.1875 8.296875 
L 53.609375 8.296875 
L 53.609375 0 
L 7.328125 0 
L 7.328125 8.296875 
Q 12.9375 14.109375 22.625 23.890625 
Q 32.328125 33.6875 34.8125 36.53125 
Q 39.546875 41.84375 41.421875 45.53125 
Q 43.3125 49.21875 43.3125 52.78125 
Q 43.3125 58.59375 39.234375 62.25 
Q 35.15625 65.921875 28.609375 65.921875 
Q 23.96875 65.921875 18.8125 64.3125 
Q 13.671875 62.703125 7.8125 59.421875 
L 7.8125 69.390625 
Q 13.765625 71.78125 18.9375 73 
Q 24.125 74.21875 28.421875 74.21875 
Q 39.75 74.21875 46.484375 68.546875 
Q 53.21875 62.890625 53.21875 53.421875 
Q 53.21875 48.921875 51.53125 44.890625 
Q 49.859375 40.875 45.40625 35.40625 
Q 44.1875 33.984375 37.640625 27.21875 
Q 31.109375 20.453125 19.1875 8.296875 
z
" id="DejaVuSans-50"/>
      </defs>
      <g transform="translate(254.14316 322.182437)scale(0.1 -0.1)">
       <use xlink:href="#DejaVuSans-50"/>
       <use x="63.623047" xlink:href="#DejaVuSans-48"/>
       <use x="127.246094" xlink:href="#DejaVuSans-48"/>
      </g>
     </g>
    </g>
    <g id="xtick_6">
     <g id="line2d_6">
      <g>
       <use style="stroke:#000000;stroke-width:0.8;" x="311.150455" xlink:href="#mda3d01df58" y="307.584"/>
      </g>
     </g>
     <g id="text_6">
      <!-- 250 -->
      <g transform="translate(301.606705 322.182437)scale(0.1 -0.1)">
       <use xlink:href="#DejaVuSans-50"/>
       <use x="63.623047" xlink:href="#DejaVuSans-53"/>
       <use x="127.246094" xlink:href="#DejaVuSans-48"/>
      </g>
     </g>
    </g>
    <g id="xtick_7">
     <g id="line2d_7">
      <g>
       <use style="stroke:#000000;stroke-width:0.8;" x="358.614001" xlink:href="#mda3d01df58" y="307.584"/>
      </g>
     </g>
     <g id="text_7">
      <!-- 300 -->
      <defs>
       <path d="M 40.578125 39.3125 
Q 47.65625 37.796875 51.625 33 
Q 55.609375 28.21875 55.609375 21.1875 
Q 55.609375 10.40625 48.1875 4.484375 
Q 40.765625 -1.421875 27.09375 -1.421875 
Q 22.515625 -1.421875 17.65625 -0.515625 
Q 12.796875 0.390625 7.625 2.203125 
L 7.625 11.71875 
Q 11.71875 9.328125 16.59375 8.109375 
Q 21.484375 6.890625 26.8125 6.890625 
Q 36.078125 6.890625 40.9375 10.546875 
Q 45.796875 14.203125 45.796875 21.1875 
Q 45.796875 27.640625 41.28125 31.265625 
Q 36.765625 34.90625 28.71875 34.90625 
L 20.21875 34.90625 
L 20.21875 43.015625 
L 29.109375 43.015625 
Q 36.375 43.015625 40.234375 45.921875 
Q 44.09375 48.828125 44.09375 54.296875 
Q 44.09375 59.90625 40.109375 62.90625 
Q 36.140625 65.921875 28.71875 65.921875 
Q 24.65625 65.921875 20.015625 65.03125 
Q 15.375 64.15625 9.8125 62.3125 
L 9.8125 71.09375 
Q 15.4375 72.65625 20.34375 73.4375 
Q 25.25 74.21875 29.59375 74.21875 
Q 40.828125 74.21875 47.359375 69.109375 
Q 53.90625 64.015625 53.90625 55.328125 
Q 53.90625 49.265625 50.4375 45.09375 
Q 46.96875 40.921875 40.578125 39.3125 
z
" id="DejaVuSans-51"/>
      </defs>
      <g transform="translate(349.070251 322.182437)scale(0.1 -0.1)">
       <use xlink:href="#DejaVuSans-51"/>
       <use x="63.623047" xlink:href="#DejaVuSans-48"/>
       <use x="127.246094" xlink:href="#DejaVuSans-48"/>
      </g>
     </g>
    </g>
    <g id="xtick_8">
     <g id="line2d_8">
      <g>
       <use style="stroke:#000000;stroke-width:0.8;" x="406.077546" xlink:href="#mda3d01df58" y="307.584"/>
      </g>
     </g>
     <g id="text_8">
      <!-- 350 -->
      <g transform="translate(396.533796 322.182437)scale(0.1 -0.1)">
       <use xlink:href="#DejaVuSans-51"/>
       <use x="63.623047" xlink:href="#DejaVuSans-53"/>
       <use x="127.246094" xlink:href="#DejaVuSans-48"/>
      </g>
     </g>
    </g>
    <g id="text_9">
     <!-- Time (s) -->
     <defs>
      <path d="M -0.296875 72.90625 
L 61.375 72.90625 
L 61.375 64.59375 
L 35.5 64.59375 
L 35.5 0 
L 25.59375 0 
L 25.59375 64.59375 
L -0.296875 64.59375 
z
" id="DejaVuSans-84"/>
      <path d="M 9.421875 54.6875 
L 18.40625 54.6875 
L 18.40625 0 
L 9.421875 0 
z
M 9.421875 75.984375 
L 18.40625 75.984375 
L 18.40625 64.59375 
L 9.421875 64.59375 
z
" id="DejaVuSans-105"/>
      <path d="M 52 44.1875 
Q 55.375 50.25 60.0625 53.125 
Q 64.75 56 71.09375 56 
Q 79.640625 56 84.28125 50.015625 
Q 88.921875 44.046875 88.921875 33.015625 
L 88.921875 0 
L 79.890625 0 
L 79.890625 32.71875 
Q 79.890625 40.578125 77.09375 44.375 
Q 74.3125 48.1875 68.609375 48.1875 
Q 61.625 48.1875 57.5625 43.546875 
Q 53.515625 38.921875 53.515625 30.90625 
L 53.515625 0 
L 44.484375 0 
L 44.484375 32.71875 
Q 44.484375 40.625 41.703125 44.40625 
Q 38.921875 48.1875 33.109375 48.1875 
Q 26.21875 48.1875 22.15625 43.53125 
Q 18.109375 38.875 18.109375 30.90625 
L 18.109375 0 
L 9.078125 0 
L 9.078125 54.6875 
L 18.109375 54.6875 
L 18.109375 46.1875 
Q 21.1875 51.21875 25.484375 53.609375 
Q 29.78125 56 35.6875 56 
Q 41.65625 56 45.828125 52.96875 
Q 50 49.953125 52 44.1875 
z
" id="DejaVuSans-109"/>
      <path d="M 56.203125 29.59375 
L 56.203125 25.203125 
L 14.890625 25.203125 
Q 15.484375 15.921875 20.484375 11.0625 
Q 25.484375 6.203125 34.421875 6.203125 
Q 39.59375 6.203125 44.453125 7.46875 
Q 49.3125 8.734375 54.109375 11.28125 
L 54.109375 2.78125 
Q 49.265625 0.734375 44.1875 -0.34375 
Q 39.109375 -1.421875 33.890625 -1.421875 
Q 20.796875 -1.421875 13.15625 6.1875 
Q 5.515625 13.8125 5.515625 26.8125 
Q 5.515625 40.234375 12.765625 48.109375 
Q 20.015625 56 32.328125 56 
Q 43.359375 56 49.78125 48.890625 
Q 56.203125 41.796875 56.203125 29.59375 
z
M 47.21875 32.234375 
Q 47.125 39.59375 43.09375 43.984375 
Q 39.0625 48.390625 32.421875 48.390625 
Q 24.90625 48.390625 20.390625 44.140625 
Q 15.875 39.890625 15.1875 32.171875 
z
" id="DejaVuSans-101"/>
      <path id="DejaVuSans-32"/>
      <path d="M 31 75.875 
Q 24.46875 64.65625 21.28125 53.65625 
Q 18.109375 42.671875 18.109375 31.390625 
Q 18.109375 20.125 21.3125 9.0625 
Q 24.515625 -2 31 -13.1875 
L 23.1875 -13.1875 
Q 15.875 -1.703125 12.234375 9.375 
Q 8.59375 20.453125 8.59375 31.390625 
Q 8.59375 42.28125 12.203125 53.3125 
Q 15.828125 64.359375 23.1875 75.875 
z
" id="DejaVuSans-40"/>
      <path d="M 44.28125 53.078125 
L 44.28125 44.578125 
Q 40.484375 46.53125 36.375 47.5 
Q 32.28125 48.484375 27.875 48.484375 
Q 21.1875 48.484375 17.84375 46.4375 
Q 14.5 44.390625 14.5 40.28125 
Q 14.5 37.15625 16.890625 35.375 
Q 19.28125 33.59375 26.515625 31.984375 
L 29.59375 31.296875 
Q 39.15625 29.25 43.1875 25.515625 
Q 47.21875 21.78125 47.21875 15.09375 
Q 47.21875 7.46875 41.1875 3.015625 
Q 35.15625 -1.421875 24.609375 -1.421875 
Q 20.21875 -1.421875 15.453125 -0.5625 
Q 10.6875 0.296875 5.421875 2 
L 5.421875 11.28125 
Q 10.40625 8.6875 15.234375 7.390625 
Q 20.0625 6.109375 24.8125 6.109375 
Q 31.15625 6.109375 34.5625 8.28125 
Q 37.984375 10.453125 37.984375 14.40625 
Q 37.984375 18.0625 35.515625 20.015625 
Q 33.0625 21.96875 24.703125 23.78125 
L 21.578125 24.515625 
Q 13.234375 26.265625 9.515625 29.90625 
Q 5.8125 33.546875 5.8125 39.890625 
Q 5.8125 47.609375 11.28125 51.796875 
Q 16.75 56 26.8125 56 
Q 31.78125 56 36.171875 55.265625 
Q 40.578125 54.546875 44.28125 53.078125 
z
" id="DejaVuSans-115"/>
      <path d="M 8.015625 75.875 
L 15.828125 75.875 
Q 23.140625 64.359375 26.78125 53.3125 
Q 30.421875 42.28125 30.421875 31.390625 
Q 30.421875 20.453125 26.78125 9.375 
Q 23.140625 -1.703125 15.828125 -13.1875 
L 8.015625 -13.1875 
Q 14.5 -2 17.703125 9.0625 
Q 20.90625 20.125 20.90625 31.390625 
Q 20.90625 42.671875 17.703125 53.65625 
Q 14.5 64.65625 8.015625 75.875 
z
" id="DejaVuSans-41"/>
     </defs>
     <g transform="translate(215.677188 335.860562)scale(0.1 -0.1)">
      <use xlink:href="#DejaVuSans-84"/>
      <use x="61.037109" xlink:href="#DejaVuSans-105"/>
      <use x="88.820312" xlink:href="#DejaVuSans-109"/>
      <use x="186.232422" xlink:href="#DejaVuSans-101"/>
      <use x="247.755859" xlink:href="#DejaVuSans-32"/>
      <use x="279.542969" xlink:href="#DejaVuSans-40"/>
      <use x="318.556641" xlink:href="#DejaVuSans-115"/>
      <use x="370.65625" xlink:href="#DejaVuSans-41"/>
     </g>
    </g>
   </g>
   <g id="matplotlib.axis_2">
    <g id="ytick_1">
     <g id="line2d_9">
      <defs>
       <path d="M 0 0 
L -3.5 0 
" id="mae766565c9" style="stroke:#000000;stroke-width:0.8;"/>
      </defs>
      <g>
       <use style="stroke:#000000;stroke-width:0.8;" x="57.6" xlink:href="#mae766565c9" y="272.630846"/>
      </g>
     </g>
     <g id="text_10">
      <!-- −100 -->
      <defs>
       <path d="M 10.59375 35.5 
L 73.1875 35.5 
L 73.1875 27.203125 
L 10.59375 27.203125 
z
" id="DejaVuSans-8722"/>
      </defs>
      <g transform="translate(23.132812 276.430065)scale(0.1 -0.1)">
       <use xlink:href="#DejaVuSans-8722"/>
       <use x="83.789062" xlink:href="#DejaVuSans-49"/>
       <use x="147.412109" xlink:href="#DejaVuSans-48"/>
       <use x="211.035156" xlink:href="#DejaVuSans-48"/>
      </g>
     </g>
    </g>
    <g id="ytick_2">
     <g id="line2d_10">
      <g>
       <use style="stroke:#000000;stroke-width:0.8;" x="57.6" xlink:href="#mae766565c9" y="228.818277"/>
      </g>
     </g>
     <g id="text_11">
      <!-- −80 -->
      <defs>
       <path d="M 31.78125 34.625 
Q 24.75 34.625 20.71875 30.859375 
Q 16.703125 27.09375 16.703125 20.515625 
Q 16.703125 13.921875 20.71875 10.15625 
Q 24.75 6.390625 31.78125 6.390625 
Q 38.8125 6.390625 42.859375 10.171875 
Q 46.921875 13.96875 46.921875 20.515625 
Q 46.921875 27.09375 42.890625 30.859375 
Q 38.875 34.625 31.78125 34.625 
z
M 21.921875 38.8125 
Q 15.578125 40.375 12.03125 44.71875 
Q 8.5 49.078125 8.5 55.328125 
Q 8.5 64.0625 14.71875 69.140625 
Q 20.953125 74.21875 31.78125 74.21875 
Q 42.671875 74.21875 48.875 69.140625 
Q 55.078125 64.0625 55.078125 55.328125 
Q 55.078125 49.078125 51.53125 44.71875 
Q 48 40.375 41.703125 38.8125 
Q 48.828125 37.15625 52.796875 32.3125 
Q 56.78125 27.484375 56.78125 20.515625 
Q 56.78125 9.90625 50.3125 4.234375 
Q 43.84375 -1.421875 31.78125 -1.421875 
Q 19.734375 -1.421875 13.25 4.234375 
Q 6.78125 9.90625 6.78125 20.515625 
Q 6.78125 27.484375 10.78125 32.3125 
Q 14.796875 37.15625 21.921875 38.8125 
z
M 18.3125 54.390625 
Q 18.3125 48.734375 21.84375 45.5625 
Q 25.390625 42.390625 31.78125 42.390625 
Q 38.140625 42.390625 41.71875 45.5625 
Q 45.3125 48.734375 45.3125 54.390625 
Q 45.3125 60.0625 41.71875 63.234375 
Q 38.140625 66.40625 31.78125 66.40625 
Q 25.390625 66.40625 21.84375 63.234375 
Q 18.3125 60.0625 18.3125 54.390625 
z
" id="DejaVuSans-56"/>
      </defs>
      <g transform="translate(29.495313 232.617496)scale(0.1 -0.1)">
       <use xlink:href="#DejaVuSans-8722"/>
       <use x="83.789062" xlink:href="#DejaVuSans-56"/>
       <use x="147.412109" xlink:href="#DejaVuSans-48"/>
      </g>
     </g>
    </g>
    <g id="ytick_3">
     <g id="line2d_11">
      <g>
       <use style="stroke:#000000;stroke-width:0.8;" x="57.6" xlink:href="#mae766565c9" y="185.005708"/>
      </g>
     </g>
     <g id="text_12">
      <!-- −60 -->
      <defs>
       <path d="M 33.015625 40.375 
Q 26.375 40.375 22.484375 35.828125 
Q 18.609375 31.296875 18.609375 23.390625 
Q 18.609375 15.53125 22.484375 10.953125 
Q 26.375 6.390625 33.015625 6.390625 
Q 39.65625 6.390625 43.53125 10.953125 
Q 47.40625 15.53125 47.40625 23.390625 
Q 47.40625 31.296875 43.53125 35.828125 
Q 39.65625 40.375 33.015625 40.375 
z
M 52.59375 71.296875 
L 52.59375 62.3125 
Q 48.875 64.0625 45.09375 64.984375 
Q 41.3125 65.921875 37.59375 65.921875 
Q 27.828125 65.921875 22.671875 59.328125 
Q 17.53125 52.734375 16.796875 39.40625 
Q 19.671875 43.65625 24.015625 45.921875 
Q 28.375 48.1875 33.59375 48.1875 
Q 44.578125 48.1875 50.953125 41.515625 
Q 57.328125 34.859375 57.328125 23.390625 
Q 57.328125 12.15625 50.6875 5.359375 
Q 44.046875 -1.421875 33.015625 -1.421875 
Q 20.359375 -1.421875 13.671875 8.265625 
Q 6.984375 17.96875 6.984375 36.375 
Q 6.984375 53.65625 15.1875 63.9375 
Q 23.390625 74.21875 37.203125 74.21875 
Q 40.921875 74.21875 44.703125 73.484375 
Q 48.484375 72.75 52.59375 71.296875 
z
" id="DejaVuSans-54"/>
      </defs>
      <g transform="translate(29.495313 188.804926)scale(0.1 -0.1)">
       <use xlink:href="#DejaVuSans-8722"/>
       <use x="83.789062" xlink:href="#DejaVuSans-54"/>
       <use x="147.412109" xlink:href="#DejaVuSans-48"/>
      </g>
     </g>
    </g>
    <g id="ytick_4">
     <g id="line2d_12">
      <g>
       <use style="stroke:#000000;stroke-width:0.8;" x="57.6" xlink:href="#mae766565c9" y="141.193138"/>
      </g>
     </g>
     <g id="text_13">
      <!-- −40 -->
      <defs>
       <path d="M 37.796875 64.3125 
L 12.890625 25.390625 
L 37.796875 25.390625 
z
M 35.203125 72.90625 
L 47.609375 72.90625 
L 47.609375 25.390625 
L 58.015625 25.390625 
L 58.015625 17.1875 
L 47.609375 17.1875 
L 47.609375 0 
L 37.796875 0 
L 37.796875 17.1875 
L 4.890625 17.1875 
L 4.890625 26.703125 
z
" id="DejaVuSans-52"/>
      </defs>
      <g transform="translate(29.495313 144.992357)scale(0.1 -0.1)">
       <use xlink:href="#DejaVuSans-8722"/>
       <use x="83.789062" xlink:href="#DejaVuSans-52"/>
       <use x="147.412109" xlink:href="#DejaVuSans-48"/>
      </g>
     </g>
    </g>
    <g id="ytick_5">
     <g id="line2d_13">
      <g>
       <use style="stroke:#000000;stroke-width:0.8;" x="57.6" xlink:href="#mae766565c9" y="97.380569"/>
      </g>
     </g>
     <g id="text_14">
      <!-- −20 -->
      <g transform="translate(29.495313 101.179788)scale(0.1 -0.1)">
       <use xlink:href="#DejaVuSans-8722"/>
       <use x="83.789062" xlink:href="#DejaVuSans-50"/>
       <use x="147.412109" xlink:href="#DejaVuSans-48"/>
      </g>
     </g>
    </g>
    <g id="ytick_6">
     <g id="line2d_14">
      <g>
       <use style="stroke:#000000;stroke-width:0.8;" x="57.6" xlink:href="#mae766565c9" y="53.568"/>
      </g>
     </g>
     <g id="text_15">
      <!-- 0 -->
      <g transform="translate(44.2375 57.367219)scale(0.1 -0.1)">
       <use xlink:href="#DejaVuSans-48"/>
      </g>
     </g>
    </g>
    <g id="text_16">
     <!-- Z displacement (mm) -->
     <defs>
      <path d="M 5.609375 72.90625 
L 62.890625 72.90625 
L 62.890625 65.375 
L 16.796875 8.296875 
L 64.015625 8.296875 
L 64.015625 0 
L 4.5 0 
L 4.5 7.515625 
L 50.59375 64.59375 
L 5.609375 64.59375 
z
" id="DejaVuSans-90"/>
      <path d="M 45.40625 46.390625 
L 45.40625 75.984375 
L 54.390625 75.984375 
L 54.390625 0 
L 45.40625 0 
L 45.40625 8.203125 
Q 42.578125 3.328125 38.25 0.953125 
Q 33.9375 -1.421875 27.875 -1.421875 
Q 17.96875 -1.421875 11.734375 6.484375 
Q 5.515625 14.40625 5.515625 27.296875 
Q 5.515625 40.1875 11.734375 48.09375 
Q 17.96875 56 27.875 56 
Q 33.9375 56 38.25 53.625 
Q 42.578125 51.265625 45.40625 46.390625 
z
M 14.796875 27.296875 
Q 14.796875 17.390625 18.875 11.75 
Q 22.953125 6.109375 30.078125 6.109375 
Q 37.203125 6.109375 41.296875 11.75 
Q 45.40625 17.390625 45.40625 27.296875 
Q 45.40625 37.203125 41.296875 42.84375 
Q 37.203125 48.484375 30.078125 48.484375 
Q 22.953125 48.484375 18.875 42.84375 
Q 14.796875 37.203125 14.796875 27.296875 
z
" id="DejaVuSans-100"/>
      <path d="M 18.109375 8.203125 
L 18.109375 -20.796875 
L 9.078125 -20.796875 
L 9.078125 54.6875 
L 18.109375 54.6875 
L 18.109375 46.390625 
Q 20.953125 51.265625 25.265625 53.625 
Q 29.59375 56 35.59375 56 
Q 45.5625 56 51.78125 48.09375 
Q 58.015625 40.1875 58.015625 27.296875 
Q 58.015625 14.40625 51.78125 6.484375 
Q 45.5625 -1.421875 35.59375 -1.421875 
Q 29.59375 -1.421875 25.265625 0.953125 
Q 20.953125 3.328125 18.109375 8.203125 
z
M 48.6875 27.296875 
Q 48.6875 37.203125 44.609375 42.84375 
Q 40.53125 48.484375 33.40625 48.484375 
Q 26.265625 48.484375 22.1875 42.84375 
Q 18.109375 37.203125 18.109375 27.296875 
Q 18.109375 17.390625 22.1875 11.75 
Q 26.265625 6.109375 33.40625 6.109375 
Q 40.53125 6.109375 44.609375 11.75 
Q 48.6875 17.390625 48.6875 27.296875 
z
" id="DejaVuSans-112"/>
      <path d="M 9.421875 75.984375 
L 18.40625 75.984375 
L 18.40625 0 
L 9.421875 0 
z
" id="DejaVuSans-108"/>
      <path d="M 34.28125 27.484375 
Q 23.390625 27.484375 19.1875 25 
Q 14.984375 22.515625 14.984375 16.5 
Q 14.984375 11.71875 18.140625 8.90625 
Q 21.296875 6.109375 26.703125 6.109375 
Q 34.1875 6.109375 38.703125 11.40625 
Q 43.21875 16.703125 43.21875 25.484375 
L 43.21875 27.484375 
z
M 52.203125 31.203125 
L 52.203125 0 
L 43.21875 0 
L 43.21875 8.296875 
Q 40.140625 3.328125 35.546875 0.953125 
Q 30.953125 -1.421875 24.3125 -1.421875 
Q 15.921875 -1.421875 10.953125 3.296875 
Q 6 8.015625 6 15.921875 
Q 6 25.140625 12.171875 29.828125 
Q 18.359375 34.515625 30.609375 34.515625 
L 43.21875 34.515625 
L 43.21875 35.40625 
Q 43.21875 41.609375 39.140625 45 
Q 35.0625 48.390625 27.6875 48.390625 
Q 23 48.390625 18.546875 47.265625 
Q 14.109375 46.140625 10.015625 43.890625 
L 10.015625 52.203125 
Q 14.9375 54.109375 19.578125 55.046875 
Q 24.21875 56 28.609375 56 
Q 40.484375 56 46.34375 49.84375 
Q 52.203125 43.703125 52.203125 31.203125 
z
" id="DejaVuSans-97"/>
      <path d="M 48.78125 52.59375 
L 48.78125 44.1875 
Q 44.96875 46.296875 41.140625 47.34375 
Q 37.3125 48.390625 33.40625 48.390625 
Q 24.65625 48.390625 19.8125 42.84375 
Q 14.984375 37.3125 14.984375 27.296875 
Q 14.984375 17.28125 19.8125 11.734375 
Q 24.65625 6.203125 33.40625 6.203125 
Q 37.3125 6.203125 41.140625 7.25 
Q 44.96875 8.296875 48.78125 10.40625 
L 48.78125 2.09375 
Q 45.015625 0.34375 40.984375 -0.53125 
Q 36.96875 -1.421875 32.421875 -1.421875 
Q 20.0625 -1.421875 12.78125 6.34375 
Q 5.515625 14.109375 5.515625 27.296875 
Q 5.515625 40.671875 12.859375 48.328125 
Q 20.21875 56 33.015625 56 
Q 37.15625 56 41.109375 55.140625 
Q 45.0625 54.296875 48.78125 52.59375 
z
" id="DejaVuSans-99"/>
      <path d="M 54.890625 33.015625 
L 54.890625 0 
L 45.90625 0 
L 45.90625 32.71875 
Q 45.90625 40.484375 42.875 44.328125 
Q 39.84375 48.1875 33.796875 48.1875 
Q 26.515625 48.1875 22.3125 43.546875 
Q 18.109375 38.921875 18.109375 30.90625 
L 18.109375 0 
L 9.078125 0 
L 9.078125 54.6875 
L 18.109375 54.6875 
L 18.109375 46.1875 
Q 21.34375 51.125 25.703125 53.5625 
Q 30.078125 56 35.796875 56 
Q 45.21875 56 50.046875 50.171875 
Q 54.890625 44.34375 54.890625 33.015625 
z
" id="DejaVuSans-110"/>
      <path d="M 18.3125 70.21875 
L 18.3125 54.6875 
L 36.8125 54.6875 
L 36.8125 47.703125 
L 18.3125 47.703125 
L 18.3125 18.015625 
Q 18.3125 11.328125 20.140625 9.421875 
Q 21.96875 7.515625 27.59375 7.515625 
L 36.8125 7.515625 
L 36.8125 0 
L 27.59375 0 
Q 17.1875 0 13.234375 3.875 
Q 9.28125 7.765625 9.28125 18.015625 
L 9.28125 47.703125 
L 2.6875 47.703125 
L 2.6875 54.6875 
L 9.28125 54.6875 
L 9.28125 70.21875 
z
" id="DejaVuSans-116"/>
     </defs>
     <g transform="translate(17.053125 228.470188)rotate(-90)scale(0.1 -0.1)">
      <use xlink:href="#DejaVuSans-90"/>
      <use x="68.505859" xlink:href="#DejaVuSans-32"/>
      <use x="100.292969" xlink:href="#DejaVuSans-100"/>
      <use x="163.769531" xlink:href="#DejaVuSans-105"/>
      <use x="191.552734" xlink:href="#DejaVuSans-115"/>
      <use x="243.652344" xlink:href="#DejaVuSans-112"/>
      <use x="307.128906" xlink:href="#DejaVuSans-108"/>
      <use x="334.912109" xlink:href="#DejaVuSans-97"/>
      <use x="396.191406" xlink:href="#DejaVuSans-99"/>
      <use x="451.171875" xlink:href="#DejaVuSans-101"/>
      <use x="512.695312" xlink:href="#DejaVuSans-109"/>
      <use x="610.107422" xlink:href="#DejaVuSans-101"/>
      <use x="671.630859" xlink:href="#DejaVuSans-110"/>
      <use x="735.009766" xlink:href="#DejaVuSans-116"/>
      <use x="774.21875" xlink:href="#DejaVuSans-32"/>
      <use x="806.005859" xlink:href="#DejaVuSans-40"/>
      <use x="845.019531" xlink:href="#DejaVuSans-109"/>
      <use x="942.431641" xlink:href="#DejaVuSans-109"/>
      <use x="1039.84375" xlink:href="#DejaVuSans-41"/>
     </g>
    </g>
   </g>
   <g id="line2d_15">
    <path clip-path="url(#p32a3b6ec5a)" d="M 73.832727 53.568 
L 74.447783 54.289205 
L 74.542406 54.352635 
L 74.778966 54.613338 
L 75.425563 55.325846 
L 75.709434 55.639696 
L 76.939545 57.179906 
L 77.144563 57.418478 
L 77.239187 57.469973 
L 77.822701 58.030751 
L 77.964637 58.161611 
L 78.185426 58.424041 
L 80.109445 60.545346 
L 80.503711 61.003891 
L 80.7245 61.234498 
L 81.166078 61.62993 
L 81.260702 61.70381 
L 81.607656 62.242185 
L 81.70228 62.311259 
L 81.93884 62.644827 
L 82.1754 62.909112 
L 82.333106 63.080019 
L 82.616978 63.448551 
L 82.711602 63.491164 
L 84.146731 65.035555 
L 84.304437 65.248245 
L 84.87218 65.83887 
L 86.417704 67.563101 
L 86.654264 67.806196 
L 87.032759 68.231042 
L 87.237777 68.505241 
L 87.427025 68.644385 
L 89.067173 70.534468 
L 89.319503 70.865351 
L 89.429897 71.009954 
L 89.697998 71.382134 
L 89.792622 71.4707 
L 89.950329 71.660813 
L 90.723091 72.587776 
L 90.849256 72.69128 
L 91.085815 72.945213 
L 91.385458 73.234328 
L 91.732412 73.629489 
L 91.874348 73.777307 
L 92.110908 74.056803 
L 92.315926 74.266066 
L 92.520944 74.588586 
L 93.971844 76.429761 
L 94.082238 76.524456 
L 94.492275 77.042447 
L 95.627762 78.470004 
L 96.242817 79.254269 
L 97.220597 80.322644 
L 97.394074 80.46375 
L 97.472928 80.515025 
L 97.693717 80.829987 
L 97.930276 81.060445 
L 98.356084 81.555968 
L 98.49802 81.737454 
L 98.813433 82.176443 
L 106.383343 91.111352 
L 106.588362 91.32421 
L 106.888004 91.650419 
L 107.093022 91.898064 
L 109.190519 94.515975 
L 109.427078 94.788662 
L 111.855758 97.74128 
L 112.076547 98.010748 
L 112.186942 98.11838 
L 112.596978 98.669085 
L 112.723144 98.824861 
L 112.959703 99.132139 
L 113.243575 99.463828 
L 114.174043 100.564851 
L 114.363291 100.818012 
L 115.971897 102.852267 
L 116.05075 102.940834 
L 116.52387 103.513333 
L 116.650035 103.676871 
L 118.069393 105.359772 
L 119.20488 106.685057 
L 119.362586 106.865691 
L 120.277284 107.949066 
L 120.371907 108.066402 
L 122.059367 110.183273 
L 122.39055 110.610424 
L 123.794138 112.31985 
L 124.188404 112.789721 
L 124.298799 112.926072 
L 134.849362 125.443237 
L 136.426426 127.15401 
L 137.167647 128.092527 
L 137.278041 128.214957 
L 137.467289 128.447243 
L 138.366216 129.494143 
L 138.618546 129.80486 
L 138.776253 129.951865 
L 139.154748 130.412576 
L 139.249372 130.500958 
L 139.612097 130.903676 
L 140.085217 131.471481 
L 140.384859 131.878523 
L 140.574107 132.069295 
L 140.952602 132.570428 
L 141.031455 132.650112 
L 141.39418 133.139558 
L 141.678052 133.399358 
L 143.5863 135.467353 
L 143.870172 135.808879 
L 144.090961 136.075283 
L 144.721787 136.824282 
L 144.942576 137.054328 
L 145.447237 137.731551 
L 147.087384 139.767326 
L 147.387026 140.10813 
L 148.711761 141.752356 
L 149.121798 142.263755 
L 149.232192 142.366232 
L 150.951193 144.401949 
L 151.14044 144.589818 
L 151.471624 144.953767 
L 151.928973 145.455796 
L 155.745469 149.838655 
L 156.155506 150.253613 
L 158.69458 153.283183 
L 158.836516 153.467562 
L 159.577737 154.331306 
L 159.766984 154.549573 
L 160.098168 154.948231 
L 160.113939 154.932459 
L 160.161251 155.013788 
L 161.943334 157.132574 
L 162.558389 157.821529 
L 162.810719 158.087262 
L 166.043702 161.915923 
L 167.746932 163.908257 
L 168.109657 164.371131 
L 168.204281 164.445964 
L 168.551235 164.878393 
L 169.276685 165.681813 
L 169.65518 166.06994 
L 169.860199 166.363205 
L 170.096758 166.620926 
L 170.396401 167.05379 
L 170.554107 167.238264 
L 170.696043 167.454289 
L 170.995685 167.764315 
L 171.090309 167.852343 
L 172.304649 169.230397 
L 174.070962 171.359802 
L 174.386374 171.720048 
L 175.143366 172.626561 
L 175.332613 172.81034 
L 175.616485 173.135769 
L 175.97921 173.524689 
L 176.247311 173.819099 
L 176.72043 174.365561 
L 182.208616 180.710981 
L 182.429405 180.880129 
L 182.760588 181.225055 
L 182.839441 181.288131 
L 183.722598 182.282119 
L 183.864534 182.410383 
L 184.006469 182.563337 
L 184.668837 183.366579 
L 187.034434 186.256405 
L 187.19214 186.421792 
L 187.554865 186.860763 
L 188.201462 187.609887 
L 188.911141 188.438559 
L 188.989994 188.479648 
L 189.005765 188.499639 
L 191.071719 190.887328 
L 191.308279 191.232581 
L 191.32405 191.225701 
L 192.822261 192.773873 
L 192.901114 192.858692 
L 193.736959 193.772865 
L 193.847353 193.900267 
L 194.903987 195.222807 
L 196.481051 197.023039 
L 196.670299 197.191103 
L 197.379978 197.986855 
L 197.821556 198.497816 
L 198.972814 199.92517 
L 206.353477 208.330705 
L 206.858137 208.876782 
L 207.567816 209.541181 
L 207.820147 209.787911 
L 208.13556 210.005094 
L 208.924092 210.840376 
L 209.018716 210.941746 
L 209.207964 211.193212 
L 209.870331 211.942758 
L 209.949184 211.986767 
L 210.32768 212.386316 
L 210.469616 212.508828 
L 210.643093 212.700038 
L 211.273919 213.347135 
L 211.431625 213.517668 
L 212.172845 214.450094 
L 212.330552 214.594977 
L 212.567112 214.94484 
L 213.371415 215.900762 
L 213.639516 216.22311 
L 214.948479 217.724425 
L 215.074645 217.879415 
L 217.424471 220.639464 
L 217.582177 220.782533 
L 218.954224 222.338619 
L 218.969994 222.31587 
L 219.033077 222.40492 
L 219.58505 223.08522 
L 219.805839 223.370094 
L 220.547059 224.170477 
L 221.130573 224.849172 
L 222.959968 226.904749 
L 223.212299 227.16734 
L 224.694739 228.950667 
L 224.757822 229.002694 
L 224.773593 229.030465 
L 224.96284 229.240884 
L 225.483272 229.830885 
L 227.170731 231.911965 
L 227.375749 232.199207 
L 227.486144 232.327042 
L 227.833098 232.703764 
L 227.959263 232.822156 
L 228.148511 233.037642 
L 228.337759 233.229753 
L 228.416612 233.287925 
L 228.937044 233.862429 
L 229.015897 233.943825 
L 229.220915 234.182744 
L 229.709805 234.673173 
L 229.883282 234.853656 
L 230.687585 235.762778 
L 230.782209 235.82262 
L 231.066081 236.173454 
L 231.602283 236.765102 
L 231.823072 236.981712 
L 232.091173 237.320998 
L 232.185797 237.382765 
L 233.73132 239.053409 
L 234.078275 239.442907 
L 234.440999 239.861475 
L 234.92989 240.470838 
L 235.308385 240.804282 
L 235.324156 240.771407 
L 236.39656 239.445237 
L 236.475413 239.376652 
L 236.90122 239.148897 
L 237.13778 239.310401 
L 237.263945 239.530707 
L 237.547817 239.864797 
L 238.462515 240.901041 
L 238.762157 241.408498 
L 239.030258 241.77051 
L 239.298359 242.154003 
L 243.114855 247.032193 
L 243.22525 247.131004 
L 243.840305 247.832202 
L 244.108406 248.063998 
L 244.313425 248.299146 
L 244.486902 248.45607 
L 244.581526 248.511743 
L 245.543535 249.610713 
L 245.843177 249.946941 
L 246.237444 250.36457 
L 246.39515 250.510837 
L 246.552857 250.653626 
L 246.820958 250.946812 
L 246.947123 251.039677 
L 247.246765 251.426749 
L 247.467554 251.638416 
L 247.735655 251.980974 
L 247.877591 252.086554 
L 248.161463 252.447069 
L 248.681894 253.088001 
L 248.8396 253.219471 
L 249.123472 253.616699 
L 249.296949 253.768776 
L 249.407344 253.912974 
L 253.838896 258.633591 
L 254.122767 258.931889 
L 254.832446 259.769905 
L 255.021694 259.979119 
L 256.109869 261.155565 
L 256.37797 261.460237 
L 256.567218 261.664852 
L 256.788007 261.922961 
L 257.813099 263.063466 
L 257.986576 263.263727 
L 259.122062 264.637235 
L 261.2511 266.952462 
L 261.566513 267.345569 
L 261.661137 267.443635 
L 262.749311 268.806342 
L 263.048954 269.190114 
L 263.175119 269.372726 
L 263.427449 269.700956 
L 263.44322 269.681472 
L 263.522073 269.758444 
L 264.421 270.687681 
L 264.547165 270.802619 
L 265.16222 271.510408 
L 265.430321 271.77322 
L 265.729964 272.184274 
L 265.824588 272.249576 
L 266.013835 272.453326 
L 266.36079 272.946731 
L 266.960074 273.630073 
L 267.038927 273.721653 
L 267.606671 274.252084 
L 268.07979 274.653597 
L 268.190185 274.755889 
L 269.372983 276.341756 
L 269.641084 276.781873 
L 270.082662 277.466317 
L 270.240369 277.643869 
L 272.637507 280.593931 
L 272.653278 280.582762 
L 272.70059 280.668983 
L 273.173709 281.259926 
L 273.362957 281.477929 
L 273.662599 281.829836 
L 273.851847 282.106074 
L 274.009554 282.298901 
L 275.286976 283.742136 
L 275.39737 283.818302 
L 275.791637 284.205117 
L 276.548628 285.047755 
L 276.753646 285.258302 
L 277.195224 285.749792 
L 277.557949 286.179766 
L 278.567271 287.300971 
L 278.961537 287.724216 
L 279.182326 287.955565 
L 279.27695 288.016208 
L 279.939317 288.580169 
L 280.964409 289.541722 
L 281.122115 289.617036 
L 283.550795 291.525653 
L 284.086997 292.088454 
L 284.449722 292.297529 
L 285.269796 292.532548 
L 285.459043 292.452563 
L 285.474814 292.478657 
L 285.790227 292.727736 
L 285.932163 292.779757 
L 286.074099 292.940855 
L 286.121411 292.897894 
L 286.231805 292.841765 
L 286.247576 292.857091 
L 286.373741 292.873989 
L 286.673383 293.123167 
L 286.878402 293.211544 
L 287.099191 293.414148 
L 287.430374 293.642642 
L 287.619622 293.829298 
L 288.092742 294.308495 
L 288.55009 294.700032 
L 288.723567 294.620367 
L 288.802421 294.65563 
L 288.833962 294.610708 
L 289.117834 294.438345 
L 289.133604 294.510477 
L 289.953678 294.855299 
L 290.095614 294.777916 
L 290.111384 294.790453 
L 290.363715 294.742646 
L 290.600275 294.532092 
L 290.899917 294.319036 
L 291.010311 294.321417 
L 291.104935 294.298998 
L 291.136477 294.333833 
L 291.373036 294.459737 
L 291.514972 294.49276 
L 291.688449 294.730832 
L 292.366587 295.216831 
L 292.540064 295.274067 
L 292.697771 295.338534 
L 292.965872 295.11071 
L 293.060495 295.084776 
L 293.092037 295.135538 
L 293.344367 295.285863 
L 294.006734 294.716732 
L 294.290606 294.194612 
L 294.574478 293.798239 
L 294.669102 293.729811 
L 294.889891 293.53372 
L 295.236845 293.498879 
L 295.394551 293.426349 
L 295.568028 293.449469 
L 295.709964 293.404478 
L 295.914983 293.37535 
L 296.009607 293.467738 
L 296.214625 293.547445 
L 296.451185 293.533287 
L 296.624662 293.583858 
L 296.766598 293.632691 
L 298.028249 293.74077 
L 298.233268 293.719806 
L 298.438286 293.812114 
L 298.454057 293.792568 
L 298.611763 293.760616 
L 299.053341 293.840192 
L 299.652626 293.912207 
L 299.778791 293.99131 
L 300.015351 293.98684 
L 300.772342 294.134919 
L 300.866966 294.173224 
L 300.898507 294.135329 
L 301.150838 294.212719 
L 301.292773 294.224465 
L 301.418939 294.27913 
L 301.434709 294.267576 
L 301.576645 294.260832 
L 301.750122 294.368394 
L 301.93937 294.339706 
L 301.955141 294.376145 
L 302.223242 294.422905 
L 302.380948 294.411762 
L 302.554425 294.493463 
L 302.570196 294.476844 
L 302.617508 294.455031 
L 302.66482 294.509153 
L 303.232563 294.572948 
L 303.374499 294.592151 
L 303.65837 294.685908 
L 303.942242 294.71141 
L 304.935793 294.853206 
L 304.951564 294.836761 
L 305.014646 294.930163 
L 305.061958 294.963984 
L 305.125041 294.924698 
L 305.645472 294.81819 
L 306.402463 293.958781 
L 306.954436 293.718177 
L 306.985977 293.733457 
L 307.033289 293.686264 
L 307.159454 293.655464 
L 307.443326 293.622522 
L 307.601032 293.514141 
L 307.774509 293.543671 
L 307.932216 293.445672 
L 308.342253 293.122361 
L 308.909996 292.949284 
L 308.941537 293.022248 
L 309.020391 292.950593 
L 309.146556 292.966165 
L 309.446198 293.028025 
L 309.682758 292.960954 
L 309.777382 293.05482 
L 309.808923 293.017003 
L 310.203189 293.192587 
L 310.345125 293.230525 
L 310.644767 293.279982 
L 310.770932 293.337775 
L 310.786703 293.309173 
L 310.928639 293.278807 
L 311.023263 293.325202 
L 311.039033 293.303057 
L 311.385988 293.085042 
L 311.575235 293.010774 
L 311.732942 293.122107 
L 311.748713 293.106124 
L 311.859107 293.131748 
L 312.064125 293.400479 
L 312.379538 293.444831 
L 312.89997 292.95635 
L 313.262695 292.883833 
L 313.436172 292.752649 
L 313.62542 292.752897 
L 313.720043 292.739853 
L 313.735814 292.718076 
L 313.925062 292.578988 
L 313.940833 292.595965 
L 314.066998 292.636997 
L 314.193163 292.603756 
L 314.413952 292.490956 
L 314.540117 292.33453 
L 314.571658 292.354721 
L 314.666282 292.334581 
L 314.839759 292.13945 
L 315.09209 292.201038 
L 315.912163 291.65012 
L 316.038329 291.724752 
L 316.148723 291.654382 
L 316.259118 291.465603 
L 316.290659 291.479483 
L 316.401053 291.538879 
L 316.527219 291.504695 
L 316.905714 291.282475 
L 317.031879 291.243489 
L 317.347292 291.036658 
L 317.520769 291.049269 
L 317.53654 291.005863 
L 317.741559 290.741897 
L 319.775972 290.22325 
L 320.296403 290.752147 
L 320.359486 290.686313 
L 320.643358 290.121694 
L 320.659128 290.157247 
L 320.737982 290.286264 
L 320.753752 290.108279 
L 320.879917 289.929259 
L 320.895688 289.93299 
L 320.927229 289.922591 
L 320.974541 290.010357 
L 321.021853 289.953777 
L 321.053394 289.846497 
L 321.132248 289.911157 
L 321.211101 289.879654 
L 321.274184 289.726893 
L 321.321495 289.753907 
L 321.463431 289.834758 
L 321.479202 289.788877 
L 321.605367 289.603607 
L 321.763074 289.461163 
L 321.92078 289.30907 
L 321.936551 289.345524 
L 322.17311 289.51248 
L 322.393899 289.228037 
L 322.535835 288.979503 
L 322.551606 288.982999 
L 322.788166 289.187697 
L 323.150891 289.276821 
L 323.277056 289.313026 
L 323.308597 289.358061 
L 323.340138 289.258764 
L 323.403221 289.251235 
L 323.434762 289.294545 
L 323.608239 289.222011 
L 323.844799 288.928128 
L 324.396772 288.670403 
L 324.885662 288.854897 
L 325.106451 288.929887 
L 325.248387 288.875701 
L 325.532258 288.709023 
L 325.611112 288.65239 
L 325.847671 288.515583 
L 326.730827 288.239934 
L 327.125094 288.068638 
L 327.2828 287.992009 
L 327.424736 287.986607 
L 327.803231 288.001693 
L 327.945167 288.054268 
L 328.118644 287.864549 
L 328.370975 287.66308 
L 328.781012 287.446408 
L 328.970259 287.392879 
L 329.143737 287.330255 
L 330.294994 286.941604 
L 330.515783 286.832275 
L 331.067755 286.525674 
L 331.225462 286.497614 
L 331.462022 286.407552 
L 331.635499 286.339548 
L 331.872059 286.256375 
L 332.250554 286.126152 
L 332.802527 286.038207 
L 332.991774 285.936114 
L 333.275646 286.05723 
L 333.496435 286.010908 
L 333.685683 285.98748 
L 333.796077 285.869811 
L 334.064178 285.717756 
L 334.127261 285.722664 
L 334.158802 285.692459 
L 334.221885 285.677093 
L 334.269197 285.724084 
L 334.631922 285.775297 
L 334.868481 285.571917 
L 335.026188 285.486193 
L 335.404684 285.297672 
L 336.003968 285.289263 
L 336.619023 284.837349 
L 337.01329 284.946957 
L 337.170996 284.815663 
L 337.738739 284.493668 
L 339.126556 283.98634 
L 339.363116 283.951473 
L 339.899318 283.643061 
L 340.19896 283.515714 
L 340.309355 283.472978 
L 340.545915 283.380085 
L 340.877098 283.259382 
L 341.050575 283.182431 
L 341.350218 283.079918 
L 341.507924 283.112118 
L 341.744484 283.135397 
L 341.88642 282.995482 
L 342.091438 282.882295 
L 342.217603 282.824946 
L 343.037677 282.597506 
L 343.179613 282.580119 
L 343.384631 282.451284 
L 344.173163 282.148151 
L 344.520118 282.008676 
L 344.630512 281.952591 
L 345.150944 281.714767 
L 345.371733 281.668414 
L 345.529439 281.594112 
L 345.829081 281.384981 
L 346.0341 281.418383 
L 346.381054 281.298144 
L 346.554531 281.258751 
L 346.933027 281.081033 
L 347.138045 280.984732 
L 347.295752 280.944263 
L 348.383926 280.535566 
L 348.588945 280.457331 
L 348.935899 280.537712 
L 349.188229 280.229494 
L 349.519413 280.043739 
L 349.69289 280.029358 
L 351.206872 279.430558 
L 351.364579 279.406835 
L 351.664221 279.30305 
L 351.774615 279.254389 
L 354.07713 278.487264 
L 354.234836 278.407731 
L 354.361002 278.397644 
L 354.376772 278.422382 
L 354.56602 278.439207 
L 354.912974 278.451455 
L 355.070681 278.440377 
L 355.480718 278.339406 
L 355.843442 278.230804 
L 355.969608 278.233467 
L 356.048461 278.230427 
L 356.080002 278.264632 
L 356.253479 278.358259 
L 356.442727 278.520606 
L 357.373195 278.795027 
L 357.48359 278.705193 
L 357.515131 278.73017 
L 357.940939 279.041285 
L 357.956709 279.021208 
L 358.145957 279.106642 
L 358.240581 279.081834 
L 358.429829 278.931496 
L 359.076425 278.984092 
L 359.171049 278.999587 
L 359.18682 278.991452 
L 359.391838 278.947477 
L 359.407609 278.989581 
L 359.975352 279.090959 
L 360.101517 279.157848 
L 360.117288 279.14444 
L 360.259224 279.079216 
L 360.448471 279.152258 
L 360.590407 279.231822 
L 360.748114 279.220591 
L 360.89005 279.187736 
L 361.063527 279.310329 
L 361.205462 279.283932 
L 363.366041 279.876751 
L 363.555289 279.975847 
L 363.681454 279.93587 
L 363.712995 279.9979 
L 363.933784 280.048215 
L 364.31228 279.925406 
L 364.469986 279.999838 
L 364.485757 279.979573 
L 364.675005 279.841322 
L 365.211207 279.895301 
L 365.384684 279.942487 
L 365.400455 279.919598 
L 365.589702 279.792306 
L 365.76318 279.664077 
L 366.804042 278.935105 
L 366.945978 278.835331 
L 367.135226 278.733426 
L 367.813364 278.348474 
L 368.018382 278.23112 
L 368.649208 278.337917 
L 368.791144 278.397683 
L 368.980392 278.256738 
L 368.996162 278.268929 
L 370.715163 277.389824 
L 370.872869 277.322421 
L 371.787567 276.659135 
L 372.59187 276.367554 
L 372.938824 276.118325 
L 373.695815 275.83408 
L 373.80621 275.910865 
L 374.042769 276.057984 
L 374.263558 276.156293 
L 374.468577 276.244436 
L 374.642054 276.217002 
L 374.657825 276.280118 
L 375.004779 276.439153 
L 375.288651 276.65881 
L 375.540981 276.773421 
L 375.682917 276.782861 
L 376.077183 276.888032 
L 377.133816 277.79657 
L 377.480771 278.097869 
L 377.685789 278.366936 
L 377.811954 278.429172 
L 377.827725 278.416148 
L 378.016973 278.387351 
L 378.20622 278.510212 
L 378.584716 278.560195 
L 378.742422 278.726795 
L 378.758193 278.697212 
L 379.16823 279.085282 
L 380.303716 280.945214 
L 380.335258 280.900449 
L 380.461423 280.891743 
L 380.650671 280.664134 
L 381.36035 280.247463 
L 381.754616 280.858073 
L 382.006946 281.659621 
L 382.33813 282.503179 
L 382.57469 282.563411 
L 382.669313 282.461918 
L 383.662864 279.490727 
L 383.678635 279.510174 
L 383.725947 279.434265 
L 383.757488 279.444846 
L 383.883653 279.451931 
L 383.899424 279.492202 
L 384.325231 280.266309 
L 384.798351 282.244739 
L 385.145305 283.081245 
L 385.366094 283.359671 
L 385.76036 283.42176 
L 386.028461 283.394634 
L 386.201938 283.371354 
L 386.296562 283.299314 
L 387.274342 280.48113 
L 387.70015 280.205675 
L 387.810545 280.370481 
L 388.362517 282.303949 
L 388.646389 283.468145 
L 388.67793 279.844207 
L 388.819866 280.508998 
L 389.15105 281.291101 
L 389.214132 285.22761 
L 389.277215 285.182434 
L 389.908041 285.680793 
L 389.923811 285.658737 
L 389.971123 285.751177 
L 389.986894 285.749513 
L 390.176142 285.961891 
L 390.191912 285.943657 
L 390.207683 285.917861 
L 390.239224 285.980642 
L 390.286536 285.991306 
L 390.586178 286.246993 
L 390.680802 286.238658 
L 390.696573 286.25934 
L 391.059298 286.623368 
L 391.090839 286.56991 
L 391.406252 287.013647 
L 391.548188 287.525493 
L 391.926683 288.043268 
L 392.021307 288.13365 
L 392.037078 288.088524 
L 392.194784 287.920826 
L 393.361812 289.767304 
L 393.708767 290.416284 
L 394.244969 291.409602 
L 394.591923 291.923362 
L 395.049272 292.379423 
L 395.348914 292.629451 
L 395.522391 292.765453 
L 396.405547 293.666346 
L 397.651428 295.0591 
L 398.045695 295.263414 
L 398.392649 295.412172 
L 398.487273 295.488 
L 398.487273 295.488 
" style="fill:none;stroke:#0000ff;stroke-linecap:square;stroke-width:1.5;"/>
   </g>
   <g id="patch_3">
    <path d="M 57.6 307.584 
L 57.6 41.472 
" style="fill:none;stroke:#000000;stroke-linecap:square;stroke-linejoin:miter;stroke-width:0.8;"/>
   </g>
   <g id="patch_4">
    <path d="M 414.72 307.584 
L 414.72 41.472 
" style="fill:none;stroke:#000000;stroke-linecap:square;stroke-linejoin:miter;stroke-width:0.8;"/>
   </g>
   <g id="patch_5">
    <path d="M 57.6 307.584 
L 414.72 307.584 
" style="fill:none;stroke:#000000;stroke-linecap:square;stroke-linejoin:miter;stroke-width:0.8;"/>
   </g>
   <g id="patch_6">
    <path d="M 57.6 41.472 
L 414.72 41.472 
" style="fill:none;stroke:#000000;stroke-linecap:square;stroke-linejoin:miter;stroke-width:0.8;"/>
   </g>
  </g>
 </g>
 <defs>
  <clipPath id="p32a3b6ec5a">
   <rect height="266.112" width="357.12" x="57.6" y="41.472"/>
  </clipPath>
 </defs>
</svg>
