<?xml version="1.0" encoding="utf-8" standalone="no"?>
<!DOCTYPE svg PUBLIC "-//W3C//DTD SVG 1.1//EN"
  "http://www.w3.org/Graphics/SVG/1.1/DTD/svg11.dtd">
<!-- Created with matplotlib (https://matplotlib.org/) -->
<svg height="288pt" version="1.1" viewBox="0 0 432 288" width="432pt" xmlns="http://www.w3.org/2000/svg" xmlns:xlink="http://www.w3.org/1999/xlink">
 <defs>
  <style type="text/css">
*{stroke-linecap:butt;stroke-linejoin:round;}
  </style>
 </defs>
 <g id="figure_1">
  <g id="patch_1">
   <path d="M 0 288 
L 432 288 
L 432 0 
L 0 0 
z
" style="fill:#ffffff;"/>
  </g>
  <g id="axes_1">
   <g id="patch_2">
    <path d="M 54 252 
L 388.8 252 
L 388.8 34.56 
L 54 34.56 
z
" style="fill:#ffffff;"/>
   </g>
   <g id="matplotlib.axis_1">
    <g id="xtick_1">
     <g id="line2d_1">
      <defs>
       <path d="M 0 0 
L 0 3.5 
" id="mbc23279d1b" style="stroke:#000000;stroke-width:0.8;"/>
      </defs>
      <g>
       <use style="stroke:#000000;stroke-width:0.8;" x="69.218182" xlink:href="#mbc23279d1b" y="252"/>
      </g>
     </g>
     <g id="text_1">
      <!-- 0 -->
      <defs>
       <path d="M 31.78125 66.40625 
Q 24.171875 66.40625 20.328125 58.90625 
Q 16.5 51.421875 16.5 36.375 
Q 16.5 21.390625 20.328125 13.890625 
Q 24.171875 6.390625 31.78125 6.390625 
Q 39.453125 6.390625 43.28125 13.890625 
Q 47.125 21.390625 47.125 36.375 
Q 47.125 51.421875 43.28125 58.90625 
Q 39.453125 66.40625 31.78125 66.40625 
z
M 31.78125 74.21875 
Q 44.046875 74.21875 50.515625 64.515625 
Q 56.984375 54.828125 56.984375 36.375 
Q 56.984375 17.96875 50.515625 8.265625 
Q 44.046875 -1.421875 31.78125 -1.421875 
Q 19.53125 -1.421875 13.0625 8.265625 
Q 6.59375 17.96875 6.59375 36.375 
Q 6.59375 54.828125 13.0625 64.515625 
Q 19.53125 74.21875 31.78125 74.21875 
z
" id="DejaVuSans-48"/>
      </defs>
      <g transform="translate(66.036932 266.598437)scale(0.1 -0.1)">
       <use xlink:href="#DejaVuSans-48"/>
      </g>
     </g>
    </g>
    <g id="xtick_2">
     <g id="line2d_2">
      <g>
       <use style="stroke:#000000;stroke-width:0.8;" x="115.873869" xlink:href="#mbc23279d1b" y="252"/>
      </g>
     </g>
     <g id="text_2">
      <!-- 100 -->
      <defs>
       <path d="M 12.40625 8.296875 
L 28.515625 8.296875 
L 28.515625 63.921875 
L 10.984375 60.40625 
L 10.984375 69.390625 
L 28.421875 72.90625 
L 38.28125 72.90625 
L 38.28125 8.296875 
L 54.390625 8.296875 
L 54.390625 0 
L 12.40625 0 
z
" id="DejaVuSans-49"/>
      </defs>
      <g transform="translate(106.330119 266.598437)scale(0.1 -0.1)">
       <use xlink:href="#DejaVuSans-49"/>
       <use x="63.623047" xlink:href="#DejaVuSans-48"/>
       <use x="127.246094" xlink:href="#DejaVuSans-48"/>
      </g>
     </g>
    </g>
    <g id="xtick_3">
     <g id="line2d_3">
      <g>
       <use style="stroke:#000000;stroke-width:0.8;" x="162.529557" xlink:href="#mbc23279d1b" y="252"/>
      </g>
     </g>
     <g id="text_3">
      <!-- 200 -->
      <defs>
       <path d="M 19.1875 8.296875 
L 53.609375 8.296875 
L 53.609375 0 
L 7.328125 0 
L 7.328125 8.296875 
Q 12.9375 14.109375 22.625 23.890625 
Q 32.328125 33.6875 34.8125 36.53125 
Q 39.546875 41.84375 41.421875 45.53125 
Q 43.3125 49.21875 43.3125 52.78125 
Q 43.3125 58.59375 39.234375 62.25 
Q 35.15625 65.921875 28.609375 65.921875 
Q 23.96875 65.921875 18.8125 64.3125 
Q 13.671875 62.703125 7.8125 59.421875 
L 7.8125 69.390625 
Q 13.765625 71.78125 18.9375 73 
Q 24.125 74.21875 28.421875 74.21875 
Q 39.75 74.21875 46.484375 68.546875 
Q 53.21875 62.890625 53.21875 53.421875 
Q 53.21875 48.921875 51.53125 44.890625 
Q 49.859375 40.875 45.40625 35.40625 
Q 44.1875 33.984375 37.640625 27.21875 
Q 31.109375 20.453125 19.1875 8.296875 
z
" id="DejaVuSans-50"/>
      </defs>
      <g transform="translate(152.985807 266.598437)scale(0.1 -0.1)">
       <use xlink:href="#DejaVuSans-50"/>
       <use x="63.623047" xlink:href="#DejaVuSans-48"/>
       <use x="127.246094" xlink:href="#DejaVuSans-48"/>
      </g>
     </g>
    </g>
    <g id="xtick_4">
     <g id="line2d_4">
      <g>
       <use style="stroke:#000000;stroke-width:0.8;" x="209.185245" xlink:href="#mbc23279d1b" y="252"/>
      </g>
     </g>
     <g id="text_4">
      <!-- 300 -->
      <defs>
       <path d="M 40.578125 39.3125 
Q 47.65625 37.796875 51.625 33 
Q 55.609375 28.21875 55.609375 21.1875 
Q 55.609375 10.40625 48.1875 4.484375 
Q 40.765625 -1.421875 27.09375 -1.421875 
Q 22.515625 -1.421875 17.65625 -0.515625 
Q 12.796875 0.390625 7.625 2.203125 
L 7.625 11.71875 
Q 11.71875 9.328125 16.59375 8.109375 
Q 21.484375 6.890625 26.8125 6.890625 
Q 36.078125 6.890625 40.9375 10.546875 
Q 45.796875 14.203125 45.796875 21.1875 
Q 45.796875 27.640625 41.28125 31.265625 
Q 36.765625 34.90625 28.71875 34.90625 
L 20.21875 34.90625 
L 20.21875 43.015625 
L 29.109375 43.015625 
Q 36.375 43.015625 40.234375 45.921875 
Q 44.09375 48.828125 44.09375 54.296875 
Q 44.09375 59.90625 40.109375 62.90625 
Q 36.140625 65.921875 28.71875 65.921875 
Q 24.65625 65.921875 20.015625 65.03125 
Q 15.375 64.15625 9.8125 62.3125 
L 9.8125 71.09375 
Q 15.4375 72.65625 20.34375 73.4375 
Q 25.25 74.21875 29.59375 74.21875 
Q 40.828125 74.21875 47.359375 69.109375 
Q 53.90625 64.015625 53.90625 55.328125 
Q 53.90625 49.265625 50.4375 45.09375 
Q 46.96875 40.921875 40.578125 39.3125 
z
" id="DejaVuSans-51"/>
      </defs>
      <g transform="translate(199.641495 266.598437)scale(0.1 -0.1)">
       <use xlink:href="#DejaVuSans-51"/>
       <use x="63.623047" xlink:href="#DejaVuSans-48"/>
       <use x="127.246094" xlink:href="#DejaVuSans-48"/>
      </g>
     </g>
    </g>
    <g id="xtick_5">
     <g id="line2d_5">
      <g>
       <use style="stroke:#000000;stroke-width:0.8;" x="255.840932" xlink:href="#mbc23279d1b" y="252"/>
      </g>
     </g>
     <g id="text_5">
      <!-- 400 -->
      <defs>
       <path d="M 37.796875 64.3125 
L 12.890625 25.390625 
L 37.796875 25.390625 
z
M 35.203125 72.90625 
L 47.609375 72.90625 
L 47.609375 25.390625 
L 58.015625 25.390625 
L 58.015625 17.1875 
L 47.609375 17.1875 
L 47.609375 0 
L 37.796875 0 
L 37.796875 17.1875 
L 4.890625 17.1875 
L 4.890625 26.703125 
z
" id="DejaVuSans-52"/>
      </defs>
      <g transform="translate(246.297182 266.598437)scale(0.1 -0.1)">
       <use xlink:href="#DejaVuSans-52"/>
       <use x="63.623047" xlink:href="#DejaVuSans-48"/>
       <use x="127.246094" xlink:href="#DejaVuSans-48"/>
      </g>
     </g>
    </g>
    <g id="xtick_6">
     <g id="line2d_6">
      <g>
       <use style="stroke:#000000;stroke-width:0.8;" x="302.49662" xlink:href="#mbc23279d1b" y="252"/>
      </g>
     </g>
     <g id="text_6">
      <!-- 500 -->
      <defs>
       <path d="M 10.796875 72.90625 
L 49.515625 72.90625 
L 49.515625 64.59375 
L 19.828125 64.59375 
L 19.828125 46.734375 
Q 21.96875 47.46875 24.109375 47.828125 
Q 26.265625 48.1875 28.421875 48.1875 
Q 40.625 48.1875 47.75 41.5 
Q 54.890625 34.8125 54.890625 23.390625 
Q 54.890625 11.625 47.5625 5.09375 
Q 40.234375 -1.421875 26.90625 -1.421875 
Q 22.3125 -1.421875 17.546875 -0.640625 
Q 12.796875 0.140625 7.71875 1.703125 
L 7.71875 11.625 
Q 12.109375 9.234375 16.796875 8.0625 
Q 21.484375 6.890625 26.703125 6.890625 
Q 35.15625 6.890625 40.078125 11.328125 
Q 45.015625 15.765625 45.015625 23.390625 
Q 45.015625 31 40.078125 35.4375 
Q 35.15625 39.890625 26.703125 39.890625 
Q 22.75 39.890625 18.8125 39.015625 
Q 14.890625 38.140625 10.796875 36.28125 
z
" id="DejaVuSans-53"/>
      </defs>
      <g transform="translate(292.95287 266.598437)scale(0.1 -0.1)">
       <use xlink:href="#DejaVuSans-53"/>
       <use x="63.623047" xlink:href="#DejaVuSans-48"/>
       <use x="127.246094" xlink:href="#DejaVuSans-48"/>
      </g>
     </g>
    </g>
    <g id="xtick_7">
     <g id="line2d_7">
      <g>
       <use style="stroke:#000000;stroke-width:0.8;" x="349.152307" xlink:href="#mbc23279d1b" y="252"/>
      </g>
     </g>
     <g id="text_7">
      <!-- 600 -->
      <defs>
       <path d="M 33.015625 40.375 
Q 26.375 40.375 22.484375 35.828125 
Q 18.609375 31.296875 18.609375 23.390625 
Q 18.609375 15.53125 22.484375 10.953125 
Q 26.375 6.390625 33.015625 6.390625 
Q 39.65625 6.390625 43.53125 10.953125 
Q 47.40625 15.53125 47.40625 23.390625 
Q 47.40625 31.296875 43.53125 35.828125 
Q 39.65625 40.375 33.015625 40.375 
z
M 52.59375 71.296875 
L 52.59375 62.3125 
Q 48.875 64.0625 45.09375 64.984375 
Q 41.3125 65.921875 37.59375 65.921875 
Q 27.828125 65.921875 22.671875 59.328125 
Q 17.53125 52.734375 16.796875 39.40625 
Q 19.671875 43.65625 24.015625 45.921875 
Q 28.375 48.1875 33.59375 48.1875 
Q 44.578125 48.1875 50.953125 41.515625 
Q 57.328125 34.859375 57.328125 23.390625 
Q 57.328125 12.15625 50.6875 5.359375 
Q 44.046875 -1.421875 33.015625 -1.421875 
Q 20.359375 -1.421875 13.671875 8.265625 
Q 6.984375 17.96875 6.984375 36.375 
Q 6.984375 53.65625 15.1875 63.9375 
Q 23.390625 74.21875 37.203125 74.21875 
Q 40.921875 74.21875 44.703125 73.484375 
Q 48.484375 72.75 52.59375 71.296875 
z
" id="DejaVuSans-54"/>
      </defs>
      <g transform="translate(339.608557 266.598437)scale(0.1 -0.1)">
       <use xlink:href="#DejaVuSans-54"/>
       <use x="63.623047" xlink:href="#DejaVuSans-48"/>
       <use x="127.246094" xlink:href="#DejaVuSans-48"/>
      </g>
     </g>
    </g>
    <g id="text_8">
     <!-- Time (s) -->
     <defs>
      <path d="M -0.296875 72.90625 
L 61.375 72.90625 
L 61.375 64.59375 
L 35.5 64.59375 
L 35.5 0 
L 25.59375 0 
L 25.59375 64.59375 
L -0.296875 64.59375 
z
" id="DejaVuSans-84"/>
      <path d="M 9.421875 54.6875 
L 18.40625 54.6875 
L 18.40625 0 
L 9.421875 0 
z
M 9.421875 75.984375 
L 18.40625 75.984375 
L 18.40625 64.59375 
L 9.421875 64.59375 
z
" id="DejaVuSans-105"/>
      <path d="M 52 44.1875 
Q 55.375 50.25 60.0625 53.125 
Q 64.75 56 71.09375 56 
Q 79.640625 56 84.28125 50.015625 
Q 88.921875 44.046875 88.921875 33.015625 
L 88.921875 0 
L 79.890625 0 
L 79.890625 32.71875 
Q 79.890625 40.578125 77.09375 44.375 
Q 74.3125 48.1875 68.609375 48.1875 
Q 61.625 48.1875 57.5625 43.546875 
Q 53.515625 38.921875 53.515625 30.90625 
L 53.515625 0 
L 44.484375 0 
L 44.484375 32.71875 
Q 44.484375 40.625 41.703125 44.40625 
Q 38.921875 48.1875 33.109375 48.1875 
Q 26.21875 48.1875 22.15625 43.53125 
Q 18.109375 38.875 18.109375 30.90625 
L 18.109375 0 
L 9.078125 0 
L 9.078125 54.6875 
L 18.109375 54.6875 
L 18.109375 46.1875 
Q 21.1875 51.21875 25.484375 53.609375 
Q 29.78125 56 35.6875 56 
Q 41.65625 56 45.828125 52.96875 
Q 50 49.953125 52 44.1875 
z
" id="DejaVuSans-109"/>
      <path d="M 56.203125 29.59375 
L 56.203125 25.203125 
L 14.890625 25.203125 
Q 15.484375 15.921875 20.484375 11.0625 
Q 25.484375 6.203125 34.421875 6.203125 
Q 39.59375 6.203125 44.453125 7.46875 
Q 49.3125 8.734375 54.109375 11.28125 
L 54.109375 2.78125 
Q 49.265625 0.734375 44.1875 -0.34375 
Q 39.109375 -1.421875 33.890625 -1.421875 
Q 20.796875 -1.421875 13.15625 6.1875 
Q 5.515625 13.8125 5.515625 26.8125 
Q 5.515625 40.234375 12.765625 48.109375 
Q 20.015625 56 32.328125 56 
Q 43.359375 56 49.78125 48.890625 
Q 56.203125 41.796875 56.203125 29.59375 
z
M 47.21875 32.234375 
Q 47.125 39.59375 43.09375 43.984375 
Q 39.0625 48.390625 32.421875 48.390625 
Q 24.90625 48.390625 20.390625 44.140625 
Q 15.875 39.890625 15.1875 32.171875 
z
" id="DejaVuSans-101"/>
      <path id="DejaVuSans-32"/>
      <path d="M 31 75.875 
Q 24.46875 64.65625 21.28125 53.65625 
Q 18.109375 42.671875 18.109375 31.390625 
Q 18.109375 20.125 21.3125 9.0625 
Q 24.515625 -2 31 -13.1875 
L 23.1875 -13.1875 
Q 15.875 -1.703125 12.234375 9.375 
Q 8.59375 20.453125 8.59375 31.390625 
Q 8.59375 42.28125 12.203125 53.3125 
Q 15.828125 64.359375 23.1875 75.875 
z
" id="DejaVuSans-40"/>
      <path d="M 44.28125 53.078125 
L 44.28125 44.578125 
Q 40.484375 46.53125 36.375 47.5 
Q 32.28125 48.484375 27.875 48.484375 
Q 21.1875 48.484375 17.84375 46.4375 
Q 14.5 44.390625 14.5 40.28125 
Q 14.5 37.15625 16.890625 35.375 
Q 19.28125 33.59375 26.515625 31.984375 
L 29.59375 31.296875 
Q 39.15625 29.25 43.1875 25.515625 
Q 47.21875 21.78125 47.21875 15.09375 
Q 47.21875 7.46875 41.1875 3.015625 
Q 35.15625 -1.421875 24.609375 -1.421875 
Q 20.21875 -1.421875 15.453125 -0.5625 
Q 10.6875 0.296875 5.421875 2 
L 5.421875 11.28125 
Q 10.40625 8.6875 15.234375 7.390625 
Q 20.0625 6.109375 24.8125 6.109375 
Q 31.15625 6.109375 34.5625 8.28125 
Q 37.984375 10.453125 37.984375 14.40625 
Q 37.984375 18.0625 35.515625 20.015625 
Q 33.0625 21.96875 24.703125 23.78125 
L 21.578125 24.515625 
Q 13.234375 26.265625 9.515625 29.90625 
Q 5.8125 33.546875 5.8125 39.890625 
Q 5.8125 47.609375 11.28125 51.796875 
Q 16.75 56 26.8125 56 
Q 31.78125 56 36.171875 55.265625 
Q 40.578125 54.546875 44.28125 53.078125 
z
" id="DejaVuSans-115"/>
      <path d="M 8.015625 75.875 
L 15.828125 75.875 
Q 23.140625 64.359375 26.78125 53.3125 
Q 30.421875 42.28125 30.421875 31.390625 
Q 30.421875 20.453125 26.78125 9.375 
Q 23.140625 -1.703125 15.828125 -13.1875 
L 8.015625 -13.1875 
Q 14.5 -2 17.703125 9.0625 
Q 20.90625 20.125 20.90625 31.390625 
Q 20.90625 42.671875 17.703125 53.65625 
Q 14.5 64.65625 8.015625 75.875 
z
" id="DejaVuSans-41"/>
     </defs>
     <g transform="translate(200.917188 280.276563)scale(0.1 -0.1)">
      <use xlink:href="#DejaVuSans-84"/>
      <use x="61.037109" xlink:href="#DejaVuSans-105"/>
      <use x="88.820312" xlink:href="#DejaVuSans-109"/>
      <use x="186.232422" xlink:href="#DejaVuSans-101"/>
      <use x="247.755859" xlink:href="#DejaVuSans-32"/>
      <use x="279.542969" xlink:href="#DejaVuSans-40"/>
      <use x="318.556641" xlink:href="#DejaVuSans-115"/>
      <use x="370.65625" xlink:href="#DejaVuSans-41"/>
     </g>
    </g>
   </g>
   <g id="matplotlib.axis_2">
    <g id="ytick_1">
     <g id="line2d_8">
      <defs>
       <path d="M 0 0 
L -3.5 0 
" id="mba33bf5459" style="stroke:#000000;stroke-width:0.8;"/>
      </defs>
      <g>
       <use style="stroke:#000000;stroke-width:0.8;" x="54" xlink:href="#mba33bf5459" y="238.971289"/>
      </g>
     </g>
     <g id="text_9">
      <!-- −20 -->
      <defs>
       <path d="M 10.59375 35.5 
L 73.1875 35.5 
L 73.1875 27.203125 
L 10.59375 27.203125 
z
" id="DejaVuSans-8722"/>
      </defs>
      <g transform="translate(25.895312 242.770508)scale(0.1 -0.1)">
       <use xlink:href="#DejaVuSans-8722"/>
       <use x="83.789062" xlink:href="#DejaVuSans-50"/>
       <use x="147.412109" xlink:href="#DejaVuSans-48"/>
      </g>
     </g>
    </g>
    <g id="ytick_2">
     <g id="line2d_9">
      <g>
       <use style="stroke:#000000;stroke-width:0.8;" x="54" xlink:href="#mba33bf5459" y="194.536617"/>
      </g>
     </g>
     <g id="text_10">
      <!-- 0 -->
      <g transform="translate(40.6375 198.335836)scale(0.1 -0.1)">
       <use xlink:href="#DejaVuSans-48"/>
      </g>
     </g>
    </g>
    <g id="ytick_3">
     <g id="line2d_10">
      <g>
       <use style="stroke:#000000;stroke-width:0.8;" x="54" xlink:href="#mba33bf5459" y="150.101945"/>
      </g>
     </g>
     <g id="text_11">
      <!-- 20 -->
      <g transform="translate(34.275 153.901164)scale(0.1 -0.1)">
       <use xlink:href="#DejaVuSans-50"/>
       <use x="63.623047" xlink:href="#DejaVuSans-48"/>
      </g>
     </g>
    </g>
    <g id="ytick_4">
     <g id="line2d_11">
      <g>
       <use style="stroke:#000000;stroke-width:0.8;" x="54" xlink:href="#mba33bf5459" y="105.667273"/>
      </g>
     </g>
     <g id="text_12">
      <!-- 40 -->
      <g transform="translate(34.275 109.466492)scale(0.1 -0.1)">
       <use xlink:href="#DejaVuSans-52"/>
       <use x="63.623047" xlink:href="#DejaVuSans-48"/>
      </g>
     </g>
    </g>
    <g id="ytick_5">
     <g id="line2d_12">
      <g>
       <use style="stroke:#000000;stroke-width:0.8;" x="54" xlink:href="#mba33bf5459" y="61.232601"/>
      </g>
     </g>
     <g id="text_13">
      <!-- 60 -->
      <g transform="translate(34.275 65.031819)scale(0.1 -0.1)">
       <use xlink:href="#DejaVuSans-54"/>
       <use x="63.623047" xlink:href="#DejaVuSans-48"/>
      </g>
     </g>
    </g>
    <g id="text_14">
     <!-- Z displacement (mm) -->
     <defs>
      <path d="M 5.609375 72.90625 
L 62.890625 72.90625 
L 62.890625 65.375 
L 16.796875 8.296875 
L 64.015625 8.296875 
L 64.015625 0 
L 4.5 0 
L 4.5 7.515625 
L 50.59375 64.59375 
L 5.609375 64.59375 
z
" id="DejaVuSans-90"/>
      <path d="M 45.40625 46.390625 
L 45.40625 75.984375 
L 54.390625 75.984375 
L 54.390625 0 
L 45.40625 0 
L 45.40625 8.203125 
Q 42.578125 3.328125 38.25 0.953125 
Q 33.9375 -1.421875 27.875 -1.421875 
Q 17.96875 -1.421875 11.734375 6.484375 
Q 5.515625 14.40625 5.515625 27.296875 
Q 5.515625 40.1875 11.734375 48.09375 
Q 17.96875 56 27.875 56 
Q 33.9375 56 38.25 53.625 
Q 42.578125 51.265625 45.40625 46.390625 
z
M 14.796875 27.296875 
Q 14.796875 17.390625 18.875 11.75 
Q 22.953125 6.109375 30.078125 6.109375 
Q 37.203125 6.109375 41.296875 11.75 
Q 45.40625 17.390625 45.40625 27.296875 
Q 45.40625 37.203125 41.296875 42.84375 
Q 37.203125 48.484375 30.078125 48.484375 
Q 22.953125 48.484375 18.875 42.84375 
Q 14.796875 37.203125 14.796875 27.296875 
z
" id="DejaVuSans-100"/>
      <path d="M 18.109375 8.203125 
L 18.109375 -20.796875 
L 9.078125 -20.796875 
L 9.078125 54.6875 
L 18.109375 54.6875 
L 18.109375 46.390625 
Q 20.953125 51.265625 25.265625 53.625 
Q 29.59375 56 35.59375 56 
Q 45.5625 56 51.78125 48.09375 
Q 58.015625 40.1875 58.015625 27.296875 
Q 58.015625 14.40625 51.78125 6.484375 
Q 45.5625 -1.421875 35.59375 -1.421875 
Q 29.59375 -1.421875 25.265625 0.953125 
Q 20.953125 3.328125 18.109375 8.203125 
z
M 48.6875 27.296875 
Q 48.6875 37.203125 44.609375 42.84375 
Q 40.53125 48.484375 33.40625 48.484375 
Q 26.265625 48.484375 22.1875 42.84375 
Q 18.109375 37.203125 18.109375 27.296875 
Q 18.109375 17.390625 22.1875 11.75 
Q 26.265625 6.109375 33.40625 6.109375 
Q 40.53125 6.109375 44.609375 11.75 
Q 48.6875 17.390625 48.6875 27.296875 
z
" id="DejaVuSans-112"/>
      <path d="M 9.421875 75.984375 
L 18.40625 75.984375 
L 18.40625 0 
L 9.421875 0 
z
" id="DejaVuSans-108"/>
      <path d="M 34.28125 27.484375 
Q 23.390625 27.484375 19.1875 25 
Q 14.984375 22.515625 14.984375 16.5 
Q 14.984375 11.71875 18.140625 8.90625 
Q 21.296875 6.109375 26.703125 6.109375 
Q 34.1875 6.109375 38.703125 11.40625 
Q 43.21875 16.703125 43.21875 25.484375 
L 43.21875 27.484375 
z
M 52.203125 31.203125 
L 52.203125 0 
L 43.21875 0 
L 43.21875 8.296875 
Q 40.140625 3.328125 35.546875 0.953125 
Q 30.953125 -1.421875 24.3125 -1.421875 
Q 15.921875 -1.421875 10.953125 3.296875 
Q 6 8.015625 6 15.921875 
Q 6 25.140625 12.171875 29.828125 
Q 18.359375 34.515625 30.609375 34.515625 
L 43.21875 34.515625 
L 43.21875 35.40625 
Q 43.21875 41.609375 39.140625 45 
Q 35.0625 48.390625 27.6875 48.390625 
Q 23 48.390625 18.546875 47.265625 
Q 14.109375 46.140625 10.015625 43.890625 
L 10.015625 52.203125 
Q 14.9375 54.109375 19.578125 55.046875 
Q 24.21875 56 28.609375 56 
Q 40.484375 56 46.34375 49.84375 
Q 52.203125 43.703125 52.203125 31.203125 
z
" id="DejaVuSans-97"/>
      <path d="M 48.78125 52.59375 
L 48.78125 44.1875 
Q 44.96875 46.296875 41.140625 47.34375 
Q 37.3125 48.390625 33.40625 48.390625 
Q 24.65625 48.390625 19.8125 42.84375 
Q 14.984375 37.3125 14.984375 27.296875 
Q 14.984375 17.28125 19.8125 11.734375 
Q 24.65625 6.203125 33.40625 6.203125 
Q 37.3125 6.203125 41.140625 7.25 
Q 44.96875 8.296875 48.78125 10.40625 
L 48.78125 2.09375 
Q 45.015625 0.34375 40.984375 -0.53125 
Q 36.96875 -1.421875 32.421875 -1.421875 
Q 20.0625 -1.421875 12.78125 6.34375 
Q 5.515625 14.109375 5.515625 27.296875 
Q 5.515625 40.671875 12.859375 48.328125 
Q 20.21875 56 33.015625 56 
Q 37.15625 56 41.109375 55.140625 
Q 45.0625 54.296875 48.78125 52.59375 
z
" id="DejaVuSans-99"/>
      <path d="M 54.890625 33.015625 
L 54.890625 0 
L 45.90625 0 
L 45.90625 32.71875 
Q 45.90625 40.484375 42.875 44.328125 
Q 39.84375 48.1875 33.796875 48.1875 
Q 26.515625 48.1875 22.3125 43.546875 
Q 18.109375 38.921875 18.109375 30.90625 
L 18.109375 0 
L 9.078125 0 
L 9.078125 54.6875 
L 18.109375 54.6875 
L 18.109375 46.1875 
Q 21.34375 51.125 25.703125 53.5625 
Q 30.078125 56 35.796875 56 
Q 45.21875 56 50.046875 50.171875 
Q 54.890625 44.34375 54.890625 33.015625 
z
" id="DejaVuSans-110"/>
      <path d="M 18.3125 70.21875 
L 18.3125 54.6875 
L 36.8125 54.6875 
L 36.8125 47.703125 
L 18.3125 47.703125 
L 18.3125 18.015625 
Q 18.3125 11.328125 20.140625 9.421875 
Q 21.96875 7.515625 27.59375 7.515625 
L 36.8125 7.515625 
L 36.8125 0 
L 27.59375 0 
Q 17.1875 0 13.234375 3.875 
Q 9.28125 7.765625 9.28125 18.015625 
L 9.28125 47.703125 
L 2.6875 47.703125 
L 2.6875 54.6875 
L 9.28125 54.6875 
L 9.28125 70.21875 
z
" id="DejaVuSans-116"/>
     </defs>
     <g transform="translate(19.815625 197.222188)rotate(-90)scale(0.1 -0.1)">
      <use xlink:href="#DejaVuSans-90"/>
      <use x="68.505859" xlink:href="#DejaVuSans-32"/>
      <use x="100.292969" xlink:href="#DejaVuSans-100"/>
      <use x="163.769531" xlink:href="#DejaVuSans-105"/>
      <use x="191.552734" xlink:href="#DejaVuSans-115"/>
      <use x="243.652344" xlink:href="#DejaVuSans-112"/>
      <use x="307.128906" xlink:href="#DejaVuSans-108"/>
      <use x="334.912109" xlink:href="#DejaVuSans-97"/>
      <use x="396.191406" xlink:href="#DejaVuSans-99"/>
      <use x="451.171875" xlink:href="#DejaVuSans-101"/>
      <use x="512.695312" xlink:href="#DejaVuSans-109"/>
      <use x="610.107422" xlink:href="#DejaVuSans-101"/>
      <use x="671.630859" xlink:href="#DejaVuSans-110"/>
      <use x="735.009766" xlink:href="#DejaVuSans-116"/>
      <use x="774.21875" xlink:href="#DejaVuSans-32"/>
      <use x="806.005859" xlink:href="#DejaVuSans-40"/>
      <use x="845.019531" xlink:href="#DejaVuSans-109"/>
      <use x="942.431641" xlink:href="#DejaVuSans-109"/>
      <use x="1039.84375" xlink:href="#DejaVuSans-41"/>
     </g>
    </g>
   </g>
   <g id="line2d_13">
    <path clip-path="url(#pae7a4ae1b7)" d="M 69.218182 194.536617 
L 69.399705 194.288139 
L 69.610272 193.915364 
L 69.690142 193.811693 
L 69.813578 193.549819 
L 69.995101 193.183562 
L 70.445279 192.411766 
L 70.546932 192.224423 
L 71.54894 190.44455 
L 71.643332 190.274356 
L 71.817595 189.852591 
L 76.254022 180.467307 
L 76.31211 180.362285 
L 76.987376 178.987855 
L 77.270552 178.311305 
L 77.277813 178.314159 
L 77.524685 177.90903 
L 77.8006 177.323765 
L 78.003906 176.931174 
L 79.44157 173.999988 
L 79.637615 173.66332 
L 79.644876 173.66735 
L 79.848182 173.256193 
L 80.087793 172.777471 
L 80.102315 172.785295 
L 80.13862 172.687199 
L 80.973626 171.037242 
L 81.176932 170.604139 
L 81.452848 169.977437 
L 81.460109 169.982883 
L 81.641632 169.64764 
L 81.844938 169.208156 
L 81.852199 169.213383 
L 82.345942 168.249584 
L 82.353203 168.270124 
L 82.418551 168.142979 
L 82.425812 168.154858 
L 83.652909 165.752481 
L 83.805389 165.371008 
L 83.848954 165.338055 
L 83.834433 165.32828 
L 83.863476 165.304472 
L 84.291871 164.236174 
L 84.306393 164.260261 
L 84.342698 164.147632 
L 87.63916 157.123234 
L 87.777117 156.823152 
L 87.813422 156.726293 
L 88.161946 155.933297 
L 88.176468 155.958528 
L 88.227295 155.885285 
L 88.234556 155.88937 
L 88.394296 155.573652 
L 88.539515 155.282036 
L 88.721038 154.921401 
L 88.728299 154.935637 
L 88.764604 154.820399 
L 88.917083 154.565379 
L 89.04778 154.30024 
L 89.461653 153.434971 
L 89.505218 153.325889 
L 89.715785 152.886185 
L 89.897309 152.495816 
L 90.195007 151.879628 
L 90.427356 151.354817 
L 90.434617 151.360088 
L 90.463661 151.287134 
L 90.478183 151.276665 
L 90.68875 150.858909 
L 90.877534 150.383842 
L 91.603627 148.819331 
L 91.632671 148.912108 
L 91.988456 150.354649 
L 93.484208 155.779085 
L 93.535034 155.812669 
L 93.593122 155.767404 
L 94.137691 155.367011 
L 94.377302 155.019979 
L 94.667739 154.6733 
L 94.682261 154.684326 
L 94.747609 154.586961 
L 95.45918 153.727807 
L 95.466441 153.733163 
L 95.53179 153.704578 
L 95.553573 153.665467 
L 96.178012 153.11073 
L 96.185273 153.123652 
L 96.214317 153.148014 
L 96.257883 153.057326 
L 96.432145 152.899978 
L 96.439406 152.908321 
L 96.475711 152.836767 
L 96.504754 152.825809 
L 96.671756 152.639 
L 96.686278 152.672992 
L 96.744365 152.559227 
L 96.751626 152.557109 
L 96.838757 152.504122 
L 97.005758 152.282323 
L 97.477719 151.768327 
L 97.521284 151.793093 
L 97.572111 151.705729 
L 98.719338 150.261403 
L 98.922644 149.990136 
L 99.576127 149.071417 
L 99.583388 149.082525 
L 99.641476 148.968405 
L 99.706824 148.918692 
L 99.714085 148.897473 
L 99.91013 148.68037 
L 99.960957 148.639808 
L 99.939174 148.639319 
L 99.975479 148.611384 
L 100.171524 148.381701 
L 100.186045 148.397914 
L 100.229611 148.297261 
L 100.236872 148.301397 
L 100.447439 148.044184 
L 100.578136 147.915115 
L 100.781442 147.646904 
L 100.883095 147.55592 
L 101.086401 147.310462 
L 102.161018 146.125851 
L 102.168279 146.134649 
L 102.17554 146.14638 
L 102.233628 146.040688 
L 102.48776 145.71573 
L 102.574891 145.587345 
L 103.351811 144.314146 
L 103.438942 144.229843 
L 103.58416 144.004769 
L 103.678552 143.864936 
L 103.932685 143.430652 
L 104.019816 143.278262 
L 104.288471 142.812663 
L 104.375602 142.728844 
L 104.564386 142.442612 
L 104.840301 142.022239 
L 105.123477 141.62337 
L 105.275957 141.39154 
L 105.68983 140.745664 
L 105.762439 140.603636 
L 109.588949 134.648051 
L 109.741429 134.469113 
L 110.024605 134.092501 
L 110.453 133.54797 
L 110.787002 133.123929 
L 110.823307 133.093617 
L 110.84509 133.047576 
L 111.113744 132.706721 
L 111.803532 131.736289 
L 111.810793 131.748829 
L 112.144796 131.374356 
L 112.326319 131.171719 
L 112.587713 130.891933 
L 112.761975 130.649408 
L 114.192378 128.809171 
L 114.606251 128.197608 
L 114.6716 128.113744 
L 114.983819 127.691845 
L 115.005602 127.680203 
L 115.027385 127.62948 
L 115.034646 127.624735 
L 115.216169 127.339952 
L 115.288779 127.244942 
L 115.542911 126.86294 
L 115.709912 126.672682 
L 115.855131 126.352116 
L 119.75425 120.646842 
L 119.761511 120.66083 
L 119.783294 120.644824 
L 119.812338 120.590876 
L 119.979339 120.352628 
L 120.001122 120.389084 
L 120.059209 120.256106 
L 120.284298 119.966044 
L 120.29882 119.973277 
L 120.37869 119.866368 
L 120.574735 119.626317 
L 120.589257 119.649836 
L 120.647344 119.536729 
L 120.879694 119.315815 
L 120.886955 119.322491 
L 120.945042 119.227959 
L 120.952303 119.233523 
L 121.075739 119.130676 
L 121.518656 118.512627 
L 121.591265 118.429426 
L 121.816354 118.200849 
L 123.057973 116.633122 
L 123.26854 116.36271 
L 123.682413 115.803275 
L 123.842153 115.571463 
L 123.914763 115.460575 
L 123.994633 115.328253 
L 127.668663 109.931996 
L 128.249537 109.116454 
L 133.150665 101.324938 
L 133.288622 101.085412 
L 133.303144 101.091902 
L 133.513711 100.732021 
L 133.557277 100.690792 
L 133.564538 100.638487 
L 134.000193 99.91209 
L 134.007454 99.922233 
L 134.05102 99.823159 
L 134.326935 99.365045 
L 134.385023 99.264038 
L 134.813418 98.566424 
L 134.900549 98.442607 
L 135.205508 97.855647 
L 135.452379 97.442656 
L 135.938862 96.491579 
L 136.185733 96.063377 
L 136.222038 96.03476 
L 136.207516 96.025559 
L 136.243821 95.973816 
L 137.129654 94.19585 
L 137.136915 94.200283 
L 137.303916 93.838578 
L 137.311177 93.843041 
L 137.33296 93.784437 
L 137.354743 93.754166 
L 137.572571 93.338377 
L 138.211532 92.10799 
L 139.20628 90.259109 
L 140.636683 87.429367 
L 140.651205 87.440199 
L 140.745597 87.279557 
L 141.021512 86.810587 
L 141.449907 86.146272 
L 141.515255 86.030629 
L 141.718561 85.643265 
L 142.205044 84.924149 
L 142.401089 84.561808 
L 142.582612 84.216109 
L 142.829484 83.783242 
L 143.199791 83.119538 
L 143.468445 82.539853 
L 143.628186 82.17811 
L 146.917387 75.118229 
L 148.224354 72.565415 
L 148.304224 72.8114 
L 148.601922 74.23633 
L 148.805228 75.526594 
L 148.870577 75.879138 
L 149.110187 77.088042 
L 149.190058 77.146514 
L 149.306233 77.185542 
L 149.407886 77.194309 
L 149.415146 77.209606 
L 149.850802 79.427897 
L 149.952455 80.008398 
L 150.1485 80.970153 
L 150.642244 81.785169 
L 150.860071 81.906362 
L 150.867332 81.90042 
L 150.998029 81.861772 
L 151.019812 81.93856 
L 151.310249 83.025091 
L 152.02182 85.301162 
L 152.043603 85.295959 
L 152.065386 85.361245 
L 152.10169 85.375304 
L 152.820522 85.391273 
L 153.023828 85.308538 
L 153.074655 85.214659 
L 153.314266 84.871943 
L 153.641007 84.978819 
L 153.822531 85.251363 
L 153.858835 85.226947 
L 154.105707 84.816693 
L 154.112968 84.820712 
L 154.20736 84.736591 
L 154.43971 84.490455 
L 154.955236 83.948618 
L 155.398152 83.322697 
L 155.572415 83.067561 
L 155.601458 83.080337 
L 155.659546 82.983914 
L 155.681328 82.969916 
L 155.69585 82.931958 
L 155.710372 82.917056 
L 155.964505 82.073234 
L 156.951991 80.182204 
L 156.966513 80.191662 
L 157.002818 80.170501 
L 157.0246 80.102288 
L 157.373125 79.619368 
L 157.387647 79.626935 
L 157.4893 79.454662 
L 158.418699 78.045935 
L 158.716397 77.606067 
L 158.73818 77.624222 
L 158.774484 77.502042 
L 158.919703 77.257493 
L 159.137531 76.790376 
L 159.391663 76.270211 
L 159.398924 76.276123 
L 159.507838 76.106719 
L 159.841841 75.535331 
L 159.863624 75.535439 
L 159.892668 75.487798 
L 160.045147 75.208594 
L 160.241192 74.980384 
L 160.473542 74.652682 
L 160.509846 74.645205 
L 160.53889 74.570216 
L 160.872893 74.130755 
L 161.264983 73.622672 
L 161.39568 73.406635 
L 161.402941 73.413123 
L 161.780509 72.841742 
L 162.274252 72.148616 
L 162.557429 71.797226 
L 163.958788 69.647079 
L 164.292791 69.15117 
L 163.987832 69.665536 
L 164.300052 69.155041 
L 164.605011 68.666397 
L 164.75749 68.402877 
L 164.982579 68.085365 
L 165.229451 67.683414 
L 165.243972 67.703049 
L 165.30206 67.558649 
L 165.432757 67.375833 
L 167.603774 63.944924 
L 167.611035 63.961932 
L 167.669123 63.845858 
L 167.95956 63.387129 
L 168.155605 63.032979 
L 168.329867 62.755827 
L 169.426268 60.92001 
L 169.484355 61.04381 
L 169.796575 62.643802 
L 170.203187 65.223412 
L 170.348406 65.88698 
L 170.558973 66.963285 
L 170.566234 66.961918 
L 171.125325 68.978027 
L 171.430284 70.129483 
L 171.815113 70.685558 
L 171.822374 70.67998 
L 172.054724 70.685673 
L 172.541206 70.296521 
L 172.686425 70.203504 
L 172.700947 70.21216 
L 173.245517 69.488981 
L 173.434301 69.019273 
L 173.804608 68.417204 
L 174.007914 67.780466 
L 174.058741 67.606132 
L 174.276569 66.955832 
L 175.402013 65.424285 
L 175.409274 65.430769 
L 175.438317 65.409838 
L 175.4601 65.345834 
L 175.786842 64.77403 
L 175.794103 64.781566 
L 179.36648 59.747711 
L 179.373741 59.759402 
L 179.439089 59.658457 
L 179.969137 59.086832 
L 180.157921 58.793228 
L 180.252313 58.648426 
L 183.875517 52.869767 
L 184.122389 52.439062 
L 184.231303 52.248215 
L 184.434609 51.811456 
L 185.879534 49.176539 
L 186.155449 48.651672 
L 186.63467 47.734993 
L 187.266371 46.484672 
L 187.382546 46.242321 
L 188.319206 44.443636 
L 188.34825 44.498762 
L 189.038038 49.538316 
L 189.219561 50.768047 
L 192.799199 66.06612 
L 192.857287 66.286065 
L 193.554336 68.634895 
L 193.619684 68.851291 
L 194.019035 70.192792 
L 194.048079 70.29607 
L 194.411126 71.290302 
L 194.418387 71.285035 
L 195.173523 73.081648 
L 195.30422 73.338786 
L 196.023052 74.731461 
L 198.905641 80.422305 
L 199.116208 80.996858 
L 199.631734 82.327164 
L 200.474002 83.952096 
L 200.524828 84.015609 
L 200.532089 84.039348 
L 200.786222 84.566439 
L 201.78823 86.632068 
L 202.281973 87.661425 
L 204.961256 92.252957 
L 205.048387 92.351898 
L 205.179084 92.535567 
L 205.578435 93.199713 
L 205.883394 93.731363 
L 208.97655 98.606854 
L 209.470293 99.136199 
L 209.709904 99.772619 
L 210.486823 101.240816 
L 210.494084 101.235014 
L 210.668346 101.013855 
L 210.864392 100.715602 
L 211.00961 100.66002 
L 212.273012 103.748865 
L 212.367404 103.856121 
L 213.645327 105.420976 
L 213.768763 105.523991 
L 213.972069 105.79281 
L 214.117288 105.998464 
L 214.385942 106.349455 
L 214.814337 106.937792 
L 214.872425 107.034584 
L 215.14834 107.365922 
L 215.22821 107.457355 
L 215.482343 107.863857 
L 215.663866 108.128069 
L 215.859911 108.421941 
L 216.288306 109.23312 
L 217.842145 112.063431 
L 217.936537 112.16909 
L 218.488367 113.146553 
L 218.546455 113.217381 
L 218.553716 113.232168 
L 218.945806 113.684137 
L 219.156373 113.781542 
L 219.192677 113.727509 
L 219.381462 113.491009 
L 219.555724 113.371477 
L 219.592029 113.417053 
L 220.027684 114.261781 
L 220.586776 115.445592 
L 220.594037 115.439616 
L 220.637602 115.522899 
L 220.644863 115.517844 
L 220.869952 115.817218 
L 220.964344 115.84689 
L 220.978866 115.866671 
L 221.145867 115.76791 
L 221.327391 115.493631 
L 221.610567 115.59728 
L 221.799351 116.09813 
L 222.002657 116.782465 
L 222.133354 117.203822 
L 222.33666 117.794246 
L 222.888491 118.556235 
L 222.895751 118.528406 
L 223.004665 118.396908 
L 223.244276 118.193933 
L 223.251537 118.201009 
L 223.331407 118.301772 
L 223.701715 119.244116 
L 224.558504 120.757743 
L 224.565765 120.750745 
L 224.972377 120.849324 
L 225.059508 120.835171 
L 225.081291 120.814017 
L 225.22651 120.924015 
L 226.838436 122.846793 
L 226.998177 123.132738 
L 227.680704 124.056276 
L 228.094577 124.401534 
L 228.268839 124.6449 
L 228.2761 124.633504 
L 228.334188 124.724188 
L 228.537494 124.965111 
L 228.697234 125.057797 
L 228.806148 125.100637 
L 228.82067 125.083162 
L 229.190977 125.44899 
L 229.52498 125.740599 
L 229.713764 125.847077 
L 229.880765 125.988923 
L 230.062289 125.97477 
L 230.374509 126.080935 
L 230.781121 126.668977 
L 230.940861 126.768429 
L 231.093341 126.850624 
L 231.16595 126.825448 
L 231.209516 126.846616 
L 231.354734 126.946039 
L 231.536257 127.145019 
L 231.681476 127.330131 
L 231.884782 127.607856 
L 233.700014 128.852985 
L 233.82345 128.860313 
L 233.925103 128.795904 
L 234.193758 128.691798 
L 234.382542 128.488882 
L 234.956155 127.632328 
L 235.217549 127.126881 
L 235.282897 126.972539 
L 235.493464 126.521453 
L 235.871032 126.014576 
L 236.175991 126.2188 
L 236.40108 126.569404 
L 236.822214 127.632 
L 237.083607 128.573546 
L 237.214304 128.962663 
L 237.606394 129.783212 
L 237.708047 129.846397 
L 237.8097 129.871521 
L 237.831483 129.857369 
L 238.049311 129.942658 
L 238.165486 130.050648 
L 238.448662 130.336245 
L 238.782665 130.690055 
L 238.848013 130.78166 
L 239.051319 131.063931 
L 239.145711 131.136069 
L 239.327235 131.300778 
L 239.537802 131.374542 
L 239.76289 131.478712 
L 239.929892 131.623581 
L 239.937153 131.620441 
L 240.082371 131.637815 
L 240.191285 131.701755 
L 240.205807 131.680446 
L 240.438157 131.789196 
L 240.692289 132.026026 
L 240.764899 132.091595 
L 240.946422 132.257516 
L 241.273164 132.584732 
L 241.418382 132.675885 
L 241.512774 132.775571 
L 241.672515 132.868352 
L 241.854038 132.761575 
L 241.962952 132.797133 
L 242.129953 133.010645 
L 242.217084 133.111014 
L 242.405869 133.337385 
L 242.41313 133.332788 
L 242.609175 133.235209 
L 242.783437 133.104524 
L 243.124701 133.304112 
L 243.240875 133.354186 
L 243.255397 133.332766 
L 243.778184 133.441414 
L 243.879837 133.439941 
L 243.887098 133.434387 
L 244.126709 133.154752 
L 244.242884 133.058186 
L 244.388102 132.928833 
L 244.511538 132.794268 
L 244.722105 132.465529 
L 245.034325 131.914705 
L 245.738635 129.936642 
L 245.745896 129.940886 
L 245.77494 129.864196 
L 245.796723 129.850889 
L 246.254161 129.485319 
L 246.290466 129.538846 
L 246.47925 129.76811 
L 246.588164 129.900442 
L 247.10369 131.178922 
L 247.640999 132.859277 
L 247.793478 133.265281 
L 247.96774 133.616948 
L 247.975001 133.610295 
L 248.083915 133.779482 
L 248.301743 133.981745 
L 248.309004 133.976899 
L 248.476006 133.898654 
L 248.74466 133.446554 
L 248.897139 133.679407 
L 249.231142 134.587963 
L 250.748676 134.959354 
L 251.351334 136.494448 
L 251.460247 136.602221 
L 251.583683 136.675761 
L 251.605466 136.647459 
L 251.656293 136.555779 
L 251.830555 136.302578 
L 252.012078 136.211151 
L 252.229906 136.303663 
L 252.469517 136.839178 
L 252.556648 137.046077 
L 252.919694 138.042332 
L 252.992304 138.137288 
L 253.529612 139.330525 
L 254.175835 140.966724 
L 254.197618 140.944684 
L 254.611491 140.068167 
L 254.662317 139.962234 
L 254.952755 139.601658 
L 254.99632 139.662365 
L 255.206887 140.219523 
L 255.526368 141.425591 
L 256.201634 143.189238 
L 256.303287 143.207961 
L 256.32507 143.167494 
L 256.564681 142.548424 
L 256.985815 141.873259 
L 257.043902 141.98758 
L 257.428731 143.542711 
L 257.646559 144.009053 
L 257.813561 144.028724 
L 257.842604 142.22691 
L 257.987823 142.655676 
L 258.285521 143.957853 
L 258.59048 146.768355 
L 258.605002 145.786982 
L 258.808308 146.507099 
L 259.004353 146.703588 
L 259.171354 146.495074 
L 259.585227 144.9953 
L 259.803055 144.157426 
L 259.824838 144.091443 
L 260.035405 143.44795 
L 260.166102 143.052992 
L 260.681628 140.692776 
L 260.761498 140.446004 
L 260.964804 139.892456 
L 262.736471 136.599958 
L 262.96156 136.241573 
L 263.230214 135.7024 
L 263.237475 135.726535 
L 263.244736 135.736384 
L 263.288301 135.629986 
L 267.73199 126.822397 
L 267.775556 126.979672 
L 267.81186 127.076076 
L 268.058732 128.135343 
L 268.414518 129.94179 
L 268.603302 130.530066 
L 268.697694 130.584199 
L 268.850173 130.604724 
L 268.98087 130.47841 
L 268.988131 130.482663 
L 269.147871 130.344829 
L 269.37296 129.905684 
L 269.634354 129.937645 
L 269.772311 129.978652 
L 269.808616 129.932075 
L 269.823138 129.888257 
L 270.679927 128.426492 
L 270.70171 128.454334 
L 270.759798 128.343797 
L 271.297106 127.701271 
L 271.318889 127.707018 
L 271.340672 127.645381 
L 271.376977 127.62501 
L 271.449586 127.522225 
L 271.609326 127.358092 
L 271.928807 126.998629 
L 271.95059 126.953625 
L 272.001417 126.924512 
L 272.241027 126.631759 
L 272.73477 126.010115 
L 272.742031 126.01604 
L 272.749292 126.02304 
L 272.800119 125.935156 
L 272.80738 125.935156 
L 273.518951 124.846993 
L 273.59156 124.779264 
L 273.751301 124.4781 
L 273.961868 124.060321 
L 274.092564 123.848468 
L 274.252305 123.543343 
L 274.593568 123.011092 
L 274.600829 123.016811 
L 274.804135 122.674801 
L 275.421314 121.625641 
L 275.493924 121.537628 
L 275.748056 121.112852 
L 276.314409 120.125666 
L 276.394279 120.029514 
L 276.655672 119.588441 
L 276.662933 119.593658 
L 276.71376 119.501233 
L 276.938849 119.110979 
L 276.94611 119.114659 
L 276.996936 119.012113 
L 277.047763 118.893529 
L 277.098589 119.039429 
L 278.913821 128.552143 
L 279.226041 130.280089 
L 279.269607 130.483763 
L 279.414825 131.133246 
L 279.952134 133.494807 
L 280.85975 137.311309 
L 281.063056 138.289926 
L 281.418842 139.545201 
L 281.585843 140.154348 
L 282.282893 141.991992 
L 282.522503 142.757569 
L 284.090864 147.676524 
L 284.555563 148.597939 
L 284.613651 148.707482 
L 285.085611 149.802183 
L 285.281656 150.274097 
L 285.688268 150.872101 
L 285.848009 151.172312 
L 286.007749 151.475559 
L 286.058576 151.572267 
L 287.34376 154.079297 
L 287.423631 154.105655 
L 287.459935 154.068184 
L 287.801199 153.990331 
L 288.033549 154.550613 
L 288.389334 155.472936 
L 288.549075 155.745277 
L 288.803207 156.032416 
L 289.246124 155.956982 
L 290.023043 157.39245 
L 290.291698 157.697778 
L 290.538569 157.809754 
L 290.54583 157.79347 
L 290.850789 157.754571 
L 291.112183 158.137809 
L 291.831015 159.75905 
L 291.896363 159.846384 
L 292.085147 159.943083 
L 292.114191 159.913276 
L 292.368323 159.603814 
L 292.753153 159.379004 
L 293.232374 160.577681 
L 293.413897 161.127546 
L 293.486507 161.291209 
L 293.769683 161.835381 
L 293.798727 161.887086 
L 293.835031 161.92455 
L 293.972989 162.003555 
L 294.473993 161.473508 
L 294.611951 161.579409 
L 295.497784 163.653736 
L 295.889874 163.956266 
L 296.064136 163.918191 
L 296.238399 164.095562 
L 296.369096 164.249596 
L 296.862839 164.865182 
L 297.087928 165.191368 
L 297.204102 165.300571 
L 297.436452 165.647284 
L 297.552627 165.723012 
L 297.690585 165.82236 
L 297.937456 166.111928 
L 298.031848 166.203455 
L 298.19885 166.365866 
L 298.322286 166.514584 
L 298.540113 166.890546 
L 298.888638 167.433175 
L 299.120988 167.891136 
L 299.128249 167.878568 
L 299.171814 168.016871 
L 299.179075 168.012181 
L 299.324294 168.339136 
L 299.868863 169.433099 
L 300.086691 169.813462 
L 300.54413 170.235842 
L 300.573174 170.203695 
L 300.798262 169.965935 
L 300.907176 169.916807 
L 300.943481 169.958581 
L 301.103221 170.29716 
L 301.567921 171.77733 
L 301.727661 172.28507 
L 301.901924 172.689487 
L 302.112491 172.929947 
L 302.250448 172.893391 
L 302.548146 172.280001 
L 302.555407 172.284052 
L 302.72967 172.172493 
L 302.765974 172.227268 
L 302.896671 172.54234 
L 303.165325 173.481169 
L 303.274239 173.872053 
L 303.724417 175.104338 
L 304.072942 175.424488 
L 304.160073 175.291151 
L 304.552163 174.494901 
L 304.76273 174.506833 
L 304.769991 174.525942 
L 305.445257 176.936915 
L 305.721173 177.737293 
L 305.924479 178.177789 
L 306.142306 178.367482 
L 306.17135 178.338521 
L 306.803051 177.156821 
L 306.941009 177.403847 
L 307.137054 178.097974 
L 307.238707 178.473552 
L 307.536405 179.764731 
L 307.73245 180.616185 
L 308.269759 182.089124 
L 308.494848 182.266937 
L 308.502108 182.259483 
L 308.966808 181.495715 
L 309.199158 181.997261 
L 309.547682 183.349038 
L 309.656596 183.834791 
L 310.382689 186.167416 
L 310.600517 186.409059 
L 310.615039 186.385137 
L 310.774779 186.294658 
L 311.007129 185.918361 
L 311.224957 185.903513 
L 311.907484 188.656085 
L 312.125312 189.41136 
L 312.176139 189.513755 
L 312.42301 189.999887 
L 312.502881 190.069665 
L 312.619055 190.120192 
L 312.633577 190.105344 
L 312.757013 189.906419 
L 313.069233 189.347836 
L 313.12732 189.297463 
L 313.178147 189.355425 
L 314.005893 192.314741 
L 314.383461 193.467995 
L 314.630333 193.784801 
L 314.76103 193.741473 
L 315.269295 192.795325 
L 315.508905 193.203347 
L 315.719472 194.076202 
L 316.343912 196.976742 
L 316.750524 197.802318 
L 316.946569 197.594657 
L 317.309616 196.492931 
L 317.607314 196.133553 
L 317.738011 196.292604 
L 318.028448 197.450695 
L 318.064752 197.594888 
L 318.318885 198.90753 
L 318.631105 200.256331 
L 319.037717 201.158359 
L 319.255545 200.924895 
L 319.458851 200.472839 
L 319.516938 200.369723 
L 319.829158 200.062965 
L 319.872724 200.112888 
L 320.351945 201.511493 
L 321.179691 202.805491 
L 321.186952 202.78436 
L 321.339432 202.735048 
L 321.361214 202.772123 
L 321.571781 202.916992 
L 321.767826 203.490208 
L 321.884001 203.8027 
L 322.167177 204.478594 
L 322.617355 204.83677 
L 322.639138 204.805884 
L 322.820661 204.633641 
L 322.827922 204.637382 
L 323.038489 204.848949 
L 323.220012 205.287281 
L 323.379753 205.693974 
L 323.583059 206.262121 
L 323.960627 207.020189 
L 324.018714 207.106157 
L 324.258325 207.347656 
L 324.693981 207.474902 
L 324.875504 207.829721 
L 325.616119 209.488557 
L 325.754077 209.728541 
L 325.957383 210.059518 
L 326.63991 211.022388 
L 326.647171 211.017012 
L 326.661693 210.99571 
L 326.748824 211.052707 
L 327.097349 211.162275 
L 327.758093 212.743206 
L 328.51323 213.282249 
L 328.781884 213.668492 
L 328.98519 213.849917 
L 329.115887 213.945105 
L 329.435368 214.396534 
L 329.551543 214.5144 
L 329.573325 214.501655 
L 329.653196 214.563488 
L 329.660457 214.57566 
L 329.812936 214.703005 
L 330.00172 214.865921 
L 330.045286 214.793744 
L 330.183243 214.891216 
L 330.292157 214.962961 
L 330.31394 214.950509 
L 330.633421 215.05957 
L 330.880293 215.107521 
L 331.01825 215.116523 
L 331.069077 215.136004 
L 331.112642 215.079057 
L 331.272383 215.051016 
L 331.359514 214.962992 
L 331.911345 213.525093 
L 332.114651 212.799913 
L 332.281652 212.586087 
L 332.651959 211.99005 
L 333.029528 211.680417 
L 333.051311 211.704821 
L 333.312704 211.975843 
L 333.566837 212.193273 
L 333.733838 212.274332 
L 333.937144 212.492215 
L 334.017014 212.5702 
L 334.314712 213.232113 
L 334.365539 213.351183 
L 334.648715 213.577616 
L 334.655976 213.571908 
L 334.786673 213.67957 
L 335.38933 214.225534 
L 335.614419 214.554673 
L 335.759637 214.779136 
L 336.057335 215.333195 
L 336.108162 215.432448 
L 336.914125 217.169728 
L 337.211823 217.998881 
L 337.284432 218.24296 
L 337.858046 220.116852 
L 338.257397 220.769826 
L 338.968968 221.597322 
L 339.266666 222.331385 
L 339.382841 222.546608 
L 339.60793 222.91051 
L 340.123456 223.473913 
L 340.413893 224.056168 
L 341.198073 225.447073 
L 341.517554 225.362031 
L 341.728121 225.764458 
L 342.279952 226.469871 
L 342.635737 226.714464 
L 342.751912 226.867078 
L 342.926174 227.166118 
L 342.933435 227.160812 
L 342.984262 227.251306 
L 343.470744 227.637518 
L 343.499788 227.597371 
L 343.565136 227.553756 
L 343.608702 227.596801 
L 344.436448 229.12356 
L 344.559884 229.233245 
L 344.755929 229.363994 
L 344.850321 229.458217 
L 345.177063 229.943532 
L 345.656284 230.532714 
L 345.786981 230.641523 
L 345.975765 230.825042 
L 346.062896 230.892457 
L 346.258941 231.141247 
L 346.418681 231.365751 
L 346.534856 231.475043 
L 346.571161 231.441353 
L 346.672814 231.359652 
L 346.709119 231.410273 
L 346.897903 231.684082 
L 347.079426 231.900478 
L 347.594952 232.339677 
L 347.602213 232.325548 
L 347.638518 232.324944 
L 347.689344 232.391392 
L 347.979781 232.755633 
L 348.168565 232.979624 
L 348.175826 232.970766 
L 348.364611 232.915286 
L 348.531612 233.026365 
L 349.105225 233.767105 
L 349.29401 233.652469 
L 349.308531 233.671399 
L 349.446489 233.846907 
L 349.715143 234.337976 
L 350.041885 234.549951 
L 350.070929 234.488574 
L 350.187104 234.323132 
L 350.339583 234.188333 
L 350.354105 234.209545 
L 351.203634 235.598021 
L 351.312548 235.460531 
L 351.501332 235.307544 
L 351.624768 235.357616 
L 351.95151 235.992843 
L 352.03138 236.097407 
L 352.205642 236.41129 
L 352.220164 236.394665 
L 352.379904 236.273794 
L 352.728429 235.896848 
L 352.793777 236.01502 
L 352.989823 236.442477 
L 353.294782 236.822076 
L 353.302043 236.815379 
L 353.374652 236.75816 
L 353.381913 236.735732 
L 353.708655 236.500366 
L 353.744959 236.550013 
L 354.260485 237.458133 
L 354.304051 237.43557 
L 354.696141 236.990816 
L 354.732446 237.05582 
L 355.015622 237.666414 
L 355.102753 237.762912 
L 355.247972 237.843835 
L 355.465799 237.74074 
L 355.676366 237.509115 
L 355.836107 237.818265 
L 356.046674 238.299815 
L 356.213675 238.426959 
L 356.24998 238.389642 
L 356.48233 238.101986 
L 356.627548 238.210301 
L 356.910724 238.816303 
L 357.360902 239.175566 
L 357.506121 239.218379 
L 357.556947 239.241457 
L 357.585991 239.290863 
L 357.745731 239.370084 
L 358.261257 239.197787 
L 358.450041 239.539815 
L 358.457302 239.531519 
L 358.493607 239.648788 
L 358.566216 239.783782 
L 359.103525 240.608403 
L 359.386701 240.71842 
L 359.582746 240.978533 
L 359.633573 241.024203 
L 359.648095 241.046101 
L 359.815096 241.212131 
L 359.931271 241.295088 
L 360.032924 241.266592 
L 360.214447 241.055043 
L 360.461319 241.141401 
L 360.70819 241.629337 
L 360.773539 241.747736 
L 360.984106 241.917267 
L 361.129324 241.800985 
L 361.158368 241.8261 
L 361.296326 241.954255 
L 361.48511 242.109288 
L 361.492371 242.102449 
L 361.637589 242.07486 
L 361.811852 241.949825 
L 361.891722 241.856254 
L 362.051462 241.665128 
L 362.058723 241.668992 
L 362.18942 241.56406 
L 362.639598 241.001361 
L 362.784816 240.966056 
L 362.792077 240.945418 
L 363.35843 240.160936 
L 363.532692 239.697852 
L 363.808607 239.565859 
L 363.844912 239.626497 
L 364.040957 239.836048 
L 364.048218 239.831398 
L 364.30235 239.990225 
L 364.37496 239.940085 
L 364.411264 239.969182 
L 364.679919 240.457935 
L 365.246271 241.314248 
L 365.362446 241.500864 
L 365.529448 241.682449 
L 365.536708 241.679716 
L 365.674666 241.638403 
L 366.299106 240.441385 
L 366.654892 239.049262 
L 366.829154 238.609465 
L 366.87998 238.474164 
L 367.010677 236.629588 
L 367.03246 236.579441 
L 367.279332 234.997743 
L 367.729509 233.333016 
L 368.223252 233.222887 
L 368.295862 233.179678 
L 368.324905 233.268867 
L 368.353949 233.318864 
L 368.382993 233.266019 
L 368.52095 236.520846 
L 368.695213 237.005884 
L 368.854953 239.617558 
L 369.007433 239.981526 
L 369.617351 237.32229 
L 369.777091 237.094627 
L 370.009441 237.072015 
L 370.140138 236.989361 
L 370.249052 236.885667 
L 370.270834 237.005984 
L 370.350705 237.04537 
L 370.336183 236.95196 
L 370.379748 237.019404 
L 371.062276 232.42806 
L 372.528983 232.337976 
L 372.681463 232.340752 
L 372.804899 232.342358 
L 373.05177 232.356855 
L 373.509209 232.347828 
L 373.581818 232.347828 
L 373.581818 232.347828 
" style="fill:none;stroke:#0000ff;stroke-linecap:square;stroke-width:1.5;"/>
   </g>
   <g id="patch_3">
    <path d="M 54 252 
L 54 34.56 
" style="fill:none;stroke:#000000;stroke-linecap:square;stroke-linejoin:miter;stroke-width:0.8;"/>
   </g>
   <g id="patch_4">
    <path d="M 388.8 252 
L 388.8 34.56 
" style="fill:none;stroke:#000000;stroke-linecap:square;stroke-linejoin:miter;stroke-width:0.8;"/>
   </g>
   <g id="patch_5">
    <path d="M 54 252 
L 388.8 252 
" style="fill:none;stroke:#000000;stroke-linecap:square;stroke-linejoin:miter;stroke-width:0.8;"/>
   </g>
   <g id="patch_6">
    <path d="M 54 34.56 
L 388.8 34.56 
" style="fill:none;stroke:#000000;stroke-linecap:square;stroke-linejoin:miter;stroke-width:0.8;"/>
   </g>
  </g>
 </g>
 <defs>
  <clipPath id="pae7a4ae1b7">
   <rect height="217.44" width="334.8" x="54" y="34.56"/>
  </clipPath>
 </defs>
</svg>
