<?xml version="1.0" encoding="utf-8" standalone="no"?>
<!DOCTYPE svg PUBLIC "-//W3C//DTD SVG 1.1//EN"
  "http://www.w3.org/Graphics/SVG/1.1/DTD/svg11.dtd">
<!-- Created with matplotlib (https://matplotlib.org/) -->
<svg height="345.6pt" version="1.1" viewBox="0 0 460.8 345.6" width="460.8pt" xmlns="http://www.w3.org/2000/svg" xmlns:xlink="http://www.w3.org/1999/xlink">
 <defs>
  <style type="text/css">
*{stroke-linecap:butt;stroke-linejoin:round;}
  </style>
 </defs>
 <g id="figure_1">
  <g id="patch_1">
   <path d="M 0 345.6 
L 460.8 345.6 
L 460.8 0 
L 0 0 
z
" style="fill:#ffffff;"/>
  </g>
  <g id="axes_1">
   <g id="patch_2">
    <path d="M 57.6 307.584 
L 414.72 307.584 
L 414.72 41.472 
L 57.6 41.472 
z
" style="fill:#ffffff;"/>
   </g>
   <g id="matplotlib.axis_1">
    <g id="xtick_1">
     <g id="line2d_1">
      <defs>
       <path d="M 0 0 
L 0 3.5 
" id="m6736719b75" style="stroke:#000000;stroke-width:0.8;"/>
      </defs>
      <g>
       <use style="stroke:#000000;stroke-width:0.8;" x="104.70319" xlink:href="#m6736719b75" y="307.584"/>
      </g>
     </g>
     <g id="text_1">
      <!-- 200 -->
      <defs>
       <path d="M 19.1875 8.296875 
L 53.609375 8.296875 
L 53.609375 0 
L 7.328125 0 
L 7.328125 8.296875 
Q 12.9375 14.109375 22.625 23.890625 
Q 32.328125 33.6875 34.8125 36.53125 
Q 39.546875 41.84375 41.421875 45.53125 
Q 43.3125 49.21875 43.3125 52.78125 
Q 43.3125 58.59375 39.234375 62.25 
Q 35.15625 65.921875 28.609375 65.921875 
Q 23.96875 65.921875 18.8125 64.3125 
Q 13.671875 62.703125 7.8125 59.421875 
L 7.8125 69.390625 
Q 13.765625 71.78125 18.9375 73 
Q 24.125 74.21875 28.421875 74.21875 
Q 39.75 74.21875 46.484375 68.546875 
Q 53.21875 62.890625 53.21875 53.421875 
Q 53.21875 48.921875 51.53125 44.890625 
Q 49.859375 40.875 45.40625 35.40625 
Q 44.1875 33.984375 37.640625 27.21875 
Q 31.109375 20.453125 19.1875 8.296875 
z
" id="DejaVuSans-50"/>
       <path d="M 31.78125 66.40625 
Q 24.171875 66.40625 20.328125 58.90625 
Q 16.5 51.421875 16.5 36.375 
Q 16.5 21.390625 20.328125 13.890625 
Q 24.171875 6.390625 31.78125 6.390625 
Q 39.453125 6.390625 43.28125 13.890625 
Q 47.125 21.390625 47.125 36.375 
Q 47.125 51.421875 43.28125 58.90625 
Q 39.453125 66.40625 31.78125 66.40625 
z
M 31.78125 74.21875 
Q 44.046875 74.21875 50.515625 64.515625 
Q 56.984375 54.828125 56.984375 36.375 
Q 56.984375 17.96875 50.515625 8.265625 
Q 44.046875 -1.421875 31.78125 -1.421875 
Q 19.53125 -1.421875 13.0625 8.265625 
Q 6.59375 17.96875 6.59375 36.375 
Q 6.59375 54.828125 13.0625 64.515625 
Q 19.53125 74.21875 31.78125 74.21875 
z
" id="DejaVuSans-48"/>
      </defs>
      <g transform="translate(89.43319 326.7415)scale(0.16 -0.16)">
       <use xlink:href="#DejaVuSans-50"/>
       <use x="63.623047" xlink:href="#DejaVuSans-48"/>
       <use x="127.246094" xlink:href="#DejaVuSans-48"/>
      </g>
     </g>
    </g>
    <g id="xtick_2">
     <g id="line2d_2">
      <g>
       <use style="stroke:#000000;stroke-width:0.8;" x="166.558308" xlink:href="#m6736719b75" y="307.584"/>
      </g>
     </g>
     <g id="text_2">
      <!-- 220 -->
      <g transform="translate(151.288308 326.7415)scale(0.16 -0.16)">
       <use xlink:href="#DejaVuSans-50"/>
       <use x="63.623047" xlink:href="#DejaVuSans-50"/>
       <use x="127.246094" xlink:href="#DejaVuSans-48"/>
      </g>
     </g>
    </g>
    <g id="xtick_3">
     <g id="line2d_3">
      <g>
       <use style="stroke:#000000;stroke-width:0.8;" x="228.413427" xlink:href="#m6736719b75" y="307.584"/>
      </g>
     </g>
     <g id="text_3">
      <!-- 240 -->
      <defs>
       <path d="M 37.796875 64.3125 
L 12.890625 25.390625 
L 37.796875 25.390625 
z
M 35.203125 72.90625 
L 47.609375 72.90625 
L 47.609375 25.390625 
L 58.015625 25.390625 
L 58.015625 17.1875 
L 47.609375 17.1875 
L 47.609375 0 
L 37.796875 0 
L 37.796875 17.1875 
L 4.890625 17.1875 
L 4.890625 26.703125 
z
" id="DejaVuSans-52"/>
      </defs>
      <g transform="translate(213.143427 326.7415)scale(0.16 -0.16)">
       <use xlink:href="#DejaVuSans-50"/>
       <use x="63.623047" xlink:href="#DejaVuSans-52"/>
       <use x="127.246094" xlink:href="#DejaVuSans-48"/>
      </g>
     </g>
    </g>
    <g id="xtick_4">
     <g id="line2d_4">
      <g>
       <use style="stroke:#000000;stroke-width:0.8;" x="290.268546" xlink:href="#m6736719b75" y="307.584"/>
      </g>
     </g>
     <g id="text_4">
      <!-- 260 -->
      <defs>
       <path d="M 33.015625 40.375 
Q 26.375 40.375 22.484375 35.828125 
Q 18.609375 31.296875 18.609375 23.390625 
Q 18.609375 15.53125 22.484375 10.953125 
Q 26.375 6.390625 33.015625 6.390625 
Q 39.65625 6.390625 43.53125 10.953125 
Q 47.40625 15.53125 47.40625 23.390625 
Q 47.40625 31.296875 43.53125 35.828125 
Q 39.65625 40.375 33.015625 40.375 
z
M 52.59375 71.296875 
L 52.59375 62.3125 
Q 48.875 64.0625 45.09375 64.984375 
Q 41.3125 65.921875 37.59375 65.921875 
Q 27.828125 65.921875 22.671875 59.328125 
Q 17.53125 52.734375 16.796875 39.40625 
Q 19.671875 43.65625 24.015625 45.921875 
Q 28.375 48.1875 33.59375 48.1875 
Q 44.578125 48.1875 50.953125 41.515625 
Q 57.328125 34.859375 57.328125 23.390625 
Q 57.328125 12.15625 50.6875 5.359375 
Q 44.046875 -1.421875 33.015625 -1.421875 
Q 20.359375 -1.421875 13.671875 8.265625 
Q 6.984375 17.96875 6.984375 36.375 
Q 6.984375 53.65625 15.1875 63.9375 
Q 23.390625 74.21875 37.203125 74.21875 
Q 40.921875 74.21875 44.703125 73.484375 
Q 48.484375 72.75 52.59375 71.296875 
z
" id="DejaVuSans-54"/>
      </defs>
      <g transform="translate(274.998546 326.7415)scale(0.16 -0.16)">
       <use xlink:href="#DejaVuSans-50"/>
       <use x="63.623047" xlink:href="#DejaVuSans-54"/>
       <use x="127.246094" xlink:href="#DejaVuSans-48"/>
      </g>
     </g>
    </g>
    <g id="xtick_5">
     <g id="line2d_5">
      <g>
       <use style="stroke:#000000;stroke-width:0.8;" x="352.123664" xlink:href="#m6736719b75" y="307.584"/>
      </g>
     </g>
     <g id="text_5">
      <!-- 280 -->
      <defs>
       <path d="M 31.78125 34.625 
Q 24.75 34.625 20.71875 30.859375 
Q 16.703125 27.09375 16.703125 20.515625 
Q 16.703125 13.921875 20.71875 10.15625 
Q 24.75 6.390625 31.78125 6.390625 
Q 38.8125 6.390625 42.859375 10.171875 
Q 46.921875 13.96875 46.921875 20.515625 
Q 46.921875 27.09375 42.890625 30.859375 
Q 38.875 34.625 31.78125 34.625 
z
M 21.921875 38.8125 
Q 15.578125 40.375 12.03125 44.71875 
Q 8.5 49.078125 8.5 55.328125 
Q 8.5 64.0625 14.71875 69.140625 
Q 20.953125 74.21875 31.78125 74.21875 
Q 42.671875 74.21875 48.875 69.140625 
Q 55.078125 64.0625 55.078125 55.328125 
Q 55.078125 49.078125 51.53125 44.71875 
Q 48 40.375 41.703125 38.8125 
Q 48.828125 37.15625 52.796875 32.3125 
Q 56.78125 27.484375 56.78125 20.515625 
Q 56.78125 9.90625 50.3125 4.234375 
Q 43.84375 -1.421875 31.78125 -1.421875 
Q 19.734375 -1.421875 13.25 4.234375 
Q 6.78125 9.90625 6.78125 20.515625 
Q 6.78125 27.484375 10.78125 32.3125 
Q 14.796875 37.15625 21.921875 38.8125 
z
M 18.3125 54.390625 
Q 18.3125 48.734375 21.84375 45.5625 
Q 25.390625 42.390625 31.78125 42.390625 
Q 38.140625 42.390625 41.71875 45.5625 
Q 45.3125 48.734375 45.3125 54.390625 
Q 45.3125 60.0625 41.71875 63.234375 
Q 38.140625 66.40625 31.78125 66.40625 
Q 25.390625 66.40625 21.84375 63.234375 
Q 18.3125 60.0625 18.3125 54.390625 
z
" id="DejaVuSans-56"/>
      </defs>
      <g transform="translate(336.853664 326.7415)scale(0.16 -0.16)">
       <use xlink:href="#DejaVuSans-50"/>
       <use x="63.623047" xlink:href="#DejaVuSans-56"/>
       <use x="127.246094" xlink:href="#DejaVuSans-48"/>
      </g>
     </g>
    </g>
    <g id="xtick_6">
     <g id="line2d_6">
      <g>
       <use style="stroke:#000000;stroke-width:0.8;" x="413.978783" xlink:href="#m6736719b75" y="307.584"/>
      </g>
     </g>
     <g id="text_6">
      <!-- 300 -->
      <defs>
       <path d="M 40.578125 39.3125 
Q 47.65625 37.796875 51.625 33 
Q 55.609375 28.21875 55.609375 21.1875 
Q 55.609375 10.40625 48.1875 4.484375 
Q 40.765625 -1.421875 27.09375 -1.421875 
Q 22.515625 -1.421875 17.65625 -0.515625 
Q 12.796875 0.390625 7.625 2.203125 
L 7.625 11.71875 
Q 11.71875 9.328125 16.59375 8.109375 
Q 21.484375 6.890625 26.8125 6.890625 
Q 36.078125 6.890625 40.9375 10.546875 
Q 45.796875 14.203125 45.796875 21.1875 
Q 45.796875 27.640625 41.28125 31.265625 
Q 36.765625 34.90625 28.71875 34.90625 
L 20.21875 34.90625 
L 20.21875 43.015625 
L 29.109375 43.015625 
Q 36.375 43.015625 40.234375 45.921875 
Q 44.09375 48.828125 44.09375 54.296875 
Q 44.09375 59.90625 40.109375 62.90625 
Q 36.140625 65.921875 28.71875 65.921875 
Q 24.65625 65.921875 20.015625 65.03125 
Q 15.375 64.15625 9.8125 62.3125 
L 9.8125 71.09375 
Q 15.4375 72.65625 20.34375 73.4375 
Q 25.25 74.21875 29.59375 74.21875 
Q 40.828125 74.21875 47.359375 69.109375 
Q 53.90625 64.015625 53.90625 55.328125 
Q 53.90625 49.265625 50.4375 45.09375 
Q 46.96875 40.921875 40.578125 39.3125 
z
" id="DejaVuSans-51"/>
      </defs>
      <g transform="translate(398.708783 326.7415)scale(0.16 -0.16)">
       <use xlink:href="#DejaVuSans-51"/>
       <use x="63.623047" xlink:href="#DejaVuSans-48"/>
       <use x="127.246094" xlink:href="#DejaVuSans-48"/>
      </g>
     </g>
    </g>
    <g id="text_7">
     <!-- Time (s) -->
     <defs>
      <path d="M -0.296875 72.90625 
L 61.375 72.90625 
L 61.375 64.59375 
L 35.5 64.59375 
L 35.5 0 
L 25.59375 0 
L 25.59375 64.59375 
L -0.296875 64.59375 
z
" id="DejaVuSans-84"/>
      <path d="M 9.421875 54.6875 
L 18.40625 54.6875 
L 18.40625 0 
L 9.421875 0 
z
M 9.421875 75.984375 
L 18.40625 75.984375 
L 18.40625 64.59375 
L 9.421875 64.59375 
z
" id="DejaVuSans-105"/>
      <path d="M 52 44.1875 
Q 55.375 50.25 60.0625 53.125 
Q 64.75 56 71.09375 56 
Q 79.640625 56 84.28125 50.015625 
Q 88.921875 44.046875 88.921875 33.015625 
L 88.921875 0 
L 79.890625 0 
L 79.890625 32.71875 
Q 79.890625 40.578125 77.09375 44.375 
Q 74.3125 48.1875 68.609375 48.1875 
Q 61.625 48.1875 57.5625 43.546875 
Q 53.515625 38.921875 53.515625 30.90625 
L 53.515625 0 
L 44.484375 0 
L 44.484375 32.71875 
Q 44.484375 40.625 41.703125 44.40625 
Q 38.921875 48.1875 33.109375 48.1875 
Q 26.21875 48.1875 22.15625 43.53125 
Q 18.109375 38.875 18.109375 30.90625 
L 18.109375 0 
L 9.078125 0 
L 9.078125 54.6875 
L 18.109375 54.6875 
L 18.109375 46.1875 
Q 21.1875 51.21875 25.484375 53.609375 
Q 29.78125 56 35.6875 56 
Q 41.65625 56 45.828125 52.96875 
Q 50 49.953125 52 44.1875 
z
" id="DejaVuSans-109"/>
      <path d="M 56.203125 29.59375 
L 56.203125 25.203125 
L 14.890625 25.203125 
Q 15.484375 15.921875 20.484375 11.0625 
Q 25.484375 6.203125 34.421875 6.203125 
Q 39.59375 6.203125 44.453125 7.46875 
Q 49.3125 8.734375 54.109375 11.28125 
L 54.109375 2.78125 
Q 49.265625 0.734375 44.1875 -0.34375 
Q 39.109375 -1.421875 33.890625 -1.421875 
Q 20.796875 -1.421875 13.15625 6.1875 
Q 5.515625 13.8125 5.515625 26.8125 
Q 5.515625 40.234375 12.765625 48.109375 
Q 20.015625 56 32.328125 56 
Q 43.359375 56 49.78125 48.890625 
Q 56.203125 41.796875 56.203125 29.59375 
z
M 47.21875 32.234375 
Q 47.125 39.59375 43.09375 43.984375 
Q 39.0625 48.390625 32.421875 48.390625 
Q 24.90625 48.390625 20.390625 44.140625 
Q 15.875 39.890625 15.1875 32.171875 
z
" id="DejaVuSans-101"/>
      <path id="DejaVuSans-32"/>
      <path d="M 31 75.875 
Q 24.46875 64.65625 21.28125 53.65625 
Q 18.109375 42.671875 18.109375 31.390625 
Q 18.109375 20.125 21.3125 9.0625 
Q 24.515625 -2 31 -13.1875 
L 23.1875 -13.1875 
Q 15.875 -1.703125 12.234375 9.375 
Q 8.59375 20.453125 8.59375 31.390625 
Q 8.59375 42.28125 12.203125 53.3125 
Q 15.828125 64.359375 23.1875 75.875 
z
" id="DejaVuSans-40"/>
      <path d="M 44.28125 53.078125 
L 44.28125 44.578125 
Q 40.484375 46.53125 36.375 47.5 
Q 32.28125 48.484375 27.875 48.484375 
Q 21.1875 48.484375 17.84375 46.4375 
Q 14.5 44.390625 14.5 40.28125 
Q 14.5 37.15625 16.890625 35.375 
Q 19.28125 33.59375 26.515625 31.984375 
L 29.59375 31.296875 
Q 39.15625 29.25 43.1875 25.515625 
Q 47.21875 21.78125 47.21875 15.09375 
Q 47.21875 7.46875 41.1875 3.015625 
Q 35.15625 -1.421875 24.609375 -1.421875 
Q 20.21875 -1.421875 15.453125 -0.5625 
Q 10.6875 0.296875 5.421875 2 
L 5.421875 11.28125 
Q 10.40625 8.6875 15.234375 7.390625 
Q 20.0625 6.109375 24.8125 6.109375 
Q 31.15625 6.109375 34.5625 8.28125 
Q 37.984375 10.453125 37.984375 14.40625 
Q 37.984375 18.0625 35.515625 20.015625 
Q 33.0625 21.96875 24.703125 23.78125 
L 21.578125 24.515625 
Q 13.234375 26.265625 9.515625 29.90625 
Q 5.8125 33.546875 5.8125 39.890625 
Q 5.8125 47.609375 11.28125 51.796875 
Q 16.75 56 26.8125 56 
Q 31.78125 56 36.171875 55.265625 
Q 40.578125 54.546875 44.28125 53.078125 
z
" id="DejaVuSans-115"/>
      <path d="M 8.015625 75.875 
L 15.828125 75.875 
Q 23.140625 64.359375 26.78125 53.3125 
Q 30.421875 42.28125 30.421875 31.390625 
Q 30.421875 20.453125 26.78125 9.375 
Q 23.140625 -1.703125 15.828125 -13.1875 
L 8.015625 -13.1875 
Q 14.5 -2 17.703125 9.0625 
Q 20.90625 20.125 20.90625 31.390625 
Q 20.90625 42.671875 17.703125 53.65625 
Q 14.5 64.65625 8.015625 75.875 
z
" id="DejaVuSans-41"/>
     </defs>
     <g transform="translate(203.3875 346.2265)scale(0.16 -0.16)">
      <use xlink:href="#DejaVuSans-84"/>
      <use x="61.037109" xlink:href="#DejaVuSans-105"/>
      <use x="88.820312" xlink:href="#DejaVuSans-109"/>
      <use x="186.232422" xlink:href="#DejaVuSans-101"/>
      <use x="247.755859" xlink:href="#DejaVuSans-32"/>
      <use x="279.542969" xlink:href="#DejaVuSans-40"/>
      <use x="318.556641" xlink:href="#DejaVuSans-115"/>
      <use x="370.65625" xlink:href="#DejaVuSans-41"/>
     </g>
    </g>
   </g>
   <g id="matplotlib.axis_2">
    <g id="ytick_1">
     <g id="line2d_7">
      <defs>
       <path d="M 0 0 
L -3.5 0 
" id="mb2b83917be" style="stroke:#000000;stroke-width:0.8;"/>
      </defs>
      <g>
       <use style="stroke:#000000;stroke-width:0.8;" x="57.6" xlink:href="#mb2b83917be" y="307.584"/>
      </g>
     </g>
     <g id="text_8">
      <!-- 0 -->
      <g transform="translate(40.42 313.66275)scale(0.16 -0.16)">
       <use xlink:href="#DejaVuSans-48"/>
      </g>
     </g>
    </g>
    <g id="ytick_2">
     <g id="line2d_8">
      <g>
       <use style="stroke:#000000;stroke-width:0.8;" x="57.6" xlink:href="#mb2b83917be" y="263.232"/>
      </g>
     </g>
     <g id="text_9">
      <!-- 30 -->
      <g transform="translate(30.24 269.31075)scale(0.16 -0.16)">
       <use xlink:href="#DejaVuSans-51"/>
       <use x="63.623047" xlink:href="#DejaVuSans-48"/>
      </g>
     </g>
    </g>
    <g id="ytick_3">
     <g id="line2d_9">
      <g>
       <use style="stroke:#000000;stroke-width:0.8;" x="57.6" xlink:href="#mb2b83917be" y="218.88"/>
      </g>
     </g>
     <g id="text_10">
      <!-- 60 -->
      <g transform="translate(30.24 224.95875)scale(0.16 -0.16)">
       <use xlink:href="#DejaVuSans-54"/>
       <use x="63.623047" xlink:href="#DejaVuSans-48"/>
      </g>
     </g>
    </g>
    <g id="ytick_4">
     <g id="line2d_10">
      <g>
       <use style="stroke:#000000;stroke-width:0.8;" x="57.6" xlink:href="#mb2b83917be" y="174.528"/>
      </g>
     </g>
     <g id="text_11">
      <!-- 90 -->
      <defs>
       <path d="M 10.984375 1.515625 
L 10.984375 10.5 
Q 14.703125 8.734375 18.5 7.8125 
Q 22.3125 6.890625 25.984375 6.890625 
Q 35.75 6.890625 40.890625 13.453125 
Q 46.046875 20.015625 46.78125 33.40625 
Q 43.953125 29.203125 39.59375 26.953125 
Q 35.25 24.703125 29.984375 24.703125 
Q 19.046875 24.703125 12.671875 31.3125 
Q 6.296875 37.9375 6.296875 49.421875 
Q 6.296875 60.640625 12.9375 67.421875 
Q 19.578125 74.21875 30.609375 74.21875 
Q 43.265625 74.21875 49.921875 64.515625 
Q 56.59375 54.828125 56.59375 36.375 
Q 56.59375 19.140625 48.40625 8.859375 
Q 40.234375 -1.421875 26.421875 -1.421875 
Q 22.703125 -1.421875 18.890625 -0.6875 
Q 15.09375 0.046875 10.984375 1.515625 
z
M 30.609375 32.421875 
Q 37.25 32.421875 41.125 36.953125 
Q 45.015625 41.5 45.015625 49.421875 
Q 45.015625 57.28125 41.125 61.84375 
Q 37.25 66.40625 30.609375 66.40625 
Q 23.96875 66.40625 20.09375 61.84375 
Q 16.21875 57.28125 16.21875 49.421875 
Q 16.21875 41.5 20.09375 36.953125 
Q 23.96875 32.421875 30.609375 32.421875 
z
" id="DejaVuSans-57"/>
      </defs>
      <g transform="translate(30.24 180.60675)scale(0.16 -0.16)">
       <use xlink:href="#DejaVuSans-57"/>
       <use x="63.623047" xlink:href="#DejaVuSans-48"/>
      </g>
     </g>
    </g>
    <g id="ytick_5">
     <g id="line2d_11">
      <g>
       <use style="stroke:#000000;stroke-width:0.8;" x="57.6" xlink:href="#mb2b83917be" y="130.176"/>
      </g>
     </g>
     <g id="text_12">
      <!-- 120 -->
      <defs>
       <path d="M 12.40625 8.296875 
L 28.515625 8.296875 
L 28.515625 63.921875 
L 10.984375 60.40625 
L 10.984375 69.390625 
L 28.421875 72.90625 
L 38.28125 72.90625 
L 38.28125 8.296875 
L 54.390625 8.296875 
L 54.390625 0 
L 12.40625 0 
z
" id="DejaVuSans-49"/>
      </defs>
      <g transform="translate(20.06 136.25475)scale(0.16 -0.16)">
       <use xlink:href="#DejaVuSans-49"/>
       <use x="63.623047" xlink:href="#DejaVuSans-50"/>
       <use x="127.246094" xlink:href="#DejaVuSans-48"/>
      </g>
     </g>
    </g>
    <g id="ytick_6">
     <g id="line2d_12">
      <g>
       <use style="stroke:#000000;stroke-width:0.8;" x="57.6" xlink:href="#mb2b83917be" y="85.824"/>
      </g>
     </g>
     <g id="text_13">
      <!-- 150 -->
      <defs>
       <path d="M 10.796875 72.90625 
L 49.515625 72.90625 
L 49.515625 64.59375 
L 19.828125 64.59375 
L 19.828125 46.734375 
Q 21.96875 47.46875 24.109375 47.828125 
Q 26.265625 48.1875 28.421875 48.1875 
Q 40.625 48.1875 47.75 41.5 
Q 54.890625 34.8125 54.890625 23.390625 
Q 54.890625 11.625 47.5625 5.09375 
Q 40.234375 -1.421875 26.90625 -1.421875 
Q 22.3125 -1.421875 17.546875 -0.640625 
Q 12.796875 0.140625 7.71875 1.703125 
L 7.71875 11.625 
Q 12.109375 9.234375 16.796875 8.0625 
Q 21.484375 6.890625 26.703125 6.890625 
Q 35.15625 6.890625 40.078125 11.328125 
Q 45.015625 15.765625 45.015625 23.390625 
Q 45.015625 31 40.078125 35.4375 
Q 35.15625 39.890625 26.703125 39.890625 
Q 22.75 39.890625 18.8125 39.015625 
Q 14.890625 38.140625 10.796875 36.28125 
z
" id="DejaVuSans-53"/>
      </defs>
      <g transform="translate(20.06 91.90275)scale(0.16 -0.16)">
       <use xlink:href="#DejaVuSans-49"/>
       <use x="63.623047" xlink:href="#DejaVuSans-53"/>
       <use x="127.246094" xlink:href="#DejaVuSans-48"/>
      </g>
     </g>
    </g>
    <g id="ytick_7">
     <g id="line2d_13">
      <g>
       <use style="stroke:#000000;stroke-width:0.8;" x="57.6" xlink:href="#mb2b83917be" y="41.472"/>
      </g>
     </g>
     <g id="text_14">
      <!-- 180 -->
      <g transform="translate(20.06 47.55075)scale(0.16 -0.16)">
       <use xlink:href="#DejaVuSans-49"/>
       <use x="63.623047" xlink:href="#DejaVuSans-56"/>
       <use x="127.246094" xlink:href="#DejaVuSans-48"/>
      </g>
     </g>
    </g>
    <g id="text_15">
     <!-- Orientation to vertical (degrees) -->
     <defs>
      <path d="M 39.40625 66.21875 
Q 28.65625 66.21875 22.328125 58.203125 
Q 16.015625 50.203125 16.015625 36.375 
Q 16.015625 22.609375 22.328125 14.59375 
Q 28.65625 6.59375 39.40625 6.59375 
Q 50.140625 6.59375 56.421875 14.59375 
Q 62.703125 22.609375 62.703125 36.375 
Q 62.703125 50.203125 56.421875 58.203125 
Q 50.140625 66.21875 39.40625 66.21875 
z
M 39.40625 74.21875 
Q 54.734375 74.21875 63.90625 63.9375 
Q 73.09375 53.65625 73.09375 36.375 
Q 73.09375 19.140625 63.90625 8.859375 
Q 54.734375 -1.421875 39.40625 -1.421875 
Q 24.03125 -1.421875 14.8125 8.828125 
Q 5.609375 19.09375 5.609375 36.375 
Q 5.609375 53.65625 14.8125 63.9375 
Q 24.03125 74.21875 39.40625 74.21875 
z
" id="DejaVuSans-79"/>
      <path d="M 41.109375 46.296875 
Q 39.59375 47.171875 37.8125 47.578125 
Q 36.03125 48 33.890625 48 
Q 26.265625 48 22.1875 43.046875 
Q 18.109375 38.09375 18.109375 28.8125 
L 18.109375 0 
L 9.078125 0 
L 9.078125 54.6875 
L 18.109375 54.6875 
L 18.109375 46.1875 
Q 20.953125 51.171875 25.484375 53.578125 
Q 30.03125 56 36.53125 56 
Q 37.453125 56 38.578125 55.875 
Q 39.703125 55.765625 41.0625 55.515625 
z
" id="DejaVuSans-114"/>
      <path d="M 54.890625 33.015625 
L 54.890625 0 
L 45.90625 0 
L 45.90625 32.71875 
Q 45.90625 40.484375 42.875 44.328125 
Q 39.84375 48.1875 33.796875 48.1875 
Q 26.515625 48.1875 22.3125 43.546875 
Q 18.109375 38.921875 18.109375 30.90625 
L 18.109375 0 
L 9.078125 0 
L 9.078125 54.6875 
L 18.109375 54.6875 
L 18.109375 46.1875 
Q 21.34375 51.125 25.703125 53.5625 
Q 30.078125 56 35.796875 56 
Q 45.21875 56 50.046875 50.171875 
Q 54.890625 44.34375 54.890625 33.015625 
z
" id="DejaVuSans-110"/>
      <path d="M 18.3125 70.21875 
L 18.3125 54.6875 
L 36.8125 54.6875 
L 36.8125 47.703125 
L 18.3125 47.703125 
L 18.3125 18.015625 
Q 18.3125 11.328125 20.140625 9.421875 
Q 21.96875 7.515625 27.59375 7.515625 
L 36.8125 7.515625 
L 36.8125 0 
L 27.59375 0 
Q 17.1875 0 13.234375 3.875 
Q 9.28125 7.765625 9.28125 18.015625 
L 9.28125 47.703125 
L 2.6875 47.703125 
L 2.6875 54.6875 
L 9.28125 54.6875 
L 9.28125 70.21875 
z
" id="DejaVuSans-116"/>
      <path d="M 34.28125 27.484375 
Q 23.390625 27.484375 19.1875 25 
Q 14.984375 22.515625 14.984375 16.5 
Q 14.984375 11.71875 18.140625 8.90625 
Q 21.296875 6.109375 26.703125 6.109375 
Q 34.1875 6.109375 38.703125 11.40625 
Q 43.21875 16.703125 43.21875 25.484375 
L 43.21875 27.484375 
z
M 52.203125 31.203125 
L 52.203125 0 
L 43.21875 0 
L 43.21875 8.296875 
Q 40.140625 3.328125 35.546875 0.953125 
Q 30.953125 -1.421875 24.3125 -1.421875 
Q 15.921875 -1.421875 10.953125 3.296875 
Q 6 8.015625 6 15.921875 
Q 6 25.140625 12.171875 29.828125 
Q 18.359375 34.515625 30.609375 34.515625 
L 43.21875 34.515625 
L 43.21875 35.40625 
Q 43.21875 41.609375 39.140625 45 
Q 35.0625 48.390625 27.6875 48.390625 
Q 23 48.390625 18.546875 47.265625 
Q 14.109375 46.140625 10.015625 43.890625 
L 10.015625 52.203125 
Q 14.9375 54.109375 19.578125 55.046875 
Q 24.21875 56 28.609375 56 
Q 40.484375 56 46.34375 49.84375 
Q 52.203125 43.703125 52.203125 31.203125 
z
" id="DejaVuSans-97"/>
      <path d="M 30.609375 48.390625 
Q 23.390625 48.390625 19.1875 42.75 
Q 14.984375 37.109375 14.984375 27.296875 
Q 14.984375 17.484375 19.15625 11.84375 
Q 23.34375 6.203125 30.609375 6.203125 
Q 37.796875 6.203125 41.984375 11.859375 
Q 46.1875 17.53125 46.1875 27.296875 
Q 46.1875 37.015625 41.984375 42.703125 
Q 37.796875 48.390625 30.609375 48.390625 
z
M 30.609375 56 
Q 42.328125 56 49.015625 48.375 
Q 55.71875 40.765625 55.71875 27.296875 
Q 55.71875 13.875 49.015625 6.21875 
Q 42.328125 -1.421875 30.609375 -1.421875 
Q 18.84375 -1.421875 12.171875 6.21875 
Q 5.515625 13.875 5.515625 27.296875 
Q 5.515625 40.765625 12.171875 48.375 
Q 18.84375 56 30.609375 56 
z
" id="DejaVuSans-111"/>
      <path d="M 2.984375 54.6875 
L 12.5 54.6875 
L 29.59375 8.796875 
L 46.6875 54.6875 
L 56.203125 54.6875 
L 35.6875 0 
L 23.484375 0 
z
" id="DejaVuSans-118"/>
      <path d="M 48.78125 52.59375 
L 48.78125 44.1875 
Q 44.96875 46.296875 41.140625 47.34375 
Q 37.3125 48.390625 33.40625 48.390625 
Q 24.65625 48.390625 19.8125 42.84375 
Q 14.984375 37.3125 14.984375 27.296875 
Q 14.984375 17.28125 19.8125 11.734375 
Q 24.65625 6.203125 33.40625 6.203125 
Q 37.3125 6.203125 41.140625 7.25 
Q 44.96875 8.296875 48.78125 10.40625 
L 48.78125 2.09375 
Q 45.015625 0.34375 40.984375 -0.53125 
Q 36.96875 -1.421875 32.421875 -1.421875 
Q 20.0625 -1.421875 12.78125 6.34375 
Q 5.515625 14.109375 5.515625 27.296875 
Q 5.515625 40.671875 12.859375 48.328125 
Q 20.21875 56 33.015625 56 
Q 37.15625 56 41.109375 55.140625 
Q 45.0625 54.296875 48.78125 52.59375 
z
" id="DejaVuSans-99"/>
      <path d="M 9.421875 75.984375 
L 18.40625 75.984375 
L 18.40625 0 
L 9.421875 0 
z
" id="DejaVuSans-108"/>
      <path d="M 45.40625 46.390625 
L 45.40625 75.984375 
L 54.390625 75.984375 
L 54.390625 0 
L 45.40625 0 
L 45.40625 8.203125 
Q 42.578125 3.328125 38.25 0.953125 
Q 33.9375 -1.421875 27.875 -1.421875 
Q 17.96875 -1.421875 11.734375 6.484375 
Q 5.515625 14.40625 5.515625 27.296875 
Q 5.515625 40.1875 11.734375 48.09375 
Q 17.96875 56 27.875 56 
Q 33.9375 56 38.25 53.625 
Q 42.578125 51.265625 45.40625 46.390625 
z
M 14.796875 27.296875 
Q 14.796875 17.390625 18.875 11.75 
Q 22.953125 6.109375 30.078125 6.109375 
Q 37.203125 6.109375 41.296875 11.75 
Q 45.40625 17.390625 45.40625 27.296875 
Q 45.40625 37.203125 41.296875 42.84375 
Q 37.203125 48.484375 30.078125 48.484375 
Q 22.953125 48.484375 18.875 42.84375 
Q 14.796875 37.203125 14.796875 27.296875 
z
" id="DejaVuSans-100"/>
      <path d="M 45.40625 27.984375 
Q 45.40625 37.75 41.375 43.109375 
Q 37.359375 48.484375 30.078125 48.484375 
Q 22.859375 48.484375 18.828125 43.109375 
Q 14.796875 37.75 14.796875 27.984375 
Q 14.796875 18.265625 18.828125 12.890625 
Q 22.859375 7.515625 30.078125 7.515625 
Q 37.359375 7.515625 41.375 12.890625 
Q 45.40625 18.265625 45.40625 27.984375 
z
M 54.390625 6.78125 
Q 54.390625 -7.171875 48.1875 -13.984375 
Q 42 -20.796875 29.203125 -20.796875 
Q 24.46875 -20.796875 20.265625 -20.09375 
Q 16.0625 -19.390625 12.109375 -17.921875 
L 12.109375 -9.1875 
Q 16.0625 -11.328125 19.921875 -12.34375 
Q 23.78125 -13.375 27.78125 -13.375 
Q 36.625 -13.375 41.015625 -8.765625 
Q 45.40625 -4.15625 45.40625 5.171875 
L 45.40625 9.625 
Q 42.625 4.78125 38.28125 2.390625 
Q 33.9375 0 27.875 0 
Q 17.828125 0 11.671875 7.65625 
Q 5.515625 15.328125 5.515625 27.984375 
Q 5.515625 40.671875 11.671875 48.328125 
Q 17.828125 56 27.875 56 
Q 33.9375 56 38.28125 53.609375 
Q 42.625 51.21875 45.40625 46.390625 
L 45.40625 54.6875 
L 54.390625 54.6875 
z
" id="DejaVuSans-103"/>
     </defs>
     <g transform="translate(12.7325 303.8005)rotate(-90)scale(0.16 -0.16)">
      <use xlink:href="#DejaVuSans-79"/>
      <use x="78.710938" xlink:href="#DejaVuSans-114"/>
      <use x="119.824219" xlink:href="#DejaVuSans-105"/>
      <use x="147.607422" xlink:href="#DejaVuSans-101"/>
      <use x="209.130859" xlink:href="#DejaVuSans-110"/>
      <use x="272.509766" xlink:href="#DejaVuSans-116"/>
      <use x="311.71875" xlink:href="#DejaVuSans-97"/>
      <use x="372.998047" xlink:href="#DejaVuSans-116"/>
      <use x="412.207031" xlink:href="#DejaVuSans-105"/>
      <use x="439.990234" xlink:href="#DejaVuSans-111"/>
      <use x="501.171875" xlink:href="#DejaVuSans-110"/>
      <use x="564.550781" xlink:href="#DejaVuSans-32"/>
      <use x="596.337891" xlink:href="#DejaVuSans-116"/>
      <use x="635.546875" xlink:href="#DejaVuSans-111"/>
      <use x="696.728516" xlink:href="#DejaVuSans-32"/>
      <use x="728.515625" xlink:href="#DejaVuSans-118"/>
      <use x="787.695312" xlink:href="#DejaVuSans-101"/>
      <use x="849.21875" xlink:href="#DejaVuSans-114"/>
      <use x="890.332031" xlink:href="#DejaVuSans-116"/>
      <use x="929.541016" xlink:href="#DejaVuSans-105"/>
      <use x="957.324219" xlink:href="#DejaVuSans-99"/>
      <use x="1012.304688" xlink:href="#DejaVuSans-97"/>
      <use x="1073.583984" xlink:href="#DejaVuSans-108"/>
      <use x="1101.367188" xlink:href="#DejaVuSans-32"/>
      <use x="1133.154297" xlink:href="#DejaVuSans-40"/>
      <use x="1172.167969" xlink:href="#DejaVuSans-100"/>
      <use x="1235.644531" xlink:href="#DejaVuSans-101"/>
      <use x="1297.167969" xlink:href="#DejaVuSans-103"/>
      <use x="1360.644531" xlink:href="#DejaVuSans-114"/>
      <use x="1401.726562" xlink:href="#DejaVuSans-101"/>
      <use x="1463.25" xlink:href="#DejaVuSans-101"/>
      <use x="1524.773438" xlink:href="#DejaVuSans-115"/>
      <use x="1576.873047" xlink:href="#DejaVuSans-41"/>
     </g>
    </g>
   </g>
   <g id="line2d_14">
    <path clip-path="url(#pab42d0cecf)" d="M 73.832727 71.26763 
L 74.306368 68.313221 
L 74.727382 65.671352 
L 76.043052 56.450075 
L 76.621946 52.249784 
L 77.095587 49.15432 
L 77.253467 48.942119 
L 78.411256 48.367295 
L 78.621763 48.382564 
L 78.990151 48.565805 
L 79.358538 48.521425 
L 79.884806 47.925391 
L 80.042686 47.954135 
L 80.14794 47.981443 
L 80.411074 47.62868 
L 80.832088 46.962834 
L 80.884714 46.997009 
L 81.93725 46.809441 
L 82.358264 46.45739 
L 82.568771 46.415834 
L 82.779278 46.365584 
L 83.147666 46.681124 
L 83.621307 46.434204 
L 83.88444 46.088271 
L 84.147574 45.748595 
L 84.200201 45.792866 
L 84.621215 45.965046 
L 84.779095 45.929254 
L 85.094856 45.766271 
L 85.35799 45.861213 
L 85.673751 45.729754 
L 85.831631 45.606998 
L 86.410525 45.581461 
L 87.199927 46.056052 
L 87.463061 46.040798 
L 87.568314 46.110159 
L 87.673568 46.153453 
L 87.831448 46.072015 
L 88.041955 46.113731 
L 88.410343 46.058481 
L 88.62085 46.397588 
L 89.094491 47.033946 
L 89.568132 46.827548 
L 89.726012 46.853279 
L 89.989146 47.137228 
L 90.515413 47.735379 
L 91.094308 48.068073 
L 92.252097 50.156567 
L 92.304724 50.121227 
L 92.673111 49.765344 
L 93.515139 49.387943 
L 94.251914 49.34823 
L 94.725555 49.923234 
L 95.146569 49.638619 
L 95.830717 50.30706 
L 96.199105 50.447615 
L 96.514865 50.658466 
L 96.830626 50.808208 
L 97.199013 50.688161 
L 97.304267 50.712681 
L 97.514774 50.579169 
L 97.725281 50.559978 
L 98.304175 50.051644 
L 98.462056 50.030544 
L 98.672563 50.087071 
L 99.04095 51.019493 
L 99.356711 51.882702 
L 100.040859 52.565309 
L 100.198739 52.507827 
L 100.409246 52.370148 
L 100.67238 52.249931 
L 100.988141 51.918262 
L 101.093394 52.003082 
L 101.461782 52.336539 
L 101.988049 52.699292 
L 102.251183 53.105531 
L 102.619571 53.803671 
L 102.882704 54.283941 
L 103.514226 55.016525 
L 103.619479 54.923194 
L 103.882613 54.531156 
L 104.040493 54.530224 
L 105.093029 56.59304 
L 105.408789 56.457962 
L 105.619296 56.604269 
L 106.145564 58.658303 
L 106.356071 59.558043 
L 106.461325 59.685714 
L 107.408607 61.124413 
L 107.724367 61.21881 
L 108.250635 60.71526 
L 108.355889 60.621746 
L 108.98741 58.484872 
L 109.250544 57.811112 
L 109.408424 57.736911 
L 109.513677 57.850462 
L 109.987318 58.510619 
L 110.250452 58.281729 
L 110.77672 57.450885 
L 111.618748 55.142996 
L 112.092389 54.123728 
L 112.513403 51.992489 
L 112.56603 52.071029 
L 112.618657 52.025375 
L 112.987044 51.406839 
L 113.460685 50.199337 
L 113.776446 49.511324 
L 113.881699 49.424843 
L 114.144833 49.583799 
L 114.250087 49.617998 
L 114.460594 49.664838 
L 114.565847 49.668259 
L 114.881608 49.749932 
L 115.197369 49.644632 
L 115.355249 49.942989 
L 115.67101 50.52688 
L 116.039397 50.755584 
L 116.407784 51.838897 
L 117.249813 54.929742 
L 117.77608 57.415501 
L 118.302348 59.992368 
L 119.24963 65.59263 
L 119.460137 65.959478 
L 119.618017 66.083592 
L 120.407419 66.719908 
L 120.617926 66.662127 
L 120.775806 66.606297 
L 120.88106 66.57416 
L 121.249447 66.8971 
L 121.459954 66.976595 
L 121.828342 66.105204 
L 122.986131 62.332328 
L 123.775532 59.034135 
L 123.828159 59.052018 
L 124.091293 58.711347 
L 124.354427 57.173888 
L 124.722814 54.999843 
L 124.933321 54.753694 
L 125.301709 54.811919 
L 125.512216 54.867935 
L 125.564842 54.986021 
L 125.617469 54.95796 
L 125.722723 54.897913 
L 125.880603 54.741909 
L 126.459497 54.553204 
L 126.933138 53.97264 
L 127.091019 53.919045 
L 127.933047 53.67139 
L 128.143554 53.771404 
L 128.617195 53.619849 
L 129.143463 53.191265 
L 129.722357 53.938872 
L 129.880238 53.82654 
L 130.090745 53.503731 
L 130.195998 53.39784 
L 130.406505 53.947211 
L 130.722266 54.889298 
L 130.880146 54.69117 
L 131.195907 53.892962 
L 131.353787 53.701908 
L 131.932682 54.809985 
L 132.037935 54.684585 
L 132.564203 53.838152 
L 133.195724 54.073859 
L 133.353604 53.993117 
L 133.879872 53.626441 
L 134.090379 53.525454 
L 134.248259 53.490589 
L 134.616647 53.843648 
L 135.037661 54.398259 
L 135.195541 54.451428 
L 135.406048 54.286345 
L 135.984943 53.635061 
L 136.090196 53.642269 
L 136.669091 52.026769 
L 137.037478 51.064982 
L 137.142732 50.83282 
L 137.511119 49.357157 
L 137.879507 47.799362 
L 138.090014 47.45214 
L 138.616281 47.821764 
L 138.774162 48.018272 
L 138.826788 47.97201 
L 139.195176 47.827043 
L 139.668817 48.576572 
L 140.037204 48.583376 
L 140.247711 48.637442 
L 140.405592 48.564072 
L 140.984486 47.994222 
L 141.037113 48.055854 
L 142.194902 48.068938 
L 142.87905 49.902833 
L 143.300064 51.012945 
L 143.878958 52.311438 
L 143.984212 52.460583 
L 144.352599 53.426857 
L 144.720987 54.366204 
L 144.984121 54.713265 
L 145.299881 55.365295 
L 145.510388 55.435326 
L 145.826149 55.441584 
L 146.14191 55.56985 
L 146.45767 55.411302 
L 146.826058 55.436871 
L 146.983938 55.501817 
L 147.562832 55.113633 
L 147.983847 55.371094 
L 148.510114 54.841755 
L 149.510023 53.230458 
L 150.299424 51.199162 
L 150.457305 50.938039 
L 150.983572 50.195515 
L 151.50984 49.07087 
L 151.66772 49.118012 
L 151.930854 49.755624 
L 152.246615 50.383981 
L 152.351868 50.307344 
L 152.667629 50.681089 
L 152.878136 50.78841 
L 153.036016 50.772062 
L 153.29915 50.660514 
L 153.562284 50.981366 
L 154.088552 51.88583 
L 154.877953 52.904216 
L 155.246341 54.83082 
L 155.772608 58.300607 
L 156.140996 59.483791 
L 157.088278 61.659475 
L 157.877679 65.036541 
L 157.982933 65.066511 
L 158.19344 64.946402 
L 158.403947 65.103068 
L 158.772334 65.695985 
L 159.193349 65.87855 
L 159.614363 65.912581 
L 159.82487 65.710713 
L 159.98275 65.861424 
L 160.245884 66.640305 
L 160.877405 70.282277 
L 161.298419 72.958488 
L 161.877314 74.685106 
L 162.140448 76.636913 
L 163.192983 86.04069 
L 163.40349 86.537192 
L 163.666624 86.287923 
L 164.035011 86.169189 
L 164.192892 86.187967 
L 164.245519 86.212679 
L 164.666533 85.61997 
L 164.87704 86.054396 
L 165.140174 87.499606 
L 165.824322 94.684547 
L 166.245336 98.406158 
L 166.771603 100.913329 
L 167.245244 102.022953 
L 167.403125 102.470057 
L 167.718885 103.363065 
L 167.929392 103.734445 
L 168.139899 103.688216 
L 168.350407 102.681793 
L 168.61354 99.899695 
L 168.876674 97.482804 
L 169.297688 94.954708 
L 169.613449 93.492539 
L 169.876583 93.250265 
L 169.981836 93.443926 
L 170.192344 94.273714 
L 170.455477 96.490799 
L 171.034372 102.174365 
L 171.402759 103.81727 
L 171.613266 104.517992 
L 173.034189 111.018374 
L 173.192069 110.917534 
L 173.244696 110.866361 
L 173.297323 111.02207 
L 173.770964 121.123264 
L 173.876217 120.48157 
L 174.244605 118.628753 
L 174.349858 119.082181 
L 174.612992 122.129243 
L 174.928753 130.173888 
L 175.560274 149.572035 
L 176.875943 157.488655 
L 177.139077 157.998153 
L 177.665345 159.527222 
L 177.875852 162.116556 
L 178.244239 169.266619 
L 178.40212 170.183726 
L 178.56 169.613705 
L 178.875761 166.372159 
L 179.191521 163.140372 
L 179.402028 162.248577 
L 179.454655 161.909959 
L 179.770416 152.42881 
L 179.928296 150.259258 
L 180.401937 151.7166 
L 180.612444 150.747368 
L 180.770324 149.011568 
L 181.033458 142.718443 
L 181.717606 120.075607 
L 182.401754 114.690857 
L 183.401663 101.857013 
L 183.980557 93.090597 
L 184.559452 77.15901 
L 184.822586 75.493502 
L 185.296227 74.386583 
L 185.348853 74.499493 
L 186.033001 91.922694 
L 186.454016 99.36681 
L 187.243417 116.607583 
L 187.348671 116.56436 
L 187.559178 115.736533 
L 187.664431 115.527111 
L 187.717058 115.414032 
L 187.769685 115.440853 
L 187.980192 115.807209 
L 188.138072 116.149019 
L 188.295952 118.136955 
L 188.82222 127.763896 
L 188.980101 126.697114 
L 189.032727 126.729408 
L 189.137981 126.836573 
L 189.453741 128.685343 
L 189.664249 134.937215 
L 190.29577 153.750849 
L 190.927291 164.879891 
L 191.506185 183.353776 
L 191.664066 183.006348 
L 191.769319 182.911903 
L 191.874573 182.706133 
L 192.032453 181.393635 
L 192.08508 181.691534 
L 192.400841 184.235127 
L 192.558721 183.615273 
L 193.400749 174.603497 
L 193.506003 175.003506 
L 193.663883 175.362075 
L 193.769137 175.299874 
L 193.979644 175.477918 
L 194.348031 179.477108 
L 194.400658 179.197191 
L 194.611165 176.130343 
L 194.979552 171.425956 
L 195.34794 173.68664 
L 195.611074 175.062825 
L 195.6637 174.882018 
L 195.874207 172.430187 
L 196.768862 156.516892 
L 197.084623 150.820578 
L 198.242412 129.034277 
L 198.505546 126.658987 
L 198.610799 127.430921 
L 198.873933 131.839071 
L 199.452828 142.374627 
L 199.505455 142.324609 
L 199.663335 142.242126 
L 199.715962 142.188581 
L 199.873842 142.773624 
L 200.031722 143.911981 
L 200.294856 145.795303 
L 200.40011 146.263789 
L 200.55799 148.775508 
L 200.926377 159.410582 
L 201.663152 178.686811 
L 203.505089 232.524541 
L 204.13661 247.389722 
L 204.662878 256.064055 
L 204.926012 256.913472 
L 204.978639 256.987202 
L 205.031265 256.903211 
L 205.189146 256.103148 
L 205.399653 252.751187 
L 205.557533 250.098318 
L 205.662787 251.174062 
L 206.452188 263.665291 
L 206.662695 264.522693 
L 206.715322 264.515615 
L 206.820576 263.756805 
L 207.031083 260.550207 
L 207.609977 252.86137 
L 208.188872 243.467036 
L 208.715139 229.884785 
L 209.504541 204.700113 
L 210.188689 187.665616 
L 210.241316 187.795422 
L 210.293942 187.742575 
L 210.609703 184.489727 
L 210.767583 179.81265 
L 211.399105 159.174792 
L 212.135879 147.617066 
L 212.188506 147.514142 
L 212.241133 147.583119 
L 212.346386 147.715392 
L 212.45164 147.844264 
L 212.820027 147.125821 
L 213.293668 143.614655 
L 213.714683 139.611859 
L 213.872563 141.318134 
L 214.030443 137.899546 
L 214.08307 138.459002 
L 214.135697 138.953152 
L 214.188323 138.942828 
L 214.24095 138.889621 
L 214.346204 137.694005 
L 214.714591 131.416298 
L 214.767218 131.846725 
L 215.030352 133.21047 
L 215.819753 156.105939 
L 215.87238 156.239667 
L 216.293394 154.217595 
L 216.661782 147.292432 
L 216.714408 146.770357 
L 216.767035 147.154904 
L 216.924915 151.96813 
L 217.293303 161.821409 
L 217.398556 162.365713 
L 217.451183 162.275226 
L 217.66169 161.807959 
L 217.714317 161.926158 
L 217.766944 161.871388 
L 218.082704 160.199059 
L 218.135331 160.365512 
L 218.187958 160.269205 
L 218.293212 158.788512 
L 218.398465 156.267054 
L 218.451092 156.915047 
L 218.608972 158.045042 
L 218.661599 157.944827 
L 218.924733 160.611147 
L 218.97736 161.343316 
L 219.029986 160.658935 
L 219.082613 160.891555 
L 219.661508 154.926436 
L 219.714134 155.09265 
L 219.819388 156.274548 
L 219.872015 156.157856 
L 219.924641 155.501967 
L 219.977268 155.756304 
L 220.029895 156.054231 
L 220.187775 161.040726 
L 220.240402 160.659338 
L 220.293029 160.538787 
L 220.450909 162.511217 
L 220.556163 162.401032 
L 220.608789 162.422946 
L 220.714043 163.122831 
L 220.819296 163.517085 
L 220.977177 162.851359 
L 221.187684 161.896627 
L 221.450818 155.288235 
L 221.556071 154.497357 
L 221.819205 152.528982 
L 221.871832 152.371379 
L 222.345473 147.454867 
L 222.503353 147.187598 
L 222.661233 147.792675 
L 222.766487 147.526086 
L 222.871741 147.850901 
L 223.029621 144.078733 
L 223.398008 134.70034 
L 223.555889 133.005005 
L 223.608515 133.098893 
L 223.661142 132.983728 
L 223.924276 131.900048 
L 224.18741 132.637132 
L 224.450544 132.489489 
L 224.555797 132.931716 
L 224.713677 129.200111 
L 224.766304 129.211668 
L 224.818931 129.22383 
L 224.976811 127.581531 
L 225.292572 119.620286 
L 225.555706 119.665425 
L 225.660959 119.6228 
L 225.766213 120.696432 
L 225.871466 121.844894 
L 225.924093 121.834234 
L 226.029347 121.698505 
L 226.187227 118.243823 
L 226.555614 108.661198 
L 226.608241 108.523675 
L 226.818748 112.975056 
L 227.029255 111.833765 
L 227.187136 111.188405 
L 227.345016 110.397972 
L 227.45027 111.020611 
L 227.502896 111.63281 
L 227.713403 106.675106 
L 227.76603 106.992302 
L 227.92391 108.651741 
L 228.134418 103.912088 
L 228.187044 103.990528 
L 228.239671 104.09213 
L 228.502805 103.097553 
L 228.555432 103.347429 
L 228.608058 103.61408 
L 228.660685 103.481604 
L 229.081699 100.455757 
L 229.292206 99.577111 
L 229.660594 105.644584 
L 229.871101 109.549463 
L 229.976354 109.436525 
L 230.028981 109.504037 
L 230.081608 109.696259 
L 230.134235 109.64993 
L 230.186862 109.517322 
L 230.239488 109.664659 
L 230.397369 109.705849 
L 230.607876 114.101649 
L 230.660503 114.310326 
L 230.87101 117.470237 
L 231.081517 113.081347 
L 231.134143 113.230786 
L 231.344651 115.527546 
L 231.397277 115.485215 
L 231.607784 118.121229 
L 231.765665 118.015515 
L 231.818291 118.118895 
L 231.870918 118.028053 
L 232.028799 116.686769 
L 232.081425 116.768504 
L 232.291932 115.874719 
L 232.502439 115.438267 
L 232.607693 116.473758 
L 232.66032 116.444083 
L 232.8182 113.83546 
L 232.870827 113.056833 
L 232.923454 113.124327 
L 233.028707 116.044781 
L 233.133961 115.694482 
L 233.291841 115.867343 
L 233.554975 117.37194 
L 233.660228 116.792324 
L 233.818109 119.208974 
L 233.870735 118.171678 
L 234.133869 110.805963 
L 234.186496 111.452827 
L 234.502257 114.608151 
L 234.712764 115.320891 
L 234.818017 114.959014 
L 234.923271 116.299957 
L 235.028524 117.809177 
L 235.081151 117.72921 
L 235.239032 116.618484 
L 235.291658 116.715084 
L 235.396912 117.412551 
L 235.449539 117.959397 
L 235.502165 117.428659 
L 235.870553 113.792248 
L 236.028433 112.225728 
L 236.133687 112.423383 
L 236.344194 116.963237 
L 236.554701 118.397173 
L 236.659954 115.154068 
L 236.765208 115.187851 
L 236.817835 114.998304 
L 237.028342 110.59962 
L 237.080968 111.936187 
L 237.133595 112.125617 
L 237.238849 111.209838 
L 237.396729 108.658919 
L 237.449356 108.703107 
L 237.501983 108.505457 
L 237.554609 108.580839 
L 237.659863 106.306114 
L 237.922997 112.581697 
L 237.975624 112.723193 
L 238.186131 111.787719 
L 238.344011 110.726039 
L 238.449265 110.54981 
L 238.554518 111.484295 
L 238.975532 118.217794 
L 239.028159 117.885421 
L 239.186039 114.224791 
L 239.238666 114.60469 
L 239.449173 114.936135 
L 239.65968 114.406391 
L 239.817561 115.276041 
L 240.080694 122.368001 
L 240.554335 135.885396 
L 241.343737 159.862557 
L 241.922631 176.566616 
L 242.080512 179.657887 
L 242.396272 187.827167 
L 242.712033 196.565571 
L 242.975167 205.328686 
L 243.448808 220.189048 
L 243.817195 231.918692 
L 243.869822 231.23534 
L 243.922449 231.026524 
L 243.975075 231.594099 
L 244.027702 231.115553 
L 244.080329 231.033742 
L 244.606597 241.592524 
L 244.71185 243.200603 
L 244.764477 243.135431 
L 244.974984 241.585302 
L 245.238118 244.269571 
L 245.553878 250.593025 
L 245.974893 258.128477 
L 246.974801 243.126389 
L 247.448442 238.202123 
L 247.606323 237.795744 
L 247.658949 237.811428 
L 248.079963 238.282228 
L 248.237844 237.987447 
L 248.553604 236.780359 
L 248.816738 236.220635 
L 249.237752 235.565629 
L 249.343006 235.640842 
L 249.658767 236.619613 
L 249.9219 238.119174 
L 250.237661 242.290889 
L 250.290288 241.543232 
L 250.606048 235.901308 
L 250.974436 226.86721 
L 251.027063 227.417593 
L 251.184943 229.652479 
L 251.342823 226.932105 
L 251.39545 227.304936 
L 251.500704 227.643579 
L 251.658584 225.250296 
L 251.869091 221.700593 
L 251.974344 223.083346 
L 252.132225 219.864603 
L 252.184852 219.91361 
L 252.395359 221.914943 
L 252.447985 221.594442 
L 252.500612 221.136768 
L 252.553239 221.345613 
L 252.921626 226.252914 
L 252.974253 225.548288 
L 253.500521 213.836237 
L 254.026788 195.362151 
L 255.289831 151.232451 
L 255.605592 144.67049 
L 255.710845 144.670296 
L 256.28974 124.009515 
L 256.552873 120.820024 
L 256.6055 120.932845 
L 257.026514 128.128231 
L 257.079141 128.029419 
L 257.131768 127.435063 
L 257.342275 119.142065 
L 257.447529 119.242971 
L 257.500155 119.077365 
L 257.763289 113.733432 
L 258.026423 119.7625 
L 258.131677 119.31033 
L 258.39481 124.891131 
L 258.500064 124.646032 
L 258.552691 124.672894 
L 258.763198 127.504947 
L 258.815825 127.402131 
L 259.078958 125.922506 
L 259.499973 133.453936 
L 259.552599 133.681936 
L 259.605226 133.642664 
L 259.815733 133.307186 
L 259.973614 134.954289 
L 260.499881 140.119684 
L 260.552508 140.228749 
L 260.605135 140.165256 
L 260.710388 139.801857 
L 260.763015 139.826822 
L 260.920895 140.8209 
L 261.605043 149.630732 
L 261.65767 149.356673 
L 261.868177 145.779776 
L 262.762832 168.060237 
L 263.025966 172.08129 
L 263.078593 173.329255 
L 263.13122 173.149124 
L 263.183847 172.506229 
L 263.920621 195.801952 
L 263.973248 194.874882 
L 264.604769 184.556912 
L 264.710023 184.659632 
L 265.341544 187.552628 
L 265.552051 188.584697 
L 265.604678 188.517122 
L 265.657305 188.603717 
L 265.867812 191.424466 
L 266.499333 202.007143 
L 267.130854 219.904788 
L 267.288735 221.107916 
L 267.341361 221.099025 
L 267.446615 221.063335 
L 267.867629 222.540446 
L 268.130763 224.549105 
L 268.236016 224.249146 
L 268.288643 224.338262 
L 268.551777 225.631772 
L 268.920164 227.0462 
L 268.972791 226.949506 
L 269.81482 223.150315 
L 270.077953 221.666821 
L 270.13058 221.695868 
L 270.604221 223.328948 
L 270.656848 223.257625 
L 271.025235 219.163647 
L 271.446249 215.444506 
L 271.60413 216.718549 
L 272.288278 222.930454 
L 272.393531 222.97463 
L 272.498785 223.232954 
L 272.761919 222.442209 
L 272.867172 222.149525 
L 273.025053 223.169047 
L 273.182933 224.758692 
L 273.288186 226.53455 
L 273.340813 225.903493 
L 273.656574 223.219411 
L 273.814454 221.813046 
L 274.077588 224.758432 
L 274.182841 224.606787 
L 274.288095 224.567066 
L 274.393349 225.169063 
L 274.445975 225.054503 
L 274.761736 222.184891 
L 275.18275 212.708597 
L 275.288004 212.463472 
L 275.34063 212.535949 
L 275.551138 214.417121 
L 275.919525 218.357336 
L 276.498419 222.7123 
L 276.81418 223.35416 
L 276.866807 223.224131 
L 276.97206 224.141102 
L 277.656208 231.761451 
L 277.708835 231.568604 
L 277.866715 230.433976 
L 277.971969 230.658789 
L 278.129849 226.867445 
L 278.44561 221.347773 
L 278.550863 221.459033 
L 278.708744 221.207659 
L 278.813997 221.254575 
L 278.971878 221.641029 
L 279.024504 221.506882 
L 279.445519 220.424098 
L 279.813906 227.732367 
L 279.971786 230.253067 
L 280.024413 229.789141 
L 280.445427 226.260621 
L 280.708561 221.092643 
L 280.866441 220.746861 
L 280.919068 220.588077 
L 281.603216 229.834816 
L 281.70847 230.084934 
L 281.761096 230.02186 
L 281.86635 229.974084 
L 282.02423 229.502033 
L 282.655751 222.006359 
L 282.708378 221.775505 
L 282.971512 218.919446 
L 283.076766 219.53037 
L 283.339899 217.30584 
L 283.603033 213.880932 
L 283.971421 208.085793 
L 284.129301 207.428389 
L 284.339808 210.557176 
L 284.602942 213.883702 
L 284.971329 210.07705 
L 285.181836 207.047192 
L 285.392344 204.387286 
L 285.918611 193.399569 
L 286.708013 176.534294 
L 286.865893 173.573173 
L 287.339534 163.78894 
L 287.602668 161.593339 
L 287.707921 161.934421 
L 287.760548 161.873181 
L 287.971055 161.452082 
L 288.023682 161.511579 
L 288.128936 161.623102 
L 288.234189 162.955539 
L 288.54995 170.462917 
L 288.602577 169.995202 
L 288.760457 168.430973 
L 288.970964 174.80916 
L 289.286725 180.643548 
L 289.339351 180.625336 
L 289.549858 179.133233 
L 289.812992 181.434685 
L 290.18138 185.603868 
L 290.49714 188.972556 
L 290.655021 191.24533 
L 291.023408 183.320284 
L 291.076035 183.517595 
L 291.918063 195.163585 
L 292.602211 215.706269 
L 292.865345 218.379322 
L 293.233732 221.076896 
L 293.286359 221.139699 
L 293.391613 220.78602 
L 293.707373 226.648461 
L 293.812627 226.951246 
L 294.233641 225.174459 
L 294.549402 221.258572 
L 294.759909 217.509423 
L 294.812535 217.525244 
L 294.917789 217.106958 
L 295.496683 203.009336 
L 295.70719 202.011625 
L 296.338712 193.49953 
L 296.654472 187.914449 
L 296.812353 185.259144 
L 297.18074 192.897339 
L 297.233367 192.647321 
L 297.391247 190.894043 
L 297.759635 185.228843 
L 297.864888 185.059387 
L 297.970142 185.186614 
L 298.128022 184.757032 
L 298.180649 184.859997 
L 298.549036 186.092878 
L 299.338438 199.544956 
L 299.548945 204.464282 
L 299.601571 203.970363 
L 299.864705 202.344741 
L 300.075212 202.328457 
L 300.233093 202.813844 
L 300.338346 203.439983 
L 300.75936 196.270114 
L 300.864614 196.060756 
L 300.969868 196.658606 
L 301.075121 197.371804 
L 301.127748 197.195641 
L 301.390882 194.131096 
L 301.864523 186.177361 
L 302.706551 172.942511 
L 302.759178 172.958807 
L 303.127565 174.44856 
L 303.443326 175.746219 
L 303.811713 178.289143 
L 303.86434 178.241162 
L 304.390608 176.651024 
L 304.495861 176.749387 
L 304.706368 176.490064 
L 305.390516 172.103976 
L 305.601023 170.753087 
L 305.864157 169.587551 
L 306.337798 169.216756 
L 306.495678 168.825223 
L 307.495587 198.387303 
L 307.863974 208.122757 
L 308.390242 213.042177 
L 309.179644 230.714213 
L 309.284897 230.964477 
L 309.705911 228.579453 
L 309.969045 227.259763 
L 310.54794 224.796308 
L 311.758355 207.314551 
L 311.863609 207.594477 
L 311.968862 207.81388 
L 312.17937 208.227531 
L 312.547757 208.533332 
L 312.705637 208.774968 
L 312.916144 209.13732 
L 312.968771 209.082226 
L 313.863426 203.242854 
L 314.021307 205.327885 
L 314.547574 214.50611 
L 314.600201 214.494328 
L 314.758081 213.797219 
L 315.021215 210.871854 
L 315.389603 206.589047 
L 315.442229 206.511626 
L 315.75799 208.957325 
L 315.968497 210.602981 
L 316.073751 209.817797 
L 317.5473 235.946347 
L 318.231448 250.668693 
L 318.599836 252.380785 
L 318.705089 252.723669 
L 318.757716 252.700178 
L 318.810343 252.603371 
L 319.02085 250.153985 
L 319.126103 249.228042 
L 319.652371 240.339263 
L 319.704998 240.185313 
L 319.757624 240.222762 
L 319.862878 240.37124 
L 320.494399 242.73912 
L 321.231174 250.231144 
L 321.599561 252.030503 
L 321.652188 251.947145 
L 321.915322 250.755519 
L 322.125829 249.752088 
L 322.231083 250.905904 
L 322.494217 249.133917 
L 322.704724 248.317 
L 322.75735 248.347539 
L 322.809977 248.255327 
L 323.020484 246.938126 
L 323.915139 239.859838 
L 324.178273 238.252786 
L 324.38878 237.288285 
L 324.599287 237.417737 
L 324.704541 237.248543 
L 324.967675 235.786853 
L 325.072928 236.791053 
L 325.125555 236.423249 
L 325.230809 235.921272 
L 325.283435 236.021632 
L 325.546569 241.789808 
L 325.809703 246.021636 
L 325.86233 246.026792 
L 326.02021 243.677186 
L 326.335971 234.868866 
L 326.914865 221.567211 
L 326.967492 221.010978 
L 327.020119 221.09401 
L 327.283253 223.067185 
L 327.546386 224.187156 
L 327.756894 224.188504 
L 327.862147 224.029283 
L 328.230534 222.466486 
L 328.493668 219.284561 
L 329.28307 206.918306 
L 329.704084 204.179369 
L 329.914591 203.189378 
L 329.967218 203.224923 
L 330.125098 204.559378 
L 330.493486 207.458565 
L 330.703993 207.77378 
L 330.967127 207.975812 
L 331.388141 207.395497 
L 331.598648 205.614471 
L 332.072289 200.513925 
L 332.282796 201.280989 
L 332.756437 205.340607 
L 332.966944 205.829405 
L 333.177451 204.705983 
L 333.545838 201.501269 
L 333.598465 201.354315 
L 333.651092 201.393339 
L 333.861599 202.572322 
L 334.17736 207.002907 
L 334.545747 215.17846 
L 335.124641 227.008583 
L 335.387775 228.687928 
L 335.650909 229.57305 
L 335.756163 229.708055 
L 335.96667 230.490127 
L 336.019296 230.41283 
L 336.177177 229.006617 
L 337.440219 207.517527 
L 337.5981 206.888375 
L 337.703353 207.539647 
L 337.966487 211.050542 
L 338.545381 224.043971 
L 338.913769 229.767012 
L 339.282156 232.132448 
L 339.492663 232.098318 
L 339.755797 230.475011 
L 340.018931 227.254119 
L 340.387318 217.677992 
L 341.01884 198.429892 
L 341.071466 198.670224 
L 341.545107 202.632451 
L 341.808241 206.438613 
L 342.439762 216.176565 
L 342.913403 221.146682 
L 343.439671 229.0278 
L 343.913312 238.092902 
L 344.071192 238.771775 
L 344.123819 238.719196 
L 344.59746 237.186243 
L 345.018474 235.797569 
L 345.228981 235.896134 
L 345.492115 237.149657 
L 345.755249 239.345402 
L 346.018383 241.835125 
L 346.281517 243.493268 
L 346.597277 246.892682 
L 347.123545 259.15381 
L 347.228799 258.481913 
L 348.544468 245.750214 
L 348.807602 246.87389 
L 349.018109 246.812667 
L 349.123362 246.472445 
L 349.80751 242.721466 
L 350.544285 237.309705 
L 350.596912 237.301585 
L 350.702165 237.699429 
L 351.12318 241.124104 
L 351.807328 249.189192 
L 351.912581 249.293035 
L 351.965208 249.202592 
L 352.017835 249.324219 
L 352.333595 251.870676 
L 352.491476 253.604924 
L 352.544102 253.113437 
L 352.649356 252.21761 
L 352.91249 254.093734 
L 353.491384 258.158095 
L 354.122905 262.911921 
L 354.175532 263.125883 
L 354.228159 263.048323 
L 354.491293 263.058755 
L 354.649173 263.530639 
L 354.85968 262.887735 
L 354.912307 262.947559 
L 355.122814 263.267408 
L 355.228068 263.248299 
L 355.333321 262.606426 
L 355.649082 257.587348 
L 356.175349 247.430335 
L 356.227976 247.691545 
L 356.806871 250.981296 
L 356.964751 250.393273 
L 357.333138 247.498016 
L 358.385674 235.067817 
L 358.596181 232.774297 
L 358.648808 232.172525 
L 358.701434 232.561712 
L 358.754061 233.149617 
L 358.806688 233.047593 
L 359.859223 220.228704 
L 359.91185 219.960273 
L 359.964477 219.979457 
L 360.06973 220.117143 
L 360.543371 222.537465 
L 360.648625 222.362909 
L 361.122266 219.193213 
L 361.332773 218.510975 
L 361.3854 218.502418 
L 361.54328 219.436234 
L 362.280055 226.129903 
L 362.332682 226.027782 
L 362.806323 219.538074 
L 363.01683 218.773132 
L 363.279963 218.459671 
L 363.33259 218.319728 
L 363.385217 218.414798 
L 363.806231 220.329473 
L 364.490379 225.846731 
L 364.648259 226.348959 
L 364.80614 226.031486 
L 364.911393 226.316897 
L 365.174527 227.85931 
L 365.437661 229.899556 
L 365.806048 230.575581 
L 365.963929 230.771967 
L 366.016556 230.687489 
L 366.227063 228.820023 
L 366.59545 225.479655 
L 366.648077 225.363255 
L 366.858584 227.027771 
L 367.121718 229.249758 
L 367.279598 229.315976 
L 367.490105 229.028762 
L 367.647985 228.591526 
L 367.700612 228.759549 
L 367.911119 228.406778 
L 367.963746 228.051215 
L 368.016373 228.082904 
L 368.069 228.332459 
L 368.805774 240.584435 
L 368.911028 240.692976 
L 369.068908 239.846513 
L 369.279415 237.495005 
L 370.01619 226.933709 
L 370.068817 227.003329 
L 370.331951 227.728351 
L 370.489831 227.917047 
L 370.595085 227.962235 
L 370.805592 228.53507 
L 371.173979 232.427069 
L 371.331859 233.555794 
L 371.384486 233.34575 
L 371.437113 233.505902 
L 372.331768 242.565055 
L 372.437021 242.715408 
L 372.752782 241.862187 
L 372.858036 241.854592 
L 373.015916 241.658983 
L 373.068543 241.702334 
L 373.384303 242.066304 
L 373.59481 243.190546 
L 373.963198 245.405835 
L 374.015825 245.349687 
L 374.173705 246.267949 
L 374.384212 245.583744 
L 374.436839 245.782733 
L 375.120987 249.188713 
L 375.436747 250.832744 
L 375.489374 250.970678 
L 375.857762 255.179433 
L 376.068269 257.115603 
L 376.120895 257.0356 
L 376.173522 256.96189 
L 376.805043 253.02096 
L 376.962924 252.474652 
L 377.173431 250.762699 
L 377.226058 250.863544 
L 377.278684 250.836039 
L 377.436565 250.093159 
L 377.489191 250.138789 
L 377.541818 250.420164 
L 377.594445 250.311296 
L 378.278593 243.976127 
L 378.752234 231.384128 
L 379.015368 225.816413 
L 379.383755 228.065446 
L 380.067903 231.807157 
L 380.541544 237.201457 
L 380.752051 237.341385 
L 380.962558 237.111063 
L 381.015185 237.154093 
L 381.541453 235.60718 
L 381.646706 235.944563 
L 381.75196 236.204224 
L 381.804587 236.140898 
L 382.699242 244.881565 
L 382.751868 244.798776 
L 382.804495 244.906822 
L 383.436016 249.291228 
L 383.857031 252.722282 
L 384.067538 253.510121 
L 384.225418 253.541013 
L 384.383298 253.086538 
L 384.435925 253.201665 
L 384.593805 255.59831 
L 385.1727 268.536884 
L 385.225327 268.140452 
L 385.593714 266.721753 
L 386.014728 264.557012 
L 386.225235 263.476341 
L 386.435742 263.629132 
L 386.646249 262.242822 
L 387.225144 257.257424 
L 387.330397 257.445632 
L 387.646158 259.960648 
L 388.014545 264.236276 
L 388.119799 263.69234 
L 388.172426 263.701548 
L 388.382933 263.334631 
L 388.540813 263.623666 
L 388.646067 263.935381 
L 388.803947 263.775235 
L 388.909201 263.844309 
L 389.224961 265.046133 
L 389.382841 265.329991 
L 389.435468 265.318899 
L 389.645975 265.024038 
L 389.856482 264.891551 
L 389.961736 265.007173 
L 390.22487 266.443826 
L 390.961645 273.277475 
L 391.277405 276.374278 
L 391.803673 279.803086 
L 392.01418 280.133907 
L 392.066807 280.16284 
L 392.17206 279.638846 
L 392.435194 275.992011 
L 392.698328 273.971858 
L 392.856208 275.030268 
L 393.277222 277.957448 
L 393.382476 277.791469 
L 393.48773 277.193931 
L 394.329758 269.065494 
L 394.592892 269.853202 
L 394.645519 269.799478 
L 394.856026 269.410877 
L 395.013906 267.922014 
L 395.645427 261.273157 
L 396.276948 254.59573 
L 396.750589 249.14274 
L 396.803216 249.149623 
L 397.592618 242.552472 
L 398.171512 236.378477 
L 398.276766 235.968047 
L 398.329392 236.118084 
L 398.487273 237.084437 
L 398.487273 237.084437 
" style="fill:none;stroke:#000000;stroke-linecap:square;stroke-width:1.5;"/>
   </g>
   <g id="patch_3">
    <path d="M 57.6 307.584 
L 57.6 41.472 
" style="fill:none;stroke:#000000;stroke-linecap:square;stroke-linejoin:miter;stroke-width:0.8;"/>
   </g>
   <g id="patch_4">
    <path d="M 414.72 307.584 
L 414.72 41.472 
" style="fill:none;stroke:#000000;stroke-linecap:square;stroke-linejoin:miter;stroke-width:0.8;"/>
   </g>
   <g id="patch_5">
    <path d="M 57.6 307.584 
L 414.72 307.584 
" style="fill:none;stroke:#000000;stroke-linecap:square;stroke-linejoin:miter;stroke-width:0.8;"/>
   </g>
   <g id="patch_6">
    <path d="M 57.6 41.472 
L 414.72 41.472 
" style="fill:none;stroke:#000000;stroke-linecap:square;stroke-linejoin:miter;stroke-width:0.8;"/>
   </g>
  </g>
 </g>
 <defs>
  <clipPath id="pab42d0cecf">
   <rect height="266.112" width="357.12" x="57.6" y="41.472"/>
  </clipPath>
 </defs>
</svg>
