<?xml version="1.0" encoding="utf-8" standalone="no"?>
<!DOCTYPE svg PUBLIC "-//W3C//DTD SVG 1.1//EN"
  "http://www.w3.org/Graphics/SVG/1.1/DTD/svg11.dtd">
<!-- Created with matplotlib (https://matplotlib.org/) -->
<svg height="288pt" version="1.1" viewBox="0 0 288 288" width="288pt" xmlns="http://www.w3.org/2000/svg" xmlns:xlink="http://www.w3.org/1999/xlink">
 <defs>
  <style type="text/css">
*{stroke-linecap:butt;stroke-linejoin:round;}
  </style>
 </defs>
 <g id="figure_1">
  <g id="patch_1">
   <path d="M 0 288 
L 288 288 
L 288 0 
L 0 0 
z
" style="fill:#ffffff;"/>
  </g>
  <g id="axes_1">
   <g id="patch_2">
    <path d="M 36 256.32 
L 259.2 256.32 
L 259.2 34.56 
L 36 34.56 
z
" style="fill:#ffffff;"/>
   </g>
   <g id="patch_3">
    <path clip-path="url(#pda3e5014f3)" d="M 17.542238 256.32 
L 21.200027 256.32 
L 21.200027 256.280599 
L 17.542238 256.280599 
z
" style="fill:#0000ff;opacity:0.5;stroke:#ffffff;stroke-linejoin:miter;stroke-width:0.2;"/>
   </g>
   <g id="patch_4">
    <path clip-path="url(#pda3e5014f3)" d="M 21.200027 256.32 
L 24.857816 256.32 
L 24.857816 256.32 
L 21.200027 256.32 
z
" style="fill:#0000ff;opacity:0.5;stroke:#ffffff;stroke-linejoin:miter;stroke-width:0.2;"/>
   </g>
   <g id="patch_5">
    <path clip-path="url(#pda3e5014f3)" d="M 24.857816 256.32 
L 28.515605 256.32 
L 28.515605 256.293733 
L 24.857816 256.293733 
z
" style="fill:#0000ff;opacity:0.5;stroke:#ffffff;stroke-linejoin:miter;stroke-width:0.2;"/>
   </g>
   <g id="patch_6">
    <path clip-path="url(#pda3e5014f3)" d="M 28.515605 256.32 
L 32.173395 256.32 
L 32.173395 256.32 
L 28.515605 256.32 
z
" style="fill:#0000ff;opacity:0.5;stroke:#ffffff;stroke-linejoin:miter;stroke-width:0.2;"/>
   </g>
   <g id="patch_7">
    <path clip-path="url(#pda3e5014f3)" d="M 32.173395 256.32 
L 35.831184 256.32 
L 35.831184 256.306866 
L 32.173395 256.306866 
z
" style="fill:#0000ff;opacity:0.5;stroke:#ffffff;stroke-linejoin:miter;stroke-width:0.2;"/>
   </g>
   <g id="patch_8">
    <path clip-path="url(#pda3e5014f3)" d="M 35.831184 256.32 
L 39.488973 256.32 
L 39.488973 256.306866 
L 35.831184 256.306866 
z
" style="fill:#0000ff;opacity:0.5;stroke:#ffffff;stroke-linejoin:miter;stroke-width:0.2;"/>
   </g>
   <g id="patch_9">
    <path clip-path="url(#pda3e5014f3)" d="M 39.488973 256.32 
L 43.146763 256.32 
L 43.146763 256.32 
L 39.488973 256.32 
z
" style="fill:#0000ff;opacity:0.5;stroke:#ffffff;stroke-linejoin:miter;stroke-width:0.2;"/>
   </g>
   <g id="patch_10">
    <path clip-path="url(#pda3e5014f3)" d="M 43.146763 256.32 
L 46.804552 256.32 
L 46.804552 256.32 
L 43.146763 256.32 
z
" style="fill:#0000ff;opacity:0.5;stroke:#ffffff;stroke-linejoin:miter;stroke-width:0.2;"/>
   </g>
   <g id="patch_11">
    <path clip-path="url(#pda3e5014f3)" d="M 46.804552 256.32 
L 50.462341 256.32 
L 50.462341 256.293733 
L 46.804552 256.293733 
z
" style="fill:#0000ff;opacity:0.5;stroke:#ffffff;stroke-linejoin:miter;stroke-width:0.2;"/>
   </g>
   <g id="patch_12">
    <path clip-path="url(#pda3e5014f3)" d="M 50.462341 256.32 
L 54.120131 256.32 
L 54.120131 256.293733 
L 50.462341 256.293733 
z
" style="fill:#0000ff;opacity:0.5;stroke:#ffffff;stroke-linejoin:miter;stroke-width:0.2;"/>
   </g>
   <g id="patch_13">
    <path clip-path="url(#pda3e5014f3)" d="M 54.120131 256.32 
L 57.77792 256.32 
L 57.77792 256.241199 
L 54.120131 256.241199 
z
" style="fill:#0000ff;opacity:0.5;stroke:#ffffff;stroke-linejoin:miter;stroke-width:0.2;"/>
   </g>
   <g id="patch_14">
    <path clip-path="url(#pda3e5014f3)" d="M 57.77792 256.32 
L 61.435709 256.32 
L 61.435709 256.214932 
L 57.77792 256.214932 
z
" style="fill:#0000ff;opacity:0.5;stroke:#ffffff;stroke-linejoin:miter;stroke-width:0.2;"/>
   </g>
   <g id="patch_15">
    <path clip-path="url(#pda3e5014f3)" d="M 61.435709 256.32 
L 65.093499 256.32 
L 65.093499 256.09673 
L 61.435709 256.09673 
z
" style="fill:#0000ff;opacity:0.5;stroke:#ffffff;stroke-linejoin:miter;stroke-width:0.2;"/>
   </g>
   <g id="patch_16">
    <path clip-path="url(#pda3e5014f3)" d="M 65.093499 256.32 
L 68.751288 256.32 
L 68.751288 256.09673 
L 65.093499 256.09673 
z
" style="fill:#0000ff;opacity:0.5;stroke:#ffffff;stroke-linejoin:miter;stroke-width:0.2;"/>
   </g>
   <g id="patch_17">
    <path clip-path="url(#pda3e5014f3)" d="M 68.751288 256.32 
L 72.409077 256.32 
L 72.409077 256.017929 
L 68.751288 256.017929 
z
" style="fill:#0000ff;opacity:0.5;stroke:#ffffff;stroke-linejoin:miter;stroke-width:0.2;"/>
   </g>
   <g id="patch_18">
    <path clip-path="url(#pda3e5014f3)" d="M 72.409077 256.32 
L 76.066867 256.32 
L 76.066867 256.044196 
L 72.409077 256.044196 
z
" style="fill:#0000ff;opacity:0.5;stroke:#ffffff;stroke-linejoin:miter;stroke-width:0.2;"/>
   </g>
   <g id="patch_19">
    <path clip-path="url(#pda3e5014f3)" d="M 76.066867 256.32 
L 79.724656 256.32 
L 79.724656 255.860327 
L 76.066867 255.860327 
z
" style="fill:#0000ff;opacity:0.5;stroke:#ffffff;stroke-linejoin:miter;stroke-width:0.2;"/>
   </g>
   <g id="patch_20">
    <path clip-path="url(#pda3e5014f3)" d="M 79.724656 256.32 
L 83.382445 256.32 
L 83.382445 255.965395 
L 79.724656 255.965395 
z
" style="fill:#0000ff;opacity:0.5;stroke:#ffffff;stroke-linejoin:miter;stroke-width:0.2;"/>
   </g>
   <g id="patch_21">
    <path clip-path="url(#pda3e5014f3)" d="M 83.382445 256.32 
L 87.040235 256.32 
L 87.040235 256.044196 
L 83.382445 256.044196 
z
" style="fill:#0000ff;opacity:0.5;stroke:#ffffff;stroke-linejoin:miter;stroke-width:0.2;"/>
   </g>
   <g id="patch_22">
    <path clip-path="url(#pda3e5014f3)" d="M 87.040235 256.32 
L 90.698024 256.32 
L 90.698024 255.781526 
L 87.040235 255.781526 
z
" style="fill:#0000ff;opacity:0.5;stroke:#ffffff;stroke-linejoin:miter;stroke-width:0.2;"/>
   </g>
   <g id="patch_23">
    <path clip-path="url(#pda3e5014f3)" d="M 90.698024 256.32 
L 94.355813 256.32 
L 94.355813 255.899728 
L 90.698024 255.899728 
z
" style="fill:#0000ff;opacity:0.5;stroke:#ffffff;stroke-linejoin:miter;stroke-width:0.2;"/>
   </g>
   <g id="patch_24">
    <path clip-path="url(#pda3e5014f3)" d="M 94.355813 256.32 
L 98.013603 256.32 
L 98.013603 255.650191 
L 94.355813 255.650191 
z
" style="fill:#0000ff;opacity:0.5;stroke:#ffffff;stroke-linejoin:miter;stroke-width:0.2;"/>
   </g>
   <g id="patch_25">
    <path clip-path="url(#pda3e5014f3)" d="M 98.013603 256.32 
L 101.671392 256.32 
L 101.671392 255.164251 
L 98.013603 255.164251 
z
" style="fill:#0000ff;opacity:0.5;stroke:#ffffff;stroke-linejoin:miter;stroke-width:0.2;"/>
   </g>
   <g id="patch_26">
    <path clip-path="url(#pda3e5014f3)" d="M 101.671392 256.32 
L 105.329181 256.32 
L 105.329181 254.336839 
L 101.671392 254.336839 
z
" style="fill:#0000ff;opacity:0.5;stroke:#ffffff;stroke-linejoin:miter;stroke-width:0.2;"/>
   </g>
   <g id="patch_27">
    <path clip-path="url(#pda3e5014f3)" d="M 105.329181 256.32 
L 108.986971 256.32 
L 108.986971 252.655749 
L 105.329181 252.655749 
z
" style="fill:#0000ff;opacity:0.5;stroke:#ffffff;stroke-linejoin:miter;stroke-width:0.2;"/>
   </g>
   <g id="patch_28">
    <path clip-path="url(#pda3e5014f3)" d="M 108.986971 256.32 
L 112.64476 256.32 
L 112.64476 247.770082 
L 108.986971 247.770082 
z
" style="fill:#0000ff;opacity:0.5;stroke:#ffffff;stroke-linejoin:miter;stroke-width:0.2;"/>
   </g>
   <g id="patch_29">
    <path clip-path="url(#pda3e5014f3)" d="M 112.64476 256.32 
L 116.302549 256.32 
L 116.302549 239.548502 
L 112.64476 239.548502 
z
" style="fill:#0000ff;opacity:0.5;stroke:#ffffff;stroke-linejoin:miter;stroke-width:0.2;"/>
   </g>
   <g id="patch_30">
    <path clip-path="url(#pda3e5014f3)" d="M 116.302549 256.32 
L 119.960339 256.32 
L 119.960339 214.883761 
L 116.302549 214.883761 
z
" style="fill:#0000ff;opacity:0.5;stroke:#ffffff;stroke-linejoin:miter;stroke-width:0.2;"/>
   </g>
   <g id="patch_31">
    <path clip-path="url(#pda3e5014f3)" d="M 119.960339 256.32 
L 123.618128 256.32 
L 123.618128 172.987849 
L 119.960339 172.987849 
z
" style="fill:#0000ff;opacity:0.5;stroke:#ffffff;stroke-linejoin:miter;stroke-width:0.2;"/>
   </g>
   <g id="patch_32">
    <path clip-path="url(#pda3e5014f3)" d="M 123.618128 256.32 
L 127.275917 256.32 
L 127.275917 114.990247 
L 123.618128 114.990247 
z
" style="fill:#0000ff;opacity:0.5;stroke:#ffffff;stroke-linejoin:miter;stroke-width:0.2;"/>
   </g>
   <g id="patch_33">
    <path clip-path="url(#pda3e5014f3)" d="M 127.275917 256.32 
L 130.933707 256.32 
L 130.933707 66.632646 
L 127.275917 66.632646 
z
" style="fill:#0000ff;opacity:0.5;stroke:#ffffff;stroke-linejoin:miter;stroke-width:0.2;"/>
   </g>
   <g id="patch_34">
    <path clip-path="url(#pda3e5014f3)" d="M 130.933707 256.32 
L 134.591496 256.32 
L 134.591496 48.074989 
L 130.933707 48.074989 
z
" style="fill:#0000ff;opacity:0.5;stroke:#ffffff;stroke-linejoin:miter;stroke-width:0.2;"/>
   </g>
   <g id="patch_35">
    <path clip-path="url(#pda3e5014f3)" d="M 134.591496 256.32 
L 138.249285 256.32 
L 138.249285 74.276351 
L 134.591496 74.276351 
z
" style="fill:#0000ff;opacity:0.5;stroke:#ffffff;stroke-linejoin:miter;stroke-width:0.2;"/>
   </g>
   <g id="patch_36">
    <path clip-path="url(#pda3e5014f3)" d="M 138.249285 256.32 
L 141.907075 256.32 
L 141.907075 112.114008 
L 138.249285 112.114008 
z
" style="fill:#0000ff;opacity:0.5;stroke:#ffffff;stroke-linejoin:miter;stroke-width:0.2;"/>
   </g>
   <g id="patch_37">
    <path clip-path="url(#pda3e5014f3)" d="M 141.907075 256.32 
L 145.564864 256.32 
L 145.564864 136.161473 
L 141.907075 136.161473 
z
" style="fill:#0000ff;opacity:0.5;stroke:#ffffff;stroke-linejoin:miter;stroke-width:0.2;"/>
   </g>
   <g id="patch_38">
    <path clip-path="url(#pda3e5014f3)" d="M 145.564864 256.32 
L 149.222653 256.32 
L 149.222653 148.375642 
L 145.564864 148.375642 
z
" style="fill:#0000ff;opacity:0.5;stroke:#ffffff;stroke-linejoin:miter;stroke-width:0.2;"/>
   </g>
   <g id="patch_39">
    <path clip-path="url(#pda3e5014f3)" d="M 149.222653 256.32 
L 152.880443 256.32 
L 152.880443 156.899293 
L 149.222653 156.899293 
z
" style="fill:#0000ff;opacity:0.5;stroke:#ffffff;stroke-linejoin:miter;stroke-width:0.2;"/>
   </g>
   <g id="patch_40">
    <path clip-path="url(#pda3e5014f3)" d="M 152.880443 256.32 
L 156.538232 256.32 
L 156.538232 154.797931 
L 152.880443 154.797931 
z
" style="fill:#0000ff;opacity:0.5;stroke:#ffffff;stroke-linejoin:miter;stroke-width:0.2;"/>
   </g>
   <g id="patch_41">
    <path clip-path="url(#pda3e5014f3)" d="M 156.538232 256.32 
L 160.196021 256.32 
L 160.196021 148.96665 
L 156.538232 148.96665 
z
" style="fill:#0000ff;opacity:0.5;stroke:#ffffff;stroke-linejoin:miter;stroke-width:0.2;"/>
   </g>
   <g id="patch_42">
    <path clip-path="url(#pda3e5014f3)" d="M 160.196021 256.32 
L 163.853811 256.32 
L 163.853811 154.955533 
L 160.196021 154.955533 
z
" style="fill:#0000ff;opacity:0.5;stroke:#ffffff;stroke-linejoin:miter;stroke-width:0.2;"/>
   </g>
   <g id="patch_43">
    <path clip-path="url(#pda3e5014f3)" d="M 163.853811 256.32 
L 167.5116 256.32 
L 167.5116 193.988339 
L 163.853811 193.988339 
z
" style="fill:#0000ff;opacity:0.5;stroke:#ffffff;stroke-linejoin:miter;stroke-width:0.2;"/>
   </g>
   <g id="patch_44">
    <path clip-path="url(#pda3e5014f3)" d="M 167.5116 256.32 
L 171.169389 256.32 
L 171.169389 231.300654 
L 167.5116 231.300654 
z
" style="fill:#0000ff;opacity:0.5;stroke:#ffffff;stroke-linejoin:miter;stroke-width:0.2;"/>
   </g>
   <g id="patch_45">
    <path clip-path="url(#pda3e5014f3)" d="M 171.169389 256.32 
L 174.827179 256.32 
L 174.827179 248.650027 
L 171.169389 248.650027 
z
" style="fill:#0000ff;opacity:0.5;stroke:#ffffff;stroke-linejoin:miter;stroke-width:0.2;"/>
   </g>
   <g id="patch_46">
    <path clip-path="url(#pda3e5014f3)" d="M 174.827179 256.32 
L 178.484968 256.32 
L 178.484968 253.18109 
L 174.827179 253.18109 
z
" style="fill:#0000ff;opacity:0.5;stroke:#ffffff;stroke-linejoin:miter;stroke-width:0.2;"/>
   </g>
   <g id="patch_47">
    <path clip-path="url(#pda3e5014f3)" d="M 178.484968 256.32 
L 182.142757 256.32 
L 182.142757 255.111717 
L 178.484968 255.111717 
z
" style="fill:#0000ff;opacity:0.5;stroke:#ffffff;stroke-linejoin:miter;stroke-width:0.2;"/>
   </g>
   <g id="patch_48">
    <path clip-path="url(#pda3e5014f3)" d="M 182.142757 256.32 
L 185.800547 256.32 
L 185.800547 255.794659 
L 182.142757 255.794659 
z
" style="fill:#0000ff;opacity:0.5;stroke:#ffffff;stroke-linejoin:miter;stroke-width:0.2;"/>
   </g>
   <g id="patch_49">
    <path clip-path="url(#pda3e5014f3)" d="M 185.800547 256.32 
L 189.458336 256.32 
L 189.458336 255.820926 
L 185.800547 255.820926 
z
" style="fill:#0000ff;opacity:0.5;stroke:#ffffff;stroke-linejoin:miter;stroke-width:0.2;"/>
   </g>
   <g id="patch_50">
    <path clip-path="url(#pda3e5014f3)" d="M 189.458336 256.32 
L 193.116125 256.32 
L 193.116125 256.09673 
L 189.458336 256.09673 
z
" style="fill:#0000ff;opacity:0.5;stroke:#ffffff;stroke-linejoin:miter;stroke-width:0.2;"/>
   </g>
   <g id="patch_51">
    <path clip-path="url(#pda3e5014f3)" d="M 193.116125 256.32 
L 196.773915 256.32 
L 196.773915 256.175531 
L 193.116125 256.175531 
z
" style="fill:#0000ff;opacity:0.5;stroke:#ffffff;stroke-linejoin:miter;stroke-width:0.2;"/>
   </g>
   <g id="patch_52">
    <path clip-path="url(#pda3e5014f3)" d="M 196.773915 256.32 
L 200.431704 256.32 
L 200.431704 256.241199 
L 196.773915 256.241199 
z
" style="fill:#0000ff;opacity:0.5;stroke:#ffffff;stroke-linejoin:miter;stroke-width:0.2;"/>
   </g>
   <g id="patch_53">
    <path clip-path="url(#pda3e5014f3)" d="M 35.700975 256.32 
L 39.185798 256.32 
L 39.185798 256.292429 
L 35.700975 256.292429 
z
" style="fill:#ff0000;opacity:0.5;stroke:#ffffff;stroke-linejoin:miter;stroke-width:0.2;"/>
   </g>
   <g id="patch_54">
    <path clip-path="url(#pda3e5014f3)" d="M 39.185798 256.32 
L 42.67062 256.32 
L 42.67062 256.306215 
L 39.185798 256.306215 
z
" style="fill:#ff0000;opacity:0.5;stroke:#ffffff;stroke-linejoin:miter;stroke-width:0.2;"/>
   </g>
   <g id="patch_55">
    <path clip-path="url(#pda3e5014f3)" d="M 42.67062 256.32 
L 46.155442 256.32 
L 46.155442 256.306215 
L 42.67062 256.306215 
z
" style="fill:#ff0000;opacity:0.5;stroke:#ffffff;stroke-linejoin:miter;stroke-width:0.2;"/>
   </g>
   <g id="patch_56">
    <path clip-path="url(#pda3e5014f3)" d="M 46.155442 256.32 
L 49.640265 256.32 
L 49.640265 256.292429 
L 46.155442 256.292429 
z
" style="fill:#ff0000;opacity:0.5;stroke:#ffffff;stroke-linejoin:miter;stroke-width:0.2;"/>
   </g>
   <g id="patch_57">
    <path clip-path="url(#pda3e5014f3)" d="M 49.640265 256.32 
L 53.125087 256.32 
L 53.125087 256.32 
L 49.640265 256.32 
z
" style="fill:#ff0000;opacity:0.5;stroke:#ffffff;stroke-linejoin:miter;stroke-width:0.2;"/>
   </g>
   <g id="patch_58">
    <path clip-path="url(#pda3e5014f3)" d="M 53.125087 256.32 
L 56.60991 256.32 
L 56.60991 256.306215 
L 53.125087 256.306215 
z
" style="fill:#ff0000;opacity:0.5;stroke:#ffffff;stroke-linejoin:miter;stroke-width:0.2;"/>
   </g>
   <g id="patch_59">
    <path clip-path="url(#pda3e5014f3)" d="M 56.60991 256.32 
L 60.094732 256.32 
L 60.094732 256.306215 
L 56.60991 256.306215 
z
" style="fill:#ff0000;opacity:0.5;stroke:#ffffff;stroke-linejoin:miter;stroke-width:0.2;"/>
   </g>
   <g id="patch_60">
    <path clip-path="url(#pda3e5014f3)" d="M 60.094732 256.32 
L 63.579554 256.32 
L 63.579554 256.32 
L 60.094732 256.32 
z
" style="fill:#ff0000;opacity:0.5;stroke:#ffffff;stroke-linejoin:miter;stroke-width:0.2;"/>
   </g>
   <g id="patch_61">
    <path clip-path="url(#pda3e5014f3)" d="M 63.579554 256.32 
L 67.064377 256.32 
L 67.064377 256.306215 
L 63.579554 256.306215 
z
" style="fill:#ff0000;opacity:0.5;stroke:#ffffff;stroke-linejoin:miter;stroke-width:0.2;"/>
   </g>
   <g id="patch_62">
    <path clip-path="url(#pda3e5014f3)" d="M 67.064377 256.32 
L 70.549199 256.32 
L 70.549199 256.32 
L 67.064377 256.32 
z
" style="fill:#ff0000;opacity:0.5;stroke:#ffffff;stroke-linejoin:miter;stroke-width:0.2;"/>
   </g>
   <g id="patch_63">
    <path clip-path="url(#pda3e5014f3)" d="M 70.549199 256.32 
L 74.034022 256.32 
L 74.034022 256.306215 
L 70.549199 256.306215 
z
" style="fill:#ff0000;opacity:0.5;stroke:#ffffff;stroke-linejoin:miter;stroke-width:0.2;"/>
   </g>
   <g id="patch_64">
    <path clip-path="url(#pda3e5014f3)" d="M 74.034022 256.32 
L 77.518844 256.32 
L 77.518844 256.32 
L 74.034022 256.32 
z
" style="fill:#ff0000;opacity:0.5;stroke:#ffffff;stroke-linejoin:miter;stroke-width:0.2;"/>
   </g>
   <g id="patch_65">
    <path clip-path="url(#pda3e5014f3)" d="M 77.518844 256.32 
L 81.003666 256.32 
L 81.003666 256.32 
L 77.518844 256.32 
z
" style="fill:#ff0000;opacity:0.5;stroke:#ffffff;stroke-linejoin:miter;stroke-width:0.2;"/>
   </g>
   <g id="patch_66">
    <path clip-path="url(#pda3e5014f3)" d="M 81.003666 256.32 
L 84.488489 256.32 
L 84.488489 256.32 
L 81.003666 256.32 
z
" style="fill:#ff0000;opacity:0.5;stroke:#ffffff;stroke-linejoin:miter;stroke-width:0.2;"/>
   </g>
   <g id="patch_67">
    <path clip-path="url(#pda3e5014f3)" d="M 84.488489 256.32 
L 87.973311 256.32 
L 87.973311 256.306215 
L 84.488489 256.306215 
z
" style="fill:#ff0000;opacity:0.5;stroke:#ffffff;stroke-linejoin:miter;stroke-width:0.2;"/>
   </g>
   <g id="patch_68">
    <path clip-path="url(#pda3e5014f3)" d="M 87.973311 256.32 
L 91.458134 256.32 
L 91.458134 256.32 
L 87.973311 256.32 
z
" style="fill:#ff0000;opacity:0.5;stroke:#ffffff;stroke-linejoin:miter;stroke-width:0.2;"/>
   </g>
   <g id="patch_69">
    <path clip-path="url(#pda3e5014f3)" d="M 91.458134 256.32 
L 94.942956 256.32 
L 94.942956 256.306215 
L 91.458134 256.306215 
z
" style="fill:#ff0000;opacity:0.5;stroke:#ffffff;stroke-linejoin:miter;stroke-width:0.2;"/>
   </g>
   <g id="patch_70">
    <path clip-path="url(#pda3e5014f3)" d="M 94.942956 256.32 
L 98.427778 256.32 
L 98.427778 256.251073 
L 94.942956 256.251073 
z
" style="fill:#ff0000;opacity:0.5;stroke:#ffffff;stroke-linejoin:miter;stroke-width:0.2;"/>
   </g>
   <g id="patch_71">
    <path clip-path="url(#pda3e5014f3)" d="M 98.427778 256.32 
L 101.912601 256.32 
L 101.912601 256.251073 
L 98.427778 256.251073 
z
" style="fill:#ff0000;opacity:0.5;stroke:#ffffff;stroke-linejoin:miter;stroke-width:0.2;"/>
   </g>
   <g id="patch_72">
    <path clip-path="url(#pda3e5014f3)" d="M 101.912601 256.32 
L 105.397423 256.32 
L 105.397423 256.14079 
L 101.912601 256.14079 
z
" style="fill:#ff0000;opacity:0.5;stroke:#ffffff;stroke-linejoin:miter;stroke-width:0.2;"/>
   </g>
   <g id="patch_73">
    <path clip-path="url(#pda3e5014f3)" d="M 105.397423 256.32 
L 108.882246 256.32 
L 108.882246 255.713443 
L 105.397423 255.713443 
z
" style="fill:#ff0000;opacity:0.5;stroke:#ffffff;stroke-linejoin:miter;stroke-width:0.2;"/>
   </g>
   <g id="patch_74">
    <path clip-path="url(#pda3e5014f3)" d="M 108.882246 256.32 
L 112.367068 256.32 
L 112.367068 255.120671 
L 108.882246 255.120671 
z
" style="fill:#ff0000;opacity:0.5;stroke:#ffffff;stroke-linejoin:miter;stroke-width:0.2;"/>
   </g>
   <g id="patch_75">
    <path clip-path="url(#pda3e5014f3)" d="M 112.367068 256.32 
L 115.85189 256.32 
L 115.85189 253.907557 
L 112.367068 253.907557 
z
" style="fill:#ff0000;opacity:0.5;stroke:#ffffff;stroke-linejoin:miter;stroke-width:0.2;"/>
   </g>
   <g id="patch_76">
    <path clip-path="url(#pda3e5014f3)" d="M 115.85189 256.32 
L 119.336713 256.32 
L 119.336713 250.116575 
L 115.85189 250.116575 
z
" style="fill:#ff0000;opacity:0.5;stroke:#ffffff;stroke-linejoin:miter;stroke-width:0.2;"/>
   </g>
   <g id="patch_77">
    <path clip-path="url(#pda3e5014f3)" d="M 119.336713 256.32 
L 122.821535 256.32 
L 122.821535 246.18774 
L 119.336713 246.18774 
z
" style="fill:#ff0000;opacity:0.5;stroke:#ffffff;stroke-linejoin:miter;stroke-width:0.2;"/>
   </g>
   <g id="patch_78">
    <path clip-path="url(#pda3e5014f3)" d="M 122.821535 256.32 
L 126.306358 256.32 
L 126.306358 233.973885 
L 122.821535 233.973885 
z
" style="fill:#ff0000;opacity:0.5;stroke:#ffffff;stroke-linejoin:miter;stroke-width:0.2;"/>
   </g>
   <g id="patch_79">
    <path clip-path="url(#pda3e5014f3)" d="M 126.306358 256.32 
L 129.79118 256.32 
L 129.79118 208.843122 
L 126.306358 208.843122 
z
" style="fill:#ff0000;opacity:0.5;stroke:#ffffff;stroke-linejoin:miter;stroke-width:0.2;"/>
   </g>
   <g id="patch_80">
    <path clip-path="url(#pda3e5014f3)" d="M 129.79118 256.32 
L 133.276002 256.32 
L 133.276002 169.926971 
L 129.79118 169.926971 
z
" style="fill:#ff0000;opacity:0.5;stroke:#ffffff;stroke-linejoin:miter;stroke-width:0.2;"/>
   </g>
   <g id="patch_81">
    <path clip-path="url(#pda3e5014f3)" d="M 133.276002 256.32 
L 136.760825 256.32 
L 136.760825 117.294358 
L 133.276002 117.294358 
z
" style="fill:#ff0000;opacity:0.5;stroke:#ffffff;stroke-linejoin:miter;stroke-width:0.2;"/>
   </g>
   <g id="patch_82">
    <path clip-path="url(#pda3e5014f3)" d="M 136.760825 256.32 
L 140.245647 256.32 
L 140.245647 72.83648 
L 136.760825 72.83648 
z
" style="fill:#ff0000;opacity:0.5;stroke:#ffffff;stroke-linejoin:miter;stroke-width:0.2;"/>
   </g>
   <g id="patch_83">
    <path clip-path="url(#pda3e5014f3)" d="M 140.245647 256.32 
L 143.73047 256.32 
L 143.73047 56.569722 
L 140.245647 56.569722 
z
" style="fill:#ff0000;opacity:0.5;stroke:#ffffff;stroke-linejoin:miter;stroke-width:0.2;"/>
   </g>
   <g id="patch_84">
    <path clip-path="url(#pda3e5014f3)" d="M 143.73047 256.32 
L 147.215292 256.32 
L 147.215292 70.630818 
L 143.73047 70.630818 
z
" style="fill:#ff0000;opacity:0.5;stroke:#ffffff;stroke-linejoin:miter;stroke-width:0.2;"/>
   </g>
   <g id="patch_85">
    <path clip-path="url(#pda3e5014f3)" d="M 147.215292 256.32 
L 150.700114 256.32 
L 150.700114 69.017928 
L 147.215292 69.017928 
z
" style="fill:#ff0000;opacity:0.5;stroke:#ffffff;stroke-linejoin:miter;stroke-width:0.2;"/>
   </g>
   <g id="patch_86">
    <path clip-path="url(#pda3e5014f3)" d="M 150.700114 256.32 
L 154.184937 256.32 
L 154.184937 49.594316 
L 150.700114 49.594316 
z
" style="fill:#ff0000;opacity:0.5;stroke:#ffffff;stroke-linejoin:miter;stroke-width:0.2;"/>
   </g>
   <g id="patch_87">
    <path clip-path="url(#pda3e5014f3)" d="M 154.184937 256.32 
L 157.669759 256.32 
L 157.669759 55.329037 
L 154.184937 55.329037 
z
" style="fill:#ff0000;opacity:0.5;stroke:#ffffff;stroke-linejoin:miter;stroke-width:0.2;"/>
   </g>
   <g id="patch_88">
    <path clip-path="url(#pda3e5014f3)" d="M 157.669759 256.32 
L 161.154582 256.32 
L 161.154582 102.833486 
L 157.669759 102.833486 
z
" style="fill:#ff0000;opacity:0.5;stroke:#ffffff;stroke-linejoin:miter;stroke-width:0.2;"/>
   </g>
   <g id="patch_89">
    <path clip-path="url(#pda3e5014f3)" d="M 161.154582 256.32 
L 164.639404 256.32 
L 164.639404 157.975039 
L 161.154582 157.975039 
z
" style="fill:#ff0000;opacity:0.5;stroke:#ffffff;stroke-linejoin:miter;stroke-width:0.2;"/>
   </g>
   <g id="patch_90">
    <path clip-path="url(#pda3e5014f3)" d="M 164.639404 256.32 
L 168.124226 256.32 
L 168.124226 196.008926 
L 164.639404 196.008926 
z
" style="fill:#ff0000;opacity:0.5;stroke:#ffffff;stroke-linejoin:miter;stroke-width:0.2;"/>
   </g>
   <g id="patch_91">
    <path clip-path="url(#pda3e5014f3)" d="M 168.124226 256.32 
L 171.609049 256.32 
L 171.609049 226.309209 
L 168.124226 226.309209 
z
" style="fill:#ff0000;opacity:0.5;stroke:#ffffff;stroke-linejoin:miter;stroke-width:0.2;"/>
   </g>
   <g id="patch_92">
    <path clip-path="url(#pda3e5014f3)" d="M 171.609049 256.32 
L 175.093871 256.32 
L 175.093871 241.624776 
L 171.609049 241.624776 
z
" style="fill:#ff0000;opacity:0.5;stroke:#ffffff;stroke-linejoin:miter;stroke-width:0.2;"/>
   </g>
   <g id="patch_93">
    <path clip-path="url(#pda3e5014f3)" d="M 175.093871 256.32 
L 178.578694 256.32 
L 178.578694 249.496233 
L 175.093871 249.496233 
z
" style="fill:#ff0000;opacity:0.5;stroke:#ffffff;stroke-linejoin:miter;stroke-width:0.2;"/>
   </g>
   <g id="patch_94">
    <path clip-path="url(#pda3e5014f3)" d="M 178.578694 256.32 
L 182.063516 256.32 
L 182.063516 253.025292 
L 178.578694 253.025292 
z
" style="fill:#ff0000;opacity:0.5;stroke:#ffffff;stroke-linejoin:miter;stroke-width:0.2;"/>
   </g>
   <g id="patch_95">
    <path clip-path="url(#pda3e5014f3)" d="M 182.063516 256.32 
L 185.548338 256.32 
L 185.548338 254.390046 
L 182.063516 254.390046 
z
" style="fill:#ff0000;opacity:0.5;stroke:#ffffff;stroke-linejoin:miter;stroke-width:0.2;"/>
   </g>
   <g id="patch_96">
    <path clip-path="url(#pda3e5014f3)" d="M 185.548338 256.32 
L 189.033161 256.32 
L 189.033161 255.106886 
L 185.548338 255.106886 
z
" style="fill:#ff0000;opacity:0.5;stroke:#ffffff;stroke-linejoin:miter;stroke-width:0.2;"/>
   </g>
   <g id="patch_97">
    <path clip-path="url(#pda3e5014f3)" d="M 189.033161 256.32 
L 192.517983 256.32 
L 192.517983 255.520447 
L 189.033161 255.520447 
z
" style="fill:#ff0000;opacity:0.5;stroke:#ffffff;stroke-linejoin:miter;stroke-width:0.2;"/>
   </g>
   <g id="patch_98">
    <path clip-path="url(#pda3e5014f3)" d="M 192.517983 256.32 
L 196.002806 256.32 
L 196.002806 255.727228 
L 192.517983 255.727228 
z
" style="fill:#ff0000;opacity:0.5;stroke:#ffffff;stroke-linejoin:miter;stroke-width:0.2;"/>
   </g>
   <g id="patch_99">
    <path clip-path="url(#pda3e5014f3)" d="M 196.002806 256.32 
L 199.487628 256.32 
L 199.487628 255.975365 
L 196.002806 255.975365 
z
" style="fill:#ff0000;opacity:0.5;stroke:#ffffff;stroke-linejoin:miter;stroke-width:0.2;"/>
   </g>
   <g id="patch_100">
    <path clip-path="url(#pda3e5014f3)" d="M 199.487628 256.32 
L 202.97245 256.32 
L 202.97245 256.099434 
L 199.487628 256.099434 
z
" style="fill:#ff0000;opacity:0.5;stroke:#ffffff;stroke-linejoin:miter;stroke-width:0.2;"/>
   </g>
   <g id="patch_101">
    <path clip-path="url(#pda3e5014f3)" d="M 202.97245 256.32 
L 206.457273 256.32 
L 206.457273 256.071863 
L 202.97245 256.071863 
z
" style="fill:#ff0000;opacity:0.5;stroke:#ffffff;stroke-linejoin:miter;stroke-width:0.2;"/>
   </g>
   <g id="patch_102">
    <path clip-path="url(#pda3e5014f3)" d="M 206.457273 256.32 
L 209.942095 256.32 
L 209.942095 256.168361 
L 206.457273 256.168361 
z
" style="fill:#ff0000;opacity:0.5;stroke:#ffffff;stroke-linejoin:miter;stroke-width:0.2;"/>
   </g>
   <g id="matplotlib.axis_1">
    <g id="xtick_1">
     <g id="line2d_1">
      <defs>
       <path d="M 0 0 
L 0 3.5 
" id="mdeddb3a93b" style="stroke:#000000;stroke-width:0.8;"/>
      </defs>
      <g>
       <use style="stroke:#000000;stroke-width:0.8;" x="36" xlink:href="#mdeddb3a93b" y="256.32"/>
      </g>
     </g>
     <g id="text_1">
      <!-- −2 -->
      <defs>
       <path d="M 10.59375 35.5 
L 73.1875 35.5 
L 73.1875 27.203125 
L 10.59375 27.203125 
z
" id="DejaVuSans-8722"/>
       <path d="M 19.1875 8.296875 
L 53.609375 8.296875 
L 53.609375 0 
L 7.328125 0 
L 7.328125 8.296875 
Q 12.9375 14.109375 22.625 23.890625 
Q 32.328125 33.6875 34.8125 36.53125 
Q 39.546875 41.84375 41.421875 45.53125 
Q 43.3125 49.21875 43.3125 52.78125 
Q 43.3125 58.59375 39.234375 62.25 
Q 35.15625 65.921875 28.609375 65.921875 
Q 23.96875 65.921875 18.8125 64.3125 
Q 13.671875 62.703125 7.8125 59.421875 
L 7.8125 69.390625 
Q 13.765625 71.78125 18.9375 73 
Q 24.125 74.21875 28.421875 74.21875 
Q 39.75 74.21875 46.484375 68.546875 
Q 53.21875 62.890625 53.21875 53.421875 
Q 53.21875 48.921875 51.53125 44.890625 
Q 49.859375 40.875 45.40625 35.40625 
Q 44.1875 33.984375 37.640625 27.21875 
Q 31.109375 20.453125 19.1875 8.296875 
z
" id="DejaVuSans-50"/>
      </defs>
      <g transform="translate(24.20625 275.4775)scale(0.16 -0.16)">
       <use xlink:href="#DejaVuSans-8722"/>
       <use x="83.789062" xlink:href="#DejaVuSans-50"/>
      </g>
     </g>
    </g>
    <g id="xtick_2">
     <g id="line2d_2">
      <g>
       <use style="stroke:#000000;stroke-width:0.8;" x="91.8" xlink:href="#mdeddb3a93b" y="256.32"/>
      </g>
     </g>
     <g id="text_2">
      <!-- −1 -->
      <defs>
       <path d="M 12.40625 8.296875 
L 28.515625 8.296875 
L 28.515625 63.921875 
L 10.984375 60.40625 
L 10.984375 69.390625 
L 28.421875 72.90625 
L 38.28125 72.90625 
L 38.28125 8.296875 
L 54.390625 8.296875 
L 54.390625 0 
L 12.40625 0 
z
" id="DejaVuSans-49"/>
      </defs>
      <g transform="translate(80.00625 275.4775)scale(0.16 -0.16)">
       <use xlink:href="#DejaVuSans-8722"/>
       <use x="83.789062" xlink:href="#DejaVuSans-49"/>
      </g>
     </g>
    </g>
    <g id="xtick_3">
     <g id="line2d_3">
      <g>
       <use style="stroke:#000000;stroke-width:0.8;" x="147.6" xlink:href="#mdeddb3a93b" y="256.32"/>
      </g>
     </g>
     <g id="text_3">
      <!-- 0 -->
      <defs>
       <path d="M 31.78125 66.40625 
Q 24.171875 66.40625 20.328125 58.90625 
Q 16.5 51.421875 16.5 36.375 
Q 16.5 21.390625 20.328125 13.890625 
Q 24.171875 6.390625 31.78125 6.390625 
Q 39.453125 6.390625 43.28125 13.890625 
Q 47.125 21.390625 47.125 36.375 
Q 47.125 51.421875 43.28125 58.90625 
Q 39.453125 66.40625 31.78125 66.40625 
z
M 31.78125 74.21875 
Q 44.046875 74.21875 50.515625 64.515625 
Q 56.984375 54.828125 56.984375 36.375 
Q 56.984375 17.96875 50.515625 8.265625 
Q 44.046875 -1.421875 31.78125 -1.421875 
Q 19.53125 -1.421875 13.0625 8.265625 
Q 6.59375 17.96875 6.59375 36.375 
Q 6.59375 54.828125 13.0625 64.515625 
Q 19.53125 74.21875 31.78125 74.21875 
z
" id="DejaVuSans-48"/>
      </defs>
      <g transform="translate(142.51 275.4775)scale(0.16 -0.16)">
       <use xlink:href="#DejaVuSans-48"/>
      </g>
     </g>
    </g>
    <g id="xtick_4">
     <g id="line2d_4">
      <g>
       <use style="stroke:#000000;stroke-width:0.8;" x="203.4" xlink:href="#mdeddb3a93b" y="256.32"/>
      </g>
     </g>
     <g id="text_4">
      <!-- 1 -->
      <g transform="translate(198.31 275.4775)scale(0.16 -0.16)">
       <use xlink:href="#DejaVuSans-49"/>
      </g>
     </g>
    </g>
    <g id="xtick_5">
     <g id="line2d_5">
      <g>
       <use style="stroke:#000000;stroke-width:0.8;" x="259.2" xlink:href="#mdeddb3a93b" y="256.32"/>
      </g>
     </g>
     <g id="text_5">
      <!-- 2 -->
      <g transform="translate(254.11 275.4775)scale(0.16 -0.16)">
       <use xlink:href="#DejaVuSans-50"/>
      </g>
     </g>
    </g>
    <g id="text_6">
     <!-- Velocity -->
     <defs>
      <path d="M 28.609375 0 
L 0.78125 72.90625 
L 11.078125 72.90625 
L 34.1875 11.53125 
L 57.328125 72.90625 
L 67.578125 72.90625 
L 39.796875 0 
z
" id="DejaVuSans-86"/>
      <path d="M 56.203125 29.59375 
L 56.203125 25.203125 
L 14.890625 25.203125 
Q 15.484375 15.921875 20.484375 11.0625 
Q 25.484375 6.203125 34.421875 6.203125 
Q 39.59375 6.203125 44.453125 7.46875 
Q 49.3125 8.734375 54.109375 11.28125 
L 54.109375 2.78125 
Q 49.265625 0.734375 44.1875 -0.34375 
Q 39.109375 -1.421875 33.890625 -1.421875 
Q 20.796875 -1.421875 13.15625 6.1875 
Q 5.515625 13.8125 5.515625 26.8125 
Q 5.515625 40.234375 12.765625 48.109375 
Q 20.015625 56 32.328125 56 
Q 43.359375 56 49.78125 48.890625 
Q 56.203125 41.796875 56.203125 29.59375 
z
M 47.21875 32.234375 
Q 47.125 39.59375 43.09375 43.984375 
Q 39.0625 48.390625 32.421875 48.390625 
Q 24.90625 48.390625 20.390625 44.140625 
Q 15.875 39.890625 15.1875 32.171875 
z
" id="DejaVuSans-101"/>
      <path d="M 9.421875 75.984375 
L 18.40625 75.984375 
L 18.40625 0 
L 9.421875 0 
z
" id="DejaVuSans-108"/>
      <path d="M 30.609375 48.390625 
Q 23.390625 48.390625 19.1875 42.75 
Q 14.984375 37.109375 14.984375 27.296875 
Q 14.984375 17.484375 19.15625 11.84375 
Q 23.34375 6.203125 30.609375 6.203125 
Q 37.796875 6.203125 41.984375 11.859375 
Q 46.1875 17.53125 46.1875 27.296875 
Q 46.1875 37.015625 41.984375 42.703125 
Q 37.796875 48.390625 30.609375 48.390625 
z
M 30.609375 56 
Q 42.328125 56 49.015625 48.375 
Q 55.71875 40.765625 55.71875 27.296875 
Q 55.71875 13.875 49.015625 6.21875 
Q 42.328125 -1.421875 30.609375 -1.421875 
Q 18.84375 -1.421875 12.171875 6.21875 
Q 5.515625 13.875 5.515625 27.296875 
Q 5.515625 40.765625 12.171875 48.375 
Q 18.84375 56 30.609375 56 
z
" id="DejaVuSans-111"/>
      <path d="M 48.78125 52.59375 
L 48.78125 44.1875 
Q 44.96875 46.296875 41.140625 47.34375 
Q 37.3125 48.390625 33.40625 48.390625 
Q 24.65625 48.390625 19.8125 42.84375 
Q 14.984375 37.3125 14.984375 27.296875 
Q 14.984375 17.28125 19.8125 11.734375 
Q 24.65625 6.203125 33.40625 6.203125 
Q 37.3125 6.203125 41.140625 7.25 
Q 44.96875 8.296875 48.78125 10.40625 
L 48.78125 2.09375 
Q 45.015625 0.34375 40.984375 -0.53125 
Q 36.96875 -1.421875 32.421875 -1.421875 
Q 20.0625 -1.421875 12.78125 6.34375 
Q 5.515625 14.109375 5.515625 27.296875 
Q 5.515625 40.671875 12.859375 48.328125 
Q 20.21875 56 33.015625 56 
Q 37.15625 56 41.109375 55.140625 
Q 45.0625 54.296875 48.78125 52.59375 
z
" id="DejaVuSans-99"/>
      <path d="M 9.421875 54.6875 
L 18.40625 54.6875 
L 18.40625 0 
L 9.421875 0 
z
M 9.421875 75.984375 
L 18.40625 75.984375 
L 18.40625 64.59375 
L 9.421875 64.59375 
z
" id="DejaVuSans-105"/>
      <path d="M 18.3125 70.21875 
L 18.3125 54.6875 
L 36.8125 54.6875 
L 36.8125 47.703125 
L 18.3125 47.703125 
L 18.3125 18.015625 
Q 18.3125 11.328125 20.140625 9.421875 
Q 21.96875 7.515625 27.59375 7.515625 
L 36.8125 7.515625 
L 36.8125 0 
L 27.59375 0 
Q 17.1875 0 13.234375 3.875 
Q 9.28125 7.765625 9.28125 18.015625 
L 9.28125 47.703125 
L 2.6875 47.703125 
L 2.6875 54.6875 
L 9.28125 54.6875 
L 9.28125 70.21875 
z
" id="DejaVuSans-116"/>
      <path d="M 32.171875 -5.078125 
Q 28.375 -14.84375 24.75 -17.8125 
Q 21.140625 -20.796875 15.09375 -20.796875 
L 7.90625 -20.796875 
L 7.90625 -13.28125 
L 13.1875 -13.28125 
Q 16.890625 -13.28125 18.9375 -11.515625 
Q 21 -9.765625 23.484375 -3.21875 
L 25.09375 0.875 
L 2.984375 54.6875 
L 12.5 54.6875 
L 29.59375 11.921875 
L 46.6875 54.6875 
L 56.203125 54.6875 
z
" id="DejaVuSans-121"/>
     </defs>
     <g transform="translate(115.60375 294.9625)scale(0.16 -0.16)">
      <use xlink:href="#DejaVuSans-86"/>
      <use x="68.298828" xlink:href="#DejaVuSans-101"/>
      <use x="129.822266" xlink:href="#DejaVuSans-108"/>
      <use x="157.605469" xlink:href="#DejaVuSans-111"/>
      <use x="218.787109" xlink:href="#DejaVuSans-99"/>
      <use x="273.767578" xlink:href="#DejaVuSans-105"/>
      <use x="301.550781" xlink:href="#DejaVuSans-116"/>
      <use x="340.759766" xlink:href="#DejaVuSans-121"/>
     </g>
    </g>
   </g>
   <g id="matplotlib.axis_2">
    <g id="ytick_1">
     <g id="line2d_6">
      <defs>
       <path d="M 0 0 
L -3.5 0 
" id="m3600f7dc1d" style="stroke:#000000;stroke-width:0.8;"/>
      </defs>
      <g>
       <use style="stroke:#000000;stroke-width:0.8;" x="36" xlink:href="#m3600f7dc1d" y="256.32"/>
      </g>
     </g>
     <g id="text_7">
      <!-- 0.0 -->
      <defs>
       <path d="M 10.6875 12.40625 
L 21 12.40625 
L 21 0 
L 10.6875 0 
z
" id="DejaVuSans-46"/>
      </defs>
      <g transform="translate(3.555 262.39875)scale(0.16 -0.16)">
       <use xlink:href="#DejaVuSans-48"/>
       <use x="63.623047" xlink:href="#DejaVuSans-46"/>
       <use x="95.410156" xlink:href="#DejaVuSans-48"/>
      </g>
     </g>
    </g>
    <g id="ytick_2">
     <g id="line2d_7">
      <g>
       <use style="stroke:#000000;stroke-width:0.8;" x="36" xlink:href="#m3600f7dc1d" y="198.467974"/>
      </g>
     </g>
     <g id="text_8">
      <!-- 0.5 -->
      <defs>
       <path d="M 10.796875 72.90625 
L 49.515625 72.90625 
L 49.515625 64.59375 
L 19.828125 64.59375 
L 19.828125 46.734375 
Q 21.96875 47.46875 24.109375 47.828125 
Q 26.265625 48.1875 28.421875 48.1875 
Q 40.625 48.1875 47.75 41.5 
Q 54.890625 34.8125 54.890625 23.390625 
Q 54.890625 11.625 47.5625 5.09375 
Q 40.234375 -1.421875 26.90625 -1.421875 
Q 22.3125 -1.421875 17.546875 -0.640625 
Q 12.796875 0.140625 7.71875 1.703125 
L 7.71875 11.625 
Q 12.109375 9.234375 16.796875 8.0625 
Q 21.484375 6.890625 26.703125 6.890625 
Q 35.15625 6.890625 40.078125 11.328125 
Q 45.015625 15.765625 45.015625 23.390625 
Q 45.015625 31 40.078125 35.4375 
Q 35.15625 39.890625 26.703125 39.890625 
Q 22.75 39.890625 18.8125 39.015625 
Q 14.890625 38.140625 10.796875 36.28125 
z
" id="DejaVuSans-53"/>
      </defs>
      <g transform="translate(3.555 204.546724)scale(0.16 -0.16)">
       <use xlink:href="#DejaVuSans-48"/>
       <use x="63.623047" xlink:href="#DejaVuSans-46"/>
       <use x="95.410156" xlink:href="#DejaVuSans-53"/>
      </g>
     </g>
    </g>
    <g id="ytick_3">
     <g id="line2d_8">
      <g>
       <use style="stroke:#000000;stroke-width:0.8;" x="36" xlink:href="#m3600f7dc1d" y="140.615948"/>
      </g>
     </g>
     <g id="text_9">
      <!-- 1.0 -->
      <g transform="translate(3.555 146.694698)scale(0.16 -0.16)">
       <use xlink:href="#DejaVuSans-49"/>
       <use x="63.623047" xlink:href="#DejaVuSans-46"/>
       <use x="95.410156" xlink:href="#DejaVuSans-48"/>
      </g>
     </g>
    </g>
    <g id="ytick_4">
     <g id="line2d_9">
      <g>
       <use style="stroke:#000000;stroke-width:0.8;" x="36" xlink:href="#m3600f7dc1d" y="82.763922"/>
      </g>
     </g>
     <g id="text_10">
      <!-- 1.5 -->
      <g transform="translate(3.555 88.842672)scale(0.16 -0.16)">
       <use xlink:href="#DejaVuSans-49"/>
       <use x="63.623047" xlink:href="#DejaVuSans-46"/>
       <use x="95.410156" xlink:href="#DejaVuSans-53"/>
      </g>
     </g>
    </g>
    <g id="text_11">
     <!-- PDF -->
     <defs>
      <path d="M 19.671875 64.796875 
L 19.671875 37.40625 
L 32.078125 37.40625 
Q 38.96875 37.40625 42.71875 40.96875 
Q 46.484375 44.53125 46.484375 51.125 
Q 46.484375 57.671875 42.71875 61.234375 
Q 38.96875 64.796875 32.078125 64.796875 
z
M 9.8125 72.90625 
L 32.078125 72.90625 
Q 44.34375 72.90625 50.609375 67.359375 
Q 56.890625 61.8125 56.890625 51.125 
Q 56.890625 40.328125 50.609375 34.8125 
Q 44.34375 29.296875 32.078125 29.296875 
L 19.671875 29.296875 
L 19.671875 0 
L 9.8125 0 
z
" id="DejaVuSans-80"/>
      <path d="M 19.671875 64.796875 
L 19.671875 8.109375 
L 31.59375 8.109375 
Q 46.6875 8.109375 53.6875 14.9375 
Q 60.6875 21.78125 60.6875 36.53125 
Q 60.6875 51.171875 53.6875 57.984375 
Q 46.6875 64.796875 31.59375 64.796875 
z
M 9.8125 72.90625 
L 30.078125 72.90625 
Q 51.265625 72.90625 61.171875 64.09375 
Q 71.09375 55.28125 71.09375 36.53125 
Q 71.09375 17.671875 61.125 8.828125 
Q 51.171875 0 30.078125 0 
L 9.8125 0 
z
" id="DejaVuSans-68"/>
      <path d="M 9.8125 72.90625 
L 51.703125 72.90625 
L 51.703125 64.59375 
L 19.671875 64.59375 
L 19.671875 43.109375 
L 48.578125 43.109375 
L 48.578125 34.8125 
L 19.671875 34.8125 
L 19.671875 0 
L 9.8125 0 
z
" id="DejaVuSans-70"/>
     </defs>
     <g transform="translate(-3.7725 161.025)rotate(-90)scale(0.16 -0.16)">
      <use xlink:href="#DejaVuSans-80"/>
      <use x="60.302734" xlink:href="#DejaVuSans-68"/>
      <use x="137.304688" xlink:href="#DejaVuSans-70"/>
     </g>
    </g>
   </g>
   <g id="line2d_10">
    <path clip-path="url(#pda3e5014f3)" d="M 13.261512 256.319723 
L 61.501113 256.176288 
L 66.023576 256.06359 
L 69.038551 256.080444 
L 79.590964 255.887218 
L 84.113426 256.046267 
L 91.650864 255.825565 
L 94.665839 255.81729 
L 96.173327 255.694373 
L 102.203277 254.717119 
L 103.710764 254.249349 
L 105.218252 253.608209 
L 106.725739 252.832785 
L 108.233227 251.41988 
L 109.740715 249.389466 
L 111.248202 247.118761 
L 112.75569 244.337266 
L 114.263177 239.573213 
L 115.770665 231.782174 
L 117.278152 221.379032 
L 118.78564 208.419947 
L 120.293127 191.789984 
L 121.800615 172.040939 
L 124.81559 125.379064 
L 126.323077 102.000254 
L 127.830565 81.270707 
L 129.338053 65.675637 
L 130.84554 55.416069 
L 132.353028 50.075245 
L 133.860515 52.324387 
L 135.368003 63.075232 
L 138.382978 95.47527 
L 139.890465 110.182924 
L 141.397953 122.342716 
L 142.90544 131.510561 
L 144.412928 139.577648 
L 145.920415 145.546285 
L 147.427903 148.124703 
L 148.935391 152.251743 
L 150.442878 155.524692 
L 151.950366 156.413771 
L 153.457853 155.979664 
L 154.965341 154.470737 
L 156.472828 152.439956 
L 157.980316 150.026583 
L 159.487803 147.825362 
L 160.995291 150.415709 
L 162.502778 160.30495 
L 164.010266 175.439573 
L 168.532729 223.648229 
L 170.040216 235.678274 
L 171.547704 243.532577 
L 173.055191 248.409506 
L 174.562679 251.180962 
L 176.070166 252.593851 
L 179.085141 254.508762 
L 180.592629 255.179649 
L 182.100116 255.558917 
L 183.607604 255.745699 
L 195.667504 256.190156 
L 204.712429 256.319739 
L 204.712429 256.319739 
" style="fill:none;stroke:#0000ff;stroke-linecap:square;stroke-width:1.5;"/>
   </g>
   <g id="line2d_11">
    <path clip-path="url(#pda3e5014f3)" d="M 32.268607 256.31976 
L 73.623487 256.301304 
L 87.883791 256.31859 
L 102.144095 256.216118 
L 104.996156 256.008899 
L 109.274247 255.434153 
L 112.126307 254.714199 
L 113.552338 254.26275 
L 114.978368 253.199627 
L 116.404398 251.7481 
L 117.830429 249.799271 
L 119.256459 248.360457 
L 120.68249 246.52718 
L 122.10852 243.591804 
L 123.53455 238.912765 
L 124.960581 231.764066 
L 126.386611 222.142297 
L 127.812641 210.750868 
L 129.238672 197.824294 
L 130.664702 182.07332 
L 134.942793 118.570525 
L 137.794854 81.519813 
L 139.220884 67.104945 
L 140.646915 58.792179 
L 142.072945 56.370995 
L 143.498975 60.365319 
L 144.925006 68.241413 
L 146.351036 72.62525 
L 147.777067 71.100581 
L 149.203097 68.356222 
L 150.629127 61.302643 
L 152.055158 52.716755 
L 153.481188 45.12 
L 154.907218 47.609707 
L 156.333249 60.6686 
L 157.759279 76.441505 
L 159.18531 99.342725 
L 160.61134 124.090591 
L 162.03737 145.904039 
L 163.463401 164.478399 
L 164.889431 181.03613 
L 166.315461 195.823674 
L 169.167522 220.787199 
L 170.593553 230.785451 
L 172.019583 237.612726 
L 174.871644 245.26163 
L 176.297674 248.493907 
L 177.723704 250.765422 
L 179.149735 252.160311 
L 180.575765 253.144497 
L 182.001795 253.90237 
L 183.427826 254.259048 
L 184.853856 254.759333 
L 186.279887 255.063471 
L 187.705917 255.072237 
L 190.557978 255.525625 
L 194.836069 255.722708 
L 197.68813 256.00673 
L 213.374464 256.319547 
L 213.374464 256.319547 
" style="fill:none;stroke:#ff0000;stroke-linecap:square;stroke-width:1.5;"/>
   </g>
   <g id="patch_103">
    <path d="M 36 256.32 
L 36 34.56 
" style="fill:none;stroke:#000000;stroke-linecap:square;stroke-linejoin:miter;stroke-width:0.8;"/>
   </g>
   <g id="patch_104">
    <path d="M 259.2 256.32 
L 259.2 34.56 
" style="fill:none;stroke:#000000;stroke-linecap:square;stroke-linejoin:miter;stroke-width:0.8;"/>
   </g>
   <g id="patch_105">
    <path d="M 36 256.32 
L 259.2 256.32 
" style="fill:none;stroke:#000000;stroke-linecap:square;stroke-linejoin:miter;stroke-width:0.8;"/>
   </g>
   <g id="patch_106">
    <path d="M 36 34.56 
L 259.2 34.56 
" style="fill:none;stroke:#000000;stroke-linecap:square;stroke-linejoin:miter;stroke-width:0.8;"/>
   </g>
   <g id="text_12">
    <!-- Brittlestar -->
    <defs>
     <path d="M 19.671875 34.8125 
L 19.671875 8.109375 
L 35.5 8.109375 
Q 43.453125 8.109375 47.28125 11.40625 
Q 51.125 14.703125 51.125 21.484375 
Q 51.125 28.328125 47.28125 31.5625 
Q 43.453125 34.8125 35.5 34.8125 
z
M 19.671875 64.796875 
L 19.671875 42.828125 
L 34.28125 42.828125 
Q 41.5 42.828125 45.03125 45.53125 
Q 48.578125 48.25 48.578125 53.8125 
Q 48.578125 59.328125 45.03125 62.0625 
Q 41.5 64.796875 34.28125 64.796875 
z
M 9.8125 72.90625 
L 35.015625 72.90625 
Q 46.296875 72.90625 52.390625 68.21875 
Q 58.5 63.53125 58.5 54.890625 
Q 58.5 48.1875 55.375 44.234375 
Q 52.25 40.28125 46.1875 39.3125 
Q 53.46875 37.75 57.5 32.78125 
Q 61.53125 27.828125 61.53125 20.40625 
Q 61.53125 10.640625 54.890625 5.3125 
Q 48.25 0 35.984375 0 
L 9.8125 0 
z
" id="DejaVuSans-66"/>
     <path d="M 41.109375 46.296875 
Q 39.59375 47.171875 37.8125 47.578125 
Q 36.03125 48 33.890625 48 
Q 26.265625 48 22.1875 43.046875 
Q 18.109375 38.09375 18.109375 28.8125 
L 18.109375 0 
L 9.078125 0 
L 9.078125 54.6875 
L 18.109375 54.6875 
L 18.109375 46.1875 
Q 20.953125 51.171875 25.484375 53.578125 
Q 30.03125 56 36.53125 56 
Q 37.453125 56 38.578125 55.875 
Q 39.703125 55.765625 41.0625 55.515625 
z
" id="DejaVuSans-114"/>
     <path d="M 44.28125 53.078125 
L 44.28125 44.578125 
Q 40.484375 46.53125 36.375 47.5 
Q 32.28125 48.484375 27.875 48.484375 
Q 21.1875 48.484375 17.84375 46.4375 
Q 14.5 44.390625 14.5 40.28125 
Q 14.5 37.15625 16.890625 35.375 
Q 19.28125 33.59375 26.515625 31.984375 
L 29.59375 31.296875 
Q 39.15625 29.25 43.1875 25.515625 
Q 47.21875 21.78125 47.21875 15.09375 
Q 47.21875 7.46875 41.1875 3.015625 
Q 35.15625 -1.421875 24.609375 -1.421875 
Q 20.21875 -1.421875 15.453125 -0.5625 
Q 10.6875 0.296875 5.421875 2 
L 5.421875 11.28125 
Q 10.40625 8.6875 15.234375 7.390625 
Q 20.0625 6.109375 24.8125 6.109375 
Q 31.15625 6.109375 34.5625 8.28125 
Q 37.984375 10.453125 37.984375 14.40625 
Q 37.984375 18.0625 35.515625 20.015625 
Q 33.0625 21.96875 24.703125 23.78125 
L 21.578125 24.515625 
Q 13.234375 26.265625 9.515625 29.90625 
Q 5.8125 33.546875 5.8125 39.890625 
Q 5.8125 47.609375 11.28125 51.796875 
Q 16.75 56 26.8125 56 
Q 31.78125 56 36.171875 55.265625 
Q 40.578125 54.546875 44.28125 53.078125 
z
" id="DejaVuSans-115"/>
     <path d="M 34.28125 27.484375 
Q 23.390625 27.484375 19.1875 25 
Q 14.984375 22.515625 14.984375 16.5 
Q 14.984375 11.71875 18.140625 8.90625 
Q 21.296875 6.109375 26.703125 6.109375 
Q 34.1875 6.109375 38.703125 11.40625 
Q 43.21875 16.703125 43.21875 25.484375 
L 43.21875 27.484375 
z
M 52.203125 31.203125 
L 52.203125 0 
L 43.21875 0 
L 43.21875 8.296875 
Q 40.140625 3.328125 35.546875 0.953125 
Q 30.953125 -1.421875 24.3125 -1.421875 
Q 15.921875 -1.421875 10.953125 3.296875 
Q 6 8.015625 6 15.921875 
Q 6 25.140625 12.171875 29.828125 
Q 18.359375 34.515625 30.609375 34.515625 
L 43.21875 34.515625 
L 43.21875 35.40625 
Q 43.21875 41.609375 39.140625 45 
Q 35.0625 48.390625 27.6875 48.390625 
Q 23 48.390625 18.546875 47.265625 
Q 14.109375 46.140625 10.015625 43.890625 
L 10.015625 52.203125 
Q 14.9375 54.109375 19.578125 55.046875 
Q 24.21875 56 28.609375 56 
Q 40.484375 56 46.34375 49.84375 
Q 52.203125 43.703125 52.203125 31.203125 
z
" id="DejaVuSans-97"/>
    </defs>
    <g transform="translate(99.705 28.56)scale(0.192 -0.192)">
     <use xlink:href="#DejaVuSans-66"/>
     <use x="68.603516" xlink:href="#DejaVuSans-114"/>
     <use x="109.716797" xlink:href="#DejaVuSans-105"/>
     <use x="137.5" xlink:href="#DejaVuSans-116"/>
     <use x="176.708984" xlink:href="#DejaVuSans-116"/>
     <use x="215.917969" xlink:href="#DejaVuSans-108"/>
     <use x="243.701172" xlink:href="#DejaVuSans-101"/>
     <use x="305.224609" xlink:href="#DejaVuSans-115"/>
     <use x="357.324219" xlink:href="#DejaVuSans-116"/>
     <use x="396.533203" xlink:href="#DejaVuSans-97"/>
     <use x="457.8125" xlink:href="#DejaVuSans-114"/>
    </g>
   </g>
   <g id="legend_1">
    <g id="patch_107">
     <path d="M 176.385 94.33 
L 248 94.33 
Q 251.2 94.33 251.2 91.13 
L 251.2 45.76 
Q 251.2 42.56 248 42.56 
L 176.385 42.56 
Q 173.185 42.56 173.185 45.76 
L 173.185 91.13 
Q 173.185 94.33 176.385 94.33 
z
" style="fill:#ffffff;opacity:0.8;stroke:#cccccc;stroke-linejoin:miter;"/>
    </g>
    <g id="patch_108">
     <path d="M 179.585 61.1175 
L 211.585 61.1175 
L 211.585 49.9175 
L 179.585 49.9175 
z
" style="fill:#0000ff;opacity:0.5;stroke:#ffffff;stroke-linejoin:miter;stroke-width:0.2;"/>
    </g>
    <g id="text_13">
     <!-- Vz -->
     <defs>
      <path d="M 5.515625 54.6875 
L 48.1875 54.6875 
L 48.1875 46.484375 
L 14.40625 7.171875 
L 48.1875 7.171875 
L 48.1875 0 
L 4.296875 0 
L 4.296875 8.203125 
L 38.09375 47.515625 
L 5.515625 47.515625 
z
" id="DejaVuSans-122"/>
     </defs>
     <g transform="translate(224.385 61.1175)scale(0.16 -0.16)">
      <use xlink:href="#DejaVuSans-86"/>
      <use x="68.408203" xlink:href="#DejaVuSans-122"/>
     </g>
    </g>
    <g id="patch_109">
     <path d="M 179.585 84.6025 
L 211.585 84.6025 
L 211.585 73.4025 
L 179.585 73.4025 
z
" style="fill:#ff0000;opacity:0.5;stroke:#ffffff;stroke-linejoin:miter;stroke-width:0.2;"/>
    </g>
    <g id="text_14">
     <!-- Vx -->
     <defs>
      <path d="M 54.890625 54.6875 
L 35.109375 28.078125 
L 55.90625 0 
L 45.3125 0 
L 29.390625 21.484375 
L 13.484375 0 
L 2.875 0 
L 24.125 28.609375 
L 4.6875 54.6875 
L 15.28125 54.6875 
L 29.78125 35.203125 
L 44.28125 54.6875 
z
" id="DejaVuSans-120"/>
     </defs>
     <g transform="translate(224.385 84.6025)scale(0.16 -0.16)">
      <use xlink:href="#DejaVuSans-86"/>
      <use x="68.408203" xlink:href="#DejaVuSans-120"/>
     </g>
    </g>
   </g>
  </g>
 </g>
 <defs>
  <clipPath id="pda3e5014f3">
   <rect height="221.76" width="223.2" x="36" y="34.56"/>
  </clipPath>
 </defs>
</svg>
