<?xml version="1.0" encoding="utf-8" standalone="no"?>
<!DOCTYPE svg PUBLIC "-//W3C//DTD SVG 1.1//EN"
  "http://www.w3.org/Graphics/SVG/1.1/DTD/svg11.dtd">
<!-- Created with matplotlib (https://matplotlib.org/) -->
<svg height="432pt" version="1.1" viewBox="0 0 576 432" width="576pt" xmlns="http://www.w3.org/2000/svg" xmlns:xlink="http://www.w3.org/1999/xlink">
 <defs>
  <style type="text/css">
*{stroke-linecap:butt;stroke-linejoin:round;}
  </style>
 </defs>
 <g id="figure_1">
  <g id="patch_1">
   <path d="M 0 432 
L 576 432 
L 576 0 
L 0 0 
z
" style="fill:#ffffff;"/>
  </g>
  <g id="axes_1">
   <g id="patch_2">
    <path d="M 72 384.48 
L 518.4 384.48 
L 518.4 51.84 
L 72 51.84 
z
" style="fill:#ffffff;"/>
   </g>
   <g id="patch_3">
    <path clip-path="url(#p90ed1c41d3)" d="M 83.264534 384.48 
L 88.867609 384.48 
L 88.867609 379.568372 
L 83.264534 379.568372 
z
" style="fill:#6495ed;opacity:0.4;"/>
   </g>
   <g id="patch_4">
    <path clip-path="url(#p90ed1c41d3)" d="M 88.867609 384.48 
L 94.470684 384.48 
L 94.470684 378.340465 
L 88.867609 378.340465 
z
" style="fill:#6495ed;opacity:0.4;"/>
   </g>
   <g id="patch_5">
    <path clip-path="url(#p90ed1c41d3)" d="M 94.470684 384.48 
L 100.07376 384.48 
L 100.07376 374.656744 
L 94.470684 374.656744 
z
" style="fill:#6495ed;opacity:0.4;"/>
   </g>
   <g id="patch_6">
    <path clip-path="url(#p90ed1c41d3)" d="M 100.07376 384.48 
L 105.676835 384.48 
L 105.676835 372.20093 
L 100.07376 372.20093 
z
" style="fill:#6495ed;opacity:0.4;"/>
   </g>
   <g id="patch_7">
    <path clip-path="url(#p90ed1c41d3)" d="M 105.676835 384.48 
L 111.27991 384.48 
L 111.27991 368.517209 
L 105.676835 368.517209 
z
" style="fill:#6495ed;opacity:0.4;"/>
   </g>
   <g id="patch_8">
    <path clip-path="url(#p90ed1c41d3)" d="M 111.27991 384.48 
L 116.882985 384.48 
L 116.882985 355.010233 
L 111.27991 355.010233 
z
" style="fill:#6495ed;opacity:0.4;"/>
   </g>
   <g id="patch_9">
    <path clip-path="url(#p90ed1c41d3)" d="M 116.882985 384.48 
L 122.48606 384.48 
L 122.48606 359.92186 
L 116.882985 359.92186 
z
" style="fill:#6495ed;opacity:0.4;"/>
   </g>
   <g id="patch_10">
    <path clip-path="url(#p90ed1c41d3)" d="M 122.48606 384.48 
L 128.089136 384.48 
L 128.089136 339.047442 
L 122.48606 339.047442 
z
" style="fill:#6495ed;opacity:0.4;"/>
   </g>
   <g id="patch_11">
    <path clip-path="url(#p90ed1c41d3)" d="M 128.089136 384.48 
L 133.692211 384.48 
L 133.692211 321.856744 
L 128.089136 321.856744 
z
" style="fill:#6495ed;opacity:0.4;"/>
   </g>
   <g id="patch_12">
    <path clip-path="url(#p90ed1c41d3)" d="M 133.692211 384.48 
L 139.295286 384.48 
L 139.295286 337.819535 
L 133.692211 337.819535 
z
" style="fill:#6495ed;opacity:0.4;"/>
   </g>
   <g id="patch_13">
    <path clip-path="url(#p90ed1c41d3)" d="M 139.295286 384.48 
L 144.898361 384.48 
L 144.898361 315.717209 
L 139.295286 315.717209 
z
" style="fill:#6495ed;opacity:0.4;"/>
   </g>
   <g id="patch_14">
    <path clip-path="url(#p90ed1c41d3)" d="M 144.898361 384.48 
L 150.501436 384.48 
L 150.501436 320.628837 
L 144.898361 320.628837 
z
" style="fill:#6495ed;opacity:0.4;"/>
   </g>
   <g id="patch_15">
    <path clip-path="url(#p90ed1c41d3)" d="M 150.501436 384.48 
L 156.104512 384.48 
L 156.104512 286.247442 
L 150.501436 286.247442 
z
" style="fill:#6495ed;opacity:0.4;"/>
   </g>
   <g id="patch_16">
    <path clip-path="url(#p90ed1c41d3)" d="M 156.104512 384.48 
L 161.707587 384.48 
L 161.707587 200.293953 
L 156.104512 200.293953 
z
" style="fill:#6495ed;opacity:0.4;"/>
   </g>
   <g id="patch_17">
    <path clip-path="url(#p90ed1c41d3)" d="M 161.707587 384.48 
L 167.310662 384.48 
L 167.310662 145.03814 
L 161.707587 145.03814 
z
" style="fill:#6495ed;opacity:0.4;"/>
   </g>
   <g id="patch_18">
    <path clip-path="url(#p90ed1c41d3)" d="M 167.310662 384.48 
L 172.913737 384.48 
L 172.913737 167.140465 
L 167.310662 167.140465 
z
" style="fill:#6495ed;opacity:0.4;"/>
   </g>
   <g id="patch_19">
    <path clip-path="url(#p90ed1c41d3)" d="M 172.913737 384.48 
L 178.516812 384.48 
L 178.516812 132.75907 
L 172.913737 132.75907 
z
" style="fill:#6495ed;opacity:0.4;"/>
   </g>
   <g id="patch_20">
    <path clip-path="url(#p90ed1c41d3)" d="M 178.516812 384.48 
L 184.119888 384.48 
L 184.119888 152.405581 
L 178.516812 152.405581 
z
" style="fill:#6495ed;opacity:0.4;"/>
   </g>
   <g id="patch_21">
    <path clip-path="url(#p90ed1c41d3)" d="M 184.119888 384.48 
L 189.722963 384.48 
L 189.722963 67.68 
L 184.119888 67.68 
z
" style="fill:#6495ed;opacity:0.4;"/>
   </g>
   <g id="patch_22">
    <path clip-path="url(#p90ed1c41d3)" d="M 189.722963 384.48 
L 195.326038 384.48 
L 195.326038 84.870698 
L 189.722963 84.870698 
z
" style="fill:#6495ed;opacity:0.4;"/>
   </g>
   <g id="patch_23">
    <path clip-path="url(#p90ed1c41d3)" d="M 195.326038 384.48 
L 200.929113 384.48 
L 200.929113 148.72186 
L 195.326038 148.72186 
z
" style="fill:#6495ed;opacity:0.4;"/>
   </g>
   <g id="patch_24">
    <path clip-path="url(#p90ed1c41d3)" d="M 200.929113 384.48 
L 206.532188 384.48 
L 206.532188 228.535814 
L 200.929113 228.535814 
z
" style="fill:#6495ed;opacity:0.4;"/>
   </g>
   <g id="patch_25">
    <path clip-path="url(#p90ed1c41d3)" d="M 206.532188 384.48 
L 212.135264 384.48 
L 212.135264 286.247442 
L 206.532188 286.247442 
z
" style="fill:#6495ed;opacity:0.4;"/>
   </g>
   <g id="patch_26">
    <path clip-path="url(#p90ed1c41d3)" d="M 212.135264 384.48 
L 217.738339 384.48 
L 217.738339 314.489302 
L 212.135264 314.489302 
z
" style="fill:#6495ed;opacity:0.4;"/>
   </g>
   <g id="patch_27">
    <path clip-path="url(#p90ed1c41d3)" d="M 217.738339 384.48 
L 223.341414 384.48 
L 223.341414 334.135814 
L 217.738339 334.135814 
z
" style="fill:#6495ed;opacity:0.4;"/>
   </g>
   <g id="patch_28">
    <path clip-path="url(#p90ed1c41d3)" d="M 223.341414 384.48 
L 228.944489 384.48 
L 228.944489 351.326512 
L 223.341414 351.326512 
z
" style="fill:#6495ed;opacity:0.4;"/>
   </g>
   <g id="patch_29">
    <path clip-path="url(#p90ed1c41d3)" d="M 228.944489 384.48 
L 234.547565 384.48 
L 234.547565 356.23814 
L 228.944489 356.23814 
z
" style="fill:#6495ed;opacity:0.4;"/>
   </g>
   <g id="patch_30">
    <path clip-path="url(#p90ed1c41d3)" d="M 234.547565 384.48 
L 240.15064 384.48 
L 240.15064 372.20093 
L 234.547565 372.20093 
z
" style="fill:#6495ed;opacity:0.4;"/>
   </g>
   <g id="patch_31">
    <path clip-path="url(#p90ed1c41d3)" d="M 240.15064 384.48 
L 245.753715 384.48 
L 245.753715 372.20093 
L 240.15064 372.20093 
z
" style="fill:#6495ed;opacity:0.4;"/>
   </g>
   <g id="patch_32">
    <path clip-path="url(#p90ed1c41d3)" d="M 245.753715 384.48 
L 251.35679 384.48 
L 251.35679 380.796279 
L 245.753715 380.796279 
z
" style="fill:#6495ed;opacity:0.4;"/>
   </g>
   <g id="patch_33">
    <path clip-path="url(#p90ed1c41d3)" d="M 251.35679 384.48 
L 256.959865 384.48 
L 256.959865 380.796279 
L 251.35679 380.796279 
z
" style="fill:#6495ed;opacity:0.4;"/>
   </g>
   <g id="patch_34">
    <path clip-path="url(#p90ed1c41d3)" d="M 256.959865 384.48 
L 262.562941 384.48 
L 262.562941 378.340465 
L 256.959865 378.340465 
z
" style="fill:#6495ed;opacity:0.4;"/>
   </g>
   <g id="patch_35">
    <path clip-path="url(#p90ed1c41d3)" d="M 262.562941 384.48 
L 268.166016 384.48 
L 268.166016 382.024186 
L 262.562941 382.024186 
z
" style="fill:#6495ed;opacity:0.4;"/>
   </g>
   <g id="patch_36">
    <path clip-path="url(#p90ed1c41d3)" d="M 268.166016 384.48 
L 273.769091 384.48 
L 273.769091 383.252093 
L 268.166016 383.252093 
z
" style="fill:#6495ed;opacity:0.4;"/>
   </g>
   <g id="patch_37">
    <path clip-path="url(#p90ed1c41d3)" d="M 273.769091 384.48 
L 279.372166 384.48 
L 279.372166 378.340465 
L 273.769091 378.340465 
z
" style="fill:#6495ed;opacity:0.4;"/>
   </g>
   <g id="patch_38">
    <path clip-path="url(#p90ed1c41d3)" d="M 279.372166 384.48 
L 284.975241 384.48 
L 284.975241 382.024186 
L 279.372166 382.024186 
z
" style="fill:#6495ed;opacity:0.4;"/>
   </g>
   <g id="patch_39">
    <path clip-path="url(#p90ed1c41d3)" d="M 284.975241 384.48 
L 290.578317 384.48 
L 290.578317 383.252093 
L 284.975241 383.252093 
z
" style="fill:#6495ed;opacity:0.4;"/>
   </g>
   <g id="patch_40">
    <path clip-path="url(#p90ed1c41d3)" d="M 290.578317 384.48 
L 296.181392 384.48 
L 296.181392 382.024186 
L 290.578317 382.024186 
z
" style="fill:#6495ed;opacity:0.4;"/>
   </g>
   <g id="patch_41">
    <path clip-path="url(#p90ed1c41d3)" d="M 296.181392 384.48 
L 301.784467 384.48 
L 301.784467 382.024186 
L 296.181392 382.024186 
z
" style="fill:#6495ed;opacity:0.4;"/>
   </g>
   <g id="patch_42">
    <path clip-path="url(#p90ed1c41d3)" d="M 301.784467 384.48 
L 307.387542 384.48 
L 307.387542 383.252093 
L 301.784467 383.252093 
z
" style="fill:#6495ed;opacity:0.4;"/>
   </g>
   <g id="patch_43">
    <path clip-path="url(#p90ed1c41d3)" d="M 307.387542 384.48 
L 312.990617 384.48 
L 312.990617 383.252093 
L 307.387542 383.252093 
z
" style="fill:#6495ed;opacity:0.4;"/>
   </g>
   <g id="patch_44">
    <path clip-path="url(#p90ed1c41d3)" d="M 312.990617 384.48 
L 318.593693 384.48 
L 318.593693 380.796279 
L 312.990617 380.796279 
z
" style="fill:#6495ed;opacity:0.4;"/>
   </g>
   <g id="patch_45">
    <path clip-path="url(#p90ed1c41d3)" d="M 318.593693 384.48 
L 324.196768 384.48 
L 324.196768 383.252093 
L 318.593693 383.252093 
z
" style="fill:#6495ed;opacity:0.4;"/>
   </g>
   <g id="patch_46">
    <path clip-path="url(#p90ed1c41d3)" d="M 324.196768 384.48 
L 329.799843 384.48 
L 329.799843 382.024186 
L 324.196768 382.024186 
z
" style="fill:#6495ed;opacity:0.4;"/>
   </g>
   <g id="patch_47">
    <path clip-path="url(#p90ed1c41d3)" d="M 329.799843 384.48 
L 335.402918 384.48 
L 335.402918 382.024186 
L 329.799843 382.024186 
z
" style="fill:#6495ed;opacity:0.4;"/>
   </g>
   <g id="patch_48">
    <path clip-path="url(#p90ed1c41d3)" d="M 335.402918 384.48 
L 341.005993 384.48 
L 341.005993 380.796279 
L 335.402918 380.796279 
z
" style="fill:#6495ed;opacity:0.4;"/>
   </g>
   <g id="patch_49">
    <path clip-path="url(#p90ed1c41d3)" d="M 341.005993 384.48 
L 346.609069 384.48 
L 346.609069 380.796279 
L 341.005993 380.796279 
z
" style="fill:#6495ed;opacity:0.4;"/>
   </g>
   <g id="patch_50">
    <path clip-path="url(#p90ed1c41d3)" d="M 346.609069 384.48 
L 352.212144 384.48 
L 352.212144 380.796279 
L 346.609069 380.796279 
z
" style="fill:#6495ed;opacity:0.4;"/>
   </g>
   <g id="patch_51">
    <path clip-path="url(#p90ed1c41d3)" d="M 352.212144 384.48 
L 357.815219 384.48 
L 357.815219 383.252093 
L 352.212144 383.252093 
z
" style="fill:#6495ed;opacity:0.4;"/>
   </g>
   <g id="patch_52">
    <path clip-path="url(#p90ed1c41d3)" d="M 357.815219 384.48 
L 363.418294 384.48 
L 363.418294 378.340465 
L 357.815219 378.340465 
z
" style="fill:#6495ed;opacity:0.4;"/>
   </g>
   <g id="matplotlib.axis_1">
    <g id="xtick_1">
     <g id="line2d_1">
      <defs>
       <path d="M 0 0 
L 0 3.5 
" id="m8af3c4ffc2" style="stroke:#000000;stroke-width:0.8;"/>
      </defs>
      <g>
       <use style="stroke:#000000;stroke-width:0.8;" x="72" xlink:href="#m8af3c4ffc2" y="384.48"/>
      </g>
     </g>
     <g id="text_1">
      <!-- 0.0 -->
      <defs>
       <path d="M 31.78125 66.40625 
Q 24.171875 66.40625 20.328125 58.90625 
Q 16.5 51.421875 16.5 36.375 
Q 16.5 21.390625 20.328125 13.890625 
Q 24.171875 6.390625 31.78125 6.390625 
Q 39.453125 6.390625 43.28125 13.890625 
Q 47.125 21.390625 47.125 36.375 
Q 47.125 51.421875 43.28125 58.90625 
Q 39.453125 66.40625 31.78125 66.40625 
z
M 31.78125 74.21875 
Q 44.046875 74.21875 50.515625 64.515625 
Q 56.984375 54.828125 56.984375 36.375 
Q 56.984375 17.96875 50.515625 8.265625 
Q 44.046875 -1.421875 31.78125 -1.421875 
Q 19.53125 -1.421875 13.0625 8.265625 
Q 6.59375 17.96875 6.59375 36.375 
Q 6.59375 54.828125 13.0625 64.515625 
Q 19.53125 74.21875 31.78125 74.21875 
z
" id="DejaVuSans-48"/>
       <path d="M 10.6875 12.40625 
L 21 12.40625 
L 21 0 
L 10.6875 0 
z
" id="DejaVuSans-46"/>
      </defs>
      <g transform="translate(60.867812 402.117813)scale(0.14 -0.14)">
       <use xlink:href="#DejaVuSans-48"/>
       <use x="63.623047" xlink:href="#DejaVuSans-46"/>
       <use x="95.410156" xlink:href="#DejaVuSans-48"/>
      </g>
     </g>
    </g>
    <g id="xtick_2">
     <g id="line2d_2">
      <g>
       <use style="stroke:#000000;stroke-width:0.8;" x="146.4" xlink:href="#m8af3c4ffc2" y="384.48"/>
      </g>
     </g>
     <g id="text_2">
      <!-- 0.5 -->
      <defs>
       <path d="M 10.796875 72.90625 
L 49.515625 72.90625 
L 49.515625 64.59375 
L 19.828125 64.59375 
L 19.828125 46.734375 
Q 21.96875 47.46875 24.109375 47.828125 
Q 26.265625 48.1875 28.421875 48.1875 
Q 40.625 48.1875 47.75 41.5 
Q 54.890625 34.8125 54.890625 23.390625 
Q 54.890625 11.625 47.5625 5.09375 
Q 40.234375 -1.421875 26.90625 -1.421875 
Q 22.3125 -1.421875 17.546875 -0.640625 
Q 12.796875 0.140625 7.71875 1.703125 
L 7.71875 11.625 
Q 12.109375 9.234375 16.796875 8.0625 
Q 21.484375 6.890625 26.703125 6.890625 
Q 35.15625 6.890625 40.078125 11.328125 
Q 45.015625 15.765625 45.015625 23.390625 
Q 45.015625 31 40.078125 35.4375 
Q 35.15625 39.890625 26.703125 39.890625 
Q 22.75 39.890625 18.8125 39.015625 
Q 14.890625 38.140625 10.796875 36.28125 
z
" id="DejaVuSans-53"/>
      </defs>
      <g transform="translate(135.267812 402.117813)scale(0.14 -0.14)">
       <use xlink:href="#DejaVuSans-48"/>
       <use x="63.623047" xlink:href="#DejaVuSans-46"/>
       <use x="95.410156" xlink:href="#DejaVuSans-53"/>
      </g>
     </g>
    </g>
    <g id="xtick_3">
     <g id="line2d_3">
      <g>
       <use style="stroke:#000000;stroke-width:0.8;" x="220.8" xlink:href="#m8af3c4ffc2" y="384.48"/>
      </g>
     </g>
     <g id="text_3">
      <!-- 1.0 -->
      <defs>
       <path d="M 12.40625 8.296875 
L 28.515625 8.296875 
L 28.515625 63.921875 
L 10.984375 60.40625 
L 10.984375 69.390625 
L 28.421875 72.90625 
L 38.28125 72.90625 
L 38.28125 8.296875 
L 54.390625 8.296875 
L 54.390625 0 
L 12.40625 0 
z
" id="DejaVuSans-49"/>
      </defs>
      <g transform="translate(209.667812 402.117813)scale(0.14 -0.14)">
       <use xlink:href="#DejaVuSans-49"/>
       <use x="63.623047" xlink:href="#DejaVuSans-46"/>
       <use x="95.410156" xlink:href="#DejaVuSans-48"/>
      </g>
     </g>
    </g>
    <g id="xtick_4">
     <g id="line2d_4">
      <g>
       <use style="stroke:#000000;stroke-width:0.8;" x="295.2" xlink:href="#m8af3c4ffc2" y="384.48"/>
      </g>
     </g>
     <g id="text_4">
      <!-- 1.5 -->
      <g transform="translate(284.067813 402.117813)scale(0.14 -0.14)">
       <use xlink:href="#DejaVuSans-49"/>
       <use x="63.623047" xlink:href="#DejaVuSans-46"/>
       <use x="95.410156" xlink:href="#DejaVuSans-53"/>
      </g>
     </g>
    </g>
    <g id="xtick_5">
     <g id="line2d_5">
      <g>
       <use style="stroke:#000000;stroke-width:0.8;" x="369.6" xlink:href="#m8af3c4ffc2" y="384.48"/>
      </g>
     </g>
     <g id="text_5">
      <!-- 2.0 -->
      <defs>
       <path d="M 19.1875 8.296875 
L 53.609375 8.296875 
L 53.609375 0 
L 7.328125 0 
L 7.328125 8.296875 
Q 12.9375 14.109375 22.625 23.890625 
Q 32.328125 33.6875 34.8125 36.53125 
Q 39.546875 41.84375 41.421875 45.53125 
Q 43.3125 49.21875 43.3125 52.78125 
Q 43.3125 58.59375 39.234375 62.25 
Q 35.15625 65.921875 28.609375 65.921875 
Q 23.96875 65.921875 18.8125 64.3125 
Q 13.671875 62.703125 7.8125 59.421875 
L 7.8125 69.390625 
Q 13.765625 71.78125 18.9375 73 
Q 24.125 74.21875 28.421875 74.21875 
Q 39.75 74.21875 46.484375 68.546875 
Q 53.21875 62.890625 53.21875 53.421875 
Q 53.21875 48.921875 51.53125 44.890625 
Q 49.859375 40.875 45.40625 35.40625 
Q 44.1875 33.984375 37.640625 27.21875 
Q 31.109375 20.453125 19.1875 8.296875 
z
" id="DejaVuSans-50"/>
      </defs>
      <g transform="translate(358.467812 402.117813)scale(0.14 -0.14)">
       <use xlink:href="#DejaVuSans-50"/>
       <use x="63.623047" xlink:href="#DejaVuSans-46"/>
       <use x="95.410156" xlink:href="#DejaVuSans-48"/>
      </g>
     </g>
    </g>
    <g id="xtick_6">
     <g id="line2d_6">
      <g>
       <use style="stroke:#000000;stroke-width:0.8;" x="444" xlink:href="#m8af3c4ffc2" y="384.48"/>
      </g>
     </g>
     <g id="text_6">
      <!-- 2.5 -->
      <g transform="translate(432.867812 402.117813)scale(0.14 -0.14)">
       <use xlink:href="#DejaVuSans-50"/>
       <use x="63.623047" xlink:href="#DejaVuSans-46"/>
       <use x="95.410156" xlink:href="#DejaVuSans-53"/>
      </g>
     </g>
    </g>
    <g id="xtick_7">
     <g id="line2d_7">
      <g>
       <use style="stroke:#000000;stroke-width:0.8;" x="518.4" xlink:href="#m8af3c4ffc2" y="384.48"/>
      </g>
     </g>
     <g id="text_7">
      <!-- 3.0 -->
      <defs>
       <path d="M 40.578125 39.3125 
Q 47.65625 37.796875 51.625 33 
Q 55.609375 28.21875 55.609375 21.1875 
Q 55.609375 10.40625 48.1875 4.484375 
Q 40.765625 -1.421875 27.09375 -1.421875 
Q 22.515625 -1.421875 17.65625 -0.515625 
Q 12.796875 0.390625 7.625 2.203125 
L 7.625 11.71875 
Q 11.71875 9.328125 16.59375 8.109375 
Q 21.484375 6.890625 26.8125 6.890625 
Q 36.078125 6.890625 40.9375 10.546875 
Q 45.796875 14.203125 45.796875 21.1875 
Q 45.796875 27.640625 41.28125 31.265625 
Q 36.765625 34.90625 28.71875 34.90625 
L 20.21875 34.90625 
L 20.21875 43.015625 
L 29.109375 43.015625 
Q 36.375 43.015625 40.234375 45.921875 
Q 44.09375 48.828125 44.09375 54.296875 
Q 44.09375 59.90625 40.109375 62.90625 
Q 36.140625 65.921875 28.71875 65.921875 
Q 24.65625 65.921875 20.015625 65.03125 
Q 15.375 64.15625 9.8125 62.3125 
L 9.8125 71.09375 
Q 15.4375 72.65625 20.34375 73.4375 
Q 25.25 74.21875 29.59375 74.21875 
Q 40.828125 74.21875 47.359375 69.109375 
Q 53.90625 64.015625 53.90625 55.328125 
Q 53.90625 49.265625 50.4375 45.09375 
Q 46.96875 40.921875 40.578125 39.3125 
z
" id="DejaVuSans-51"/>
      </defs>
      <g transform="translate(507.267812 402.117813)scale(0.14 -0.14)">
       <use xlink:href="#DejaVuSans-51"/>
       <use x="63.623047" xlink:href="#DejaVuSans-46"/>
       <use x="95.410156" xlink:href="#DejaVuSans-48"/>
      </g>
     </g>
    </g>
    <g id="text_8">
     <!-- Swimming speed (mm/s) -->
     <defs>
      <path d="M 53.515625 70.515625 
L 53.515625 60.890625 
Q 47.90625 63.578125 42.921875 64.890625 
Q 37.9375 66.21875 33.296875 66.21875 
Q 25.25 66.21875 20.875 63.09375 
Q 16.5 59.96875 16.5 54.203125 
Q 16.5 49.359375 19.40625 46.890625 
Q 22.3125 44.4375 30.421875 42.921875 
L 36.375 41.703125 
Q 47.40625 39.59375 52.65625 34.296875 
Q 57.90625 29 57.90625 20.125 
Q 57.90625 9.515625 50.796875 4.046875 
Q 43.703125 -1.421875 29.984375 -1.421875 
Q 24.8125 -1.421875 18.96875 -0.25 
Q 13.140625 0.921875 6.890625 3.21875 
L 6.890625 13.375 
Q 12.890625 10.015625 18.65625 8.296875 
Q 24.421875 6.59375 29.984375 6.59375 
Q 38.421875 6.59375 43.015625 9.90625 
Q 47.609375 13.234375 47.609375 19.390625 
Q 47.609375 24.75 44.3125 27.78125 
Q 41.015625 30.8125 33.5 32.328125 
L 27.484375 33.5 
Q 16.453125 35.6875 11.515625 40.375 
Q 6.59375 45.0625 6.59375 53.421875 
Q 6.59375 63.09375 13.40625 68.65625 
Q 20.21875 74.21875 32.171875 74.21875 
Q 37.3125 74.21875 42.625 73.28125 
Q 47.953125 72.359375 53.515625 70.515625 
z
" id="DejaVuSans-83"/>
      <path d="M 4.203125 54.6875 
L 13.1875 54.6875 
L 24.421875 12.015625 
L 35.59375 54.6875 
L 46.1875 54.6875 
L 57.421875 12.015625 
L 68.609375 54.6875 
L 77.59375 54.6875 
L 63.28125 0 
L 52.6875 0 
L 40.921875 44.828125 
L 29.109375 0 
L 18.5 0 
z
" id="DejaVuSans-119"/>
      <path d="M 9.421875 54.6875 
L 18.40625 54.6875 
L 18.40625 0 
L 9.421875 0 
z
M 9.421875 75.984375 
L 18.40625 75.984375 
L 18.40625 64.59375 
L 9.421875 64.59375 
z
" id="DejaVuSans-105"/>
      <path d="M 52 44.1875 
Q 55.375 50.25 60.0625 53.125 
Q 64.75 56 71.09375 56 
Q 79.640625 56 84.28125 50.015625 
Q 88.921875 44.046875 88.921875 33.015625 
L 88.921875 0 
L 79.890625 0 
L 79.890625 32.71875 
Q 79.890625 40.578125 77.09375 44.375 
Q 74.3125 48.1875 68.609375 48.1875 
Q 61.625 48.1875 57.5625 43.546875 
Q 53.515625 38.921875 53.515625 30.90625 
L 53.515625 0 
L 44.484375 0 
L 44.484375 32.71875 
Q 44.484375 40.625 41.703125 44.40625 
Q 38.921875 48.1875 33.109375 48.1875 
Q 26.21875 48.1875 22.15625 43.53125 
Q 18.109375 38.875 18.109375 30.90625 
L 18.109375 0 
L 9.078125 0 
L 9.078125 54.6875 
L 18.109375 54.6875 
L 18.109375 46.1875 
Q 21.1875 51.21875 25.484375 53.609375 
Q 29.78125 56 35.6875 56 
Q 41.65625 56 45.828125 52.96875 
Q 50 49.953125 52 44.1875 
z
" id="DejaVuSans-109"/>
      <path d="M 54.890625 33.015625 
L 54.890625 0 
L 45.90625 0 
L 45.90625 32.71875 
Q 45.90625 40.484375 42.875 44.328125 
Q 39.84375 48.1875 33.796875 48.1875 
Q 26.515625 48.1875 22.3125 43.546875 
Q 18.109375 38.921875 18.109375 30.90625 
L 18.109375 0 
L 9.078125 0 
L 9.078125 54.6875 
L 18.109375 54.6875 
L 18.109375 46.1875 
Q 21.34375 51.125 25.703125 53.5625 
Q 30.078125 56 35.796875 56 
Q 45.21875 56 50.046875 50.171875 
Q 54.890625 44.34375 54.890625 33.015625 
z
" id="DejaVuSans-110"/>
      <path d="M 45.40625 27.984375 
Q 45.40625 37.75 41.375 43.109375 
Q 37.359375 48.484375 30.078125 48.484375 
Q 22.859375 48.484375 18.828125 43.109375 
Q 14.796875 37.75 14.796875 27.984375 
Q 14.796875 18.265625 18.828125 12.890625 
Q 22.859375 7.515625 30.078125 7.515625 
Q 37.359375 7.515625 41.375 12.890625 
Q 45.40625 18.265625 45.40625 27.984375 
z
M 54.390625 6.78125 
Q 54.390625 -7.171875 48.1875 -13.984375 
Q 42 -20.796875 29.203125 -20.796875 
Q 24.46875 -20.796875 20.265625 -20.09375 
Q 16.0625 -19.390625 12.109375 -17.921875 
L 12.109375 -9.1875 
Q 16.0625 -11.328125 19.921875 -12.34375 
Q 23.78125 -13.375 27.78125 -13.375 
Q 36.625 -13.375 41.015625 -8.765625 
Q 45.40625 -4.15625 45.40625 5.171875 
L 45.40625 9.625 
Q 42.625 4.78125 38.28125 2.390625 
Q 33.9375 0 27.875 0 
Q 17.828125 0 11.671875 7.65625 
Q 5.515625 15.328125 5.515625 27.984375 
Q 5.515625 40.671875 11.671875 48.328125 
Q 17.828125 56 27.875 56 
Q 33.9375 56 38.28125 53.609375 
Q 42.625 51.21875 45.40625 46.390625 
L 45.40625 54.6875 
L 54.390625 54.6875 
z
" id="DejaVuSans-103"/>
      <path id="DejaVuSans-32"/>
      <path d="M 44.28125 53.078125 
L 44.28125 44.578125 
Q 40.484375 46.53125 36.375 47.5 
Q 32.28125 48.484375 27.875 48.484375 
Q 21.1875 48.484375 17.84375 46.4375 
Q 14.5 44.390625 14.5 40.28125 
Q 14.5 37.15625 16.890625 35.375 
Q 19.28125 33.59375 26.515625 31.984375 
L 29.59375 31.296875 
Q 39.15625 29.25 43.1875 25.515625 
Q 47.21875 21.78125 47.21875 15.09375 
Q 47.21875 7.46875 41.1875 3.015625 
Q 35.15625 -1.421875 24.609375 -1.421875 
Q 20.21875 -1.421875 15.453125 -0.5625 
Q 10.6875 0.296875 5.421875 2 
L 5.421875 11.28125 
Q 10.40625 8.6875 15.234375 7.390625 
Q 20.0625 6.109375 24.8125 6.109375 
Q 31.15625 6.109375 34.5625 8.28125 
Q 37.984375 10.453125 37.984375 14.40625 
Q 37.984375 18.0625 35.515625 20.015625 
Q 33.0625 21.96875 24.703125 23.78125 
L 21.578125 24.515625 
Q 13.234375 26.265625 9.515625 29.90625 
Q 5.8125 33.546875 5.8125 39.890625 
Q 5.8125 47.609375 11.28125 51.796875 
Q 16.75 56 26.8125 56 
Q 31.78125 56 36.171875 55.265625 
Q 40.578125 54.546875 44.28125 53.078125 
z
" id="DejaVuSans-115"/>
      <path d="M 18.109375 8.203125 
L 18.109375 -20.796875 
L 9.078125 -20.796875 
L 9.078125 54.6875 
L 18.109375 54.6875 
L 18.109375 46.390625 
Q 20.953125 51.265625 25.265625 53.625 
Q 29.59375 56 35.59375 56 
Q 45.5625 56 51.78125 48.09375 
Q 58.015625 40.1875 58.015625 27.296875 
Q 58.015625 14.40625 51.78125 6.484375 
Q 45.5625 -1.421875 35.59375 -1.421875 
Q 29.59375 -1.421875 25.265625 0.953125 
Q 20.953125 3.328125 18.109375 8.203125 
z
M 48.6875 27.296875 
Q 48.6875 37.203125 44.609375 42.84375 
Q 40.53125 48.484375 33.40625 48.484375 
Q 26.265625 48.484375 22.1875 42.84375 
Q 18.109375 37.203125 18.109375 27.296875 
Q 18.109375 17.390625 22.1875 11.75 
Q 26.265625 6.109375 33.40625 6.109375 
Q 40.53125 6.109375 44.609375 11.75 
Q 48.6875 17.390625 48.6875 27.296875 
z
" id="DejaVuSans-112"/>
      <path d="M 56.203125 29.59375 
L 56.203125 25.203125 
L 14.890625 25.203125 
Q 15.484375 15.921875 20.484375 11.0625 
Q 25.484375 6.203125 34.421875 6.203125 
Q 39.59375 6.203125 44.453125 7.46875 
Q 49.3125 8.734375 54.109375 11.28125 
L 54.109375 2.78125 
Q 49.265625 0.734375 44.1875 -0.34375 
Q 39.109375 -1.421875 33.890625 -1.421875 
Q 20.796875 -1.421875 13.15625 6.1875 
Q 5.515625 13.8125 5.515625 26.8125 
Q 5.515625 40.234375 12.765625 48.109375 
Q 20.015625 56 32.328125 56 
Q 43.359375 56 49.78125 48.890625 
Q 56.203125 41.796875 56.203125 29.59375 
z
M 47.21875 32.234375 
Q 47.125 39.59375 43.09375 43.984375 
Q 39.0625 48.390625 32.421875 48.390625 
Q 24.90625 48.390625 20.390625 44.140625 
Q 15.875 39.890625 15.1875 32.171875 
z
" id="DejaVuSans-101"/>
      <path d="M 45.40625 46.390625 
L 45.40625 75.984375 
L 54.390625 75.984375 
L 54.390625 0 
L 45.40625 0 
L 45.40625 8.203125 
Q 42.578125 3.328125 38.25 0.953125 
Q 33.9375 -1.421875 27.875 -1.421875 
Q 17.96875 -1.421875 11.734375 6.484375 
Q 5.515625 14.40625 5.515625 27.296875 
Q 5.515625 40.1875 11.734375 48.09375 
Q 17.96875 56 27.875 56 
Q 33.9375 56 38.25 53.625 
Q 42.578125 51.265625 45.40625 46.390625 
z
M 14.796875 27.296875 
Q 14.796875 17.390625 18.875 11.75 
Q 22.953125 6.109375 30.078125 6.109375 
Q 37.203125 6.109375 41.296875 11.75 
Q 45.40625 17.390625 45.40625 27.296875 
Q 45.40625 37.203125 41.296875 42.84375 
Q 37.203125 48.484375 30.078125 48.484375 
Q 22.953125 48.484375 18.875 42.84375 
Q 14.796875 37.203125 14.796875 27.296875 
z
" id="DejaVuSans-100"/>
      <path d="M 31 75.875 
Q 24.46875 64.65625 21.28125 53.65625 
Q 18.109375 42.671875 18.109375 31.390625 
Q 18.109375 20.125 21.3125 9.0625 
Q 24.515625 -2 31 -13.1875 
L 23.1875 -13.1875 
Q 15.875 -1.703125 12.234375 9.375 
Q 8.59375 20.453125 8.59375 31.390625 
Q 8.59375 42.28125 12.203125 53.3125 
Q 15.828125 64.359375 23.1875 75.875 
z
" id="DejaVuSans-40"/>
      <path d="M 25.390625 72.90625 
L 33.6875 72.90625 
L 8.296875 -9.28125 
L 0 -9.28125 
z
" id="DejaVuSans-47"/>
      <path d="M 8.015625 75.875 
L 15.828125 75.875 
Q 23.140625 64.359375 26.78125 53.3125 
Q 30.421875 42.28125 30.421875 31.390625 
Q 30.421875 20.453125 26.78125 9.375 
Q 23.140625 -1.703125 15.828125 -13.1875 
L 8.015625 -13.1875 
Q 14.5 -2 17.703125 9.0625 
Q 20.90625 20.125 20.90625 31.390625 
Q 20.90625 42.671875 17.703125 53.65625 
Q 14.5 64.65625 8.015625 75.875 
z
" id="DejaVuSans-41"/>
     </defs>
     <g transform="translate(207.923125 419.667188)scale(0.14 -0.14)">
      <use xlink:href="#DejaVuSans-83"/>
      <use x="63.476562" xlink:href="#DejaVuSans-119"/>
      <use x="145.263672" xlink:href="#DejaVuSans-105"/>
      <use x="173.046875" xlink:href="#DejaVuSans-109"/>
      <use x="270.458984" xlink:href="#DejaVuSans-109"/>
      <use x="367.871094" xlink:href="#DejaVuSans-105"/>
      <use x="395.654297" xlink:href="#DejaVuSans-110"/>
      <use x="459.033203" xlink:href="#DejaVuSans-103"/>
      <use x="522.509766" xlink:href="#DejaVuSans-32"/>
      <use x="554.296875" xlink:href="#DejaVuSans-115"/>
      <use x="606.396484" xlink:href="#DejaVuSans-112"/>
      <use x="669.873047" xlink:href="#DejaVuSans-101"/>
      <use x="731.396484" xlink:href="#DejaVuSans-101"/>
      <use x="792.919922" xlink:href="#DejaVuSans-100"/>
      <use x="856.396484" xlink:href="#DejaVuSans-32"/>
      <use x="888.183594" xlink:href="#DejaVuSans-40"/>
      <use x="927.197266" xlink:href="#DejaVuSans-109"/>
      <use x="1024.609375" xlink:href="#DejaVuSans-109"/>
      <use x="1122.021484" xlink:href="#DejaVuSans-47"/>
      <use x="1155.712891" xlink:href="#DejaVuSans-115"/>
      <use x="1207.8125" xlink:href="#DejaVuSans-41"/>
     </g>
    </g>
   </g>
   <g id="matplotlib.axis_2">
    <g id="ytick_1">
     <g id="line2d_8">
      <defs>
       <path d="M 0 0 
L -3.5 0 
" id="me977ad190b" style="stroke:#000000;stroke-width:0.8;"/>
      </defs>
      <g>
       <use style="stroke:#000000;stroke-width:0.8;" x="72" xlink:href="#me977ad190b" y="384.48"/>
      </g>
     </g>
     <g id="text_9">
      <!-- 0.0 -->
      <g transform="translate(42.735625 389.798906)scale(0.14 -0.14)">
       <use xlink:href="#DejaVuSans-48"/>
       <use x="63.623047" xlink:href="#DejaVuSans-46"/>
       <use x="95.410156" xlink:href="#DejaVuSans-48"/>
      </g>
     </g>
    </g>
    <g id="ytick_2">
     <g id="line2d_9">
      <g>
       <use style="stroke:#000000;stroke-width:0.8;" x="72" xlink:href="#me977ad190b" y="328.209657"/>
      </g>
     </g>
     <g id="text_10">
      <!-- 0.5 -->
      <g transform="translate(42.735625 333.528563)scale(0.14 -0.14)">
       <use xlink:href="#DejaVuSans-48"/>
       <use x="63.623047" xlink:href="#DejaVuSans-46"/>
       <use x="95.410156" xlink:href="#DejaVuSans-53"/>
      </g>
     </g>
    </g>
    <g id="ytick_3">
     <g id="line2d_10">
      <g>
       <use style="stroke:#000000;stroke-width:0.8;" x="72" xlink:href="#me977ad190b" y="271.939313"/>
      </g>
     </g>
     <g id="text_11">
      <!-- 1.0 -->
      <g transform="translate(42.735625 277.258219)scale(0.14 -0.14)">
       <use xlink:href="#DejaVuSans-49"/>
       <use x="63.623047" xlink:href="#DejaVuSans-46"/>
       <use x="95.410156" xlink:href="#DejaVuSans-48"/>
      </g>
     </g>
    </g>
    <g id="ytick_4">
     <g id="line2d_11">
      <g>
       <use style="stroke:#000000;stroke-width:0.8;" x="72" xlink:href="#me977ad190b" y="215.66897"/>
      </g>
     </g>
     <g id="text_12">
      <!-- 1.5 -->
      <g transform="translate(42.735625 220.987876)scale(0.14 -0.14)">
       <use xlink:href="#DejaVuSans-49"/>
       <use x="63.623047" xlink:href="#DejaVuSans-46"/>
       <use x="95.410156" xlink:href="#DejaVuSans-53"/>
      </g>
     </g>
    </g>
    <g id="ytick_5">
     <g id="line2d_12">
      <g>
       <use style="stroke:#000000;stroke-width:0.8;" x="72" xlink:href="#me977ad190b" y="159.398626"/>
      </g>
     </g>
     <g id="text_13">
      <!-- 2.0 -->
      <g transform="translate(42.735625 164.717533)scale(0.14 -0.14)">
       <use xlink:href="#DejaVuSans-50"/>
       <use x="63.623047" xlink:href="#DejaVuSans-46"/>
       <use x="95.410156" xlink:href="#DejaVuSans-48"/>
      </g>
     </g>
    </g>
    <g id="ytick_6">
     <g id="line2d_13">
      <g>
       <use style="stroke:#000000;stroke-width:0.8;" x="72" xlink:href="#me977ad190b" y="103.128283"/>
      </g>
     </g>
     <g id="text_14">
      <!-- 2.5 -->
      <g transform="translate(42.735625 108.447189)scale(0.14 -0.14)">
       <use xlink:href="#DejaVuSans-50"/>
       <use x="63.623047" xlink:href="#DejaVuSans-46"/>
       <use x="95.410156" xlink:href="#DejaVuSans-53"/>
      </g>
     </g>
    </g>
   </g>
   <g id="line2d_14">
    <path clip-path="url(#p90ed1c41d3)" d="M 67.468216 384.466569 
L 72.377608 384.346835 
L 74.832304 384.13076 
L 77.287 383.717511 
L 79.741696 383.077383 
L 84.651089 381.358487 
L 87.105785 380.405997 
L 89.560481 379.329708 
L 92.015177 378.026064 
L 104.288657 370.333842 
L 106.743353 368.150725 
L 109.198049 365.398694 
L 111.652745 362.448633 
L 116.562137 357.003468 
L 119.016833 353.90331 
L 121.471529 349.85638 
L 123.926225 344.877247 
L 126.380921 339.619686 
L 128.835617 334.997406 
L 131.290313 331.60181 
L 133.745009 329.317472 
L 136.199705 327.41557 
L 138.654401 325.041704 
L 141.109097 321.613608 
L 143.563793 316.716002 
L 146.018489 309.685847 
L 148.473185 299.476772 
L 150.927881 285.059696 
L 153.382577 266.069956 
L 155.837273 243.317186 
L 158.291969 218.946768 
L 160.746665 196.053784 
L 163.201361 177.61735 
L 165.656057 165.111443 
L 168.110753 157.751438 
L 170.565449 153.172426 
L 173.020146 149.057855 
L 175.474842 144.128269 
L 177.929538 137.682652 
L 180.384234 128.89209 
L 182.83893 117.447649 
L 185.293626 105.087237 
L 187.748322 95.876083 
L 190.203018 94.412748 
L 192.657714 103.503555 
L 195.11241 123.03932 
L 197.567106 150.264265 
L 202.476498 210.809463 
L 204.931194 237.415263 
L 207.38589 260.113318 
L 209.840586 279.39474 
L 212.295282 295.78741 
L 214.749978 309.500303 
L 217.204674 320.720442 
L 219.65937 329.865426 
L 222.114066 337.416033 
L 224.568762 343.675911 
L 227.023458 348.890359 
L 234.387546 362.749762 
L 236.842242 367.135759 
L 239.296938 370.72682 
L 241.751634 373.392042 
L 244.20633 375.388096 
L 246.661026 376.980866 
L 249.115722 378.206954 
L 251.570418 378.993778 
L 254.025114 379.389721 
L 258.934507 379.920549 
L 266.298595 381.382126 
L 268.753291 381.534274 
L 271.207987 381.417069 
L 276.117379 381.01114 
L 278.572075 381.058272 
L 281.026771 381.340801 
L 285.936163 382.222051 
L 288.390859 382.526353 
L 290.845555 382.59059 
L 298.209643 382.164712 
L 300.664339 382.29807 
L 305.573731 382.787379 
L 308.028427 382.84061 
L 310.483123 382.686898 
L 315.392515 382.146259 
L 317.847211 382.032861 
L 327.665995 382.274393 
L 332.575387 381.862053 
L 342.394171 380.677324 
L 344.848867 380.718878 
L 352.212956 381.631973 
L 354.667652 381.669936 
L 359.577044 381.523343 
L 362.03174 381.788941 
L 364.486436 382.363524 
L 369.395828 383.691782 
L 371.850524 384.112648 
L 374.30522 384.337858 
L 379.214612 384.465738 
L 379.214612 384.465738 
" style="fill:none;stroke:#6495ed;stroke-linecap:square;stroke-width:1.5;"/>
   </g>
   <g id="patch_53">
    <path d="M 72 384.48 
L 72 51.84 
" style="fill:none;stroke:#000000;stroke-linecap:square;stroke-linejoin:miter;stroke-width:0.8;"/>
   </g>
   <g id="patch_54">
    <path d="M 518.4 384.48 
L 518.4 51.84 
" style="fill:none;stroke:#000000;stroke-linecap:square;stroke-linejoin:miter;stroke-width:0.8;"/>
   </g>
   <g id="patch_55">
    <path d="M 72 384.48 
L 518.4 384.48 
" style="fill:none;stroke:#000000;stroke-linecap:square;stroke-linejoin:miter;stroke-width:0.8;"/>
   </g>
   <g id="patch_56">
    <path d="M 72 51.84 
L 518.4 51.84 
" style="fill:none;stroke:#000000;stroke-linecap:square;stroke-linejoin:miter;stroke-width:0.8;"/>
   </g>
   <g id="text_15">
    <!-- Speed distribution no wall interaction -->
    <defs>
     <path d="M 18.3125 70.21875 
L 18.3125 54.6875 
L 36.8125 54.6875 
L 36.8125 47.703125 
L 18.3125 47.703125 
L 18.3125 18.015625 
Q 18.3125 11.328125 20.140625 9.421875 
Q 21.96875 7.515625 27.59375 7.515625 
L 36.8125 7.515625 
L 36.8125 0 
L 27.59375 0 
Q 17.1875 0 13.234375 3.875 
Q 9.28125 7.765625 9.28125 18.015625 
L 9.28125 47.703125 
L 2.6875 47.703125 
L 2.6875 54.6875 
L 9.28125 54.6875 
L 9.28125 70.21875 
z
" id="DejaVuSans-116"/>
     <path d="M 41.109375 46.296875 
Q 39.59375 47.171875 37.8125 47.578125 
Q 36.03125 48 33.890625 48 
Q 26.265625 48 22.1875 43.046875 
Q 18.109375 38.09375 18.109375 28.8125 
L 18.109375 0 
L 9.078125 0 
L 9.078125 54.6875 
L 18.109375 54.6875 
L 18.109375 46.1875 
Q 20.953125 51.171875 25.484375 53.578125 
Q 30.03125 56 36.53125 56 
Q 37.453125 56 38.578125 55.875 
Q 39.703125 55.765625 41.0625 55.515625 
z
" id="DejaVuSans-114"/>
     <path d="M 48.6875 27.296875 
Q 48.6875 37.203125 44.609375 42.84375 
Q 40.53125 48.484375 33.40625 48.484375 
Q 26.265625 48.484375 22.1875 42.84375 
Q 18.109375 37.203125 18.109375 27.296875 
Q 18.109375 17.390625 22.1875 11.75 
Q 26.265625 6.109375 33.40625 6.109375 
Q 40.53125 6.109375 44.609375 11.75 
Q 48.6875 17.390625 48.6875 27.296875 
z
M 18.109375 46.390625 
Q 20.953125 51.265625 25.265625 53.625 
Q 29.59375 56 35.59375 56 
Q 45.5625 56 51.78125 48.09375 
Q 58.015625 40.1875 58.015625 27.296875 
Q 58.015625 14.40625 51.78125 6.484375 
Q 45.5625 -1.421875 35.59375 -1.421875 
Q 29.59375 -1.421875 25.265625 0.953125 
Q 20.953125 3.328125 18.109375 8.203125 
L 18.109375 0 
L 9.078125 0 
L 9.078125 75.984375 
L 18.109375 75.984375 
z
" id="DejaVuSans-98"/>
     <path d="M 8.5 21.578125 
L 8.5 54.6875 
L 17.484375 54.6875 
L 17.484375 21.921875 
Q 17.484375 14.15625 20.5 10.265625 
Q 23.53125 6.390625 29.59375 6.390625 
Q 36.859375 6.390625 41.078125 11.03125 
Q 45.3125 15.671875 45.3125 23.6875 
L 45.3125 54.6875 
L 54.296875 54.6875 
L 54.296875 0 
L 45.3125 0 
L 45.3125 8.40625 
Q 42.046875 3.421875 37.71875 1 
Q 33.40625 -1.421875 27.6875 -1.421875 
Q 18.265625 -1.421875 13.375 4.4375 
Q 8.5 10.296875 8.5 21.578125 
z
M 31.109375 56 
z
" id="DejaVuSans-117"/>
     <path d="M 30.609375 48.390625 
Q 23.390625 48.390625 19.1875 42.75 
Q 14.984375 37.109375 14.984375 27.296875 
Q 14.984375 17.484375 19.15625 11.84375 
Q 23.34375 6.203125 30.609375 6.203125 
Q 37.796875 6.203125 41.984375 11.859375 
Q 46.1875 17.53125 46.1875 27.296875 
Q 46.1875 37.015625 41.984375 42.703125 
Q 37.796875 48.390625 30.609375 48.390625 
z
M 30.609375 56 
Q 42.328125 56 49.015625 48.375 
Q 55.71875 40.765625 55.71875 27.296875 
Q 55.71875 13.875 49.015625 6.21875 
Q 42.328125 -1.421875 30.609375 -1.421875 
Q 18.84375 -1.421875 12.171875 6.21875 
Q 5.515625 13.875 5.515625 27.296875 
Q 5.515625 40.765625 12.171875 48.375 
Q 18.84375 56 30.609375 56 
z
" id="DejaVuSans-111"/>
     <path d="M 34.28125 27.484375 
Q 23.390625 27.484375 19.1875 25 
Q 14.984375 22.515625 14.984375 16.5 
Q 14.984375 11.71875 18.140625 8.90625 
Q 21.296875 6.109375 26.703125 6.109375 
Q 34.1875 6.109375 38.703125 11.40625 
Q 43.21875 16.703125 43.21875 25.484375 
L 43.21875 27.484375 
z
M 52.203125 31.203125 
L 52.203125 0 
L 43.21875 0 
L 43.21875 8.296875 
Q 40.140625 3.328125 35.546875 0.953125 
Q 30.953125 -1.421875 24.3125 -1.421875 
Q 15.921875 -1.421875 10.953125 3.296875 
Q 6 8.015625 6 15.921875 
Q 6 25.140625 12.171875 29.828125 
Q 18.359375 34.515625 30.609375 34.515625 
L 43.21875 34.515625 
L 43.21875 35.40625 
Q 43.21875 41.609375 39.140625 45 
Q 35.0625 48.390625 27.6875 48.390625 
Q 23 48.390625 18.546875 47.265625 
Q 14.109375 46.140625 10.015625 43.890625 
L 10.015625 52.203125 
Q 14.9375 54.109375 19.578125 55.046875 
Q 24.21875 56 28.609375 56 
Q 40.484375 56 46.34375 49.84375 
Q 52.203125 43.703125 52.203125 31.203125 
z
" id="DejaVuSans-97"/>
     <path d="M 9.421875 75.984375 
L 18.40625 75.984375 
L 18.40625 0 
L 9.421875 0 
z
" id="DejaVuSans-108"/>
     <path d="M 48.78125 52.59375 
L 48.78125 44.1875 
Q 44.96875 46.296875 41.140625 47.34375 
Q 37.3125 48.390625 33.40625 48.390625 
Q 24.65625 48.390625 19.8125 42.84375 
Q 14.984375 37.3125 14.984375 27.296875 
Q 14.984375 17.28125 19.8125 11.734375 
Q 24.65625 6.203125 33.40625 6.203125 
Q 37.3125 6.203125 41.140625 7.25 
Q 44.96875 8.296875 48.78125 10.40625 
L 48.78125 2.09375 
Q 45.015625 0.34375 40.984375 -0.53125 
Q 36.96875 -1.421875 32.421875 -1.421875 
Q 20.0625 -1.421875 12.78125 6.34375 
Q 5.515625 14.109375 5.515625 27.296875 
Q 5.515625 40.671875 12.859375 48.328125 
Q 20.21875 56 33.015625 56 
Q 37.15625 56 41.109375 55.140625 
Q 45.0625 54.296875 48.78125 52.59375 
z
" id="DejaVuSans-99"/>
    </defs>
    <g transform="translate(137.742 45.84)scale(0.168 -0.168)">
     <use xlink:href="#DejaVuSans-83"/>
     <use x="63.476562" xlink:href="#DejaVuSans-112"/>
     <use x="126.953125" xlink:href="#DejaVuSans-101"/>
     <use x="188.476562" xlink:href="#DejaVuSans-101"/>
     <use x="250" xlink:href="#DejaVuSans-100"/>
     <use x="313.476562" xlink:href="#DejaVuSans-32"/>
     <use x="345.263672" xlink:href="#DejaVuSans-100"/>
     <use x="408.740234" xlink:href="#DejaVuSans-105"/>
     <use x="436.523438" xlink:href="#DejaVuSans-115"/>
     <use x="488.623047" xlink:href="#DejaVuSans-116"/>
     <use x="527.832031" xlink:href="#DejaVuSans-114"/>
     <use x="568.945312" xlink:href="#DejaVuSans-105"/>
     <use x="596.728516" xlink:href="#DejaVuSans-98"/>
     <use x="660.205078" xlink:href="#DejaVuSans-117"/>
     <use x="723.583984" xlink:href="#DejaVuSans-116"/>
     <use x="762.792969" xlink:href="#DejaVuSans-105"/>
     <use x="790.576172" xlink:href="#DejaVuSans-111"/>
     <use x="851.757812" xlink:href="#DejaVuSans-110"/>
     <use x="915.136719" xlink:href="#DejaVuSans-32"/>
     <use x="946.923828" xlink:href="#DejaVuSans-110"/>
     <use x="1010.302734" xlink:href="#DejaVuSans-111"/>
     <use x="1071.484375" xlink:href="#DejaVuSans-32"/>
     <use x="1103.271484" xlink:href="#DejaVuSans-119"/>
     <use x="1185.058594" xlink:href="#DejaVuSans-97"/>
     <use x="1246.337891" xlink:href="#DejaVuSans-108"/>
     <use x="1274.121094" xlink:href="#DejaVuSans-108"/>
     <use x="1301.904297" xlink:href="#DejaVuSans-32"/>
     <use x="1333.691406" xlink:href="#DejaVuSans-105"/>
     <use x="1361.474609" xlink:href="#DejaVuSans-110"/>
     <use x="1424.853516" xlink:href="#DejaVuSans-116"/>
     <use x="1464.0625" xlink:href="#DejaVuSans-101"/>
     <use x="1525.585938" xlink:href="#DejaVuSans-114"/>
     <use x="1566.699219" xlink:href="#DejaVuSans-97"/>
     <use x="1627.978516" xlink:href="#DejaVuSans-99"/>
     <use x="1682.958984" xlink:href="#DejaVuSans-116"/>
     <use x="1722.167969" xlink:href="#DejaVuSans-105"/>
     <use x="1749.951172" xlink:href="#DejaVuSans-111"/>
     <use x="1811.132812" xlink:href="#DejaVuSans-110"/>
    </g>
   </g>
   <g id="legend_1">
    <g id="patch_57">
     <path d="M 350.02375 83.589375 
L 508.6 83.589375 
Q 511.4 83.589375 511.4 80.789375 
L 511.4 61.64 
Q 511.4 58.84 508.6 58.84 
L 350.02375 58.84 
Q 347.22375 58.84 347.22375 61.64 
L 347.22375 80.789375 
Q 347.22375 83.589375 350.02375 83.589375 
z
" style="fill:#ffffff;opacity:0.8;stroke:#cccccc;stroke-linejoin:miter;"/>
    </g>
    <g id="patch_58">
     <path d="M 352.82375 75.077812 
L 380.82375 75.077812 
L 380.82375 65.277812 
L 352.82375 65.277812 
z
" style="fill:#6495ed;opacity:0.4;"/>
    </g>
    <g id="text_16">
     <!-- away from walls -->
     <defs>
      <path d="M 32.171875 -5.078125 
Q 28.375 -14.84375 24.75 -17.8125 
Q 21.140625 -20.796875 15.09375 -20.796875 
L 7.90625 -20.796875 
L 7.90625 -13.28125 
L 13.1875 -13.28125 
Q 16.890625 -13.28125 18.9375 -11.515625 
Q 21 -9.765625 23.484375 -3.21875 
L 25.09375 0.875 
L 2.984375 54.6875 
L 12.5 54.6875 
L 29.59375 11.921875 
L 46.6875 54.6875 
L 56.203125 54.6875 
z
" id="DejaVuSans-121"/>
      <path d="M 37.109375 75.984375 
L 37.109375 68.5 
L 28.515625 68.5 
Q 23.6875 68.5 21.796875 66.546875 
Q 19.921875 64.59375 19.921875 59.515625 
L 19.921875 54.6875 
L 34.71875 54.6875 
L 34.71875 47.703125 
L 19.921875 47.703125 
L 19.921875 0 
L 10.890625 0 
L 10.890625 47.703125 
L 2.296875 47.703125 
L 2.296875 54.6875 
L 10.890625 54.6875 
L 10.890625 58.5 
Q 10.890625 67.625 15.140625 71.796875 
Q 19.390625 75.984375 28.609375 75.984375 
z
" id="DejaVuSans-102"/>
     </defs>
     <g transform="translate(392.02375 75.077812)scale(0.14 -0.14)">
      <use xlink:href="#DejaVuSans-97"/>
      <use x="61.279297" xlink:href="#DejaVuSans-119"/>
      <use x="143.066406" xlink:href="#DejaVuSans-97"/>
      <use x="204.345703" xlink:href="#DejaVuSans-121"/>
      <use x="263.525391" xlink:href="#DejaVuSans-32"/>
      <use x="295.3125" xlink:href="#DejaVuSans-102"/>
      <use x="330.517578" xlink:href="#DejaVuSans-114"/>
      <use x="371.599609" xlink:href="#DejaVuSans-111"/>
      <use x="432.78125" xlink:href="#DejaVuSans-109"/>
      <use x="530.193359" xlink:href="#DejaVuSans-32"/>
      <use x="561.980469" xlink:href="#DejaVuSans-119"/>
      <use x="643.767578" xlink:href="#DejaVuSans-97"/>
      <use x="705.046875" xlink:href="#DejaVuSans-108"/>
      <use x="732.830078" xlink:href="#DejaVuSans-108"/>
      <use x="760.613281" xlink:href="#DejaVuSans-115"/>
     </g>
    </g>
   </g>
  </g>
 </g>
 <defs>
  <clipPath id="p90ed1c41d3">
   <rect height="332.64" width="446.4" x="72" y="51.84"/>
  </clipPath>
 </defs>
</svg>
